<?xml version="1.0" encoding="UTF-8" standalone="no"?>
<svg width="20px" height="20px" viewBox="0 0 20 20" version="1.1" xmlns="http://www.w3.org/2000/svg" xmlns:xlink="http://www.w3.org/1999/xlink" xmlns:sketch="http://www.bohemiancoding.com/sketch/ns">
    <!-- Generator: Sketch 3.0.3 (7891) - http://www.bohemiancoding.com/sketch -->
    <title>games</title>
    <desc>Created with Sketch.</desc>
    <defs></defs>
    <g id="Page-1" stroke="none" stroke-width="1" fill="none" fill-rule="evenodd" sketch:type="MSPage">
        <g id="Icons-AV" sketch:type="MSLayerGroup" transform="translate(-126.000000, -1.000000)" fill="#000000">
            <g id="games" transform="translate(126.000000, 1.000000)" sketch:type="MSShapeGroup">
                <path d="M13,5.5 L13,0 L7,0 L7,5.5 L10,8.5 L13,5.5 L13,5.5 Z M5.5,7 L0,7 L0,13 L5.5,13 L8.5,10 L5.5,7 L5.5,7 Z M7,14.5 L7,20 L13,20 L13,14.5 L10,11.5 L7,14.5 L7,14.5 Z M14.5,7 L11.5,10 L14.5,13 L20,13 L20,7 L14.5,7 L14.5,7 Z" id="Shape"></path>
            </g>
        </g>
    </g>
</svg>