<?xml version="1.0" encoding="UTF-8" standalone="no"?>
<svg width="20px" height="16px" viewBox="0 0 20 16" version="1.1" xmlns="http://www.w3.org/2000/svg" xmlns:xlink="http://www.w3.org/1999/xlink" xmlns:sketch="http://www.bohemiancoding.com/sketch/ns">
    <!-- Generator: Sketch 3.0.3 (7891) - http://www.bohemiancoding.com/sketch -->
    <title>movie</title>
    <desc>Created with Sketch.</desc>
    <defs></defs>
    <g id="Page-1" stroke="none" stroke-width="1" fill="none" fill-rule="evenodd" sketch:type="MSPage">
        <g id="Icons-AV" sketch:type="MSLayerGroup" transform="translate(-126.000000, -45.000000)" fill="#000000">
            <g id="movie" transform="translate(126.000000, 45.000000)" sketch:type="MSShapeGroup">
                <path d="M16,0 L18,4 L15,4 L13,0 L11,0 L13,4 L10,4 L8,0 L6,0 L8,4 L5,4 L3,0 L2,0 C0.9,0 0,0.9 0,2 L0,14 C0,15.1 0.9,16 2,16 L18,16 C19.1,16 20,15.1 20,14 L20,0 L16,0 L16,0 Z" id="Shape"></path>
            </g>
        </g>
    </g>
</svg>