<?xml version="1.0" encoding="UTF-8" standalone="no"?>
<svg width="20px" height="18px" viewBox="0 0 20 18" version="1.1" xmlns="http://www.w3.org/2000/svg" xmlns:xlink="http://www.w3.org/1999/xlink" xmlns:sketch="http://www.bohemiancoding.com/sketch/ns">
    <!-- Generator: Sketch 3.0.3 (7891) - http://www.bohemiancoding.com/sketch -->
    <title>news</title>
    <desc>Created with Sketch.</desc>
    <defs></defs>
    <g id="Page-1" stroke="none" stroke-width="1" fill="none" fill-rule="evenodd" sketch:type="MSPage">
        <g id="Icons-AV" sketch:type="MSLayerGroup" transform="translate(-168.000000, -44.000000)" fill="#000000">
            <g id="news" transform="translate(168.000000, 44.000000)" sketch:type="MSShapeGroup">
                <path d="M18.3,1.7 L16.7,0 L15,1.7 L13.3,0 L11.6,1.7 L10,0 L8.3,1.7 L6.7,0 L5,1.7 L3.3,0 L1.7,1.7 L0,0 L0,16 C0,17.1 0.9,18 2,18 L18,18 C19.1,18 20,17.1 20,16 L20,0 L18.3,1.7 L18.3,1.7 Z M10,16 L2,16 L2,9 L10,9 L10,16 L10,16 Z M18,16 L11,16 L11,15 L18,15 L18,16 L18,16 Z M18,14 L11,14 L11,13 L18,13 L18,14 L18,14 Z M18,12 L11,12 L11,11 L18,11 L18,12 L18,12 Z M18,10 L11,10 L11,9 L18,9 L18,10 L18,10 Z M18,8 L2,8 L2,5 L18,5 L18,8 L18,8 Z" id="Shape"></path>
            </g>
        </g>
    </g>
</svg>