<?xml version="1.0" encoding="UTF-8" standalone="no"?>
<svg width="14px" height="22px" viewBox="0 0 14 22" version="1.1" xmlns="http://www.w3.org/2000/svg" xmlns:xlink="http://www.w3.org/1999/xlink" xmlns:sketch="http://www.bohemiancoding.com/sketch/ns">
    <!-- Generator: Sketch 3.0.3 (7891) - http://www.bohemiancoding.com/sketch -->
    <title>adb</title>
    <desc>Created with Sketch.</desc>
    <defs></defs>
    <g id="Page-1" stroke="none" stroke-width="1" fill="none" fill-rule="evenodd" sketch:type="MSPage">
        <g id="Icons-Notifications" sketch:type="MSLayerGroup" transform="translate(-5.000000, 0.000000)" fill="#000000">
            <g id="adb" transform="translate(5.000000, 0.000000)" sketch:type="MSShapeGroup">
                <path d="M0,15 C0,18.9 3.1,22 7,22 C10.9,22 14,18.9 14,15 L14,11 L0,11 L0,15 L0,15 Z M11.1,3.4 L13.2,1.3 L12.4,0.5 L10.1,2.8 C9.2,2.3 8.1,2 7,2 C5.9,2 4.8,2.3 3.9,2.7 L1.6,0.4 L0.8,1.3 L2.9,3.4 C1.1,4.6 0,6.7 0,9 L0,10 L14,10 L14,9 C14,6.7 12.9,4.6 11.1,3.4 L11.1,3.4 Z M4,8 C3.4,8 3,7.6 3,7 C3,6.4 3.4,6 4,6 C4.6,6 5,6.4 5,7 C5,7.6 4.6,8 4,8 L4,8 Z M10,8 C9.4,8 9,7.6 9,7 C9,6.4 9.4,6 10,6 C10.6,6 11,6.4 11,7 C11,7.6 10.6,8 10,8 L10,8 Z" id="Shape"></path>
            </g>
        </g>
    </g>
</svg>