<?xml version="1.0" encoding="UTF-8" standalone="no"?>
<svg width="18px" height="20px" viewBox="0 0 18 20" version="1.1" xmlns="http://www.w3.org/2000/svg" xmlns:xlink="http://www.w3.org/1999/xlink" xmlns:sketch="http://www.bohemiancoding.com/sketch/ns">
    <!-- Generator: Sketch 3.0.3 (7891) - http://www.bohemiancoding.com/sketch -->
    <title>bluetooth-audio</title>
    <desc>Created with Sketch.</desc>
    <defs></defs>
    <g id="Page-1" stroke="none" stroke-width="1" fill="none" fill-rule="evenodd" sketch:type="MSPage">
        <g id="Icons-Notifications" sketch:type="MSLayerGroup" transform="translate(-87.000000, -1.000000)" fill="#000000">
            <g id="bluetooth-audio" transform="translate(87.000000, 1.000000)" sketch:type="MSShapeGroup">
                <path d="M11.2,10 L13.5,12.3 C13.8,11.6 13.9,10.8 13.9,10 C13.9,9.2 13.7,8.4 13.5,7.7 L11.2,10 L11.2,10 Z M16.5,4.7 L15.3,6 C15.9,7.2 16.3,8.6 16.3,10 C16.3,11.4 15.9,12.8 15.3,14 L16.5,15.2 C17.5,13.7 18,11.8 18,9.9 C18,8 17.5,6.2 16.5,4.7 L16.5,4.7 Z M12.7,5.7 L7,0 L6,0 L6,7.6 L1.4,3 L0,4.4 L5.6,10 L0,15.6 L1.4,17 L6,12.4 L6,20 L7,20 L12.7,14.3 L8.4,10 L12.7,5.7 L12.7,5.7 Z M8,3.8 L9.9,5.7 L8,7.6 L8,3.8 L8,3.8 Z M9.9,14.3 L8,16.2 L8,12.4 L9.9,14.3 L9.9,14.3 Z" id="Shape"></path>
            </g>
        </g>
    </g>
</svg>