<?xml version="1.0" encoding="UTF-8" standalone="no"?>
<svg width="25px" height="18px" viewBox="0 0 25 18" version="1.1" xmlns="http://www.w3.org/2000/svg" xmlns:xlink="http://www.w3.org/1999/xlink" xmlns:sketch="http://www.bohemiancoding.com/sketch/ns">
    <!-- Generator: Sketch 3.0.3 (7891) - http://www.bohemiancoding.com/sketch -->
    <title>phone-missed</title>
    <desc>Created with Sketch.</desc>
    <defs></defs>
    <g id="Page-1" stroke="none" stroke-width="1" fill="none" fill-rule="evenodd" sketch:type="MSPage">
        <g id="Icons-Notifications" sketch:type="MSLayerGroup" transform="translate(-168.000000, -86.000000)" fill="#000000">
            <g id="phone-missed" transform="translate(168.000000, 86.000000)" sketch:type="MSShapeGroup">
                <path d="M6.5,2.5 L12,8 L19,1 L18,0 L12,6 L7.5,1.5 L11,1.5 L11,0 L5,0 L5,6 L6.5,6 L6.5,2.5 L6.5,2.5 Z M23.7,13.7 C20.7,10.8 16.5,9 12,9 C7.5,9 3.3,10.8 0.3,13.7 C0.1,13.9 0,14.1 0,14.4 C0,14.7 0.1,14.9 0.3,15.1 L2.8,17.6 C3,17.8 3.2,17.9 3.5,17.9 C3.8,17.9 4,17.8 4.2,17.6 C5,16.9 5.9,16.2 6.9,15.7 C7.2,15.5 7.5,15.2 7.5,14.8 L7.5,11.7 C8.9,11.2 10.5,11 12.1,11 C13.7,11 15.3,11.3 16.7,11.7 L16.7,14.8 C16.7,15.2 16.9,15.5 17.3,15.7 C18.3,16.2 19.2,16.8 20,17.6 C20.2,17.8 20.4,17.9 20.7,17.9 C21,17.9 21.2,17.8 21.4,17.6 L23.9,15.1 C24.1,14.9 24.2,14.7 24.2,14.4 C24.2,14.1 23.9,13.9 23.7,13.7 L23.7,13.7 Z" id="Shape"></path>
            </g>
        </g>
    </g>
</svg>