<?xml version="1.0" encoding="UTF-8" standalone="no"?>
<svg width="18px" height="20px" viewBox="0 0 18 20" version="1.1" xmlns="http://www.w3.org/2000/svg" xmlns:xlink="http://www.w3.org/1999/xlink" xmlns:sketch="http://www.bohemiancoding.com/sketch/ns">
    <!-- Generator: Sketch 3.0.3 (7891) - http://www.bohemiancoding.com/sketch -->
    <title>phone-locked</title>
    <desc>Created with Sketch.</desc>
    <defs></defs>
    <g id="Page-1" stroke="none" stroke-width="1" fill="none" fill-rule="evenodd" sketch:type="MSPage">
        <g id="Icons-Notifications" sketch:type="MSLayerGroup" transform="translate(-129.000000, -85.000000)" fill="#000000">
            <g id="phone-locked" transform="translate(129.000000, 85.000000)" sketch:type="MSShapeGroup">
                <path d="M17,14.5 C15.8,14.5 14.6,14.3 13.4,13.9 C13.1,13.8 12.7,13.9 12.4,14.1 L10.2,16.3 C7.4,14.9 5.1,12.5 3.6,9.7 L5.8,7.5 C6.1,7.2 6.2,6.8 6,6.5 C5.7,5.4 5.5,4.2 5.5,3 C5.5,2.4 5.1,2 4.5,2 L1,2 C0.4,2 0,2.4 0,3 C0,12.4 7.6,20 17,20 C17.6,20 18,19.6 18,19 L18,15.5 C18,14.9 17.6,14.5 17,14.5 L17,14.5 Z M17,3 L17,2.5 C17,1.1 15.9,0 14.5,0 C13.1,0 12,1.1 12,2.5 L12,3 C11.4,3 11,3.4 11,4 L11,8 C11,8.6 11.4,9 12,9 L17,9 C17.6,9 18,8.6 18,8 L18,4 C18,3.4 17.6,3 17,3 L17,3 Z M16.2,3 L12.8,3 L12.8,2.5 C12.8,1.6 13.6,0.8 14.5,0.8 C15.4,0.8 16.2,1.6 16.2,2.5 L16.2,3 L16.2,3 Z" id="Shape"></path>
            </g>
        </g>
    </g>
</svg>