<?xml version="1.0" encoding="UTF-8" standalone="no"?>
<svg width="18px" height="16px" viewBox="0 0 18 16" version="1.1" xmlns="http://www.w3.org/2000/svg" xmlns:xlink="http://www.w3.org/1999/xlink" xmlns:sketch="http://www.bohemiancoding.com/sketch/ns">
    <!-- Generator: Sketch 3.0.3 (7891) - http://www.bohemiancoding.com/sketch -->
    <title>sync-problem</title>
    <desc>Created with Sketch.</desc>
    <defs></defs>
    <g id="Page-1" stroke="none" stroke-width="1" fill="none" fill-rule="evenodd" sketch:type="MSPage">
        <g id="Icons-Notifications" sketch:type="MSLayerGroup" transform="translate(-45.000000, -171.000000)" fill="#000000">
            <g id="sync-problem" transform="translate(45.000000, 171.000000)" sketch:type="MSShapeGroup">
                <path d="M0,8 C0,10.2 0.9,12.2 2.4,13.6 L0,16 L6,16 L6,10 L3.8,12.2 C2.7,11.2 2,9.7 2,8 C2,5.4 3.7,3.2 6,2.3 L6,0.3 C2.6,1.2 0,4.3 0,8 L0,8 Z M8,13 L10,13 L10,11 L8,11 L8,13 L8,13 Z M18,0 L12,0 L12,6 L14.2,3.8 C15.3,4.8 16,6.3 16,8 C16,10.6 14.3,12.8 12,13.7 L12,15.8 C15.4,14.9 18,11.8 18,8.1 C18,5.9 17.1,3.9 15.6,2.5 L18,0 L18,0 Z M8,9 L10,9 L10,3 L8,3 L8,9 L8,9 Z" id="Shape"></path>
            </g>
        </g>
    </g>
</svg>