<?xml version="1.0" encoding="UTF-8" standalone="no"?>
<svg width="14px" height="22px" viewBox="0 0 14 22" version="1.1" xmlns="http://www.w3.org/2000/svg" xmlns:xlink="http://www.w3.org/1999/xlink" xmlns:sketch="http://www.bohemiancoding.com/sketch/ns">
    <!-- Generator: Sketch 3.0.3 (7891) - http://www.bohemiancoding.com/sketch -->
    <title>system-update</title>
    <desc>Created with Sketch.</desc>
    <defs></defs>
    <g id="Page-1" stroke="none" stroke-width="1" fill="none" fill-rule="evenodd" sketch:type="MSPage">
        <g id="Icons-Notifications" sketch:type="MSLayerGroup" transform="translate(-131.000000, -168.000000)" fill="#000000">
            <g id="system-update" transform="translate(131.000000, 168.000000)" sketch:type="MSShapeGroup">
                <path d="M12,0 L2,0 C0.9,0 0,0.9 0,2 L0,20 C0,21.1 0.9,22 2,22 L12,22 C13.1,22 14,21.1 14,20 L14,2 C14,0.9 13.1,0 12,0 L12,0 Z M12,18 L2,18 L2,4 L12,4 L12,18 L12,18 Z M11,12 L8,12 L8,7 L6,7 L6,12 L3,12 L7,16 L11,12 L11,12 Z" id="Shape"></path>
            </g>
        </g>
    </g>
</svg>