<?xml version="1.0" encoding="UTF-8" standalone="no"?>
<svg width="19px" height="22px" viewBox="0 0 19 22" version="1.1" xmlns="http://www.w3.org/2000/svg" xmlns:xlink="http://www.w3.org/1999/xlink" xmlns:sketch="http://www.bohemiancoding.com/sketch/ns">
    <!-- Generator: Sketch 3.0.3 (7891) - http://www.bohemiancoding.com/sketch -->
    <title>tap-and-play</title>
    <desc>Created with Sketch.</desc>
    <defs></defs>
    <g id="Page-1" stroke="none" stroke-width="1" fill="none" fill-rule="evenodd" sketch:type="MSPage">
        <g id="Icons-Notifications" sketch:type="MSLayerGroup" transform="translate(-171.000000, -168.000000)" fill="#000000">
            <g id="tap-and-play" transform="translate(171.500000, 168.000000)" sketch:type="MSShapeGroup">
                <path d="M0,15 L0,17 C2.8,17 5,19.2 5,22 L7,22 C7,18.1 3.9,15 0,15 L0,15 Z M0,19 L0,22 L3,22 C3,20.3 1.7,19 0,19 L0,19 Z M0,11 L0,13 C5,13 9,17 9,22 L11,22 C11,15.9 6.1,11 0,11 L0,11 Z M15,0 L5,0 C3.9,0 3,0.9 3,2 L3,9.4 C3.7,9.6 4.4,9.8 5,10 L5,4 L15,4 L15,17 L12,17 C12.5,18.2 12.8,19.6 12.9,21 L15,21 C16.1,21 17,20.1 17,19 L17,2 C17,0.9 16.1,0 15,0 L15,0 Z" id="Shape"></path>
            </g>
        </g>
    </g>
</svg>