<?xml version="1.0" encoding="UTF-8" standalone="no"?>
<svg width="24px" height="18px" viewBox="0 0 24 18" version="1.1" xmlns="http://www.w3.org/2000/svg" xmlns:xlink="http://www.w3.org/1999/xlink" xmlns:sketch="http://www.bohemiancoding.com/sketch/ns">
    <!-- Generator: Sketch 3.0.3 (7891) - http://www.bohemiancoding.com/sketch -->
    <title>vibration</title>
    <desc>Created with Sketch.</desc>
    <defs></defs>
    <g id="Page-1" stroke="none" stroke-width="1" fill="none" fill-rule="evenodd" sketch:type="MSPage">
        <g id="Icons-Notifications" sketch:type="MSLayerGroup" transform="translate(0.000000, -212.000000)" fill="#000000">
            <g id="vibration" transform="translate(0.000000, 212.000000)" sketch:type="MSShapeGroup">
                <path d="M0,12 L2,12 L2,6 L0,6 L0,12 L0,12 Z M3,14 L5,14 L5,4 L3,4 L3,14 L3,14 Z M22,6 L22,12 L24,12 L24,6 L22,6 L22,6 Z M19,14 L21,14 L21,4 L19,4 L19,14 L19,14 Z M16.5,0 L7.5,0 C6.7,0 6,0.7 6,1.5 L6,16.5 C6,17.3 6.7,18 7.5,18 L16.5,18 C17.3,18 18,17.3 18,16.5 L18,1.5 C18,0.7 17.3,0 16.5,0 L16.5,0 Z M16,16 L8,16 L8,2 L16,2 L16,16 L16,16 Z" id="Shape"></path>
            </g>
        </g>
    </g>
</svg>