<?xml version="1.0" encoding="UTF-8" standalone="no"?>
<svg width="21px" height="20px" viewBox="0 0 21 20" version="1.1" xmlns="http://www.w3.org/2000/svg" xmlns:xlink="http://www.w3.org/1999/xlink" xmlns:sketch="http://www.bohemiancoding.com/sketch/ns">
    <!-- Generator: Sketch 3.0.3 (7891) - http://www.bohemiancoding.com/sketch -->
    <title>airplanemode-off</title>
    <desc>Created with Sketch.</desc>
    <defs></defs>
    <g id="Page-1" stroke="none" stroke-width="1" fill="none" fill-rule="evenodd" sketch:type="MSPage">
        <g id="Icons-Device" sketch:type="MSLayerGroup" transform="translate(-128.000000, 0.000000)" fill="#000000">
            <g id="airplanemode-off" transform="translate(128.500000, 0.000000)" sketch:type="MSShapeGroup">
                <path d="M11,7 L11,1.5 C11,0.7 10.3,0 9.5,0 C8.7,0 8,0.7 8,1.5 L8,5.2 L15.8,13 L19,14 L19,12 L11,7 L11,7 Z M1,3.3 L6,8.3 L0,12 L0,14 L8,11.5 L8,17 L6,18.5 L6,20 L9.5,19 L13,20 L13,18.5 L11,17 L11,13.3 L16.7,19 L18,17.7 L2.3,2 L1,3.3 L1,3.3 Z" id="Shape"></path>
            </g>
        </g>
    </g>
</svg>