<?xml version="1.0" encoding="UTF-8" standalone="no"?>
<svg width="16px" height="22px" viewBox="0 0 16 22" version="1.1" xmlns="http://www.w3.org/2000/svg" xmlns:xlink="http://www.w3.org/1999/xlink" xmlns:sketch="http://www.bohemiancoding.com/sketch/ns">
    <!-- Generator: Sketch 3.0.3 (7891) - http://www.bohemiancoding.com/sketch -->
    <title>developer-mode</title>
    <desc>Created with Sketch.</desc>
    <defs></defs>
    <g id="Page-1" stroke="none" stroke-width="1" fill="none" fill-rule="evenodd" sketch:type="MSPage">
        <g id="Icons-Device" sketch:type="MSLayerGroup" transform="translate(-4.000000, -83.000000)" fill="#000000">
            <g id="developer-mode" transform="translate(4.000000, 83.000000)" sketch:type="MSShapeGroup">
                <path d="M3,4 L13,4 L13,6 L15,6 L15,2 C15,0.9 14.1,0 13,0 L3,0 C1.9,0 1,0.9 1,2 L1,6 L3,6 L3,4 L3,4 Z M11.4,15.6 L16,11 L11.4,6.4 L10,7.8 L13.2,11 L10,14.2 L11.4,15.6 L11.4,15.6 Z M6,14.2 L2.8,11 L6,7.8 L4.6,6.4 L0,11 L4.6,15.6 L6,14.2 L6,14.2 Z M13,18 L3,18 L3,16 L1,16 L1,20 C1,21.1 1.9,22 3,22 L13,22 C14.1,22 15,21.1 15,20 L15,16 L13,16 L13,18 L13,18 Z" id="Shape"></path>
            </g>
        </g>
    </g>
</svg>