<?xml version="1.0" encoding="UTF-8" standalone="no"?>
<svg width="22px" height="22px" viewBox="0 0 22 22" version="1.1" xmlns="http://www.w3.org/2000/svg" xmlns:xlink="http://www.w3.org/1999/xlink" xmlns:sketch="http://www.bohemiancoding.com/sketch/ns">
    <!-- Generator: Sketch 3.0.3 (7891) - http://www.bohemiancoding.com/sketch -->
    <title>location-disabled</title>
    <desc>Created with Sketch.</desc>
    <defs></defs>
    <g id="Page-1" stroke="none" stroke-width="1" fill="none" fill-rule="evenodd" sketch:type="MSPage">
        <g id="Icons-Device" sketch:type="MSLayerGroup" transform="translate(-169.000000, -83.000000)" fill="#000000">
            <g id="location-disabled" transform="translate(169.000000, 83.000000)" sketch:type="MSShapeGroup">
                <path d="M19.9,10 C19.4,5.8 16.1,2.5 12,2.1 L12,0 L10,0 L10,2.1 C8.9,2.2 7.8,2.5 6.8,3 L8.3,4.5 C9.2,4.2 10.1,4 11,4 C14.9,4 18,7.1 18,11 C18,11.9 17.8,12.8 17.5,13.7 L19,15.2 C19.5,14.2 19.8,13.2 20,12 L22,12 L22,10 L19.9,10 L19.9,10 Z M2,3.3 L4,5.3 C3,6.6 2.3,8.2 2.1,10 L0,10 L0,12 L2.1,12 C2.6,16.2 5.9,19.5 10,19.9 L10,22 L12,22 L12,19.9 C13.8,19.7 15.4,19 16.7,17.9 L18.7,19.9 L20,18.6 L3.3,2 L2,3.3 L2,3.3 Z M15.3,16.5 C14.1,17.5 12.6,18 11,18 C7.1,18 4,14.9 4,11 C4,9.4 4.5,7.9 5.5,6.7 L15.3,16.5 L15.3,16.5 Z" id="Shape"></path>
            </g>
        </g>
    </g>
</svg>