<?xml version="1.0" encoding="UTF-8" standalone="no"?>
<svg width="18px" height="23px" viewBox="0 0 18 23" version="1.1" xmlns="http://www.w3.org/2000/svg" xmlns:xlink="http://www.w3.org/1999/xlink" xmlns:sketch="http://www.bohemiancoding.com/sketch/ns">
    <!-- Generator: Sketch 3.0.3 (7891) - http://www.bohemiancoding.com/sketch -->
    <title>timer</title>
    <desc>Created with Sketch.</desc>
    <defs></defs>
    <g id="Page-1" stroke="none" stroke-width="1" fill="none" fill-rule="evenodd" sketch:type="MSPage">
        <g id="Icons-Device" sketch:type="MSLayerGroup" transform="translate(-87.000000, -209.000000)" fill="#000000">
            <g id="timer" transform="translate(87.000000, 209.500000)" sketch:type="MSShapeGroup">
                <path d="M12,0 L6,0 L6,2 L12,2 L12,0 L12,0 Z M8,13 L10,13 L10,7 L8,7 L8,13 L8,13 Z M16,6.4 L17.5,5 C17,4.5 16.5,4 16,3.6 L14.6,5 C13.1,3.8 11.1,3 9,3 C4,3 1.77635684e-15,7 1.77635684e-15,12 C1.77635684e-15,17 4,21 9,21 C14,21 18,17 18,12 C18,9.9 17.3,7.9 16,6.4 L16,6.4 Z M9,19 C5.1,19 2,15.9 2,12 C2,8.1 5.1,5 9,5 C12.9,5 16,8.1 16,12 C16,15.9 12.9,19 9,19 L9,19 Z" id="Shape"></path>
            </g>
        </g>
    </g>
</svg>