<?xml version="1.0" encoding="utf-8"?>
<!-- Generator: Adobe Illustrator 15.0.0, SVG Export Plug-In . SVG Version: 6.00 Build 0)  -->
<!DOCTYPE svg PUBLIC "-//W3C//DTD SVG 1.1//EN" "http://www.w3.org/Graphics/SVG/1.1/DTD/svg11.dtd">
<svg version="1.1" id="trace" xmlns="http://www.w3.org/2000/svg" xmlns:xlink="http://www.w3.org/1999/xlink" x="0px" y="0px"
	 width="964.002px" height="341.761px" viewBox="0 0 964.002 341.761" enable-background="new 0 0 964.002 341.761"
	 xml:space="preserve">
<g>
	<path fill-rule="evenodd" clip-rule="evenodd" d="M307.121,98.88c2.072,0.314,2.084,2.908,1.68,5.04
		c-0.561-0.079-0.992-0.289-1.44-0.48c0.38,2.26,3.217,2.062,4.32,3.6c0.544,3.29,3.604,4.653,3.12,7.68
		c2.479,1.841,3.39,5.25,5.28,7.68c-0.84,4.019,4.237,4.994,0.96,7.92c-0.021,1.15,2.026,1.211,1.2,2.4
		c-0.986,0.866-0.821-0.957-1.92-0.72c-0.441,0.803,1.171,1.299,1.2,2.4c0.917,0.197,0.283-1.157,1.2-0.96
		c1.294,0.146,1.74,1.14,1.68,2.64c-1.629,0.27-2.204-0.516-3.12-0.96c0.273,1.407,1.873,1.487,3.12,1.92c0,0.8,0,1.6,0,2.4
		c1.625,1.255,1.077,4.684,2.64,6c-1.432,1.103-0.217,2.847,0.72,3.6c-1.184,1.191-0.804,3.191-1.68,5.04
		c-3.125,0.155-5.271,1.289-6,3.84c1.822-0.658,2.893-2.067,4.32-3.12c1.045-0.245,1.104,0.497,1.68,0.72
		c1.117-0.584,1.943-2.843,3.6-1.44c-0.066,2.494-3.022,2.098-3.6,4.08c0.65,0.634,1.24-0.828,2.4-0.48
		c1.831,2.092-0.081,2.668-1.68,4.08c-11.863,10.474-23.563,22.004-34.56,33.84c-1.702,1.831-3.57,3.81-5.52,5.76
		c-1.965,1.965-3.729,4.574-5.52,5.76c-1.325,0.878-2.932,1.092-4.08,1.681c-3.468,1.777-6.119,5.158-9.12,8.159
		c-3.853,3.853-8.064,7.241-12.24,10.561c-0.602,0.041-0.583-0.537-0.96-0.72c-1.382,1.785-2.918,4.263-6,3.6
		c-0.708,1.293-1.949,2.052-3.6,2.4c-0.144-0.428,0.703-0.997,0-1.2c-1.274-0.153-1.025,1.215-1.68,1.68
		c-1.979,0.501-3.894,1.066-6.24,1.2c0.991-9.27,6.64-16.643,11.52-23.76c2.448-3.571,3.888-7.606,6.48-11.04
		c7.392-9.792,14.992-20.205,23.04-29.76c2.688-3.191,5.621-6.179,8.16-9.36c2.645-3.314,4.6-7.058,7.2-10.32
		c2.483-3.116,9.568-8.616,3.12-12.72c0.058-0.422,0.413-0.547,0.96-0.48c-0.556-1.364-2.219-1.621-3.6-2.16
		c-0.73,0.07-0.331,1.269-0.96,1.44c-5.637-0.14-8.036,5.546-11.52,9.12c-2.68,2.749-5.353,5.169-7.92,8.16
		c-4.696,5.47-9.769,11.808-15.12,16.8c-2.722,2.538-5.977,4.305-9.12,6.72c-2.228,1.712-4.197,4.477-6.24,6.721
		c-8.195,9-17.085,16.411-27.36,24.479c-3.555,2.791-5.826,5.423-11.04,5.76c1.159-6.407,5.059-11.5,8.4-16.8
		c2.329-3.693,5.622-7.716,7.2-12.24c0.514-1.473,0.855-3.386,1.68-4.56c1.146-1.634,4.03-2.11,5.76-3.84
		c3.939-3.939,4.511-11.448,7.68-15.36c1.998-2.466,4.239-3.727,5.76-6.24c2.07-3.42,3.435-7.475,3.12-12.72
		c-9-5.521-16.845,3.02-22.56,7.2c-1.764,1.29-3.539,1.915-5.04,2.88c-2.083,1.339-3.552,3.653-5.52,5.28
		c-5.796,4.792-12.896,8.505-21.36,10.8c6.683-15.317,20.644-23.357,23.52-42.48c4.217-5.191,9.533-9.778,12-17.52
		c0.675-2.118,1.947-6.323,1.44-8.16c-0.965-3.5-10.656-4.441-14.64-3.12c-4.594,1.523-8.969,4.829-13.2,7.92
		c-8.059,5.887-14.578,12.884-23.28,18.48c-4.83,3.106-8.597,11.046-15.36,8.4c1.16-6.68,4.23-11.449,8.88-14.64
		c3.799-12.601,12.98-19.82,18.48-30.72c-0.112-0.512,0.343-0.457,0.72-0.48c1.461-6.618,4.256-11.903,4.32-19.92
		c-3.112-2.295-5.78-3.953-11.28-3.36c-5.852,0.631-10.923,6.47-17.28,6.96c-0.667,0.051-1.305-0.115-1.92,0
		c-3.083,0.576-3.873,3.134-5.52,4.56c-3.582,3.099-9.999,3.875-13.44,6.72c-1.354,1.119-2.035,3.092-3.6,4.08
		c-2.58,1.628-5.079,1.281-7.44,2.88c-1.368,0.926-2.048,2.432-3.6,3.84c-1.396,1.266-3.766,2.611-5.76,4.08
		c-2.233,1.645-4.219,3.269-6.48,4.08c-7.949,7.332-18.071,12.489-27.12,18.72c-2.934,6.071-9.324,9.514-14.16,14.16
		c-5.454,5.239-9.672,13.599-16.56,17.28c-2.543,1.359-4.579,2.422-6.96,4.32c-4.225,3.367-8.413,6.493-12.48,9.84
		c-0.341,5.764-5.606,7.801-4.32,14.4c-5.317,2.389-11.679,4.926-10.32,13.199c3.342,1.63,10.344,2.474,11.76-1.439
		c3.867-0.453,3.454-5.187,4.32-8.641c0.76-0.68,1.944-0.936,2.88-1.439c8.415-10.865,19.838-18.722,26.88-30.96
		c10.234-4.806,17.914-12.167,26.4-18.72c0.86-0.061,0.879,0.721,1.68,0.72c1.045-0.449,0.951-1.408,0.72-2.64
		c10.092-6.75,19.823-14.842,28.8-22.8c1.574-1.395,3.096-2.916,4.8-3.84c1.806-0.979,4.606-1.056,6.72-2.4
		c1.272-0.809,2.532-3.302,4.08-3.6c5.935-1.144,10.327-5.481,15.36-8.88c5.009-3.382,9.989-6.492,16.08-7.92
		c0.539,3.673-0.787,7.522-2.16,10.08c-0.342,1.153-0.982-1.149-1.92-0.96c-0.154,0.517-0.099,2.57,1.44,2.16
		c-4.317,8.628-8.769,16.567-14.4,24.48c-1.656,2.328-4.59,4.86-5.52,7.2c-0.396,0.996-0.056,2.199-0.48,3.12
		c-2.492,5.406-12.089,5.569-12.48,12.72c-9.483,10.913-17.031,23.076-25.92,34.32c-8.781,11.106-19.152,21.264-25.68,34.32
		c-0.943,0.416-1.995,0.725-2.88,1.199c0,1.04,0,2.08,0,3.12c-3.776,1.165-5.556,4.844-8.16,8.16
		c-11.742,14.954-24.604,31.015-35.52,47.04c-1.182-0.338-1.656-1.384-2.16-2.399c-0.847,0.127-1.073,0.703-1.92,0.239
		c0.548-5.507-3.068-6.852-7.2-7.68c0.93-0.51,1.291-1.589,1.68-2.64c-0.383-0.674-1.08,0.337-1.92,0
		c-0.053,0.716,0.886,0.815,0.24,1.439c-0.778-0.271-0.839-1.4-0.48-2.16c-0.796-1.214-4.033-3.867-1.2-5.04
		c0.427,0.773,0.112,2.288,0.96,2.641c1.492,0.071,1.01-2.907,0.72-3.84c-2.365-0.445-2.166,1.674-4.08,1.68
		c-0.989-0.932-1.625-2.216-1.68-4.08c1.01-0.51,2.924-0.116,4.32-0.24c1.218-0.941,1.829-2.491,2.16-4.32
		c-1.554-0.805-2.846,3.955-4.32,1.681c-0.146-0.946,1.318-0.282,1.92-0.48c-1.184-2.454-2.819,1.974-4.08,0.24
		c-0.546,0.573,0.041,2.28-1.2,2.16c-1.109-3.409-4.362-8.343,0.72-9.601c0.27-1.31-1.557-0.522-1.2-1.92
		c1.209-0.249,1.675,0.245,1.92,0.96c1.522-0.397,0.669-3.17,1.44-4.319c-0.217-0.424-0.537-0.743-0.96-0.96
		c-0.881-0.081-1.231,0.368-1.44,0.96c0.387,0.807,0.76-0.755,1.2,0c-0.023,1.096,0.194,2.435-0.48,2.88
		c-0.886-0.193-0.199-0.988,0-1.44c-2.016-1.226-4.644-1.254-6.96-1.68c0.196-0.925,0.991-1.249,1.44-1.92
		c0.848,0.112,0.88,1.04,1.2,1.68c1.504-0.181,1.768-2.247,0.72-3.12c1.113-1.42,0.051-2.584,1.44-4.08
		c-1.184-0.071-3.044,2.025-2.16,4.08c-0.762,0.438-1.286,1.114-2.64,0.96c0.302-1.262-0.46-1.459-1.2-1.68
		c-0.419-3.355-2.073-6.437-1.44-10.08c0.102-0.821-0.719-0.721-0.96-1.2c-0.148-3.028,1.295-4.465,2.88-5.76
		c-0.019-0.861-1.569-0.19-1.92-0.72c0.048-1.408-0.705-2.016-1.44-2.641c0.563-2.433-1.919-3.734-0.48-5.52
		c-0.876-1.287-2-3.334-1.92-5.04c0.02-0.414,0.758-0.219,0.96-0.96c0.166-0.608-0.819-2.156,0.48-2.16
		c0.079-1.039-1.329-0.591-1.2-1.68c0.41,0.01,0.622-0.179,0.72-0.48c-0.218-0.58-0.708,0.544-1.44,0.24
		c-0.169-1.351-1.318-1.723-2.16-2.4c0-0.479,0-0.96,0-1.439c-0.036-0.757,0.973-0.467,1.2-0.96c0.713-2.339-0.702-3.809-0.72-5.76
		c-0.026-2.859,2.633-5.12,1.2-8.161c0.073-0.887,1.02-0.9,1.44-1.44c-0.327-1.673-1.431-2.569-1.92-4.08
		c0.756-0.759,0.307,0.911,1.2,0.72c0.257-2.386-0.457-6.319,1.2-7.92c-1.002-0.203-1.133,0.466-1.92,0.48
		c0.697-2.309,2.347-4.79,1.44-7.92c-0.511-0.609-1.628-0.612-1.68-1.68c0.576-1.11,2.508-1.298,3.84-0.96
		c-0.849-3.505,1.526-5.604,1.2-9.36c0.847-0.033,1.073-0.687,1.92-0.72c-0.238-2.603,0.627-4.824-0.24-6.72
		c0.08-1.04,1.329-0.911,1.92-1.44c-0.24-1.017-0.426-2.625,0-3.6c1.67,0.676,1.257-1.857,2.88-1.92
		c0.066-1.026-0.697-1.223-1.2-1.68c1.174-0.826,1.665-2.335,3.36-2.64c-0.387-1.533-2.243-1.597-2.64-3.12
		c-0.024-1.065,1.333-0.747,1.68-1.44c0.62,0.613-0.566,2.141,0.48,2.64c1.163-0.677,3.097-0.583,3.6-1.92
		c-0.094-1.667-1.824-1.696-2.64-2.64c0.054-0.346,0.716-0.084,0.72-0.48c-0.458-0.822-1.727-0.834-1.92-1.92
		c1.018-0.982,1.864-2.136,3.84-2.16c-0.076-1.647,0.991-3.259,0.24-4.8c1.509-1.851,3.151-3.569,3.6-6.48
		c1.908,0.228,1.632-1.728,3.12-1.92c0-0.72,0-1.44,0-2.16c1.623-0.457,1.348-2.812,3.6-2.64c0.375-1.385,1.086-2.435,2.4-2.88
		c-0.929-2.789,2.641-3.916,1.68-6.72c0.759-0.04,0.802,0.638,1.68,0.48c0.403-0.83-0.196-1.59,0-2.88
		c1.555-1.213,2.573,0.295,3.84,0.72c2.288-0.516,1.295-3.243,1.92-5.04c0.569-1.636,2.25-1.892,2.88-3.12
		c0.888,0.232,0.654,1.586,1.44,1.92c0.545-0.175,0.718-0.722,0.96-1.2c-0.087-0.873-0.567-1.353-1.44-1.44
		c0.866-0.495,0.371-2.349,1.92-2.16c0.277-1.003,0.237-2.323,0.96-2.88c0.866,0.662,2.232,0.548,2.88-0.24
		c-0.483-0.397-1.457-0.304-1.68-0.96c1.012-2.668,3.113-4.248,6.48-4.56c0.316-2.203,0.936-4.978,3.6-4.08
		c0.358-0.922,1.783-0.777,1.44-2.4c1.729,1.013,1.558-1.747,3.12-1.68c0.121-1-0.702-1.059-0.48-2.16
		c2.57-0.549,3.923-2.316,5.28-4.08c0.787,0.014,0.917,0.683,1.92,0.48c0.709-2.01,2.312-3.128,4.32-3.84
		c0.41-1.29,2.218-3.127,3.6-1.92c1.27-2.09,4.135-2.585,5.28-4.8c2.937,0.296,4.083-1.197,5.28-2.64
		c0.435,0.604,1.025,1.054,1.92,1.2c0.57-0.15-0.038-1.477,0.48-1.68c1.565-0.275,3.284-0.396,4.8-0.72
		c0.882,0.638,1.226,1.814,2.4,2.16c0.67-1.17-1.503-1.304-1.68-2.4c-0.038-1.811,2.53-1.66,3.36-0.72
		c0.237-0.957-0.717-0.723-0.48-1.68c0.72,0,1.44,0,2.16,0c0.955-1.365,3.222-1.417,3.84-3.12c1.794,1.049,3.021-1.642,5.04-0.96
		c0.324-0.636,0.38-1.54,0.96-1.92c1.489,0.591,2.67,1.491,5.04,1.2c0.896-0.385,1.094-1.466,1.68-2.16
		c0.808,0.152,1.23,0.689,2.4,0.48c0.072-2.011,2.969-2.807,4.32-1.44c0.728,0.008,0.232-1.208,0.96-1.2
		c3.145,1.196,4.934-0.918,8.16-0.96c0.321,1.118,0.627,2.252,1.44,2.88c0.956-0.405,0.879-1.841,2.64-1.44
		c0.985-1.016,0.892-3.108,3.36-2.64c-0.098,1.778-0.172,3.533,1.68,3.36c1.488,0.048,0.52-2.36,2.4-1.92
		c0.795,1.158-1.118,1.353-0.96,2.64c1.887,0.566,2.292-2.102,3.36-3.12c0.697,0.311,1.704,0.311,2.4,0
		c-0.592,1.628,0.247,2.007,0.96,2.88c-1.039-0.019-1.589-0.503-1.92,0.48c2.494,2.432,3.383-2.378,3.6-4.56
		c1.701-0.059,2.31-1.21,4.32-0.96c1.59,1.474,6.147,2.919,8.64,1.2c1.12,1.505,4.515,2.696,6.48,1.2
		c0.299,0.581,0.594,1.166,0.72,1.92c1.815-1.025,2.133,1.335,3.36,1.68c1.36,0.24,0.881-1.359,1.68-1.68
		c1.592-0.072,2.816,0.224,3.36,1.2c1.393-0.527,1.944-1.896,4.08-1.68c0.615,0.425,0.695,1.385,0.96,2.16
		c1.057,0.605,3.464-0.571,4.08-0.48c0.807,0.12,1.539,1.226,2.16,1.44c2.42,0.835,6.552,1.301,7.2-0.96
		c1.01,0.51,2.143,0.897,3.84,0.72c1.371,3.909,6.388,4.172,11.04,4.8c0.45,0.458-0.143,0.435,0,1.2
		c0.809,0.574,1.024-1.104,2.16-0.96c1.049,0.792,1.659,2.021,3.84,1.68c0.493,1.587,1.967,2.193,2.4,3.84
		c1.069-0.451,2.271-0.77,3.84-0.72c1.114,1.446,2.438,2.683,5.28,2.4c1.425,1.214,2.719,2.561,5.04,2.88
		c0.068,0.708-0.038,2.236,1.68,1.92c-0.018,1.058,0.017,2.063,0.72,2.4c1.159-0.515-0.526-1.279-0.24-2.4
		c3.475,0.845,6.408,2.232,7.68,5.28c0.56,0,1.12,0,1.68,0c-0.051,2.292,1.586,2.894,2.4,4.32c1.139,0.099,1.261-0.819,2.4-0.72
		c1.165,0.355,1.327,1.713,2.16,2.4c0.252,0.893-0.81,0.471-0.96,0.96c0.892,1.29,2.483-0.225,3.36-0.48
		c0.112,0.848,0.606,1.314,0.96,1.92c0.732,0.304,1.222-0.821,1.44-0.24c0.455,0.825,0.104,2.456,0.48,3.36
		c0.757,0.687,0.683-0.913,1.44-0.96c1.767,0.631,2.844,1.059,2.4,3.12c-0.472,2.192-2.953,2.904,0,3.84
		c0.895,0.095,0.101-1.499,0.72-1.68c1.359-0.469,1.11,1.916,1.92,1.2c0.867,0.505-0.478,0.774-0.48,1.2
		c1.144,0.024,1.314-0.926,2.4-0.96c1.318,0.762,2.632,1.528,2.4,3.84c0.891,0.656,0.891-1.237,2.16-0.96
		c1.19,0.09,1.041,1.52,2.16,1.68c0.237,0.957-0.717,0.723-0.48,1.68c2.033,2.047,3.364,4.796,6.96,5.28
		c0.399,1.361,1.243,2.276,2.88,2.4c0.146,1.266-0.212,2.027-1.2,2.16c0.637,2.213,4.063,2.748,3.84,5.04
		c1.336-0.288,3.281,0.01,3.6,1.44c-1.179,0.386-0.86,2.566-2.4,1.92c-0.03,1.31,0.963,1.596,1.44,2.4
		c1.188,0.069,1.432-0.808,2.4-0.96c0.525,1.699,2.134,2.961,2.16,4.56c0.029,1.77-2.149,2.634-1.92,4.8
		c1.091,0.131,1.317-0.603,1.68-1.2c1.035,0.565,1.662,1.538,1.92,2.88c-1.064,0.564-2.18-0.627-3.12-0.96
		c-0.139,0.779,0.163,1.117,0.24,1.68c0.892,0.389,2.361,0.199,3.6,0.24c0.201,0.519,0.621,0.819,0.48,1.68
		C307.016,101.016,306.79,99.669,307.121,98.88z M211.84,25.68c0.546-1.321-2.171-2.586-3.36-2.16
		C209.306,24.535,209.82,25.861,211.84,25.68z M196.96,27.84c1.012-1.011-0.112-2.967-1.92-2.64
		C195.636,26.125,195.924,27.356,196.96,27.84z M167.2,31.92c-0.713-0.97-0.225-1.471,0-2.64c-0.669-0.547-1.186,0.242-1.92-0.24
		C165.74,30.18,165.474,32.046,167.2,31.92z M104.56,41.04c0.417,1.305,3.079,0.739,2.64-0.96
		C106.018,40.097,104.597,39.876,104.56,41.04z M180.88,45.36c0.703-0.337,1.435-0.645,2.64-0.48c-0.274-1.162,2.226-1.813,0.96-2.4
		C184.522,44.682,180.793,43.113,180.88,45.36z M246.88,49.2c0.972-1.27-0.849-1.451-0.96-2.4c0.307-0.013,0.333-0.308,0.72-0.24
		c0.513,0.287,0.298,1.302,1.44,0.96c0.082-1.202-0.915-1.326-0.72-2.64C244.901,44.65,244.396,49.125,246.88,49.2z M186.88,47.52
		c0.428,0.612,1.099,0.981,2.16,0.96c0.103-0.457,0.517-0.603,0.48-1.2C188.709,47.129,187.009,46.303,186.88,47.52z M248.8,56.88
		c1.018-0.262,0.658-1.902,2.4-1.44c-0.049-0.751,0.162-1.762-0.24-2.16c-0.24,0-0.48,0-0.72,0
		C250.515,55.125,248.092,55.381,248.8,56.88z M92.32,57.6c0.756,0.116,0.543-0.737,1.44-0.48c0.179-1.22-0.239-1.841-0.96-2.16
		C92.353,55.504,91.721,56.767,92.32,57.6z M229.121,57.6c0.862,0.801,2.556,0.881,3.36,0c-0.086-0.714-0.382-1.218-0.72-1.68
		c-1.384,0.669-1.029-0.583-2.4-0.48C228.958,55.838,229.169,56.849,229.121,57.6z M111.52,58.08c1.153-0.376,2.49-0.291,3.12,0.48
		c0.203-1.002-0.466-1.133-0.48-1.92c-0.88,0-1.76,0-2.64,0C111.52,57.12,111.52,57.6,111.52,58.08z M145.36,60.24
		c-0.044-1.876-0.547-3.293-2.64-3.12C143.233,58.527,143.491,60.19,145.36,60.24z M270.4,61.44c0.645-0.555-0.412-2.812,1.2-2.4
		c-0.192-0.833,0.357-0.922,0.24-1.68c-0.307-0.013-0.332-0.308-0.72-0.24C270.933,58.499,268.601,60.317,270.4,61.44z M186.16,61.2
		c1.482-0.122,1.887,0.833,3.12,0.96c0.069,0.73-0.038,1.638,0.72,1.68c-0.695-0.986-0.056-3.304-0.96-4.08
		c-0.101,0.459-0.087,1.033-0.72,0.96c-0.811,0.091-1.024-0.416-1.44-0.72c-0.345-0.715,0.842-1.462-0.24-1.44
		C186.018,58.977,186.154,60.154,186.16,61.2z M133.36,66.72c1.371-0.251,1.405,0.835,2.4,0.96c0-0.64,0-1.28,0-1.92
		C134.935,65.438,133.522,65.684,133.36,66.72z M263.681,70.32c1.688,0.248,1.231-1.649,1.92-2.4
		C263.996,67.755,263.922,69.122,263.681,70.32z M264.4,72.72c1.784,0.104,2.969-0.391,3.36-1.68
		C266.031,70.99,264.506,71.146,264.4,72.72z M67.84,76.8c1.024-0.336,2.365-0.355,2.16-1.92c-1.456,0.016-2.443-0.437-3.6-0.72
		C66.451,75.47,67.008,76.272,67.84,76.8z M204.641,82.08c0.55-1.388-0.176-3.043-1.68-3.12
		C202.46,80.177,203.17,82.055,204.641,82.08z M272.32,84.24c1.337-0.184,2.268-0.772,2.64-1.92c-0.378-0.022-0.188-0.612-0.72-0.48
		C274.047,83.087,272.487,82.967,272.32,84.24z M289.601,86.64c-0.103,0.457-0.517,0.603-0.48,1.2
		c1.262-0.215,3.739-1.379,2.88-2.16C291.162,85.9,290.531,87.273,289.601,86.64z M113.44,89.28c1.457,0.003,2.587,0.526,3.6-0.24
		c0.265-1.384-0.941-1.298-0.72-2.64c-0.64,0-1.28,0-1.92,0C114.727,88.006,113.708,88.268,113.44,89.28z M70.24,88.32
		c-0.09,1.05,0.766,1.154,1.44,1.44c0.584-0.616,1.565-0.835,1.68-1.92C72.369,87.209,71.664,89.336,70.24,88.32z M45.28,88.8
		c0.009,1.511,1.071,1.968,2.64,1.92c0.137-0.751,1.375-2.11,0.24-2.64C47.966,89.894,46.066,88.278,45.28,88.8z M286.241,90.72
		c1.493,0.133,1.102-1.619,1.44-2.64c-0.48,0-0.96,0-1.44,0C286.241,88.96,286.241,89.84,286.241,90.72z M121.6,92.4
		c0.89,0.389,2.067-0.74,2.4-1.68C122.878,90.098,121.995,91.521,121.6,92.4z M41.2,94.56c1.322-0.038,2.24-0.479,2.4-1.68
		c-0.904,0.184-1.147-0.293-1.92-0.24C41.667,93.427,40.998,93.558,41.2,94.56z M266.32,93.12c-0.156,0.876,0.162,1.278,0.48,1.68
		c0.552-0.889,2.048-0.832,2.88-1.44C268.73,92.47,267.869,93.654,266.32,93.12z M184.48,97.44c1.288,0.788,1.894-0.914,2.16-1.92
		c-0.458-0.103-0.603-0.517-1.2-0.48C185.791,96.017,185.019,96.266,184.48,97.44z M67.6,104.16c-0.139,0.939,0.207,1.394,0.48,1.92
		c0.652-0.148,1.124-0.476,1.44-0.96c-0.728,0.008-0.232-1.208-0.96-1.2C68.324,104.593,67.92,103.572,67.6,104.16z M296.321,107.76
		c0.879,0,1.853,0.093,1.68-0.96c-0.507-0.529-0.709,0.308-1.44,0.24c-0.375-0.758,0.132-1.053,0.24-1.92
		C295.196,104.824,295.883,107.304,296.321,107.76z M136.24,109.44c-0.26,0.614,0.729,1.144,0,1.44
		c-0.851,0.05-0.474-1.126-1.44-0.96c-0.367,0.681-0.659,1.579-0.24,2.4c-0.836,0.283-2.281-0.041-2.16,1.2
		c1.413,0.397,2.634-1.325,4.8-0.96c-0.338-1.544,0.753-2.918,0.24-3.84C137.221,109.141,136.994,109.554,136.24,109.44z
		 M98.08,111.6c0.866-0.494,1.086-1.634,1.44-2.64C97.939,108.577,97.229,111.087,98.08,111.6z M129.76,110.88
		c0.727,0.227,2.879,0.071,2.64-1.44C130.982,109.382,129.822,109.582,129.76,110.88z M265.84,114.48
		c0.133,0.987,0.979,1.261,2.16,1.2C268.43,114.131,266.27,113.004,265.84,114.48z M305.681,115.44c1.783,0.097,2.77-0.892,4.08,0
		C311.761,112.746,306.127,114.208,305.681,115.44z M47.44,119.28c0.349,0.353,1.571,0.353,1.92,0
		c-0.206-0.833-0.338-1.742-1.2-1.92C47.861,117.941,47.566,118.526,47.44,119.28z M165.76,124.08
		c0.761,1.792,3.188,1.618,3.84-0.24c-0.679-1.081-1.226-2.295-2.64-2.64C166.854,122.455,165.931,122.891,165.76,124.08z
		 M112,123.36c-0.098,0.578,0.438,0.521,0.24,1.2c1.189,0.15,1.271-0.809,2.64-0.48C114.779,122.532,113.196,123.408,112,123.36z
		 M143.68,124.08c0,0.72,0,1.44,0,2.16c0.284,0.276,0.849,0.271,1.44,0.24c-0.059-0.763-0.056-1.265,0.48-2.4
		C145.074,123.55,144.62,124.318,143.68,124.08z M292.241,127.68c0.39,0.787-0.054,0.917,0,1.92c1.458,0.258,1.546-0.854,1.44-2.16
		C292.946,127.266,292.975,127.854,292.241,127.68z M238,135.12c-0.736,0.544-2.472,0.088-2.88,0.96
		c1.336,0.982,3.792,0.095,3.6-1.92c-0.422,0.138-1.41-0.29-1.44,0.24C237.626,134.535,237.866,134.774,238,135.12z M20.8,139.2
		c1.063-0.057,1.714-0.526,1.92-1.44C22.179,136.314,20.387,137.567,20.8,139.2z M122.8,137.76c-0.313,1.833,1.655,1.385,3.12,1.44
		C125.742,136.977,124.141,138.026,122.8,137.76z M320.081,145.2c-0.118-0.842-0.358-1.562-0.24-2.64
		c-0.477-0.003-0.305-0.655-0.96-0.48C318.315,143.217,319.052,144.882,320.081,145.2z M321.281,148.32
		c1.776-0.064,4.105,0.426,4.32-1.2C324.381,146.841,321.305,146.621,321.281,148.32z M296.321,151.44
		c1.583,0.303,1.846-0.714,1.68-2.16C296.708,149.268,296.202,150.042,296.321,151.44z M206.081,153.6
		c1.554-0.046,2.182-1.018,2.16-2.64c-0.477-0.003-0.305-0.655-0.96-0.48C207.336,151.976,205.769,151.849,206.081,153.6z
		 M23.44,151.68c0.26,1.391,1.374,2.764,2.88,2.16c0.331-0.31,0.238-1.042,0.24-1.68C25.989,151.602,24.394,151.089,23.44,151.68z
		 M268.96,153.12c0.03,1.878,2.779,1.133,2.64-0.48c-0.051-0.269-0.267-0.374-0.48-0.48
		C270.878,152.958,269.374,152.494,268.96,153.12z M30.4,154.08c0.697,0.312,1.704,0.312,2.4,0
		C32.763,152.396,29.365,151.691,30.4,154.08z M322.241,158.4c1.383,0.023,2.061-0.659,3.12-0.96c0.049-1.009,0.086-2.007-0.72-2.16
		C325.137,157.091,322.988,157.17,322.241,158.4z M324.881,160.561c0.133,0.667,0.928,0.672,1.44,0.96
		c-0.259-0.781,0.129-2.209-0.72-2.4C325.269,159.509,324.751,159.711,324.881,160.561z M75.04,174.96
		c1.851,0.836,3.657-0.302,3.12-2.64C76.562,172.643,75.323,173.323,75.04,174.96z M65.68,187.44c0.491,0.472,2.548,0.94,2.64-0.24
		C67.765,186.319,65.745,185.68,65.68,187.44z M18.4,199.681c0.52-0.755-0.171-1.957-0.48-2.641c-0.24,0-0.48,0-0.72,0
		C16.794,198.047,16.663,200.101,18.4,199.681z M33.52,202.801c0.046,1.073,0.261,1.979,0.96,2.399
		c-0.453-2.148,2.878-2.116,3.36-4.08c-1.369,0.329-1.45-0.629-2.64-0.479C35.345,202.065,34.913,202.913,33.52,202.801z
		 M18.16,214.32c1.833-0.233,1.773,1.427,2.64,2.16c0.68-0.25,1-0.25,1.68,0c0.033-0.847,0.687-1.073,0.72-1.92
		c-1.969-0.111-2.525-1.635-4.56-1.68C18.448,213.329,18.239,213.76,18.16,214.32z M31.6,239.28c0.773,0.053,1.016-0.425,1.92-0.24
		c0-0.72,0-1.439,0-2.159C32.144,236.943,31.494,237.734,31.6,239.28z"/>
	<path fill-rule="evenodd" clip-rule="evenodd" d="M307.121,98.88c-0.193,0.127-0.39,0.25-0.72,0.24
		c-0.292-0.908-0.952-1.448-1.44-2.16C305.906,95.677,307.693,97.11,307.121,98.88z"/>
	<path fill-rule="evenodd" clip-rule="evenodd" d="M206.081,120c-4.912,11.386-12.418,21.174-19.44,30.96
		c-2.347,3.27-4.232,7.138-6.72,10.08c-2.035,2.406-5.174,3.955-7.44,6.24c-2.434,2.454-3.595,5.26-6,7.68
		c-0.256,2.145-1.199,3.602-1.68,5.521c-7.461,5.862-13.668,13.515-19.92,21.36c-5.917,7.423-12.392,14.748-18.72,22.56
		c-8.989,11.097-18.283,22.677-27.6,34.32c-4.105,5.13-10.218,11.925-6,19.68c10.07,1.692,15.75-8.412,20.64-14.64
		c3.913-4.983,7.737-9.327,11.28-14.641c1.168-1.751,1.901-3.844,3.12-5.52c1.066-1.465,3.25-2.907,5.04-4.561
		c11.155-10.294,22.18-21.923,33.84-31.68c6.931-5.8,13.985-11.088,20.64-16.8c3.427-2.941,6.831-5.671,10.32-8.4
		c3.565-2.788,7.248-4.94,11.28-7.439c1.862-1.154,4.28-4.84,6.24-2.16c0.403,9.654-6.057,15.261-10.8,20.399
		c-4.845,5.251-8.147,10.677-12,16.08c-0.48,0-0.96,0-1.44,0c-0.466,0.463,0.252,0.966,0.24,1.681
		c-4.324,5.215-8.845,12.403-13.44,18.24c-1.585,2.014-3.806,3.318-5.28,5.279c-4.136,5.502-9.947,17.566-4.56,25.2
		c16.475-0.726,20.787-13.613,28.08-23.52c10.529-4.109,18.31-9.663,25.92-16.801c2.591-2.43,5.53-4.69,9.6-5.04
		c-1.595,14.232-13.54,20.307-14.64,34.801c-0.388,5.107,3.751,7.621,8.64,7.68c0.974,0.012,2.082-0.094,2.88-0.24
		c9.006-1.647,16.617-7.497,22.32-13.2c2.47-2.469,4.389-4.961,7.68-6c3.855-1.216,5.664-4.723,9.84-5.52
		c1.403-5.077,6.821-6.14,9.84-9.601c0.741-1.419,0.824-3.892,1.92-5.04c1.257-1.317,4.237-1.646,5.76-2.64
		c4.548-2.966,7.896-8.421,11.76-10.8c0.489-0.482,0.47,0.106,0.96,0.24c1.524-3.115,5.019-4.262,8.16-5.761
		c2.866-5.083,8.409-10.663,13.92-14.88c2.535-1.939,6.089-5.883,8.4-1.92c-0.177,1.424-1.954,1.246-2.16,2.641
		c0.232,1.287,1.11,1.929,2.64,1.92c-0.36,2.52-0.54,5.221-1.44,7.199c1.795,2.271-0.675,5.198,0.24,7.921
		c0.347,1.253,2.635,0.564,2.4,2.399c-0.585,1.895-4.925,0.035-5.52,1.92c-0.057,1.417,0.79,1.931,1.2,2.88
		c-0.667,0.853-1.154,1.887-1.2,3.36c-0.402,0.318-0.804,0.636-1.68,0.479c-0.083,2.084,0.09,3.91,0.48,5.521
		c-0.431,0.03-0.506-0.294-0.96-0.24c-0.198,1.516,0.737,2.503,0.24,3.601c0.219,0.652,0.446-0.64,1.2-0.24
		c-1.358,1.201-1.222,3.897-3.6,4.08c-0.681,2.599-0.287,6.273-0.96,8.88c-3.71,1.869-2.604,7.123-5.52,9.84
		c0.194,0.847,0.556,1.523,0.96,2.16c-3.16,0.76-4.245,3.595-5.04,6.72c-1.095-0.215-1.36,0.4-2.16,0.48
		c0.312,2.151-0.888,2.792-0.72,4.8c-0.431,0.03-0.506-0.294-0.96-0.24c-1.325,3.155-3.648,5.312-5.04,8.4
		c-1.25,0.049-1.563-0.837-1.68-1.92c-0.963,0.477-1.045,1.835-2.4,1.92c0.072,1.432-0.096,2.624-0.72,3.36
		c0.628,0.856,1.487,0.16,2.64,0.239c0.467,1.913-2.065,1.541-3.12,1.2c-0.595-0.846,0.148-3.028-1.2-3.12
		c-1.434,0.246-0.238,3.122-1.44,3.601c0.283,0.677,2.188-0.269,2.16,0.72c0.005,1.285-1.315,1.245-2.4,1.439
		c0.5,1.248-0.367,1.641-0.24,3.12c-0.748,0.293-1.521,0.559-2.64,0.48c0.297,0.742,0.764,1.322,0,1.92
		c0.615,0.26,1.144-0.729,1.44,0c0.419,2.05-2.724,1.14-3.12,0.479c-0.618,0.982-0.775,2.425-1.44,3.36
		c-0.566,0.587-0.446-0.358-1.2-0.24c-1.537,2.145-3.027,4.334-4.8,6.24c-3.275-0.64-4.109,2.604-5.28,4.8
		c-0.716,0.287-0.816,0.066-1.44-0.239c-1.622,2.139-3.227,4.293-5.28,6c-1.485-0.722-3.057,0.447-4.32,0
		c-0.316,1.996,2.145,1.215,1.68,3.359c-1.122,0.76-1.715-0.756-2.64-0.96c-1.235,1.485-2.459,2.981-4.8,3.36
		c0.468,0.763,1.611-0.542,2.16,0.24c-0.593,2.366-4.669,1.25-5.52,3.359c-2.212-0.777-5.106,1.07-6,3.12c-1.12,0-2.24,0-3.36,0
		c-0.853,0.428-0.993,1.567-1.68,2.16c-1.418,0.021-3.18-0.3-2.88,1.44c-1.356-0.507-2.752-0.18-2.64,1.439
		c-0.676-1.004-2.024-1.336-2.88-2.16c-1.409,0.992-2.394,2.406-3.12,4.08c-2.296-0.61-3.377,2.719-4.8,0.72
		c-1.113,2.648-6.291,1.23-7.68,3.601c-3.237,0.193-6.391,1.204-9.12,2.399c-0.606-1.583,0.229-4.442-1.2-4.56
		c-1.146-0.094-1.416,2.631-0.96,4.32c-0.935,0.546-2.975,1.586-4.08,0.479c-1.962,1.438-4.489,2.935-7.44,2.641
		c-1.834-0.184-3.229-1.85-5.04-0.96c-0.55-0.091-0.32-0.96-0.72-1.2c-2.012-0.012-1.217,2.046-1.92,2.88
		c-1.975-0.356-4.789,2.035-5.52-0.72c-1.263,0.95-2.856,0.178-3.84-0.48c-2.206,1.427-4.469,1.545-6.72,2.64
		c-0.98,0.073-0.128-0.501-0.24-0.96c-2.356,1.311-6.022-1.164-7.2,1.44c-1.18,0.06-0.488-1.752-1.2-2.16
		c-1.135,0.159-1.496,1.365-1.92-0.24c-0.903,0.997,0.695,1.535,0.48,2.641c-0.901-0.645-1.567-0.321-2.88-0.24
		c-0.594-0.846-0.65-2.23-1.68-2.64c-1.188,0.182,0.123,1.917-0.24,1.92c-1.343-0.257-1.923-1.277-2.88-1.92
		c-2.34,0.859-5.159,1.24-8.4,1.199c-0.4-0.32-0.08-1.359-0.48-1.68c-1.119-0.159-1.542,0.378-2.4,0.48
		c0.253-1.693-1.548-1.332-1.68-2.641c-2.51,0.291-4.729,2.148-7.68,1.2c-0.23-1.19,1.517-0.403,1.92-0.96
		c-0.023-2.199-3.774,0.767-3.36-1.92c-2.643,0.229-3.833,2.034-6,2.16c-1.068,0.036-0.144-0.974,0-1.2
		c-0.508-1.172-2.106-1.254-3.6-1.44c-0.375-0.744-0.712-1.527-1.2-2.159c-1.593,1.664-5.282,1.159-7.92,0.72
		c-0.127-1.007,0.419-1.341,0.48-2.16c-0.865-0.502-1.627,0.844-3.12,0.479c0-0.64,0-1.279,0-1.92
		c-2.729,0.238-6.17-0.427-9.12-0.72c-0.402-0.398-0.191-1.409-0.24-2.16c-0.259-0.701-1.143-0.777-2.16-0.72
		c-0.547-0.67,0.242-1.186-0.24-1.92c-6.094,0.385-11.503-2.56-8.88-8.64c-2.139,0.501-2.476,2.804-2.88,5.04
		c-0.669,0.18-2.004-0.993-3.36-0.24c0.402-1.603-0.845-1.556-1.68-1.92c-0.286-1.006,1.012-0.429,1.2-0.96
		c-0.984-1.017-3.264-0.736-4.32-1.681c-0.299-1.019,0.798-0.642,0.96-1.199c-0.739-1.627-1.995,0.344-3.6,0
		c-0.654-0.725,0.166-1.431,0.24-2.16c-0.539-0.469-1.805-0.21-2.4,0c-0.224-0.803-1.339-2.229-0.24-2.88
		c-0.647-0.554-2.314-0.086-3.36-0.24c0.078-0.889-0.085-2.302-1.44-2.4c0.157-0.835,0.883-2.003,0.24-2.88
		c-1.304,0.216-1.421,1.619-2.16,2.4c-1.402-0.519-2.828-1.013-2.64-3.12c-0.691-0.029-1.571,0.131-1.92-0.24
		c-0.535-0.586-0.526-1.714-0.48-2.88c-1.116-0.404-1.832-0.131-2.64,0c-0.681-2.062-3.683-2.734-2.88-5.521
		c-1.977-0.536-0.731,2.149-2.16,2.16c-0.755-0.445-0.905-1.495-0.96-2.64c0.308-0.622,1.435,0.185,1.44-0.24
		c-0.063-1.03-1.508-0.944-2.16-0.72c-1.037-1.779-0.941-3.33-2.88-4.32c5.934-6.642,12.172-11.943,17.28-19.2
		c5.109-7.258,8.563-15.439,14.4-21.84c1.491-1.635,2.959-3.166,4.08-5.04c1.126-1.883,1.894-4.029,3.36-5.76
		c2.776-3.278,5.757-6.334,8.4-9.601c15.976-19.748,34.124-38.924,53.28-55.68c6.481-5.669,13.014-11.168,19.2-17.04
		c4.778-4.536,9.248-8.787,14.88-12.48c1.784-1.169,4.009-1.791,5.76-3.12C196.548,124.714,198.681,117.599,206.081,120z
		 M318.881,202.08c0.342,0.458,0.558,1.042,0.72,1.681c1.942,0.021,2.967-0.873,4.08-1.681
		C322.366,201.99,319.897,200.918,318.881,202.08z M136.96,208.561C137.901,203.415,132.861,207.949,136.96,208.561L136.96,208.561z
		 M322.241,210.721c-0.029-1.571-0.412-2.788-1.68-3.12C319.958,208.919,320.24,211.226,322.241,210.721z M100.96,220.08
		c0.517,1.066,0.173,2.517-1.2,2.4c-0.517-0.203-0.849-0.591-0.72-1.44c-0.807-0.007-0.489,1.111-0.96,1.44
		c0.683,0.517,1.886,0.514,2.64,0.96c1.049-2.23,3-3.56,3.6-6.24C102.189,217.024,102.927,220.879,100.96,220.08z M145.36,237.841
		c1.728,0.156,3.099-1.151,2.64-2.4C146.424,235.544,145.317,236.117,145.36,237.841z M214.48,240.24
		c-0.837,0.848-1.542,0.154-2.64,0C211.598,242.262,215.377,241.866,214.48,240.24z M192.16,247.681c0.48,0,0.96,0,1.44,0
		c0.637-1.502,0.026-3.659-1.92-3.36C191.702,245.914,191.3,246.727,192.16,247.681z M231.041,257.761
		c1.178-0.102,2.032-0.528,2.64-1.2c-0.427-0.453-0.698-1.062-1.68-0.96C232.656,257.251,231.48,256.75,231.041,257.761z
		 M213.28,261.841c2.124-0.037,1.563-2.757,3.12-3.36c-0.104-0.536-1.183-0.098-1.68-0.24
		C214.855,260.055,213.392,260.271,213.28,261.841z M86.08,265.681c0.194-1.191,2.241-3.181,0.48-4.08
		C87.254,263.749,84.372,264.736,86.08,265.681z M280.48,270.24c1.304-0.296,3.017-0.184,2.64-2.16
		c-1.199,0.649-1.99-0.353-3.12-0.479C279.38,268.455,279.975,269.755,280.48,270.24z M192.16,273.841
		c-0.247,2.048,3.547,1.856,3.36,0C194.842,273.46,192.839,273.46,192.16,273.841z M142.72,275.28
		c0.862,0.357,2.134,2.131,2.88,0.48C145.223,274.807,143.303,273.996,142.72,275.28z M242.8,285.12
		c0.773,0.054,1.016-0.424,1.92-0.239c0.042-1.402-0.624-2.097-1.92-2.16C242.8,283.521,242.8,284.32,242.8,285.12z M96.4,284.881
		c1.541,0.181,2.092-0.628,2.4-1.681c-0.678,0.198-0.622-0.338-1.2-0.239C97.937,284.337,95.898,283.338,96.4,284.881z
		 M86.56,286.801c0.579-0.099,0.522,0.438,1.2,0.24c-0.312-1.433,0.757-1.483,0.72-2.641
		C87.03,284.391,86.421,285.222,86.56,286.801z M160.48,291.841c-0.121-1.241,0.68-1.561,0.48-2.88
		c-0.307-0.014-0.333-0.308-0.72-0.24C159.473,289.241,159,291.719,160.48,291.841z M176.561,292.561
		c1.162-0.038,2.545,0.146,2.64-0.96C178.377,291.135,176.078,290.556,176.561,292.561z M88.48,294.961
		c0.918-0.748,0.492-3.262-0.96-3.12C88.653,292.599,86.945,294.729,88.48,294.961z M155.2,294.961
		c0.068,1.292,0.809,1.91,1.92,2.159c-0.047-1.487,1.214-1.665,1.2-3.119C156.747,293.787,157.035,295.436,155.2,294.961z
		 M239.201,311.041c1.605-0.555,2.119-2.201,2.4-4.08c-1.185-0.096-1.743-0.817-2.64-1.2
		C239.249,307.615,237.498,310.014,239.201,311.041z M201.76,308.4c0.193,0.9,0.756,1.697,0.24,2.641
		C204.336,311.279,203.374,307.393,201.76,308.4z M170.8,313.44c0.093-0.867,1.317-0.603,0.96-1.92
		c-1.102,0.222-1.16-0.601-2.16-0.479C169.524,312.316,169.732,313.309,170.8,313.44z M231.041,315.36
		c1.424,0.145,2.064-0.496,1.92-1.92c-0.733-0.663-0.752,0.844-1.68,0.72c0.112-0.752-0.604-0.676-0.96-0.96
		C230.332,314.149,230.849,314.592,231.041,315.36z M183.521,317.521c-0.215,1.695,2.055,2.507,3.12,1.44
		C186.275,317.905,184.635,317.05,183.521,317.521z M168.4,322.561c1.271,0.406,2.772-0.86,3.36-1.92
		c-0.24-0.721-0.72-1.2-1.44-1.44C170.694,321.334,168.479,320.879,168.4,322.561z M163.6,324.24c0-1.04,0-2.08,0-3.119
		C160.692,320.53,162.176,324.282,163.6,324.24z"/>
	<path fill-rule="evenodd" clip-rule="evenodd" d="M17.44,121.68c0.56,0,1.12,0,1.68,0c0.145,1.425-0.288,2.272-1.68,2.16
		C17.44,123.12,17.44,122.4,17.44,121.68z"/>
	<path fill-rule="evenodd" clip-rule="evenodd" d="M890.802,144c-1.284,3.575,1.653,7.124,0.479,10.32
		c-1.327,3.616-8.392,2.579-12.479,3.12c-3.19-2.373-1.3-10.987-7.92-8.64c-2.604,0.923-2.823,6.462-2.4,10.08
		c0.533,4.553,4.828,8.107,7.92,9.84c2.693,3.387,5.427,6.733,9.36,8.88c-0.157,3.247,4.112,4.681,5.04,7.92
		c0.276,0.966-0.171,2.034,0,3.36c0.211,1.64,1.566,3.09,1.68,4.319c0.068,0.741-0.703,1.265-0.72,2.16
		c-0.022,1.235,1.377,3.173,0,4.8c1.687,10.618-7.967,16.492-18.24,16.32c-4.693-0.079-9.882-2.504-13.2-5.76
		c-3.085-3.029-5.481-7.305-5.04-13.681c2.378-2.394,9.104-4.498,11.521-0.96c1.544,2.262,0.716,6.869,3.84,8.16
		c4.961,2.051,8.88-1.81,8.88-6.479c0-5.906-4.291-9.663-7.92-13.44c-1.566-1.631-3.075-3.756-4.8-5.76
		c-1.641-1.906-3.973-3.503-5.28-5.28c-2.868-3.9-5.348-10.961-5.76-16.32c-0.249-3.235,0.551-4.583,1.2-6.96
		c0.43-1.575,0.228-3.523,0.72-4.56c0.632-1.332,3.741-4.507,5.04-5.52c6.088-4.748,17.869-3.786,23.521,0.48
		C887.939,141.682,888.005,143.067,890.802,144z"/>
	<path fill-rule="evenodd" clip-rule="evenodd" d="M383.921,139.68c1.92,10.126,2.571,21.39,3.36,32.4
		c0.167,2.342,0.803,4.264,1.68,6.24c2.184-0.272,1.229-2.876,1.68-4.56c0.308-1.148,1.494-2.043,1.68-3.121
		c0.269-1.558-0.484-3.229-0.24-4.8c0.163-1.051,0.912-1.654,1.2-2.64c0.235-0.805,0.024-1.958,0.24-2.88
		c0.617-2.632,2.067-4.01,1.2-7.2c0.901-2.146,1.575-4.379,2.16-7.44c0.418-2.188-0.029-6.658,1.68-7.92
		c1.397-1.031,3.927,0.047,5.52,0c1.047-0.031,2.13-0.629,3.36-0.72c2.726-0.201,5.208,0.696,7.2,1.2
		c1.355,3.11,2.163,5.91,1.92,10.8c-0.028,0.558-0.505,1.129-0.48,1.68c0.023,0.523,0.534,0.979,0.48,1.44
		c-0.11,0.94-0.811,1.704-0.96,2.64c-0.269,1.687,0.105,3.899,0,6c-0.185,3.722-0.998,7.654-0.72,11.04
		c0.11,1.336,0.629,2.54,0.72,3.841c0.266,3.8-1.356,7.602-0.96,11.279c0.101,0.934,0.687,2.008,0.72,2.881
		c0.086,2.267-1.266,5.154-1.2,8.159c0.047,2.138,0.163,4.71,0.24,6.96c0.104,3.062,1.279,6.245,0.24,8.4
		c-2.276,4.723-9.425,0.838-12.48,0.24c-0.977-1.213-0.037-2.479,0-3.84c0.121-4.457-0.544-10.012,0-14.4
		c0.522-4.214-0.24-9.07-0.24-13.44c0-4.388,1.194-8.5,0-12c-3.218,2.291-3.253,7.696-3.6,12.24c-0.19,2.497-0.208,5.048-0.48,7.44
		c-0.253,2.232-1.096,4.15-1.44,6.24c-1.302,7.906-0.303,15.601-5.52,19.68c-7.583,1.547-6.919-7.982-7.92-13.68
		c-0.466-2.653-0.684-4.869-1.2-6.96c-0.483-1.959-1.419-3.912-1.68-6.24c-0.763-6.823-1.42-15.1-3.84-19.92
		c-1.912,1.025-1.289,3.735-1.2,5.52c0.277,5.567,2.342,12.148,1.68,18.48c-0.139,1.331-0.679,2.1-0.72,3.359
		c-0.055,1.688,0.809,3.818,0.96,6c0.088,1.276-0.291,2.604-0.24,4.08c0.194,5.62,2.059,9.742-5.76,9.36
		c-1.419-0.069-4.306-0.088-5.04-0.48c-3.046-1.626-0.838-7.365-0.72-10.8c0.085-2.479-0.545-4.952-0.48-7.439
		c0.032-1.238,0.449-2.367,0.48-3.601c0.061-2.369-0.665-4.712-0.48-7.2c1.149-15.459,0.318-32.445,1.44-47.28
		c3.736-0.664,8.771-1.308,12-1.68C380.547,137.454,382.234,138.567,383.921,139.68z"/>
	<path fill-rule="evenodd" clip-rule="evenodd" d="M667.361,148.8c-5.922,2.534-13.12-1.38-17.76,1.44
		c-3.979,2.418-0.247,7.518-0.721,12c-0.18,1.707-1.826,3.159-1.439,4.8c0.97,4.119,9.653,0.667,13.2,1.92
		c3.425,1.21,2.366,4.091,5.04,6c-0.653,1.543-2.345,2.088-1.44,4.561c-1.197,1.363-3.126,1.994-5.04,2.64
		c-2.726-1.623-7.067,0.808-9.84-0.96c-3.84,1.405-1.412,3.771-0.72,6.72c0.19,0.812-0.186,1.661,0,2.641
		c0.226,1.196,1.163,2.117,1.199,3.12c0.105,2.896-3.31,5.221-2.88,7.439c0.276,1.428,2.62,2.191,5.04,2.4
		c4.966,0.428,11.408-1.579,14.88,1.2c1.024,0.819,4.726,5.188,4.08,7.68c-0.527,2.038-6.018,3.019-9.119,3.12
		c-4.656,0.152-9.461-0.828-13.921-0.72c-3.958,0.095-9.739,1.122-12.96-1.681c-1.303-12.38,0.964-26.463,0.24-40.08
		c-0.433-8.153,0.342-16.549,0.24-24.24c-0.052-3.854-1.951-8.395,0.96-10.8c10.556-0.159,22.25-2.157,30.72,0.24
		C669.663,141.36,670.282,145.829,667.361,148.8z"/>
	<path fill-rule="evenodd" clip-rule="evenodd" d="M449.441,139.44c-0.986,3.897,0.013,7.454,0,11.04
		c-0.006,1.69-1.018,3.395-0.96,5.04c0.052,1.483,1.324,2.812,1.44,4.32c0.342,4.438-3.552,9.307-0.48,13.92
		c-1.472,2.486-1.476,7.116,0.48,8.159c-0.155,2.944-3.499,6.698,0,8.4c-1.024,1.626-0.102,3.849-1.68,5.04
		c1.466,3.167-1.126,6.901,0,9.84c0.778,2.029,2.865,1.545,4.08,3.36c-0.122,1.222-1.486,2.037-2.4,3.12
		c-0.866,1.024-1.571,2.386-2.88,3.12c-3.731,2.092-9.006,0.604-12.72-0.96c-0.118-8.342-0.129-20.562,0.96-29.28
		c-2.097-2.4,0.037-5.48,0.24-8.641c0.086-1.339-0.404-2.715-0.48-4.08c-0.598-10.701-0.301-23.566-0.48-33.6
		C438.243,136.383,447.225,136.244,449.441,139.44z"/>
	<path fill-rule="evenodd" clip-rule="evenodd" d="M757.602,137.521c3.492,3.757,2.498,9.116,2.88,14.88
		c0.093,1.398,0.908,2.81,1.2,4.32c0.669,3.46,0.72,7.462,0.72,11.28c0,3.668-0.762,7.816,0.96,10.8c2.936-0.6,1.607-3.887,1.68-6
		c0.105-3.044,1.12-6.594,1.44-10.081c0.336-3.653,0.354-7.264,1.44-10.08c-1.697-4.824,1.523-8.436,0.96-13.68
		c2.081-2.399,10.59-2.992,12.479,0c-0.057,2.512,0.648,4.346,0.48,6.72c-0.165,2.33-1.982,4.143-2.16,6.24
		c-0.209,2.459,1.231,4.799-1.2,6.24c0.578,2.799-0.045,5.21-0.479,7.92c-0.295,1.833-0.158,3.956-0.48,5.521
		c-0.269,1.302-1.238,2.217-1.439,3.359c-0.474,2.688-0.139,6.615-0.48,9.12c-0.109,0.806,0.151,1.502,0,2.16
		c-0.188,0.815-1.031,1.552-1.2,2.4c-0.177,0.89,0.096,2.141,0,3.12c-0.2,2.054-1.144,4.01-1.2,5.52
		c-0.035,0.943,0.496,1.671,0.48,2.64c-0.03,1.904-1.726,5.429-1.92,7.2c-0.1,0.902,0.363,1.714,0.24,2.4
		c-0.215,1.187-1.779,4.546-2.4,5.04c-2.643,2.101-6.365-1.017-9.6-0.24c-2.118-2.312-1.887-5.918-2.4-9.12
		c-1.254-7.811-2.98-16.677-4.08-24.72c-0.211-1.541,0.256-3.577-1.2-4.561c-2.122,1.355-1.036,4.935-1.2,7.44
		c-0.338,5.171-0.864,11.026-2.159,14.88c0.527,2.062,0.727,4.967,0,7.68c-0.216,0.806-0.896,1.557-1.2,2.4
		c-1.062,2.942-1.134,5.7-2.88,6.48c-2.964,1.323-6.866-0.754-10.32-0.96c-0.511-4.691-1.421-9.322-1.68-14.16
		c-0.099-1.837-1.427-4.79-1.681-7.2c-0.1-0.948,0.26-1.908,0.24-2.88c-0.085-4.175-1.344-8.867-1.92-13.44
		c-0.577-4.578-0.815-9.312-1.68-13.44c-0.21-1.002-0.858-2.06-0.96-3.12c-0.129-1.333,0.414-2.768,0.239-4.08
		c-0.152-1.151-1.078-1.948-1.439-3.12c-1.326-4.302-1.422-9.452-0.721-13.92c0.975-1.005,2.508-0.442,4.08-0.48
		c4.471-0.108,9.229-0.862,9.841,3.6c0.229,1.68-0.659,4.288-0.721,6.72c-0.071,2.831,1.096,5.593,1.2,8.16
		c0.033,0.813-0.46,1.759-0.479,2.64c-0.045,1.964,1.111,3.9-0.24,5.52c1.862,3.324-0.746,10.1,1.439,12.72
		c3.225-1.763,2.011-6.559,2.641-10.08c0.193-1.081,1.236-2.113,1.439-3.12c0.429-2.125-0.522-4.571-0.239-6.72
		c0.148-1.128,0.996-2.011,1.199-3.12c0.991-5.397,0.062-11.046,2.16-15.6C749.175,136.734,754.307,136.666,757.602,137.521z"/>
	<path fill-rule="evenodd" clip-rule="evenodd" d="M470.801,214.32c-1.285-4.881-0.492-9.715-0.48-15.36
		c0.038-17.359,0.846-39.646,0.24-55.2c-0.122-3.11-0.714-4.392,1.92-6c15.081-1.395,31.192-0.326,36.72,9.36
		c-1.052,3.34-0.659,6.786-1.2,9.84c-0.312,1.758-1.265,3.293-0.96,5.04c0.293,1.68,2.536,2.394,2.88,3.84
		c0.487,2.045-0.53,3.197-1.439,4.32c0.648,3.246-2.827,7.167,0,9.84c-1.104,2.897,0.207,8.208-1.2,10.801
		c2.889,6.517-0.536,14.041-2.88,18.96c-1.446,1.358-3.675,1.963-5.521,3.359c-0.62,0.47-0.717,1.134-1.439,1.44
		c-2.174,0.92-6.44,1.159-9.36,1.2C482.236,215.843,475.568,215.385,470.801,214.32z M484.961,150
		c0.132,6.366,0.301,16.429-0.72,24.72c1.643,2.058-0.345,4.905-0.24,7.439c0.069,1.676,1.125,3.269,1.2,5.04
		c0.228,5.395-3.172,11.389,0,16.08c2.339,1.019,5.181-0.01,6.72-1.2c3.858-13.78,1.824-35.144,1.2-50.4
		C491.517,150.251,487.526,148.896,484.961,150z"/>
	<path fill-rule="evenodd" clip-rule="evenodd" d="M527.921,214.561c-2.269-7.467-0.527-16.251-0.479-24.96
		c0.088-16.21,0.769-33.554-0.48-49.44c1.318-2.723,4.193-2.489,7.44-2.64c8.301-0.386,18.724,0.33,25.2,2.4
		c3.156,3.495,6.117,8.107,6.239,14.16c0.062,3.067-0.526,6.358-0.479,9.6c0.09,6.3,1.793,16.336,0.96,23.76
		c-0.113,1.011-0.835,1.771-0.96,2.64c0.811,6.323-0.681,13.007-1.681,18.721C557.81,216.079,540.995,216.684,527.921,214.561z
		 M541.841,156.72c0.801,5.606-0.402,13.186-0.96,17.76c1.747,2.333-0.095,5.083,0,7.68c0.044,1.188,0.815,2.42,0.96,3.601
		c0.668,5.443-2.288,10.581-1.439,16.08c3.002,4.358,10.451,0.259,11.279-4.08c0.366-1.918-0.239-6.04-0.239-9.841
		c-0.001-7.399,0.184-12.883,0-18.479c-0.123-3.727,0.77-7.633,0.479-10.8c-0.176-1.92-1.222-6.067-1.92-6.96
		c-1.279-1.636-6.395-2.545-7.92-1.92C538.694,150.994,541.456,154.027,541.841,156.72z"/>
	<path fill-rule="evenodd" clip-rule="evenodd" d="M619.841,211.92c-1.396,1.884-3.535,3.025-5.76,4.08
		c-8.435-2.14-19.101-0.574-28.8-1.439c-3.362-3.176-1.096-8.218-0.48-13.2c0.348-2.809-0.577-5.88-0.479-8.88
		c0.086-2.653,0.22-4.612,0-7.68c-0.224-3.127,0.665-6.479,0.72-9.36c0.105-5.532-0.208-11.581-0.479-17.28
		c-0.138-2.889-0.447-5.862-0.24-8.4c0.1-1.224,0.655-2.439,0.72-3.6c0.15-2.679-0.567-6.167,0.96-7.68
		c2.37-2.348,11.582-1.646,12.72,1.2c-0.029,1.89,0.348,3.906,1.2,5.52c-1.938,2.036,0.11,6.617-1.439,8.88
		c2.493,2.605-0.326,5.872-0.48,8.64c-0.108,1.951,1.611,3.83,1.681,6c0.044,1.386-0.774,2.451-0.961,3.84
		c-0.587,4.394,1.962,9.693-0.96,12.479c2.222,4.395-2.629,16.107,2.4,18.24c4.336,1.839,9.616-1.038,13.92,0.48
		C617.265,204.883,619.493,207.688,619.841,211.92z"/>
	<path fill-rule="evenodd" clip-rule="evenodd" d="M946.481,148.32c-3.214,1.153-7.888,2.285-11.52,0.96
		c-2.562,1.667-1.127,7.565-0.24,10.08c-0.965,5.173,0.431,11.173-0.479,16.32c-0.157,0.886-0.669,1.585-0.721,2.399
		c-0.077,1.241,0.523,2.562,0.48,3.84c-0.028,0.843-0.63,1.536-0.72,2.4c-0.089,0.85,0.455,1.995,0.479,3.12
		c0.084,3.888-1.544,8.986,0.72,11.52c-1.585,4.976,0.842,13.962-3.359,16.32c-1.767-0.32-7.641,0.784-9.12-0.479
		c-1.54-1.315-0.387-5.984-0.48-7.92c-0.069-1.436-0.751-2.522-0.72-3.12c0.048-0.929,0.895-2.447,0.96-3.12
		c0.226-2.313-0.502-5.146-0.72-8.4c-0.127-1.897,0.474-3.637,0.479-5.52c0.018-5.595-0.467-12.792-0.479-19.68
		c-0.012-6.337,2.69-16.818-0.72-18.48c-2.873-1.4-6.202,1.797-8.881,0.48c-2.237-1.101-1.862-7.793-0.96-10.56
		c5.021-1.117,14.255-0.831,22.08-1.2C941.304,136.867,950.93,138.578,946.481,148.32z"/>
	<path fill-rule="evenodd" clip-rule="evenodd" d="M835.602,215.521c-9.01,2.122-21.259,0.272-32.4,0
		c-3.125-6.022-1.629-18.955-0.96-27.36c1.108-13.9-1.134-29.837-0.96-42.96c0.022-1.642,0.301-4.135,0.721-4.8
		c0.962-1.526,6.945-2.135,10.319-2.16c4.833-0.036,10.617,0.285,15.36,0c2.396-0.144,7.56,0.134,8.16,2.64
		c0.742,3.102-1.804,6.569-2.641,7.44c-0.894,0.93-2.599,1.877-4.56,2.16c-4.563,0.658-13.606-2.036-14.88,1.92
		c-0.57,1.772,1.517,4.227,1.68,7.2c0.09,1.645-0.039,3.723-0.24,5.04c-0.183,1.206-1.252,2.857-0.96,4.08
		c1.083,4.531,8.939,0.475,12.96,0.96c1.887,0.228,4.363,2.567,4.561,4.081c0.224,1.719-1.004,1.86-1.44,3.6
		c-0.415,1.657,0.215,3.018-0.479,4.08c-2.219,3.393-8.956-0.383-12.24,0.96c-4.109,1.68-2.054,8.822-2.4,13.2
		c-0.151,1.913-0.968,3.299-0.72,4.8c1.205,7.286,16.173,1.354,20.88,4.56C838.921,207.384,837.642,212.109,835.602,215.521z"/>
	<path fill-rule="evenodd" clip-rule="evenodd" d="M330.881,197.761c0.695,0.185,1.167,0.593,0.96,1.68
		c-0.341-0.021-0.68-0.04-0.72,0.24C330.579,199.502,331.027,198.334,330.881,197.761z"/>
	<path fill-rule="evenodd" clip-rule="evenodd" d="M98.08,313.681c-0.028,0.691,0.131,1.571-0.24,1.92
		c-0.975,0.374-2.085-0.438-3.12-0.72C94.094,313.388,96.844,312.579,98.08,313.681z"/>
</g>
</svg>
