<?xml version="1.0" encoding="utf-8"?>
<!-- Generator: Adobe Illustrator 15.0.0, SVG Export Plug-In . SVG Version: 6.00 Build 0)  -->
<!DOCTYPE svg PUBLIC "-//W3C//DTD SVG 1.1//EN" "http://www.w3.org/Graphics/SVG/1.1/DTD/svg11.dtd">
<svg version="1.1" id="Layer_1" xmlns="http://www.w3.org/2000/svg" xmlns:xlink="http://www.w3.org/1999/xlink" x="0px" y="0px"
	 width="317.286px" height="315.601px" viewBox="0 0 317.286 315.601" enable-background="new 0 0 317.286 315.601"
	 xml:space="preserve">
<g>
	<path fill-rule="evenodd" clip-rule="evenodd" d="M298.801,83.521c2.072,0.314,2.085,2.908,1.681,5.04
		c-0.562-0.079-0.991-0.289-1.44-0.48c0.381,2.26,3.217,2.062,4.32,3.6c0.544,3.29,3.604,4.653,3.12,7.68
		c2.479,1.841,3.39,5.25,5.28,7.68c-0.841,4.019,4.236,4.994,0.959,7.92c-0.02,1.15,2.026,1.211,1.201,2.4
		c-0.986,0.866-0.821-0.957-1.92-0.72c-0.441,0.803,1.171,1.299,1.199,2.4c0.918,0.197,0.283-1.157,1.2-0.96
		c1.294,0.146,1.74,1.14,1.68,2.64c-1.63,0.27-2.204-0.516-3.12-0.96c0.273,1.407,1.873,1.487,3.12,1.92c0,0.8,0,1.6,0,2.4
		c1.626,1.255,1.077,4.684,2.64,6c-1.432,1.103-0.217,2.847,0.721,3.6c-1.184,1.191-0.805,3.191-1.68,5.04
		c-3.125,0.155-5.271,1.289-6,3.84c1.822-0.658,2.893-2.067,4.319-3.12c1.045-0.245,1.104,0.497,1.681,0.72
		c1.117-0.584,1.942-2.843,3.6-1.44c-0.066,2.494-3.021,2.098-3.6,4.08c0.649,0.634,1.239-0.828,2.399-0.48
		c1.831,2.092-0.081,2.668-1.68,4.08c-11.862,10.474-23.563,22.004-34.56,33.84c-1.702,1.831-3.57,3.81-5.521,5.76
		c-1.966,1.965-3.729,4.574-5.521,5.76c-1.324,0.878-2.932,1.092-4.08,1.681c-3.468,1.777-6.118,5.158-9.119,8.159
		c-3.854,3.853-8.064,7.241-12.24,10.561c-0.602,0.041-0.583-0.537-0.961-0.72c-1.381,1.785-2.918,4.263-6,3.6
		c-0.707,1.293-1.948,2.052-3.6,2.4c-0.143-0.428,0.703-0.997,0-1.2c-1.273-0.153-1.024,1.215-1.68,1.68
		c-1.979,0.501-3.894,1.066-6.24,1.2c0.99-9.27,6.641-16.643,11.52-23.76c2.449-3.571,3.889-7.606,6.48-11.04
		c7.392-9.792,14.992-20.205,23.04-29.761c2.688-3.191,5.621-6.178,8.16-9.359c2.645-3.314,4.6-7.058,7.2-10.32
		c2.483-3.116,9.568-8.616,3.12-12.72c0.058-0.422,0.413-0.547,0.96-0.48c-0.557-1.364-2.219-1.621-3.6-2.16
		c-0.73,0.07-0.332,1.269-0.961,1.44c-5.637-0.14-8.035,5.546-11.52,9.12c-2.68,2.749-5.353,5.169-7.92,8.16
		c-4.695,5.47-9.769,11.808-15.12,16.8c-2.722,2.538-5.978,4.305-9.12,6.72c-2.228,1.712-4.197,4.477-6.24,6.721
		c-8.195,9-17.085,16.411-27.359,24.479c-3.555,2.791-5.826,5.423-11.041,5.76c1.159-6.407,5.059-11.5,8.4-16.8
		c2.329-3.693,5.621-7.716,7.2-12.24c0.514-1.473,0.855-3.386,1.681-4.56c1.146-1.634,4.029-2.11,5.76-3.84
		c3.939-3.939,4.511-11.448,7.68-15.36c1.998-2.466,4.238-3.727,5.76-6.24c2.07-3.42,3.435-7.475,3.12-12.72
		c-9.001-5.521-16.845,3.02-22.56,7.2c-1.764,1.29-3.539,1.915-5.041,2.88c-2.082,1.339-3.552,3.653-5.52,5.28
		c-5.796,4.792-12.896,8.505-21.359,10.8c6.682-15.317,20.643-23.357,23.52-42.48c4.217-5.191,9.533-9.778,12-17.52
		c0.675-2.118,1.947-6.323,1.439-8.16c-0.965-3.5-10.655-4.441-14.64-3.12c-4.595,1.523-8.969,4.829-13.2,7.92
		c-8.059,5.887-14.578,12.884-23.279,18.48c-4.83,3.106-8.598,11.046-15.36,8.4c1.16-6.68,4.23-11.449,8.88-14.64
		c3.799-12.601,12.98-19.82,18.48-30.72c-0.113-0.512,0.342-0.457,0.72-0.48c1.462-6.618,4.257-11.903,4.319-19.92
		c-3.111-2.295-5.779-3.953-11.279-3.36c-5.852,0.631-10.923,6.47-17.28,6.96c-0.667,0.051-1.305-0.115-1.92,0
		c-3.083,0.576-3.873,3.134-5.52,4.56c-3.582,3.099-9.999,3.875-13.44,6.72c-1.354,1.119-2.035,3.092-3.6,4.08
		c-2.58,1.628-5.079,1.281-7.44,2.88c-1.368,0.926-2.048,2.432-3.6,3.84c-1.396,1.266-3.766,2.611-5.76,4.08
		c-2.233,1.645-4.219,3.269-6.48,4.08c-7.949,7.332-18.071,12.489-27.12,18.72c-2.934,6.071-9.324,9.514-14.16,14.16
		c-5.454,5.239-9.672,13.599-16.56,17.28c-2.543,1.359-4.579,2.422-6.96,4.32c-4.225,3.367-8.413,6.493-12.48,9.84
		c-0.341,5.764-5.606,7.801-4.32,14.4c-5.317,2.389-11.679,4.926-10.32,13.199c3.342,1.63,10.344,2.474,11.76-1.439
		c3.867-0.453,3.454-5.187,4.32-8.641c0.76-0.68,1.944-0.936,2.88-1.439c8.415-10.865,19.838-18.722,26.88-30.96
		c10.234-4.806,17.914-12.167,26.4-18.72c0.86-0.061,0.879,0.721,1.68,0.72c1.045-0.449,0.951-1.408,0.72-2.64
		c10.092-6.75,19.823-14.842,28.8-22.8c1.574-1.395,3.096-2.916,4.8-3.84c1.806-0.979,4.606-1.056,6.72-2.4
		c1.272-0.809,2.532-3.302,4.08-3.6c5.935-1.144,10.327-5.481,15.36-8.88c5.009-3.382,9.989-6.492,16.08-7.92
		c0.539,3.673-0.787,7.522-2.16,10.08c-0.342,1.153-0.982-1.149-1.92-0.96c-0.153,0.517-0.098,2.57,1.44,2.16
		c-4.317,8.628-8.769,16.567-14.4,24.48c-1.656,2.328-4.59,4.86-5.52,7.2c-0.396,0.996-0.056,2.199-0.48,3.12
		c-2.492,5.406-12.089,5.569-12.48,12.72c-9.483,10.913-17.031,23.076-25.92,34.32c-8.781,11.106-19.152,21.264-25.68,34.32
		c-0.943,0.416-1.995,0.725-2.88,1.199c0,1.04,0,2.08,0,3.12c-3.776,1.165-5.556,4.844-8.16,8.16
		c-11.742,14.954-24.604,31.015-35.52,47.04c-1.182-0.338-1.656-1.384-2.16-2.399c-0.847,0.127-1.073,0.703-1.92,0.239
		c0.548-5.507-3.068-6.852-7.2-7.68c0.93-0.51,1.291-1.589,1.68-2.64c-0.383-0.674-1.08,0.337-1.92,0
		c-0.053,0.716,0.886,0.815,0.24,1.439c-0.778-0.271-0.839-1.4-0.48-2.16c-0.796-1.214-4.033-3.867-1.2-5.04
		c0.427,0.773,0.112,2.288,0.96,2.641c1.492,0.071,1.01-2.907,0.72-3.84c-2.365-0.445-2.166,1.674-4.08,1.68
		c-0.989-0.932-1.625-2.216-1.68-4.08c1.01-0.51,2.924-0.116,4.32-0.24c1.218-0.941,1.829-2.491,2.16-4.32
		c-1.554-0.805-2.846,3.955-4.32,1.681c-0.146-0.946,1.318-0.282,1.92-0.48c-1.184-2.454-2.819,1.974-4.08,0.24
		c-0.546,0.573,0.041,2.28-1.2,2.16c-1.109-3.409-4.362-8.343,0.72-9.601c0.27-1.31-1.557-0.522-1.2-1.92
		c1.209-0.249,1.675,0.245,1.92,0.96c1.522-0.397,0.669-3.17,1.44-4.319c-0.217-0.424-0.537-0.743-0.96-0.96
		c-0.881-0.081-1.231,0.368-1.44,0.96c0.387,0.807,0.76-0.755,1.2,0c-0.023,1.096,0.194,2.435-0.48,2.88
		c-0.886-0.193-0.199-0.988,0-1.44c-2.016-1.226-4.644-1.254-6.96-1.68c0.196-0.925,0.991-1.249,1.44-1.92
		c0.848,0.112,0.88,1.04,1.2,1.68c1.504-0.181,1.768-2.247,0.72-3.12c1.113-1.42,0.051-2.584,1.44-4.08
		c-1.184-0.071-3.044,2.025-2.16,4.08c-0.762,0.438-1.286,1.114-2.64,0.96c0.302-1.262-0.46-1.459-1.2-1.68
		c-0.419-3.355-2.073-6.437-1.44-10.08c0.102-0.821-0.719-0.721-0.96-1.2c-0.148-3.028,1.295-4.465,2.88-5.76
		c-0.019-0.861-1.569-0.19-1.92-0.72c0.048-1.408-0.705-2.016-1.44-2.641c0.563-2.433-1.919-3.734-0.48-5.52
		c-0.876-1.287-2-3.334-1.92-5.04c0.02-0.414,0.758-0.219,0.96-0.96c0.166-0.608-0.819-2.156,0.48-2.16
		c0.079-1.039-1.329-0.591-1.2-1.68c0.41,0.01,0.622-0.179,0.72-0.48c-0.218-0.58-0.708,0.544-1.44,0.24
		c-0.169-1.351-1.318-1.723-2.16-2.4c0-0.479,0-0.96,0-1.439c-0.036-0.757,0.973-0.467,1.2-0.96c0.713-2.339-0.702-3.809-0.72-5.76
		c-0.026-2.859,2.633-5.12,1.2-8.161c0.073-0.887,1.02-0.899,1.44-1.439c-0.327-1.673-1.431-2.569-1.92-4.08
		c0.756-0.759,0.307,0.911,1.2,0.72c0.257-2.386-0.457-6.319,1.2-7.92c-1.002-0.203-1.133,0.466-1.92,0.48
		c0.697-2.309,2.347-4.79,1.44-7.92c-0.511-0.609-1.628-0.612-1.68-1.68c0.576-1.11,2.508-1.298,3.84-0.96
		c-0.849-3.505,1.526-5.604,1.2-9.36c0.847-0.033,1.073-0.687,1.92-0.72c-0.238-2.603,0.627-4.824-0.24-6.72
		c0.08-1.04,1.329-0.911,1.92-1.44c-0.24-1.017-0.426-2.625,0-3.6c1.67,0.676,1.257-1.857,2.88-1.92
		c0.066-1.026-0.697-1.223-1.2-1.68c1.174-0.826,1.665-2.335,3.36-2.64c-0.387-1.533-2.243-1.597-2.64-3.12
		c-0.024-1.065,1.333-0.747,1.68-1.44c0.62,0.613-0.566,2.141,0.48,2.64c1.163-0.677,3.097-0.583,3.6-1.92
		c-0.094-1.667-1.824-1.696-2.64-2.64c0.054-0.346,0.716-0.084,0.72-0.48c-0.458-0.822-1.727-0.834-1.92-1.92
		c1.018-0.982,1.864-2.136,3.84-2.16c-0.076-1.647,0.991-3.259,0.24-4.8c1.509-1.851,3.151-3.569,3.6-6.48
		c1.908,0.228,1.632-1.728,3.12-1.92c0-0.72,0-1.44,0-2.16c1.623-0.457,1.348-2.812,3.6-2.64c0.375-1.385,1.086-2.435,2.4-2.88
		c-0.929-2.789,2.641-3.916,1.68-6.72c0.759-0.04,0.802,0.638,1.68,0.48c0.403-0.83-0.196-1.59,0-2.88
		c1.555-1.213,2.573,0.295,3.84,0.72c2.288-0.516,1.295-3.243,1.92-5.04c0.569-1.636,2.25-1.892,2.88-3.12
		c0.888,0.232,0.654,1.586,1.44,1.92c0.545-0.175,0.718-0.722,0.96-1.2c-0.087-0.873-0.567-1.353-1.44-1.44
		c0.866-0.495,0.371-2.349,1.92-2.16c0.277-1.003,0.237-2.323,0.96-2.88c0.866,0.662,2.232,0.548,2.88-0.24
		c-0.483-0.397-1.457-0.304-1.68-0.96c1.012-2.668,3.113-4.248,6.48-4.56c0.316-2.203,0.936-4.978,3.6-4.08
		c0.358-0.922,1.783-0.777,1.44-2.4c1.729,1.013,1.558-1.747,3.12-1.68c0.121-1-0.702-1.059-0.48-2.16
		c2.57-0.549,3.923-2.316,5.28-4.08c0.787,0.014,0.917,0.683,1.92,0.48c0.709-2.01,2.312-3.128,4.32-3.84
		c0.41-1.29,2.218-3.127,3.6-1.92c1.27-2.09,4.135-2.585,5.28-4.8c2.937,0.296,4.083-1.197,5.28-2.64
		c0.435,0.604,1.025,1.054,1.92,1.2c0.57-0.15-0.038-1.477,0.48-1.68c1.565-0.275,3.284-0.396,4.8-0.72
		c0.882,0.638,1.226,1.814,2.4,2.16c0.67-1.17-1.503-1.304-1.68-2.4c-0.038-1.811,2.53-1.66,3.36-0.72
		c0.237-0.957-0.717-0.723-0.48-1.68c0.72,0,1.44,0,2.16,0c0.955-1.365,3.222-1.417,3.84-3.12c1.794,1.049,3.021-1.642,5.04-0.96
		c0.324-0.636,0.38-1.54,0.96-1.92c1.489,0.591,2.67,1.491,5.04,1.2c0.896-0.385,1.094-1.466,1.68-2.16
		c0.808,0.152,1.23,0.689,2.4,0.48c0.072-2.011,2.969-2.807,4.32-1.44c0.728,0.008,0.232-1.208,0.96-1.2
		c3.145,1.196,4.934-0.918,8.16-0.96c0.321,1.118,0.627,2.252,1.44,2.88c0.956-0.405,0.879-1.841,2.64-1.44
		c0.985-1.016,0.892-3.108,3.36-2.64c-0.098,1.778-0.172,3.533,1.68,3.36c1.488,0.048,0.52-2.36,2.4-1.92
		c0.795,1.158-1.118,1.353-0.96,2.64c1.887,0.566,2.292-2.102,3.36-3.12c0.697,0.311,1.704,0.311,2.4,0
		c-0.592,1.628,0.247,2.007,0.96,2.88c-1.039-0.019-1.589-0.503-1.92,0.48c2.494,2.432,3.383-2.378,3.6-4.56
		c1.701-0.059,2.31-1.21,4.32-0.96c1.59,1.474,6.147,2.919,8.64,1.2c1.119,1.505,4.515,2.696,6.479,1.2
		c0.3,0.581,0.595,1.166,0.72,1.92c1.816-1.025,2.133,1.335,3.36,1.68c1.36,0.24,0.881-1.359,1.681-1.68
		c1.592-0.072,2.815,0.224,3.359,1.2c1.393-0.527,1.944-1.896,4.08-1.68c0.615,0.425,0.695,1.385,0.96,2.16
		c1.057,0.605,3.464-0.571,4.08-0.48c0.808,0.12,1.538,1.226,2.16,1.44c2.42,0.835,6.552,1.301,7.2-0.96
		c1.01,0.51,2.143,0.897,3.84,0.72c1.371,3.909,6.389,4.172,11.04,4.8c0.45,0.458-0.143,0.435,0,1.2
		c0.809,0.574,1.024-1.104,2.159-0.96c1.049,0.792,1.659,2.021,3.841,1.68c0.493,1.587,1.968,2.193,2.399,3.84
		c1.07-0.451,2.271-0.77,3.84-0.72c1.115,1.446,2.438,2.683,5.281,2.4c1.425,1.214,2.719,2.561,5.039,2.88
		c0.068,0.708-0.037,2.236,1.68,1.92c-0.018,1.058,0.018,2.063,0.721,2.4c1.158-0.515-0.525-1.279-0.24-2.4
		c3.475,0.845,6.408,2.232,7.68,5.28c0.561,0,1.121,0,1.681,0c-0.052,2.292,1.586,2.894,2.399,4.32c1.14,0.099,1.262-0.819,2.4-0.72
		c1.165,0.355,1.326,1.713,2.16,2.4c0.252,0.893-0.81,0.471-0.96,0.96c0.892,1.29,2.483-0.225,3.36-0.48
		c0.111,0.848,0.605,1.314,0.959,1.92c0.732,0.304,1.223-0.821,1.44-0.24c0.454,0.825,0.104,2.456,0.479,3.36
		c0.758,0.687,0.684-0.913,1.44-0.96c1.767,0.631,2.844,1.059,2.4,3.12c-0.472,2.192-2.952,2.904,0,3.84
		c0.896,0.095,0.101-1.499,0.72-1.68c1.359-0.469,1.11,1.916,1.92,1.2c0.867,0.505-0.479,0.774-0.48,1.2
		c1.145,0.024,1.314-0.926,2.4-0.96c1.318,0.762,2.632,1.528,2.4,3.84c0.891,0.656,0.891-1.237,2.16-0.96
		c1.189,0.09,1.04,1.52,2.16,1.68c0.236,0.957-0.718,0.723-0.48,1.68c2.033,2.047,3.364,4.796,6.96,5.28
		c0.399,1.361,1.243,2.276,2.88,2.4c0.146,1.266-0.213,2.027-1.199,2.16c0.637,2.213,4.062,2.748,3.84,5.04
		c1.336-0.288,3.28,0.01,3.6,1.44c-1.179,0.386-0.859,2.566-2.4,1.92c-0.029,1.31,0.964,1.596,1.44,2.4
		c1.188,0.069,1.432-0.808,2.399-0.96c0.525,1.699,2.135,2.961,2.16,4.56c0.029,1.77-2.148,2.634-1.92,4.8
		c1.091,0.131,1.317-0.603,1.68-1.2c1.035,0.565,1.662,1.538,1.92,2.88c-1.064,0.564-2.18-0.627-3.119-0.96
		c-0.139,0.779,0.163,1.117,0.24,1.68c0.891,0.389,2.36,0.199,3.6,0.24c0.201,0.519,0.621,0.819,0.48,1.68
		C298.698,85.656,298.471,84.31,298.801,83.521z M203.522,10.32c0.546-1.321-2.172-2.586-3.36-2.16
		C200.987,9.175,201.5,10.501,203.522,10.32z M188.641,12.48c1.013-1.011-0.111-2.967-1.92-2.64
		C187.317,10.765,187.606,11.996,188.641,12.48z M158.881,16.56c-0.713-0.97-0.225-1.471,0-2.64c-0.669-0.547-1.186,0.242-1.92-0.24
		C157.421,14.82,157.155,16.687,158.881,16.56z M96.241,25.68c0.417,1.305,3.079,0.739,2.64-0.96
		C97.699,24.737,96.278,24.517,96.241,25.68z M172.561,30c0.703-0.337,1.436-0.645,2.641-0.48c-0.274-1.162,2.226-1.813,0.96-2.4
		C176.204,29.322,172.475,27.753,172.561,30z M238.561,33.84c0.973-1.27-0.849-1.451-0.959-2.4c0.307-0.013,0.332-0.308,0.72-0.24
		c0.513,0.287,0.298,1.302,1.44,0.96c0.081-1.202-0.915-1.326-0.721-2.64C236.583,29.29,236.077,33.765,238.561,33.84z
		 M178.561,32.16c0.428,0.612,1.1,0.981,2.16,0.96c0.104-0.457,0.518-0.603,0.48-1.2C180.391,31.769,178.69,30.943,178.561,32.16z
		 M240.481,41.52c1.019-0.262,0.658-1.902,2.4-1.44c-0.049-0.751,0.162-1.762-0.24-2.16c-0.239,0-0.479,0-0.72,0
		C242.196,39.766,239.773,40.021,240.481,41.52z M84.001,42.24c0.756,0.116,0.543-0.737,1.44-0.48c0.179-1.22-0.239-1.841-0.96-2.16
		C84.034,40.144,83.402,41.407,84.001,42.24z M220.801,42.24c0.862,0.801,2.557,0.881,3.36,0c-0.086-0.714-0.382-1.218-0.72-1.68
		c-1.385,0.669-1.029-0.583-2.4-0.48C220.639,40.479,220.85,41.489,220.801,42.24z M103.201,42.72c1.153-0.376,2.49-0.291,3.12,0.48
		c0.203-1.002-0.466-1.133-0.48-1.92c-0.88,0-1.76,0-2.64,0C103.201,41.76,103.201,42.24,103.201,42.72z M137.042,44.88
		c-0.044-1.876-0.547-3.293-2.64-3.12C134.915,43.167,135.172,44.83,137.042,44.88z M262.082,46.08c0.645-0.555-0.411-2.812,1.2-2.4
		c-0.192-0.833,0.357-0.922,0.24-1.68c-0.307-0.013-0.332-0.308-0.721-0.24C262.614,43.139,260.282,44.957,262.082,46.08z
		 M177.841,45.84c1.481-0.122,1.887,0.833,3.12,0.96c0.069,0.73-0.038,1.638,0.721,1.68c-0.695-0.986-0.057-3.304-0.961-4.08
		c-0.101,0.459-0.086,1.033-0.72,0.96c-0.812,0.091-1.024-0.416-1.44-0.72c-0.344-0.715,0.843-1.462-0.239-1.44
		C177.699,43.617,177.835,44.794,177.841,45.84z M125.042,51.36c1.371-0.251,1.405,0.835,2.4,0.96c0-0.64,0-1.28,0-1.92
		C126.616,50.078,125.204,50.324,125.042,51.36z M255.362,54.96c1.688,0.248,1.23-1.649,1.92-2.4
		C255.676,52.395,255.603,53.762,255.362,54.96z M256.082,57.36c1.784,0.104,2.97-0.391,3.36-1.68
		C257.711,55.63,256.187,55.786,256.082,57.36z M59.521,61.44c1.024-0.336,2.365-0.355,2.16-1.92c-1.456,0.016-2.443-0.437-3.6-0.72
		C58.132,60.11,58.689,60.913,59.521,61.44z M196.322,66.72c0.55-1.388-0.177-3.043-1.681-3.12
		C194.141,64.817,194.851,66.695,196.322,66.72z M264.001,68.88c1.337-0.184,2.269-0.772,2.64-1.92
		c-0.377-0.022-0.188-0.612-0.719-0.48C265.729,67.727,264.168,67.607,264.001,68.88z M281.282,71.28
		c-0.104,0.457-0.518,0.603-0.48,1.2c1.262-0.215,3.739-1.379,2.881-2.16C282.842,70.541,282.211,71.913,281.282,71.28z
		 M105.122,73.92c1.457,0.003,2.587,0.526,3.6-0.24c0.265-1.384-0.941-1.298-0.72-2.64c-0.64,0-1.28,0-1.92,0
		C106.408,72.646,105.389,72.908,105.122,73.92z M61.921,72.96c-0.09,1.05,0.766,1.154,1.44,1.44c0.584-0.616,1.565-0.835,1.68-1.92
		C64.05,71.85,63.345,73.976,61.921,72.96z M36.961,73.44c0.009,1.511,1.071,1.968,2.64,1.92c0.137-0.751,1.375-2.11,0.24-2.64
		C39.647,74.534,37.748,72.918,36.961,73.44z M277.922,75.36c1.492,0.133,1.102-1.619,1.439-2.64c-0.48,0-0.96,0-1.439,0
		C277.922,73.6,277.922,74.48,277.922,75.36z M113.281,77.041c0.89,0.389,2.067-0.74,2.4-1.68
		C114.559,74.738,113.676,76.162,113.281,77.041z M32.881,79.2c1.322-0.038,2.24-0.479,2.4-1.68c-0.904,0.184-1.147-0.293-1.92-0.24
		C33.348,78.067,32.679,78.198,32.881,79.2z M258.001,77.76c-0.155,0.876,0.162,1.278,0.479,1.68
		c0.553-0.889,2.049-0.832,2.881-1.44C260.411,77.11,259.549,78.294,258.001,77.76z M176.162,82.081
		c1.288,0.788,1.894-0.914,2.16-1.92c-0.458-0.103-0.603-0.517-1.2-0.48C177.472,80.657,176.7,80.906,176.162,82.081z M59.281,88.8
		c-0.139,0.939,0.207,1.394,0.48,1.92c0.652-0.148,1.124-0.476,1.44-0.96c-0.728,0.008-0.232-1.208-0.96-1.2
		C60.005,89.233,59.601,88.212,59.281,88.8z M288.002,92.4c0.879,0,1.853,0.093,1.68-0.96c-0.508-0.529-0.71,0.308-1.44,0.24
		c-0.376-0.758,0.132-1.053,0.24-1.92C286.877,89.464,287.565,91.944,288.002,92.4z M127.921,94.081c-0.26,0.614,0.729,1.144,0,1.44
		c-0.851,0.05-0.474-1.126-1.44-0.96c-0.367,0.681-0.659,1.579-0.24,2.4c-0.836,0.283-2.281-0.041-2.16,1.2
		c1.413,0.397,2.634-1.325,4.8-0.96c-0.338-1.544,0.753-2.918,0.24-3.84C128.902,93.781,128.675,94.194,127.921,94.081z
		 M89.761,96.24c0.866-0.494,1.086-1.634,1.44-2.64C89.62,93.217,88.91,95.727,89.761,96.24z M121.441,95.521
		c0.727,0.227,2.879,0.071,2.64-1.44C122.664,94.022,121.503,94.222,121.441,95.521z M257.522,99.121
		c0.133,0.987,0.979,1.261,2.16,1.2C260.111,98.771,257.951,97.645,257.522,99.121z M297.362,100.081c1.783,0.097,2.77-0.892,4.08,0
		C303.442,97.386,297.809,98.848,297.362,100.081z M39.121,103.92c0.349,0.353,1.571,0.353,1.92,0
		c-0.206-0.833-0.338-1.742-1.2-1.92C39.542,102.582,39.247,103.166,39.121,103.92z M157.441,108.72
		c0.761,1.792,3.188,1.618,3.84-0.24c-0.679-1.081-1.226-2.295-2.64-2.64C158.536,107.095,157.612,107.531,157.441,108.72z
		 M103.681,108c-0.098,0.578,0.438,0.521,0.24,1.2c1.189,0.15,1.271-0.809,2.64-0.48C106.46,107.172,104.877,108.048,103.681,108z
		 M135.361,108.72c0,0.72,0,1.44,0,2.16c0.284,0.276,0.849,0.271,1.44,0.24c-0.059-0.763-0.056-1.265,0.48-2.4
		C136.755,108.19,136.301,108.958,135.361,108.72z M283.922,112.32c0.39,0.787-0.055,0.917,0,1.92
		c1.457,0.258,1.545-0.854,1.439-2.16C284.627,111.906,284.656,112.495,283.922,112.32z M229.682,119.76
		c-0.736,0.544-2.473,0.088-2.881,0.96c1.337,0.982,3.792,0.095,3.601-1.92c-0.423,0.138-1.41-0.29-1.44,0.24
		C229.307,119.175,229.547,119.415,229.682,119.76z M12.481,123.84c1.063-0.057,1.714-0.526,1.92-1.44
		C13.86,120.955,12.068,122.208,12.481,123.84z M114.481,122.4c-0.313,1.833,1.655,1.385,3.12,1.44
		C117.423,121.617,115.822,122.667,114.481,122.4z M311.762,129.84c-0.119-0.842-0.358-1.562-0.24-2.64
		c-0.477-0.003-0.305-0.655-0.96-0.48C309.997,127.857,310.733,129.522,311.762,129.84z M312.961,132.96
		c1.776-0.064,4.105,0.426,4.32-1.2C316.063,131.481,312.987,131.261,312.961,132.96z M288.002,136.081
		c1.582,0.303,1.846-0.714,1.68-2.16C288.389,133.908,287.883,134.682,288.002,136.081z M197.762,138.24
		c1.553-0.046,2.182-1.018,2.159-2.64c-0.477-0.003-0.306-0.655-0.96-0.48C199.018,136.616,197.45,136.489,197.762,138.24z
		 M15.121,136.32c0.26,1.391,1.374,2.764,2.88,2.16c0.331-0.31,0.238-1.042,0.24-1.68C17.67,136.242,16.075,135.729,15.121,136.32z
		 M260.641,137.76c0.03,1.878,2.779,1.133,2.641-0.48c-0.051-0.269-0.267-0.374-0.48-0.48
		C262.559,137.598,261.055,137.134,260.641,137.76z M22.081,138.72c0.697,0.312,1.704,0.312,2.4,0
		C24.444,137.036,21.046,136.332,22.081,138.72z M313.922,143.041c1.383,0.023,2.061-0.659,3.119-0.96
		c0.049-1.009,0.087-2.007-0.72-2.16C316.819,141.731,314.669,141.811,313.922,143.041z M316.562,145.201
		c0.133,0.667,0.928,0.672,1.44,0.96c-0.26-0.781,0.129-2.209-0.721-2.4C316.95,144.149,316.432,144.351,316.562,145.201z
		 M66.721,159.6c1.851,0.836,3.657-0.302,3.12-2.64C68.244,157.283,67.004,157.963,66.721,159.6z M57.361,172.081
		c0.491,0.472,2.548,0.94,2.64-0.24C59.446,170.959,57.426,170.32,57.361,172.081z M10.081,184.321
		c0.52-0.755-0.171-1.957-0.48-2.641c-0.24,0-0.48,0-0.72,0C8.476,182.687,8.344,184.741,10.081,184.321z M25.201,187.441
		c0.046,1.073,0.261,1.979,0.96,2.399c-0.453-2.148,2.878-2.116,3.36-4.08c-1.369,0.329-1.45-0.629-2.64-0.479
		C27.026,186.706,26.594,187.553,25.201,187.441z M9.841,198.96c1.833-0.233,1.773,1.427,2.64,2.16c0.68-0.25,1-0.25,1.68,0
		c0.033-0.847,0.687-1.073,0.72-1.92c-1.969-0.111-2.525-1.635-4.56-1.68C10.129,197.969,9.92,198.4,9.841,198.96z M23.281,223.92
		c0.773,0.053,1.016-0.425,1.92-0.24c0-0.72,0-1.439,0-2.159C23.825,221.583,23.175,222.375,23.281,223.92z"/>
	<path fill-rule="evenodd" clip-rule="evenodd" d="M298.801,83.521c-0.192,0.127-0.389,0.25-0.72,0.24
		c-0.292-0.908-0.952-1.448-1.44-2.16C297.586,80.317,299.374,81.75,298.801,83.521z"/>
	<path fill-rule="evenodd" clip-rule="evenodd" d="M197.762,104.64c-4.912,11.386-12.418,21.174-19.44,30.96
		c-2.347,3.27-4.232,7.138-6.72,10.08c-2.035,2.406-5.174,3.955-7.44,6.24c-2.434,2.454-3.595,5.26-6,7.68
		c-0.256,2.145-1.199,3.602-1.68,5.521c-7.461,5.862-13.668,13.515-19.92,21.36c-5.917,7.423-12.392,14.748-18.72,22.56
		c-8.989,11.097-18.283,22.677-27.6,34.32c-4.105,5.13-10.218,11.925-6,19.68c10.07,1.692,15.75-8.412,20.64-14.64
		c3.913-4.983,7.737-9.327,11.28-14.641c1.168-1.751,1.901-3.844,3.12-5.52c1.066-1.465,3.25-2.907,5.04-4.561
		c11.155-10.294,22.18-21.923,33.84-31.68c6.931-5.8,13.985-11.088,20.64-16.8c3.427-2.941,6.83-5.671,10.32-8.4
		c3.565-2.788,7.248-4.94,11.279-7.439c1.862-1.154,4.281-4.84,6.24-2.16c0.404,9.654-6.057,15.261-10.8,20.399
		c-4.845,5.251-8.147,10.677-12,16.08c-0.479,0-0.96,0-1.44,0c-0.465,0.463,0.253,0.966,0.24,1.681
		c-4.323,5.215-8.845,12.403-13.439,18.24c-1.586,2.014-3.806,3.318-5.28,5.279c-4.136,5.502-9.947,17.566-4.56,25.2
		c16.475-0.726,20.787-13.613,28.081-23.52c10.529-4.109,18.31-9.663,25.92-16.801c2.591-2.43,5.53-4.69,9.6-5.04
		c-1.596,14.232-13.54,20.307-14.64,34.801c-0.388,5.107,3.751,7.621,8.64,7.68c0.975,0.012,2.082-0.094,2.881-0.24
		c9.006-1.647,16.616-7.497,22.319-13.2c2.47-2.469,4.389-4.961,7.681-6c3.854-1.216,5.663-4.723,9.84-5.52
		c1.402-5.077,6.82-6.14,9.84-9.601c0.74-1.419,0.824-3.892,1.92-5.04c1.258-1.317,4.237-1.646,5.76-2.64
		c4.549-2.966,7.896-8.421,11.76-10.8c0.49-0.482,0.471,0.106,0.961,0.24c1.523-3.115,5.019-4.262,8.159-5.761
		c2.866-5.083,8.409-10.663,13.921-14.88c2.534-1.939,6.088-5.883,8.399-1.92c-0.177,1.424-1.954,1.246-2.16,2.641
		c0.231,1.287,1.11,1.929,2.64,1.92c-0.359,2.52-0.539,5.221-1.439,7.199c1.795,2.271-0.676,5.198,0.24,7.921
		c0.347,1.253,2.635,0.564,2.399,2.399c-0.585,1.895-4.925,0.035-5.52,1.92c-0.058,1.417,0.79,1.931,1.2,2.88
		c-0.668,0.853-1.154,1.887-1.2,3.36c-0.401,0.318-0.804,0.636-1.681,0.479c-0.082,2.084,0.09,3.91,0.48,5.521
		c-0.431,0.03-0.506-0.294-0.96-0.24c-0.198,1.516,0.737,2.503,0.239,3.601c0.22,0.652,0.447-0.64,1.201-0.24
		c-1.359,1.201-1.223,3.897-3.601,4.08c-0.681,2.599-0.286,6.273-0.96,8.88c-3.71,1.869-2.604,7.123-5.52,9.84
		c0.193,0.847,0.556,1.523,0.959,2.16c-3.16,0.76-4.244,3.595-5.039,6.72c-1.096-0.215-1.361,0.4-2.16,0.48
		c0.312,2.151-0.889,2.792-0.721,4.8c-0.43,0.03-0.506-0.294-0.959-0.24c-1.325,3.155-3.648,5.312-5.041,8.4
		c-1.249,0.049-1.562-0.837-1.68-1.92c-0.963,0.477-1.045,1.835-2.4,1.92c0.072,1.432-0.096,2.624-0.719,3.36
		c0.628,0.856,1.486,0.16,2.639,0.239c0.467,1.913-2.064,1.541-3.119,1.2c-0.595-0.846,0.148-3.028-1.2-3.12
		c-1.435,0.246-0.238,3.122-1.44,3.601c0.283,0.677,2.189-0.269,2.16,0.72c0.006,1.285-1.314,1.245-2.4,1.439
		c0.5,1.248-0.366,1.641-0.239,3.12c-0.747,0.293-1.521,0.559-2.64,0.48c0.297,0.742,0.764,1.322,0,1.92
		c0.614,0.26,1.144-0.729,1.439,0c0.419,2.05-2.725,1.14-3.12,0.479c-0.618,0.982-0.775,2.425-1.44,3.36
		c-0.565,0.587-0.445-0.358-1.199-0.24c-1.537,2.145-3.027,4.334-4.801,6.24c-3.274-0.64-4.109,2.604-5.279,4.8
		c-0.717,0.287-0.816,0.066-1.439-0.239c-1.622,2.139-3.228,4.293-5.281,6c-1.484-0.722-3.057,0.447-4.319,0
		c-0.316,1.996,2.145,1.215,1.68,3.359c-1.122,0.76-1.715-0.756-2.64-0.96c-1.234,1.485-2.459,2.981-4.801,3.36
		c0.469,0.763,1.611-0.542,2.16,0.24c-0.593,2.366-4.669,1.25-5.52,3.359c-2.213-0.777-5.105,1.07-6,3.12c-1.12,0-2.24,0-3.359,0
		c-0.854,0.428-0.993,1.567-1.681,2.16c-1.419,0.021-3.181-0.3-2.88,1.44c-1.356-0.507-2.752-0.18-2.641,1.439
		c-0.676-1.004-2.023-1.336-2.879-2.16c-1.409,0.992-2.395,2.406-3.121,4.08c-2.296-0.61-3.377,2.719-4.799,0.72
		c-1.113,2.648-6.291,1.23-7.681,3.601c-3.237,0.193-6.391,1.204-9.12,2.399c-0.606-1.583,0.229-4.442-1.2-4.56
		c-1.146-0.094-1.416,2.631-0.96,4.32c-0.935,0.546-2.975,1.586-4.08,0.479c-1.962,1.438-4.488,2.935-7.439,2.641
		c-1.834-0.184-3.23-1.85-5.04-0.96c-0.55-0.091-0.32-0.96-0.72-1.2c-2.013-0.012-1.217,2.046-1.92,2.88
		c-1.976-0.356-4.789,2.035-5.521-0.72c-1.263,0.95-2.856,0.178-3.841-0.48c-2.205,1.427-4.469,1.545-6.719,2.64
		c-0.98,0.073-0.129-0.501-0.24-0.96c-2.357,1.311-6.022-1.164-7.2,1.44c-1.18,0.06-0.488-1.752-1.2-2.16
		c-1.135,0.159-1.496,1.365-1.92-0.24c-0.903,0.997,0.695,1.535,0.48,2.641c-0.901-0.645-1.567-0.321-2.88-0.24
		c-0.594-0.846-0.65-2.23-1.68-2.64c-1.188,0.182,0.123,1.917-0.24,1.92c-1.343-0.257-1.923-1.277-2.88-1.92
		c-2.34,0.859-5.159,1.24-8.4,1.199c-0.4-0.32-0.08-1.359-0.48-1.68c-1.119-0.159-1.542,0.378-2.4,0.48
		c0.253-1.693-1.548-1.332-1.68-2.641c-2.51,0.291-4.729,2.148-7.68,1.2c-0.23-1.19,1.517-0.403,1.92-0.96
		c-0.023-2.199-3.774,0.767-3.36-1.92c-2.643,0.229-3.833,2.034-6,2.16c-1.068,0.036-0.144-0.974,0-1.2
		c-0.508-1.172-2.106-1.254-3.6-1.44c-0.375-0.744-0.712-1.527-1.2-2.159c-1.593,1.664-5.282,1.159-7.92,0.72
		c-0.127-1.007,0.419-1.341,0.48-2.16c-0.865-0.502-1.627,0.844-3.12,0.479c0-0.64,0-1.279,0-1.92
		c-2.729,0.238-6.17-0.427-9.12-0.72c-0.402-0.398-0.191-1.409-0.24-2.16c-0.259-0.701-1.143-0.777-2.16-0.72
		c-0.547-0.67,0.242-1.186-0.24-1.92c-6.094,0.385-11.503-2.56-8.88-8.64c-2.139,0.501-2.476,2.804-2.88,5.04
		c-0.669,0.18-2.004-0.993-3.36-0.24c0.402-1.603-0.845-1.556-1.68-1.92c-0.286-1.006,1.012-0.429,1.2-0.96
		c-0.984-1.017-3.264-0.736-4.32-1.681c-0.299-1.019,0.798-0.642,0.96-1.199c-0.739-1.627-1.995,0.344-3.6,0
		c-0.654-0.725,0.166-1.431,0.24-2.16c-0.539-0.469-1.805-0.21-2.4,0c-0.224-0.803-1.339-2.229-0.24-2.88
		c-0.647-0.554-2.314-0.086-3.36-0.24c0.078-0.889-0.085-2.302-1.44-2.4c0.157-0.835,0.883-2.003,0.24-2.88
		c-1.304,0.216-1.421,1.619-2.16,2.4c-1.402-0.519-2.828-1.013-2.64-3.12c-0.691-0.029-1.571,0.131-1.92-0.24
		c-0.535-0.586-0.526-1.714-0.48-2.88c-1.116-0.404-1.832-0.131-2.64,0c-0.681-2.062-3.683-2.734-2.88-5.521
		c-1.977-0.536-0.731,2.149-2.16,2.16c-0.755-0.445-0.905-1.495-0.96-2.64c0.308-0.622,1.435,0.185,1.44-0.24
		c-0.063-1.03-1.508-0.944-2.16-0.72c-1.037-1.779-0.941-3.33-2.88-4.32c5.934-6.642,12.172-11.943,17.28-19.2
		c5.109-7.258,8.563-15.439,14.4-21.84c1.491-1.635,2.959-3.166,4.08-5.04c1.126-1.883,1.894-4.029,3.36-5.76
		c2.776-3.278,5.757-6.334,8.4-9.601c15.976-19.748,34.124-38.924,53.28-55.68c6.481-5.669,13.014-11.168,19.201-17.04
		c4.777-4.536,9.248-8.787,14.879-12.48c1.784-1.169,4.01-1.791,5.761-3.12C188.229,109.354,190.362,102.239,197.762,104.64z
		 M310.562,186.72c0.342,0.458,0.558,1.042,0.72,1.681c1.941,0.021,2.967-0.873,4.08-1.681
		C314.047,186.63,311.579,185.558,310.562,186.72z M128.642,193.201C129.582,188.055,124.542,192.589,128.642,193.201
		L128.642,193.201z M313.922,195.361c-0.029-1.571-0.412-2.788-1.681-3.12C311.639,193.559,311.92,195.866,313.922,195.361z
		 M92.641,204.72c0.517,1.066,0.173,2.517-1.2,2.4c-0.517-0.203-0.849-0.591-0.72-1.44c-0.807-0.007-0.489,1.111-0.96,1.44
		c0.683,0.517,1.886,0.514,2.64,0.96c1.049-2.23,3-3.56,3.6-6.24C93.87,201.665,94.608,205.519,92.641,204.72z M137.042,222.481
		c1.728,0.156,3.099-1.151,2.64-2.4C138.105,220.184,136.998,220.757,137.042,222.481z M206.162,224.88
		c-0.837,0.848-1.542,0.154-2.64,0C203.28,226.902,207.058,226.506,206.162,224.88z M183.841,232.321c0.48,0,0.96,0,1.44,0
		c0.637-1.502,0.025-3.659-1.92-3.36C183.383,230.554,182.981,231.367,183.841,232.321z M222.721,242.401
		c1.179-0.102,2.033-0.528,2.641-1.2c-0.428-0.453-0.697-1.062-1.68-0.96C224.337,241.891,223.161,241.39,222.721,242.401z
		 M204.961,246.481c2.123-0.037,1.563-2.757,3.12-3.36c-0.104-0.536-1.183-0.098-1.681-0.24
		C206.536,244.695,205.073,244.912,204.961,246.481z M77.761,250.321c0.194-1.191,2.241-3.181,0.48-4.08
		C78.936,248.389,76.053,249.376,77.761,250.321z M272.162,254.88c1.304-0.296,3.017-0.184,2.64-2.16
		c-1.198,0.649-1.989-0.353-3.119-0.479C271.061,253.095,271.656,254.395,272.162,254.88z M183.841,258.481
		c-0.247,2.048,3.547,1.856,3.36,0C186.523,258.1,184.52,258.1,183.841,258.481z M134.401,259.92c0.862,0.357,2.134,2.131,2.88,0.48
		C136.904,259.447,134.984,258.636,134.401,259.92z M234.481,269.76c0.773,0.054,1.016-0.424,1.921-0.239
		c0.042-1.402-0.624-2.097-1.921-2.16C234.481,268.161,234.481,268.96,234.481,269.76z M88.082,269.521
		c1.541,0.181,2.092-0.628,2.4-1.681c-0.678,0.198-0.622-0.338-1.2-0.239C89.618,268.977,87.579,267.978,88.082,269.521z
		 M78.241,271.441c0.579-0.099,0.522,0.438,1.2,0.24c-0.312-1.433,0.757-1.483,0.72-2.641
		C78.711,269.031,78.103,269.862,78.241,271.441z M152.162,276.481c-0.121-1.241,0.68-1.561,0.48-2.88
		c-0.307-0.014-0.333-0.308-0.72-0.24C151.154,273.881,150.681,276.359,152.162,276.481z M168.242,277.201
		c1.161-0.038,2.545,0.146,2.64-0.96C170.058,275.775,167.759,275.196,168.242,277.201z M80.161,279.601
		c0.918-0.748,0.492-3.262-0.96-3.12C80.334,277.239,78.626,279.37,80.161,279.601z M146.881,279.601
		c0.068,1.292,0.809,1.91,1.92,2.159c-0.047-1.487,1.214-1.665,1.2-3.119C148.428,278.427,148.716,280.076,146.881,279.601z
		 M230.881,295.681c1.605-0.555,2.119-2.201,2.4-4.08c-1.185-0.096-1.742-0.817-2.641-1.2
		C230.93,292.255,229.178,294.654,230.881,295.681z M193.442,293.041c0.193,0.9,0.756,1.697,0.24,2.641
		C196.018,295.919,195.055,292.033,193.442,293.041z M162.481,298.081c0.094-0.867,1.317-0.603,0.961-1.92
		c-1.102,0.222-1.16-0.601-2.16-0.479C161.206,296.957,161.414,297.949,162.481,298.081z M222.721,300
		c1.424,0.145,2.064-0.496,1.92-1.92c-0.732-0.663-0.752,0.844-1.68,0.72c0.112-0.752-0.604-0.676-0.96-0.96
		C222.012,298.79,222.53,299.232,222.721,300z M175.202,302.161c-0.215,1.695,2.055,2.507,3.12,1.44
		C177.957,302.545,176.316,301.69,175.202,302.161z M160.082,307.201c1.271,0.406,2.772-0.86,3.36-1.92
		c-0.24-0.721-0.721-1.2-1.44-1.44C162.375,305.974,160.16,305.519,160.082,307.201z M155.281,308.88c0-1.04,0-2.08,0-3.119
		C152.373,305.17,153.857,308.922,155.281,308.88z"/>
	<path fill-rule="evenodd" clip-rule="evenodd" d="M9.121,106.32c0.56,0,1.12,0,1.68,0c0.145,1.425-0.288,2.272-1.68,2.16
		C9.121,107.76,9.121,107.041,9.121,106.32z"/>
	<path fill-rule="evenodd" clip-rule="evenodd" d="M322.562,182.401c0.694,0.185,1.167,0.593,0.96,1.68
		c-0.341-0.021-0.68-0.04-0.721,0.24C322.26,184.142,322.708,182.974,322.562,182.401z"/>
	<path fill-rule="evenodd" clip-rule="evenodd" d="M89.761,298.321c-0.028,0.691,0.131,1.571-0.24,1.92
		c-0.975,0.374-2.085-0.438-3.12-0.72C85.775,298.028,88.525,297.219,89.761,298.321z"/>
</g>
</svg>
