<?xml version="1.0" encoding="utf-8"?>
<!-- Generator: Adobe Illustrator 15.0.0, SVG Export Plug-In . SVG Version: 6.00 Build 0)  -->
<!DOCTYPE svg PUBLIC "-//W3C//DTD SVG 1.1//EN" "http://www.w3.org/Graphics/SVG/1.1/DTD/svg11.dtd">
<svg version="1.1" id="Layer_1" xmlns="http://www.w3.org/2000/svg" xmlns:xlink="http://www.w3.org/1999/xlink" x="0px" y="0px"
	 width="600px" height="298.63px" viewBox="0 0 600 298.63" enable-background="new 0 0 600 298.63" xml:space="preserve">
<g>
	<path fill="#DAB08F" d="M0,0h38.85v257.992h51.432v40.63H0V0z"/>
	<path fill="#DAB08F" d="M209.326,0v237.27c0,0,0.353,61.36-51.795,61.36c-52.15,0-51.794-61.36-51.794-61.36V0h38.842v237.27
		c0,0-0.717,21.945,12.952,21.945c13.672,0,12.949-21.945,12.949-21.945V0H209.326z"/>
	<path fill="#DAB08F" d="M307.146,298.622l-20.139-125.948h-10.432v125.948H237.73V0h38.846c46.035,0,66.186,30.069,66.186,86.131
		c0,29.664-6.835,56.478-21.584,67.857l24.816,144.634H307.146L307.146,298.622z M276.572,43.474v88.574
		c10.79,0,28.776-1.624,28.776-44.289C305.353,45.092,287.366,43.474,276.572,43.474z"/>
	<path fill="#DAB08F" d="M356.771,298.622L396.695,0h47.478l39.925,298.622h-37.771l-7.192-60.945h-37.401l-7.192,60.945H356.771z
		 M422.597,97.102l-1.085-7.717h-2.159l-1.081,7.717l-11.152,94.262h26.622L422.597,97.102z"/>
	<path fill="#DAB08F" d="M538.76,95.476l1.081,2.841h0.717l1.077-2.841L561.061,0h38.127l-39.564,171.455V298.63h-38.852V171.455
		L481.207,0h38.127L538.76,95.476z"/>
</g>
</svg>
