<?xml version="1.0" encoding="utf-8"?>
<!-- Generator: Adobe Illustrator 15.0.0, SVG Export Plug-In . SVG Version: 6.00 Build 0)  -->
<!DOCTYPE svg PUBLIC "-//W3C//DTD SVG 1.1//EN" "http://www.w3.org/Graphics/SVG/1.1/DTD/svg11.dtd">
<svg version="1.1" id="Layer_1" xmlns="http://www.w3.org/2000/svg" xmlns:xlink="http://www.w3.org/1999/xlink" x="0px" y="0px"
	 width="267px" height="318px" viewBox="0 0 267 318" enable-background="new 0 0 267 318" xml:space="preserve">
<g>
	<path fill-rule="evenodd" clip-rule="evenodd" fill="#9A9B94" d="M137,18c-0.163,1.163,0.221,1.779,1,2
		c-5.106,2.933-1.319,2.048-1,6c-3.684,1.271-4.42-5.474-6-3C127.615,19.871,133.794,17.852,137,18z"/>
	<path fill-rule="evenodd" clip-rule="evenodd" fill="#9A9B94" d="M159,20c2.878,1.456,2.376,6.291,6,7
		c-0.168,1.165-1.581,1.086-3,1c0.221,0.779,0.837,1.163,2,1c0.857,3.19-1.574,3.093-2,5c-1.332-1.001-3.019-1.648-4-3
		c-1.003-0.003-1.19,0.81-2,1c0.111,0.795,3.306,3.031,3,1c2.59,4.684-4.529,2.189-6,0c2.001-2.13,3.755-8.268,7-6
		C158.172,24.118,158.378,23.872,159,20z"/>
	<path fill-rule="evenodd" clip-rule="evenodd" fill="#9A9B94" d="M144,22c5.911,1.549,0.869,10.201-4,10
		c-0.407-3.544-4.373-1.976-2-6c1.23,0.437,2.054,1.28,2,3C142.814,28.147,144.492,26.159,144,22z"/>
	<path fill-rule="evenodd" clip-rule="evenodd" fill="#9A9B94" d="M152,29c0-1,0-2,0-3c-1.086,0.247-0.679,1.988-2,2
		c0.733,0.934,1.818,1.515,3,2c-1.286,1.714-2.067,3.932-5,4c0.19-0.81,1.003-0.997,1-2c-0.851-0.184-0.943,0.39-1,1
		c-3.368-4.49,2.35-11.225,7-8C154.579,26.912,154.638,29.304,152,29z"/>
	<path fill-rule="evenodd" clip-rule="evenodd" fill="#9A9B94" d="M136,46c-2.48,1.298-4.853-2.231-5,0
		c-4.779-2.051,4.188-3.541,1-4c0.733-1.781,1.818-0.144,3,0c1.343,0.291-0.357-6.846,3-4c0.294-4.708-10.245-2.516-6-8
		c1.042,1.67,3.888,5,5,1C143.919,34.834,137.184,44.312,136,46z"/>
	<path fill-rule="evenodd" clip-rule="evenodd" fill="#7F8480" d="M171,30c0.61,0.057,1.184,0.149,1,1c-0.333,0-0.667,0-1,0
		c-0.182,2.182,0.818,3.182,3,3c-0.057,0.61-0.149,1.184-1,1c-0.61,0.057-1.184,0.149-1,1c-1.558-1.443-1.974-4.027-6-3
		C166.91,31.243,169.504,31.171,171,30z"/>
	<path fill-rule="evenodd" clip-rule="evenodd" fill="#9A9B94" d="M185,49c-1.278,0.055-1.385,1.282-3,1
		c-0.381-5.016-1.634-6.523-6-8c0.658-2.995,2.138,0.957,4,0C182.488,43.512,184.572,45.428,185,49z"/>
	<path fill-rule="evenodd" clip-rule="evenodd" fill="#9A9B94" d="M177,44c-0.027,0.973-1.224,0.776-2,1
		c0.027,0.973,1.224,0.776,2,1c-0.622,3.51-4.178,0.891-4-2C174.479,42.842,175.521,42.842,177,44z"/>
	<path fill-rule="evenodd" clip-rule="evenodd" fill="#9A9B94" d="M218,47c1.861,1.268,0.789,11.609,1,16
		C217.471,58.246,217.016,51.526,218,47z"/>
	<path fill-rule="evenodd" clip-rule="evenodd" fill="#9A9B94" d="M85,92c0.025-3.803,5.208-3.642,4,1
		C86.91,93.423,86.352,92.314,85,92z"/>
	<path fill-rule="evenodd" clip-rule="evenodd" fill="#7F8480" d="M144,90c-0.86,0.807-0.594,2.739-2,3c0.027,0.973,1.224,0.776,2,1
		c-0.161,1.172-1.823,0.843-3,1C140.803,92.137,140.876,89.542,144,90z"/>
	<path fill-rule="evenodd" clip-rule="evenodd" fill="#7F8480" d="M141,119c-1.333,0-2.667,0-4,0c-0.169-3.954,1.536,0.32,3-2
		c-0.027-0.973-1.224-0.776-2-1C139.182,111.931,142.269,115.019,141,119z"/>
	<path fill-rule="evenodd" clip-rule="evenodd" fill="#7F8480" d="M160,126c3.143,1.916-1.957,7.016-4,4
		C156.628,127.961,161.053,129.719,160,126z"/>
	<path fill-rule="evenodd" clip-rule="evenodd" fill="#7F8480" d="M132,145c1.912-3.117,3.578,2.327,5,3c-1.5,2.326-2.445,1.526-5,1
		C131.043,147.138,134.995,145.658,132,145z"/>
	<path fill-rule="evenodd" clip-rule="evenodd" fill="#7F8480" d="M185,146c4.051,2.54-2.387,2.832-3,4
		C178.368,146.868,185.056,146.397,185,146z"/>
	<path fill-rule="evenodd" clip-rule="evenodd" fill="#7F8480" d="M116,177c-0.851,0.184-0.943-0.39-1-1
		c-2.629-0.296-0.787,3.88-4,3c0.839-1.161,1.319-2.681,1-5C113.714,175.726,115.932,172.53,116,177z"/>
	<path fill-rule="evenodd" clip-rule="evenodd" fill="#9A9B94" d="M50,177c-3.491,1.812-8.145,6.771-11,6
		C39.866,177.583,44.422,174.964,50,177z"/>
	<path fill-rule="evenodd" clip-rule="evenodd" fill="#7F8480" d="M60,187c-2.072,2.165-5.85,3.013-7-1c1.615-0.282,1.722,0.945,3,1
		c0.973-0.027,0.776-1.224,1-2C58.313,185.354,58.573,186.761,60,187z"/>
	<path fill-rule="evenodd" clip-rule="evenodd" fill="#7F8480" d="M44,188c1,0,2,0,3,0c-2.437,2.348,1.116,2.238,2,4
		c1.783,2.688-4.404,1.933-1,3C44.695,198.561,45.01,190.047,44,188z"/>
	<path fill-rule="evenodd" clip-rule="evenodd" fill="#7F8480" d="M47,198c2.856,2.251,4.144,18.288-1,19
		C48.506,212.42,44.331,206.256,47,198z"/>
	<path fill-rule="evenodd" clip-rule="evenodd" fill="#7F8480" d="M54,209c-1.775,1.519,1.844,6.099,3,8
		c-4.781,0.931-4.245-7.55-6-14c2.076-0.599,3.409,4.396,4,2c1.208,0.573,2.042,6.47,1,6C54.299,211.367,54.113,210.22,54,209z"/>
	<path fill-rule="evenodd" clip-rule="evenodd" fill="#7F8480" d="M117,210c1.527,0.017,2.192,7.41-1,6
		C116.668,212.131,116.002,212.442,117,210z"/>
	<path fill-rule="evenodd" clip-rule="evenodd" fill="#7F8480" d="M164,242c-0.409,1.241-1.141,2.908-3,5
		c-0.318,2.652,5.602-0.936,4,3c-2.319,0.319-3.839-0.161-5-1c-0.729-4.729,1.426-6.574,3-9c0.933,1.067,3.688,0.312,3,3
		C164.837,243.162,164.221,242.779,164,242z"/>
	<path fill-rule="evenodd" clip-rule="evenodd" fill="#9A9B94" d="M74,247c2.812,0.188,2.737,3.263,5,4c-0.43,1.57-3.146,0.854-2,4
		c-1.313-0.354-1.573-1.761-3-2C74.898,250.072,74.898,249.928,74,247z"/>
	<path fill-rule="evenodd" clip-rule="evenodd" fill="#9A9B94" d="M74,278c-1.907-0.426-1.81-2.857-5-2
		C70.187,273.358,75.128,273.278,74,278z"/>
	<path fill-rule="evenodd" clip-rule="evenodd" fill="#7F8480" d="M235,275c2.333-0.855,4.309,3.497,5,1c2.702,2.445-5.224,2.72-7,4
		c0-1.333,0-2.667,0-4C234.23,277.117,235.054,276.87,235,275z"/>
	<path fill-rule="evenodd" clip-rule="evenodd" fill="#9A9B94" d="M63,305c0,0.333,0,0.667,0,1c-3.392-0.274-3.427-3.906-7-4
		c-2.995,0.658,0.957,2.138,0,4c-2.591-1.076-3.718-3.615-7-4c-0.282-2.615,0.365-4.302,3-4c1.08-4.676-3.992-6.508-1-10
		c1.481,0.186,0.917,2.417,1,4c2.186-0.147,2.147-2.52,2-5c0.776-0.224,1.973-0.027,2-1c3.318,2.291,6.484,9.136,5,13
		c0.15,1.85,3.386,0.614,4,2C65.729,303.729,63.013,303.013,63,305z"/>
	<path fill-rule="evenodd" clip-rule="evenodd" fill="#9A9B94" d="M99,6c1.333,0,2.667,0,4,0c3.431,4.188,12.619,5.459,17,1
		c2.995,0.658-0.957,2.138,0,4c5.54-2.796,14.427,0.83,19-1c2.22,4.113,8.381,4.286,8,11c-5.687-0.314-5.299-6.701-13-5
		c0.696-3.363-2.056-3.278-3-5c-2.032,0.827,2.402,3.503,3,5c-12.339,9.979-25.077-0.676-40,5c5.208,1.43,2.293,5.482,9,6
		c-0.92,2.726-3.126-1.397-6,0c2.291,2.848,3.78,1.317,8,3c-1.347,0.849-11.435,4.258-10-1c-1.747,0.92-2.207,3.126-2,6
		c-1.333,0-2.667,0-4,0c2.678,3.178-2.982,4.422-4,7c-0.973-0.027-0.776-1.224-1-2c-1.023,0.977-2.023,1.977-3,3
		c0.437,1.484,1.28-0.395,3,0c0.185,7.518-6.075,8.591-8,14c-4.385-8.177,2.88-18.105,6-25c-0.133-5.032-9.344,1.65-6-3
		c-3.641,1.506-3.198,4.141-7,7c-2.591-2.983,4.356-4.934,5-8c4.172,2.747,13.009-0.869,11-4c7.241-2.093,12.068-6.598,11-17
		C97.419,7.086,98.832,7.165,99,6z"/>
	<path fill-rule="evenodd" clip-rule="evenodd" fill="#9A9B94" d="M75,87c2.667,0,5.333,0,8,0c0.078,9.031,5.794,7.373,7,14
		c-1.333,0-2.667,0-4,0c-0.282,1.615,0.945,1.722,1,3c-5.787-4.213-12.018-7.982-13-17C74.333,87,74.667,87,75,87z"/>
	<path fill-rule="evenodd" clip-rule="evenodd" fill="#9A9B94" d="M94,115c1.158,1.479,1.158,2.521,0,4c5.034-0.8-0.388-6.196,5-7
		c-0.19,0.81-1.003,0.997-1,2c5.754,3.231,9.717,11.364,16,11c-0.711,3.217-5.298,8.354,0,9c-1.497,1.837-4.173,2.493-5,5
		c2.001-1.291,7.338-7.259,8-1c-4.911-2.777-4.462,4.236-2,6c3.882-0.118,3.095-4.905,7-5c-1.765,6.592-10.925,5.801-8,12
		c-3.292-3.173-2.017,3.859-6,3c0.19,0.81,1.003,0.997,1,2c3.385,1.615,7.08,2.92,8,7c1.219-1.777,6.496-3.268,4,1
		c3.799-0.911,0.731-4.019,1-7c4.81,0.121,0.513-5.706,4-3c-0.555-6.056,0.406-12.089-5-11c0.279-2.054,2.671-1.996,4-3
		c-0.693-0.807-1.556-2.739,0-3c-0.15-1.85-3.386-0.614-4-2c1.004-1.329,0.946-3.721,3-4c-3.556-1.111-5.856-3.478-9-5
		c3.408-2.319,5.682,0.409,10-1c-3.518-5.815-11.055-7.612-14-14c5.538,0.473,12.918-0.347,17-4c-0.275-3.509-3.725,2.509-4-1
		c-1.027-3.36,3.11-1.557,5-2c-5.622-1.77-13.128-3.36-1-3c2.499,3.341,9.247,2.519,13,2c-1.063-2.27-6.286-0.381-9-1
		c2.207-4.46,12.517-0.817,18-2c-7.46-2.207-15.766-3.567-23-6c1.073-3.927,8.805-1.195,9-6c6.483,3.814,10.031-3.734,15-1
		c-0.56-1.44-1.56-2.44-3-3c-0.891,0.443-1.788,0.878-2,2c-1.896-1.002,2.552-4.036,3-6c2.995,0.658-0.956,2.138,0,4
		c2.196-1.47,4.035-3.298,5-6c1.357,0.31,0.83,2.504,1,4c-0.615-7.014,7.313-8.402,2-11c0.804-2.121,4.116-3.899,6-2
		c2.931-0.847-0.598-3.22,0-5c10.185,2.987,14.876,0.973,22,4c1.983,0.684-0.624,5.958,3,5c-2.488,0.495-5.643,1.078-5,7
		c3.631-3.541,7.951-10.011,15-7c-3.736-6.747-12.1-5.686-12-14c1.546-0.171,5.354,5.95,7,9c0.805-0.529,1.623-1.043,3-1
		c0.396-2.396-4.555,0.555-3-3c1.794-0.127,2.109,1.224,4,1c4.16,4.433,1.984,8.643,1,15c-10.14-2.74-7.353,13.728-12,8
		c-2.259,0.56,1.213,1.56-1,3c0.241,2.578,1.721-1.373,4,0c0.066,7.414-5.347,14.634-5,19c-1.771,1.229-4.052,1.948-5,4
		c-0.805,0.529-1.623,1.043-3,1c0.726-2.941,3.507-3.827,3-8c-2.062,0.536-0.238,4.731-3,2c1.358,3.044-3.729,6.826,1,7
		c0.02,1.496-3.715,4.09-1,5c0.163,1.163-0.221,1.779-1,2c-1.572-3.656-1.494,2.323-4,1c0.173-2.506-2.239-2.428-3-4
		c0.184,0.851-0.39,0.943-1,1c0.885,1.762,4.437,1.652,2,4c-1.017-0.65-1.034-2.299-3-2c0.228-1.772-1.008-5.008,2-4
		c-1.369-3.158-4.21,0.237-5-1c-1.484-0.437,0.395-1.28,0-3c3.458-0.812,4.222,1.867,6,0c-0.15-1.85-3.387-0.614-4-2
		c1.616,0.01,3.592-2.209,5-5c-6.798-0.797-6.95,6.757-11,7c-0.891,0.634,2.327,5.615,1,10c0.87-6.404,4.804,2.201,5-2
		c2.453,0.67,3.062,5.819,2,7c-2.319,0.319-3.839-0.161-5-1c0.228,1.772-1.008,5.008,2,4c-0.58-1.202,3.35-4.269,3,1
		c4.126-1.874,4.097-7.903,8-10c3.263,8.462-4.546,13.069-11,15c1.185,9.805,12.929,8.267,18,5c-0.19,0.81-1.003,0.997-1,2
		c6.772-3.318,15.49-1.833,22,4c0.667,0,1.333,0,2,0c4.047,6.287,4.825,15.842,7,24c10.264,5.069,20.995,9.672,35,11
		c-0.102,2.565-3.727,1.607-5,3c-0.697,5.364,2.955,6.378,4,10c-1.229,1.771-1.948,4.052-4,5c-1.688-1.645-1.241-5.426-3-7
		c-2.4,3.423,0.753,9.424,2,10c-0.86,0.807-0.594,2.739-2,3c-3.834,0.182-0.362-0.818-1-3c-0.81,0.19-0.997,1.003-2,1
		c-1.484,0.437,0.395,1.279,0,3c-4.051,0.945-4.603,0.451-7-2c1.438-3.04,2.179-3.983,1-7c-1.954,1.909-2.67,5.017-1,8
		c-0.649,1.017-2.299,1.034-2,3c-2.487,0.154-3.096-1.571-5-2c-2.062,0.535-0.238,4.731-3,2c-1.654,1.066,2.555,3.033,0,6
		c4.479-3.263,4.339,1.326,8-1c4.517,6.649,7.883,5.885,3,12c0.161,1.172,1.823,0.844,3,1c0,1.667,0,3.333,0,5
		c-3.337-2.282-0.063,1.441-2,4c1.668,1.497,4.812,0.823,6,0c1.65,0.444,1.65,7.556,0,8c0.013,2.35,2.729-0.365,2-2
		c2.938,12.233,6.453,13.743,10,23c2.055-0.279,1.996-2.671,3-4c-3.634-9.336-11.067-19.108-6-34c2.039-0.558,1.961-3.009,4-1
		c-4.69-5.198-3.884-10.021-5-18c2.187,0.147,2.147,2.52,2,5c2.3-2.366,0.358-8.976,1-13c5.141,2.526,0.906,14.428,7,16
		c-4.323,16.649,4.844,24.578,2,39c3.707,1.96,6.708,4.625,10,7c0,6.667,0,13.333,0,20c-0.934-0.566-1.515-2.78-2-1
		c-3.529-3.216-2.978-13.613-9-17c1.676,1.989,3.697,7.54-1,8c3.189-3.09-0.009-1.689,0-6c-4.007,1.286,0.274,2.067,0,5
		c-3.19-0.857-3.093,1.574-5,2c1.719,2.612,5.178-1.41,9,0c1.028,4.386,8.878,13.119,3,15c3.017,3.91,3.937-2.651,5-4
		c0,1.333,0,2.667,0,4c-1.342,0.658-1.862,2.138-2,4c-0.891-0.443-1.788-0.878-2-2c-1.238,5.428-6.189,7.145-10,10
		c-3.393-0.885-8.629-3.867-9,0c-5.939-2.149-11.824-1.541-16-7c-2.955,2.169-6.573,1.452-9,2c3.798,7.817-10.765-1.788-14-5
		c-5.751,1.606-7.146,1.971-12,5c2.03-4.942-12.177-4.639-15-1c-2.522-3.483-8.717-1.357-12-8c-2.898,2.102-8.827,1.173-9,6
		c-12.053-0.877-13.433,2.735-25,2c-3.162,1.241-0.188,2.908-3,5c-1.419-0.086-2.832-0.165-3,1c-2.054-0.279-1.996-2.671-3-4
		c-1.479,0.521-2.521,1.479-4,2c0.056,3.277,2.844,3.822,2,8c-1.172-0.161-0.843-1.823-1-3c-1.701-0.367-1.887,0.78-2,2
		c-1.615-0.981-2.301-2.668-1-4c-4.958,0.625-6.664-2.003-9-4c-8.709,4.064-7.983,2.88-10,13c-1.667,0-3.333,0-5,0
		c1.427-6.972-4.635-0.237-3-7c-6.803,1.197-5.57,10.43-12,12c-1.667,0-3.333,0-5,0c0.163-1.162-0.221-1.779-1-2
		c-0.295-3.891,2.589-7.91,0-11c-2.25-5.083-3.985-10.682-6-16c4.668,6.279,6.859-3.062,9,5c1.322,0.483,0.061-4.584-1-5
		c0.91-2.715,3.504,1.02,5,1c-0.733,1.78-1.818,0.145-3,0c2.32,5.062,2.377,6.295,5,14c2.409,0.409,2.174-1.826,5-1
		c-0.267-8.931,3.52-6.57,2-14c-6.365-0.739-1.504,3.236-3,4c-4.411,1.41-0.016-5.983-3-6c3.788-0.21,2.707-4.586,9-5
		c-2.96,3.994-0.352,2.109,3,4c-0.256,2.077-4.394,0.273-5,2c0.499,2.263,4.904,2.188,2,5c2.398-2.783,2.025,3.867,1,6
		c0.982,2.802,2.668-1.452,4,1c-0.438,3.438,0.395,5.604,1,8c1.602-5.167,3.264-8.419,3-14c-1.494-0.535-1.178-0.996-4-2
		c0.553-1.78,0.514-4.153,2-5c-2.245-1.088-1.854-4.812-6-4c1.431-1.461,1.47-3.872-2-3c2.026-4.149,6.178,0.761,6-5
		c1.927,1.852,0.79,1.832,4,1c1.932-0.097-1.729-3.903,2-4c-0.31-1.357-2.504-0.829-4-1c0.91-3.339,5.305,0.781,5-5
		c-3.93,0.283,0.237-5.383,2-8c-0.895-1.772-4.059-1.274-3-5c7.448,2.797,4.034,14.069,11,19c3.236,1.235,0.764-3.235,4-2
		c-0.821-2.513-1.309-5.357-5-5c2.272-2.52-4.593-10.701,4-12c-2.347-3.942,1.882-3.058,2-7c-1.488,1.861-4.216,5.49-7,3
		c5.256-1.431,3.363-8.169,2-13c-2.885,1.066-3.316,3.033-2,6c0.973-0.027,0.776-1.224,1-2c2.315-2.288-0.339,3.117,0,5
		c-2.144-4.856-7.444-6.557-11-10c-2.054,0.279-1.996,2.671-3,4c4.745,1.664,1.107-3.719,3-1c0.667,0,1.333,0,2,0
		c-1.686,4.506-6.796,0.069-11,1c-0.138-1.862-0.658-3.342-2-4c0.241-1.759,1.721-2.279,4-2c-1.015-1.396-4.624-5.27-6-3
		c-1.676-1.417-4.093-5.921-3-12c-0.729-1.062-3.009-0.115-5-2c-0.575-1.758,1.208-5.875-1-6c0.256-2.341,4.394-0.576,5,0
		c1.357-0.31,0.83-2.504,1-4c-0.973,0.027-0.776,1.224-1,2c-1.94,0.396-1.461-4.555,1-3c0.396-1.94-4.555-1.461-3,1
		c-3.714-2.82,2.687-3.901,3-6c-0.733-0.934-1.818-1.515-3-2c5.192,1.815,1.448-8.496,4-12c3.514-0.801,6.198,2.302,9,1
		c4.507-2.094-1.809-2.842,2,0c0.916,0.684,6.732-0.279,6-3c2.985,0.902-2.187,7.645,0,12c2.396,0.396-0.555-4.555,3-3
		c-1.374,3.164-0.218,3.343,0,7c2.914-3.959-0.406-10.227,0-15c1.992-1.008,3.502-2.498,5-4c-0.56-2.259-1.56,1.213-3-1
		c0.43-1.57,3.146-0.854,2-4c-0.248-1.086-1.988-0.679-2-2c-1.757,0.91-1.829,3.504-3,5c-2.829,2.965,2.259-4.595-1-5
		c0.279-2.318,2.671-2.299,4-1c-1.275-2.503,0.509-3.131-1-4c2.337-0.634,6.855,5.118,11,6c-1.153-0.998-4.23-16.624-6-14
		c-1.258-0.247-1.009-1.988,0-2c-0.279-2.099-2.671,1.449-4-1c0.163,1.163-0.221,1.779-1,2c0.91,1.757,3.504,1.829,5,3
		c-1.956,2.639-12.854-4.79-5-6c-1.506-3.12-4.314,2.94-6,0c0.241-1.759,1.721-2.279,4-2c-3.671-1.718-0.821-4.304,2-5
		c-0.013-1.987-2.729-1.271-2-4c-2.684,4.181-4.462,13.935-11,11c0.195,5.139,6.355,4.311,7,9c-11.101,0.18-9.005-2.937-16-7
		c-1.917,5.116,0.85,1.896-3,2c-2.081,0.057-2.912,2.971-3,3c-6.218,2.045-11.683,4.037-19,8c-0.184-0.851,0.39-0.943,1-1
		c-1.223-1.444-3.816-1.517-5-3c2.323-5.109-2.8-5.54-5-3c5.223-3.841,15.166-7.771,23-9c-3.882-2.879-1.782-0.591,0-6
		c2.934,0.85-1.301,2.517,0,5c2.826,0.826,2.591-1.409,5-1c0.086-1.419,0.165-2.832-1-3c0.658-1.342,2.138-1.862,4-2
		c-0.013,1.987-2.729,1.271-2,4c5.088-1.912,7.908-6.092,15-6c0.172,2.506-2.239,2.428-3,4c0.313,2.461,6.714-2.434,3-4
		c5.567-1.915,16.257-19.867,5-20C99.951,121.336,89.007,119.495,94,115z M181,91c0.101,3.101-1.223,4.777-2,7
		c1.966,0.299,1.983-1.35,3-2c-0.826,2.826,1.409,2.591,1,5c-1.935,1.449-4.964,6.97-2,10C184.908,105.557,183.944,93.598,181,91z
		 M112,174c0.319,2.319-0.161,3.839-1,5c3.213,0.88,1.371-3.296,4-3c0.057,0.61,0.149,1.184,1,1
		C115.932,172.53,113.714,175.726,112,174z M174,86c-0.012,1.322-1.753,0.914-2,2c1.427,0.239,1.687,1.646,3,2
		c-0.369-3.369,4.204-1.796,4-5c-1,0-2,0-3,0C175.057,89.231,174.504,87.367,174,86z M141,95c1.177-0.157,2.839,0.172,3-1
		c-0.776-0.224-1.973-0.027-2-1c1.406-0.261,1.14-2.193,2-3C140.876,89.542,140.803,92.137,141,95z M138,116
		c0.776,0.224,1.973,0.027,2,1c-1.464,2.32-3.169-1.954-3,2c1.333,0,2.667,0,4,0C142.269,115.019,139.182,111.931,138,116z M129,125
		c-0.239,1.427-1.647,1.687-2,3c4.962-3.367,1.412,3.528,4,5c1.067-3.404,0.311,2.783,3,1c-0.731-4.5-2.042-2.628-1-8
		c-2.322,0.54-3.446-5.064-5-2C128.61,124.057,129.184,124.149,129,125z M156,130c2.043,3.016,7.143-2.084,4-4
		C161.053,129.719,156.628,127.961,156,130z M132,149c2.555,0.526,3.5,1.326,5-1c-1.422-0.673-3.088-6.117-5-3
		C134.995,145.658,131.043,147.138,132,149z M182,150c0.613-1.168,7.051-1.46,3-4C185.056,146.397,178.368,146.868,182,150z
		 M199,152c-3.558,0.824-4.38-6.197-7-3C193.372,150.362,197.234,154.342,199,152z M135,165c1.44-0.534,2.44,3.896,3,1
		c-2.299-4.002,5.838-6.135,6-11c-2.555,0.445-4.598,1.402-6,3C138.992,158.949,136.46,165.964,135,165z M118,208
		c-0.14-2.874,2.779-7.798,0-10C117.563,201.413,116.775,205.185,118,208z M104,207c-0.483-3.149,3.069-2.264,2-6
		C101.926,200.787,103.444,205.477,104,207z M116,216c3.192,1.41,2.527-5.983,1-6C116.002,212.442,116.668,212.131,116,216z
		 M186,248c0.357-3.595,1.593-4.756,3-5c-1.556-0.261-0.693-2.193,0-3c-3.541,1.751-2.459-0.666-6-1c2.499,3.132-0.972,9.869-3,8
		c0.783-0.694,2.226-5.58,0-6c-0.766,2.901-1.582,5.752-4,7c-0.563-2.658,4.113-5.092,1-7c-1.246,2.421-2.476,4.857-3,8
		c2.955,1.096,7.045,1.006,10-2c1.543,4.578,7.194,2.156,11,6c-0.778-4.013-0.792-9.952,5-10c-1.023,2.977-1.904,6.096-5,7
		c1.758-0.575,5.875,1.209,6-1c-1.345-4.701,4.402-10.914,6-16c-5.118,2.548-5.573,9.76-13,10c0.04,3.04,0.582,6.582-3,6
		c3.383-10.496,4.112-10.736,6-18C190.565,233.898,192.981,245.647,186,248z M158,248c-2.371-1.409,4.065-6.372-1-8
		c1.544-2.123,2.877-4.456,4-7c-7.683,0.662-7.145,14.84-13,14c-1.425-7.604,8.645-9.115,4-14c-2.263,5.213-6.285,7.345-6,17
		c3.059,0.726,2.941-1.726,6-1c1.757-2.243,0.812-7.188,5-7C155.645,243.696,155.748,250.752,158,248z M166,243
		c0.688-2.688-2.067-1.933-3-3c-1.574,2.426-3.729,4.271-3,9c1.161,0.839,2.681,1.319,5,1c1.602-3.936-4.318-0.348-4-3
		c1.859-2.092,2.591-3.759,3-5C164.221,242.779,164.837,243.162,166,243z M209,247c-0.441-2.224,3.088-5.423,1-6
		c-1.562,3.104-2.775,6.558-6,8c1.283-4.262,0.884-3.988,3-7c0.224,0.776,0.027,1.973,1,2c0.043-1.377-0.471-2.195-1-3
		c-4.488-0.154-4.173,4.493-4,9c6.061-0.743,4.581-1.969,10,0c0.054-1.87-0.77-2.117-2-1c-1.939-4.034,4.59-4.616,1-7
		C211.889,244.555,210.167,245.5,209,247z M121,252c-0.267-3.601,1.847-4.819,2-8c-1.891-0.224-2.207,1.127-4,1
		c-1.236,3.235,3.236,0.765,2,4C119.689,249.016,119.726,251.773,121,252z M233,276c0,1.333,0,2.667,0,4c1.776-1.28,9.702-1.555,7-4
		c-0.691,2.497-2.667-1.855-5-1C235.054,276.87,234.23,277.117,233,276z M104,290c0.908-0.274,3.359-3.726,1-4
		c-3.743,2.448-1.461,5.404-3,9c1.454,1.546,5.119,0.881,8,1c-1.686-2.717,1.586-4.684-2-6C108.74,293.821,104.315,291.142,104,290z
		"/>
	<path fill-rule="evenodd" clip-rule="evenodd" fill="#9A9B94" d="M10,203c1.358-5.813,5.795-12.166,3-19
		c-1.419-0.086-2.832-0.165-3,1c-2.136-0.625-0.937-6.155,0-7c14.233-2.434,25.003-8.33,38-12c-0.027,0.973-1.224,0.776-2,1
		c2.02,1.23,3.48-0.19,6,2c-0.409,3.417-2.701,1.271-1,5c-3.604-0.393-6.372,2.367-7-1c-3.743,9.591-14.757,11.909-19,21
		C15.811,192.812,15.045,200.045,10,203z"/>
	<path fill-rule="evenodd" clip-rule="evenodd" fill="#7F8480" d="M139,10c0.667,0,1.333,0,2,0c0.325,1.151,4.362,3.443,5,1
		c-1.709,2.644,1.561,4.554,2,10c3.16-2.583-1-6.266-1-9c4.152,2.08,1.909,15.106,9,11c1.002-5.002-3.139-4.862-4-8
		c1.216-1.149,5.989,2.628,5,7c1.44-0.226,0.349-2.985,2-3c0,0.333,0,0.667,0,1c-0.622,3.872-0.828,4.118,1,7
		c-3.245-2.268-4.999,3.87-7,6c1.471,2.189,8.59,4.684,6,0c0.306,2.031-2.889-0.205-3-1c0.81-0.19,0.997-1.003,2-1
		c0.981,1.352,2.668,1.999,4,3c0.426-1.907,2.857-1.81,2-5c-1.163,0.163-1.779-0.221-2-1c1.419,0.086,2.832,0.165,3-1
		c0.333,0,0.667,0,1,0s0.667,0,1,0c1.478,4.477-2.929,3.072-2,7c3.294,1.939,4.654,1.128,7,2c2.396-0.396-0.555,4.555,3,3
		c-2.763,1.06-9.569-2.403-14-3c-0.832,4.499,4.316,3.017,7,4c-6.223,1.738,2.8,3.84-2,7c3.677,1.991,3.023-7.531,4-2
		c1.94,0.396,1.461-4.555-1-3c3.404,0.15,7.41-2.459,11-1c0,0.333,0,0.667,0,1c-1.862,0.957-3.342-2.995-4,0
		c4.366,1.477,5.619,2.984,6,8c1.615,0.282,1.722-0.945,3-1c2.333,7,9.21,9.457,12,16c-1.891,0.224-2.206-1.127-4-1
		c-1.555,3.555,3.396,0.604,3,3c-1.377-0.043-2.195,0.471-3,1c-1.646-3.05-5.454-9.171-7-9c-0.1,8.314,8.264,7.253,12,14
		c-7.049-3.011-11.369,3.459-15,7c-0.643-5.922,2.512-6.505,5-7c-3.624,0.958-1.017-4.316-3-5c-7.124-3.027-11.815-1.013-22-4
		c-0.598,1.78,2.931,4.153,0,5c-1.884-1.899-5.196-0.121-6,2c5.313,2.598-2.615,3.986-2,11c-0.17-1.496,0.357-3.69-1-4
		c-0.965,2.702-2.804,4.53-5,6c-0.956-1.862,2.995-3.342,0-4c-0.448,1.964-4.896,4.998-3,6c0.212-1.122,1.109-1.557,2-2
		c1.44,0.56,2.44,1.56,3,3c-4.969-2.734-8.517,4.814-15,1c-0.195,4.805-7.927,2.073-9,6c7.234,2.433,15.54,3.793,23,6
		c-5.483,1.183-15.793-2.46-18,2c2.714,0.619,7.937-1.27,9,1c-3.753,0.519-10.501,1.341-13-2c-12.128-0.36-4.622,1.23,1,3
		c-1.89,0.443-6.027-1.36-5,2c0.275,3.509,3.725-2.509,4,1c-4.082,3.653-11.462,4.473-17,4c2.945,6.388,10.482,8.185,14,14
		c-4.318,1.409-6.592-1.319-10,1c3.144,1.522,5.444,3.889,9,5c-2.054,0.279-1.996,2.671-3,4c0.614,1.386,3.85,0.15,4,2
		c-1.556,0.261-0.693,2.193,0,3c-1.329,1.004-3.721,0.946-4,3c5.406-1.089,4.445,4.944,5,11c-3.487-2.706,0.81,3.121-4,3
		c-0.269,2.981,2.799,6.089-1,7c2.496-4.268-2.781-2.777-4-1c-0.92-4.08-4.615-5.385-8-7c0.003-1.003-0.81-1.19-1-2
		c3.983,0.859,2.708-6.173,6-3c-2.925-6.199,6.235-5.408,8-12c-3.905,0.095-3.118,4.882-7,5c-2.462-1.764-2.911-8.777,2-6
		c-0.662-6.259-5.999-0.291-8,1c0.827-2.507,3.503-3.163,5-5c-5.298-0.646-0.711-5.783,0-9c-6.283,0.364-10.246-7.769-16-11
		c-0.003-1.003,0.81-1.19,1-2c-5.388,0.804,0.034,6.2-5,7c1.158-1.479,1.158-2.521,0-4c-0.405-5.595-2.862-9.138-7-11
		c-0.055-1.278-1.282-1.385-1-3c1.333,0,2.667,0,4,0c-1.206-6.627-6.922-4.969-7-14c-2.667,0-5.333,0-8,0c0-0.333,0-0.667,0-1
		c7.33-1.931-1.664-8.215-3-4c-2.785-8.894,6.468-13.212,4-25c1.925-5.409,8.185-6.482,8-14c-1.72-0.395-2.563,1.484-3,0
		c0.977-1.023,1.977-2.023,3-3c0.224,0.776,0.027,1.973,1,2c1.018-2.578,6.678-3.822,4-7c1.333,0,2.667,0,4,0
		c-0.207-2.874,0.253-5.08,2-6c-1.435,5.258,8.653,1.849,10,1c-4.22-1.683-5.709-0.152-8-3c2.874-1.397,5.08,2.726,6,0
		c-6.707-0.518-3.792-4.57-9-6c14.923-5.676,27.661,4.979,40-5c-0.598-1.497-5.032-4.173-3-5c0.944,1.722,3.696,1.637,3,5
		c7.701-1.701,7.313,4.686,13,5C147.381,14.286,141.22,14.113,139,10z M106,113c2.664,2.284-2.358,2.284-3,0
		c0.868,4.132,2.928,7.072,6,9c0.591-2.076,1.924-3.409,4-4c0.857,3.19-1.574,3.093-2,5c3.292,0.042,4.979,1.688,9,1
		C117.531,118.788,110.907,112.444,106,113z M89,93c1.208-4.642-3.975-4.803-4-1C86.352,92.314,86.91,93.423,89,93z M131,23
		c1.58-2.474,2.316,4.271,6,3c-0.319-3.952-4.106-3.067,1-6c-0.779-0.221-1.163-0.837-1-2C133.794,17.852,127.615,19.871,131,23z
		 M143,24c-2.741-0.169-0.513-7.398-4-5C140.572,19.84,139.895,27.999,143,24z M108,23c-0.776-0.224-1.973-0.027-2-1
		c1.177-0.157,2.838,0.172,3-1c-3.416-0.359-9.428,1.828-7,4C102.292,20.582,107.288,25.538,108,23z M140,29
		c0.054-1.72-0.77-2.563-2-3c-2.373,4.024,1.593,2.456,2,6c4.869,0.201,9.911-8.451,4-10C144.492,26.159,142.814,28.147,140,29z
		 M136,28c-1.844-1.522-11.483-8.456-9-2c0.113-1.22,0.299-2.368,2-2C127.867,28.191,135.586,28.67,136,28z M155,25
		c-4.65-3.225-10.368,3.51-7,8c0.057-0.61,0.149-1.184,1-1c0.003,1.003-0.81,1.19-1,2c2.933-0.068,3.714-2.286,5-4
		c-1.182-0.485-2.267-1.066-3-2c1.321-0.012,0.914-1.753,2-2c0,1,0,2,0,3C154.638,29.304,154.579,26.912,155,25z M130,28
		c-3.531,0.267-9.143-2.52-5,1c-7.812-3.654-13.171,4.234-12,9c2.812-1.61,6.691,2.53,10-1c-0.144,1.182-1.781,2.267,0,3
		c0.658-1.342,2.138-1.862,4-2c-0.149,1.332,4.066,3.018,1,4c0.004-3.036-3.501-1.772-5,0c0.779,0.221,1.163,0.837,1,2
		C134.913,42.98,132.102,36.282,130,28z M137,31c-1.112,4-3.958,0.67-5-1c-4.245,5.484,6.294,3.292,6,8
		c-3.357-2.846-1.657,4.291-3,4c-1.182-0.144-2.267-1.781-3,0c3.188,0.459-5.779,1.949-1,4c0.147-2.231,2.52,1.298,5,0
		C137.184,44.312,143.919,34.834,137,31z M139,46c1.614-1.147,3.166-3.926,5-2c-0.334-2.333-1.025-4.309-3-5
		C141.489,41.901,136.858,44.752,139,46z M160,47c0.56-2.078,1.56-2.119,3-1c-3.317-4.037-3.997-8.296-12-11
		C153.169,39.831,156.051,43.949,160,47z M149,41c0.003-1.003-0.81-1.19-1-2c2.388-4.188-4.896-9.609-7-4
		c2.621,2.712,2.954,7.712,6,10c0.021-1.77,4.718,1.593,6-1c0.224,0.776,0.027,1.973,1,2c1.877-1.907-0.594-1.81,0-5
		c-1.377-0.043-2.195,0.471-3,1C152.245,37.287,150.813,38.249,149,41z M173,44c-0.178,2.891,3.378,5.51,4,2
		c-0.776-0.224-1.973-0.027-2-1c0.776-0.224,1.973-0.027,2-1C175.521,42.842,174.479,42.842,173,44z M172,60
		c0.225,1.891-1.127,2.207-1,4c0.093-2.503,9.914-3,6-6C176.812,62.351,175.261,59.82,172,60z M150,76c0.56-2.259,1.56,1.212,3-1
		c-0.122-2.544-1.455-3.878-4-4C149.547,72.453,147.831,76.168,150,76z M144,79c0.168-1.165,1.581-1.086,3-1
		c-0.075-1.742,0.224-3.11,1-4c-1.377,0.043-2.195-0.471-3-1C145.441,75.224,141.912,78.422,144,79z M120,100
		c4.877-1.123,12.71,0.71,15-3c-4.875,1.641-7.224-1.936-11-4c2.368-3.299,9.666-1.667,11-6c-7.755-0.038-9.05,0.233-14,3
		c2.146,2.52,1.582,7.752,5,9C124.242,99.575,120.125,97.792,120,100z M118,97c-0.19-1.667,7.097-0.708,3-3
		c-0.221,0.779-0.837,1.163-2,1c-0.113-1.22-0.299-2.368-2-2C118.275,95.503,116.491,96.13,118,97z M114,106
		c2.615,0.282,4.301-0.365,4-3c-2.656-0.01-5.711,0.378-7-1c-1.146,3.146,1.57,2.43,2,4c-2.483-0.15-4.15,0.517-5,2
		c4.36,3.128,11.515,1.797,13-1C117.543,107.208,116.287,108.423,114,106z M122,154c-2.382-0.618-1.642-4.358-6-3
		C115.514,153.899,121.765,155.128,122,154z"/>
	<path fill-rule="evenodd" clip-rule="evenodd" fill="#9A9B94" d="M184,143c3.916-6.032,10.278-2.304,17-1
		c0.725,2.276,0.892,5.108,2,7c-2.979-0.021-1.282-4.717-3-6C196.591,142.093,190.05,143.561,184,143z"/>
	<path fill-rule="evenodd" clip-rule="evenodd" fill="#9A9B94" d="M166,27c0.826-2.826-1.409-2.591-1-5c1.507-0.789,3.199,6.763,6,8
		c-1.496,1.171-4.09,1.243-5,3c4.026-1.027,4.442,1.557,6,3c-0.184-0.851,0.39-0.943,1-1c0.851,0.184,0.943-0.39,1-1
		c-2.182,0.182-3.182-0.818-3-3c0.333,0,0.667,0,1,0c2.6,0.4,3.016,2.984,6,3c-2.8,4.324-0.662,3.95,2,7
		c-3.59-1.459-7.596,1.15-11,1c2.461-1.555,2.94,3.396,1,3c-0.977-5.531-0.323,3.991-4,2c4.8-3.16-4.223-5.262,2-7
		c-2.684-0.983-7.832,0.499-7-4c4.431,0.597,11.237,4.06,14,3c-3.555,1.555-0.604-3.396-3-3c-2.346-0.872-3.706-0.061-7-2
		c-0.929-3.928,3.478-2.523,2-7C166.667,27,166.333,27,166,27z"/>
	<path fill-rule="evenodd" clip-rule="evenodd" fill="#9A9B94" d="M159,19c-1.651,0.015-0.56,2.774-2,3c0.989-4.372-3.784-8.149-5-7
		c0.861,3.138,5.002,2.998,4,8c-7.091,4.106-4.848-8.92-9-11c0,2.734,4.16,6.417,1,9c-0.439-5.446-3.709-7.356-2-10
		c-0.638,2.443-4.675,0.151-5-1c2.06-3.895,9.631,6.279,9-1c1.814,1.852,2.734,4.599,5,6c2.59-1.696-1.938-4.65-1-8
		C157.49,11.365,157.358,13.824,159,19z"/>
	<path fill-rule="evenodd" clip-rule="evenodd" fill="#9A9B94" d="M163,10c-4.852-1.662,3.043-0.306,3,2
		c0.785,5.273-1.402,9.854-1,2C164.479,12.521,163.521,11.479,163,10z"/>
	<path fill-rule="evenodd" clip-rule="evenodd" fill="#9A9B94" d="M139,19c3.487-2.398,1.259,4.831,4,5
		C139.895,27.999,140.572,19.84,139,19z"/>
	<path fill-rule="evenodd" clip-rule="evenodd" fill="#9A9B94" d="M102,25c-2.428-2.172,3.584-4.359,7-4
		c-0.162,1.172-1.823,0.843-3,1c0.027,0.973,1.224,0.776,2,1C107.288,25.538,102.292,20.582,102,25z"/>
	<path fill-rule="evenodd" clip-rule="evenodd" fill="#9A9B94" d="M129,24c-1.701-0.368-1.887,0.78-2,2
		c-2.483-6.456,7.156,0.478,9,2C135.586,28.67,127.867,28.191,129,24z"/>
	<path fill-rule="evenodd" clip-rule="evenodd" fill="#9A9B94" d="M124,44c0.163-1.163-0.221-1.779-1-2c1.499-1.772,5.004-3.036,5,0
		c3.066-0.982-1.149-2.668-1-4c-1.862,0.138-3.342,0.658-4,2c-1.781-0.733-0.144-1.818,0-3c-3.309,3.53-7.188-0.61-10,1
		c-1.171-4.766,4.188-12.654,12-9c-4.143-3.52,1.469-0.733,5-1C132.102,36.282,134.913,42.98,124,44z"/>
	<path fill-rule="evenodd" clip-rule="evenodd" fill="#9A9B94" d="M141,39c1.975,0.691,2.666,2.667,3,5
		c-1.834-1.926-3.386,0.853-5,2C136.858,44.752,141.489,41.901,141,39z"/>
	<path fill-rule="evenodd" clip-rule="evenodd" fill="#9A9B94" d="M151,42c0.805-0.529,1.623-1.043,3-1c-0.594,3.19,1.877,3.093,0,5
		c-0.973-0.027-0.776-1.224-1-2c-1.282,2.593-5.979-0.77-6,1c-3.046-2.288-3.379-7.288-6-10c2.104-5.609,9.388-0.188,7,4
		c0.19,0.81,1.003,0.997,1,2C150.813,38.249,152.245,37.287,151,42z"/>
	<path fill-rule="evenodd" clip-rule="evenodd" fill="#9A9B94" d="M229,32c-2.713,1.621-5.635,3.032-7,6
		C220.672,36.281,224.816,31.526,229,32z"/>
	<path fill-rule="evenodd" clip-rule="evenodd" fill="#9A9B94" d="M177,58c3.914,3-5.907,3.497-6,6c-0.127-1.793,1.225-2.109,1-4
		C175.261,59.82,176.812,62.351,177,58z"/>
	<path fill-rule="evenodd" clip-rule="evenodd" fill="#9A9B94" d="M204,60c5.353,0.647,0.572,11.428,5,13
		c1.769-1.897,0.931-6.403,3-8c1.471,0.894-0.271,6.996-1,9c-2.09,0.423-2.647-0.686-4-1c-2.86,0.14-1.829,4.171-2,7
		c-2.673,3.566,1.326-7.914-3-6c0.15-1.85,3.386-0.614,4-2C206.543,66.79,205.701,62.965,204,60z"/>
	<path fill-rule="evenodd" clip-rule="evenodd" fill="#7F8480" d="M181,111c-2.964-3.03,0.065-8.551,2-10
		c0.409-2.409-1.826-2.174-1-5c-1.017,0.65-1.034,2.299-3,2c0.777-2.223,2.101-3.899,2-7C183.944,93.598,184.908,105.557,181,111z"
		/>
	<path fill-rule="evenodd" clip-rule="evenodd" fill="#7F8480" d="M176,121c-2.715-0.91,1.02-3.504,1-5
		c-4.729-0.174,0.358-3.956-1-7c2.762,2.731,0.938-1.464,3-2c0.507,4.173-2.274,5.059-3,8c1.377,0.043,2.195-0.471,3-1
		C178.739,117.073,176.83,118.497,176,121z"/>
	<path fill-rule="evenodd" clip-rule="evenodd" fill="#7F8480" d="M175,124c-3.903,2.097-3.874,8.126-8,10
		c0.35-5.269-3.58-2.202-3-1c-3.008,1.008-1.772-2.228-2-4c1.161,0.839,2.681,1.319,5,1c1.062-1.181,0.453-6.33-2-7
		c-0.196,4.201-4.13-4.404-5,2c1.327-4.385-1.891-9.366-1-10c4.05-0.243,4.202-7.797,11-7c-1.408,2.791-3.384,5.01-5,5
		c0.613,1.386,3.85,0.15,4,2c-1.778,1.867-2.542-0.812-6,0c0.395,1.72-1.484,2.563,0,3c0.79,1.237,3.631-2.158,5,1
		c-3.008-1.008-1.772,2.228-2,4c1.966-0.299,1.983,1.35,3,2c2.437-2.348-1.115-2.238-2-4c0.61-0.057,1.184-0.149,1-1
		c0.761,1.572,3.173,1.494,3,4c2.506,1.323,2.428-4.656,4-1C175,123.333,175,123.667,175,124z"/>
	<path fill-rule="evenodd" clip-rule="evenodd" fill="#7F8480" d="M184,143c6.05,0.561,12.591-0.907,16,0
		c1.718,1.283,0.021,5.979,3,6c0,0.333,0,0.667,0,1c-6.51-5.833-15.228-7.318-22-4c-0.003-1.003,0.81-1.19,1-2
		C182.81,143.81,182.997,142.997,184,143z"/>
	<path fill-rule="evenodd" clip-rule="evenodd" fill="#7F8480" d="M248,203c-0.642,4.024,1.3,10.634-1,13
		c0.147-2.48,0.187-4.853-2-5c1.116,7.979,0.31,12.802,5,18c-2.039-2.009-1.961,0.442-4,1c-5.067,14.892,2.366,24.664,6,34
		c-1.004,1.329-0.945,3.721-3,4c-3.547-9.257-7.062-10.767-10-23c0.729,1.635-1.987,4.35-2,2c1.65-0.444,1.65-7.556,0-8
		c-1.188,0.823-4.332,1.497-6,0c1.937-2.559-1.337-6.282,2-4c0-1.667,0-3.333,0-5c-1.177-0.156-2.839,0.172-3-1
		c4.883-6.115,1.517-5.351-3-12c-3.661,2.326-3.521-2.263-8,1c2.555-2.967-1.654-4.934,0-6c2.762,2.731,0.938-1.465,3-2
		c1.904,0.429,2.513,2.154,5,2c-0.299-1.966,1.351-1.983,2-3c-1.67-2.983-0.954-6.091,1-8c1.179,3.017,0.438,3.96-1,7
		c2.397,2.451,2.949,2.945,7,2c0.395-1.721-1.484-2.563,0-3c1.003,0.003,1.19-0.81,2-1c0.638,2.182-2.834,3.182,1,3
		c1.406-0.261,1.14-2.193,2-3c-1.247-0.576-4.4-6.577-2-10c1.759,1.574,1.312,5.355,3,7c2.052-0.948,2.771-3.229,4-5
		C247.727,198.606,245.923,202.743,248,203z"/>
	<path fill-rule="evenodd" clip-rule="evenodd" fill="#7F8480" d="M267,287c-1.063,1.349-1.983,7.91-5,4
		c5.878-1.881-1.972-10.614-3-15c-3.822-1.41-7.281,2.612-9,0c1.907-0.426,1.81-2.857,5-2c0.274-2.933-4.007-3.714,0-5
		c-0.009,4.311,3.189,2.91,0,6c4.697-0.46,2.676-6.011,1-8c6.022,3.387,5.471,13.784,9,17c0.485-1.78,1.066,0.434,2,1
		C267,285.667,267,286.333,267,287z"/>
	<path fill-rule="evenodd" clip-rule="evenodd" fill="#7F8480" d="M51,165c2.2-2.54,7.323-2.109,5,3c1.184,1.483,3.777,1.556,5,3
		c-0.61,0.057-1.184,0.149-1,1c7.317-3.963,12.782-5.955,19-8c0.088-0.029,0.919-2.943,3-3c3.85-0.104,1.083,3.116,3-2
		c6.995,4.063,4.899,7.18,16,7c-0.645-4.689-6.805-3.861-7-9c6.538,2.935,8.316-6.819,11-11c-0.729,2.729,1.987,2.013,2,4
		c-2.821,0.696-5.671,3.282-2,5c-2.279-0.279-3.759,0.241-4,2c1.686,2.94,4.494-3.12,6,0c-7.854,1.21,3.044,8.639,5,6
		c-1.496-1.171-4.09-1.243-5-3c0.779-0.221,1.163-0.837,1-2c1.329,2.449,3.721-1.099,4,1c-1.009,0.012-1.258,1.753,0,2
		c1.77-2.624,4.847,13.002,6,14c-4.145-0.882-8.663-6.634-11-6c1.509,0.869-0.275,1.497,1,4c-1.329-1.299-3.721-1.318-4,1
		c3.259,0.405-1.829,7.965,1,5c1.171-1.496,1.243-4.09,3-5c0.012,1.321,1.752,0.914,2,2c1.146,3.146-1.57,2.43-2,4
		c1.44,2.213,2.44-1.259,3,1c-1.498,1.502-3.008,2.992-5,4c-0.406,4.773,2.914,11.041,0,15c-0.218-3.657-1.374-3.836,0-7
		c-3.555-1.555-0.604,3.396-3,3c-2.187-4.355,2.985-11.098,0-12c0.732,2.721-5.084,3.684-6,3c-3.809-2.842,2.507-2.094-2,0
		c-2.802,1.302-5.486-1.801-9-1c-2.552,3.504,1.192,13.815-4,12c1.182,0.485,2.267,1.066,3,2c-0.313,2.099-6.714,3.18-3,6
		c-1.555-2.461,3.396-2.94,3-1c-2.461-1.555-2.94,3.396-1,3c0.224-0.776,0.027-1.973,1-2c-0.17,1.496,0.357,3.69-1,4
		c-0.606-0.576-4.744-2.341-5,0c2.208,0.125,0.425,4.242,1,6c1.991,1.885,4.271,0.938,5,2c-1.093,6.079,1.324,10.583,3,12
		c1.376-2.27,4.985,1.604,6,3c-2.279-0.279-3.759,0.241-4,2c1.342,0.658,1.862,2.138,2,4c4.204-0.931,9.314,3.506,11-1
		c-0.667,0-1.333,0-2,0c-1.893-2.719,1.745,2.664-3,1c1.004-1.329,0.946-3.721,3-4c3.556,3.443,8.856,5.144,11,10
		c-0.339-1.883,2.315-7.288,0-5c-0.224,0.776-0.027,1.973-1,2c-1.316-2.967-0.885-4.934,2-6c1.363,4.831,3.256,11.569-2,13
		c2.784,2.49,5.512-1.139,7-3c-0.118,3.942-4.347,3.058-2,7c-8.593,1.299-1.728,9.48-4,12c3.691-0.357,4.179,2.487,5,5
		c-3.236-1.235-0.764,3.235-4,2c-6.966-4.931-3.552-16.203-11-19c-1.059,3.726,2.105,3.228,3,5c-1.763,2.617-5.93,8.283-2,8
		c0.305,5.781-4.09,1.661-5,5c1.496,0.171,3.69-0.357,4,1c-3.729,0.097-0.068,3.903-2,4c-3.21,0.832-2.073,0.852-4-1
		c0.178,5.761-3.974,0.851-6,5c3.47-0.872,3.431,1.539,2,3c4.146-0.812,3.755,2.912,6,4c-1.486,0.847-1.447,3.22-2,5
		c2.822,1.004,2.506,1.465,4,2c0.264,5.581-1.398,8.833-3,14c-0.605-2.396-1.438-4.562-1-8c-1.332-2.452-3.018,1.802-4-1
		c1.025-2.133,1.398-8.783-1-6c2.904-2.812-1.501-2.737-2-5c0.606-1.727,4.744,0.077,5-2c-3.352-1.891-5.96-0.006-3-4
		c-6.293,0.414-5.212,4.79-9,5c2.984,0.017-1.411,7.41,3,6c1.496-0.764-3.365-4.739,3-4c1.52,7.43-2.267,5.069-2,14
		c-2.826-0.826-2.591,1.409-5,1c-2.623-7.705-2.68-8.938-5-14c1.182,0.145,2.267,1.78,3,0c-1.496,0.02-4.09-3.715-5-1
		c1.061,0.416,2.322,5.483,1,5c-2.141-8.062-4.332,1.279-9-5c2.015,5.318,3.75,10.917,6,16c-1.349-1.364-6.981-1.906-7,1
		c-0.81-0.19-0.997-1.003-2-1c0.013-1.987,2.729-1.271,2-4c-0.614-1.386-3.85-0.15-4-2c1.484-3.864-1.682-10.709-5-13
		c-0.027,0.973-1.224,0.776-2,1c0.147,2.48,0.186,4.853-2,5c-0.083-1.583,0.481-3.814-1-4c-2.992,3.492,2.08,5.324,1,10
		c-2.635-0.302-3.282,1.385-3,4c-0.19,0.81-1.003,0.997-1,2c-0.81-0.19-0.997-1.003-2-1c-4.25-8.14,0.522-4.033,0-12
		c2.715,2.614,4.317-8.131,4-13c-1.058-16.23-18.129-38.724-24-49c4.08-5.311,7.216-8.167,4-17c-4.3,2.033-5.974,6.692-8,11
		c0.595,0.567-3.435-7.864,0-11c1.874-2.513,0.109,1.663,0,3c1.57-0.43,0.854-3.146,4-2c-0.576-2.091-2.479-2.854-2-6
		c-3.707,2.034-5.2,5.746-9,3c-2.747,1.919-4.299,5.034-4,10c-0.238,0.654-2.475-7.318-2-13c-0.423-2.09,0.686-2.647,1-4
		c5.045-2.955,5.811-10.188,15-9c4.243-9.091,15.257-11.409,19-21c0.628,3.367,3.396,0.607,7,1c-1.701-3.729,0.591-1.583,1-5
		c-2.52-2.19-3.98-0.77-6-2c0.776-0.224,1.973-0.027,2-1C48.804,165.471,49.624,164.957,51,165z M99,158
		c-2.044,3.413,7.631,8.086,9,8C103.754,164.579,104.426,158.24,99,158z M39,183c2.855,0.771,7.509-4.188,11-6
		C44.422,174.964,39.866,177.583,39,183z M93,173c1.651,0.016,0.56,2.773,2,3c-0.359-6.828,1.828-4.345,4-5
		c-1.576-0.091-0.783-2.551-3-2C95.703,171.036,93.997,171.664,93,173z M26,198c7.323-0.343,10.153-5.18,17-6
		c-2.271-3.921-1.487-5.379-5-7c-0.92,4.832-8.147,6.121-10,7C30.652,193.446,24.329,194.233,26,198z M49,181
		c3.641,3.597,0.137,5.919-6,5c1.159,15.391,2.843,35.637,4,54c1.722-0.69,6.215-3.679,4-5c-0.239,1.086-1.647,2.401-2,1
		c0.211-1.122,1.11-1.557,2-2c2.454,0.88,5.767,0.9,6,4c-2.954-2.997-5.165,0.616-8,3c2.319-0.319,3.839,0.161,5,1
		c0.395-1.721-1.484-2.563,0-3c0.849,2.151,3.682,2.318,7,2c-1.433,2.908-0.767,1.125,2,1c-0.787,3.453,0.935,4.398,3,5
		c0.228-1.772-1.008-5.008,2-4c-1.958,1.868-0.309,3.662,0,6c1.667,0,3.333,0,5,0c-1.352-2.958,0.926-4.875,3-7
		c-1.238,5.795,6.346,3.874,7,5c-1.985,2.306,0.251,1.111,1,3c-1.177,0.156-2.838-0.172-3,1c2.363,0.279-1.146,2.671-1,4
		c1.453,0.547,5.168-1.169,5,1c-6.427,2.539-1.073,9.286-4,12c5.464-0.578,6.606-2.248,9-4c0.839,1.161,1.319,2.681,1,5
		c-1.891-0.224-2.207,1.127-4,1c-0.534-1.44,3.897-2.44,1-3c0.296,2.63-3.879,0.787-3,4c4.604-0.604,2.819,5.181,6,6
		c0.015-1.651,2.774-0.56,3-2c-4.922,1.403-1.011-8.943,0-4c1.84-1.824,0.53-5.605-1-7c-0.111,2.448-3.306,0.212-3-1
		c2.293-2.827-0.928-4.165-1-9c0.336,1.207,6.408,3.195,4,1c-2.497-1.837-6.743-1.924-7-6c2.186,2.155,2.147-0.256,2-3
		c-3.236-1.235-0.764,3.235-4,2c0-2.333,0-4.667,0-7c-2.436,0.646-5.144,2.02-5-2c2.503,2.519,3.927-1.148,7-1
		c1.74-8.073-3.378-9.289-4-15c-3.733,0.399-5.868-0.799-6-4c-2.987,1.315-5.576-1.058-9-2c-0.845-8.523,1.216-18.295,6-24
		c-3.736-1.069-2.85,2.483-6,2c-0.24-2.521-2.949-4.144-5-2c0.319-2.319-0.161-3.839-1-5c2.529,1.053,4.433-3.372,2-4
		c-0.658,1.342-2.138,1.862-4,2C58.421,180.577,54.716,182.441,49,181z M93,251c-2.341-0.325-0.971-4.362-3-5
		c0.479,3.146-1.424,3.909-2,6C90.333,250.507,92.309,252.337,93,251z M74,253c1.427,0.239,1.687,1.646,3,2
		c-1.146-3.146,1.57-2.43,2-4c-2.263-0.737-2.188-3.812-5-4C74.898,249.928,74.898,250.072,74,253z M69,276
		c3.19-0.857,3.093,1.574,5,2C75.128,273.278,70.187,273.358,69,276z"/>
	<path fill-rule="evenodd" clip-rule="evenodd" fill="#9A9B94" d="M145,73c0.805,0.529,1.623,1.043,3,1c-0.776,0.89-1.075,2.258-1,4
		c-1.419-0.086-2.832-0.165-3,1C141.912,78.422,145.441,75.224,145,73z"/>
	<path fill-rule="evenodd" clip-rule="evenodd" fill="#9A9B94" d="M219,78c0.294-2.084,2.706,1.484,3-2c0.934,0.733,1.515,1.818,2,3
		c2.039-0.294,1.961-2.706,4-3c3.248,0.52-5.291,2.438-1,4c-1.987,3.631-4.73-5.506-6,0C219.914,79.752,220.321,78.012,219,78z"/>
	<path fill-rule="evenodd" clip-rule="evenodd" fill="#7F8480" d="M176,85c1,0,2,0,3,0c0.204,3.204-4.369,1.631-4,5
		c-1.313-0.354-1.573-1.761-3-2c0.247-1.086,1.988-0.678,2-2C174.504,87.367,175.057,89.231,176,85z"/>
	<path fill-rule="evenodd" clip-rule="evenodd" fill="#9A9B94" d="M126,99c-3.418-1.248-2.854-6.48-5-9c4.95-2.767,6.245-3.038,14-3
		c-1.334,4.333-8.632,2.701-11,6c3.776,2.064,6.125,5.641,11,4c-2.29,3.71-10.123,1.877-15,3C120.125,97.792,124.242,99.575,126,99z
		"/>
	<path fill-rule="evenodd" clip-rule="evenodd" fill="#9A9B94" d="M212,92c4.066,2.451-0.261,4.892,0,9
		C209.045,101.225,214.268,95.142,212,92z"/>
	<path fill-rule="evenodd" clip-rule="evenodd" fill="#9A9B94" d="M117,93c1.701-0.368,1.887,0.78,2,2c1.163,0.163,1.779-0.221,2-1
		c4.097,2.292-3.19,1.333-3,3C116.491,96.13,118.275,95.503,117,93z"/>
	<path fill-rule="evenodd" clip-rule="evenodd" fill="#9A9B94" d="M121,107c-1.485,2.797-8.64,4.128-13,1c0.85-1.483,2.517-2.15,5-2
		c-0.43-1.57-3.146-0.854-2-4c1.289,1.378,4.344,0.99,7,1c0.301,2.635-1.385,3.282-4,3C116.287,108.423,117.543,107.208,121,107z"/>
	<path fill-rule="evenodd" clip-rule="evenodd" fill="#9A9B94" d="M86,129c2.835-0.791-4.546,9.497-7,4
		C80.178,132.506,85.896,133.263,86,129z"/>
	<path fill-rule="evenodd" clip-rule="evenodd" fill="#9A9B94" d="M108,166c-1.369,0.086-11.044-4.587-9-8
		C104.426,158.24,103.754,164.579,108,166z"/>
	<path fill-rule="evenodd" clip-rule="evenodd" fill="#9A9B94" d="M9,207c-0.475,5.682,1.762,13.654,2,13
		c-0.299-4.966,1.253-8.081,4-10c3.8,2.746,5.293-0.966,9-3c-0.479,3.146,1.424,3.909,2,6c-3.146-1.146-2.43,1.57-4,2
		c0.109-1.337,1.874-5.513,0-3c-3.435,3.136,0.595,11.567,0,11c2.026-4.308,3.7-8.967,8-11c3.216,8.833,0.08,11.689-4,17
		c5.871,10.276,22.942,32.77,24,49c0.317,4.869-1.285,15.614-4,13c0.522,7.967-4.25,3.86,0,12c-7.08-5.938-12.925,2.879-18-2
		c-2.152,1.182-2.398,4.269-7,3c-0.755,6.089,2.194,8.473,2,14c-0.667,0-1.333,0-2,0c-1.297-13.369-3.513-25.82-13-31
		c0-3.333,0-6.667,0-10c2.168-0.169,0.453,3.547,1,5c5.519-18.793,3.067-42.574,12-56c-2.467-3.044-0.952,6.314-6,4
		c-0.267-3.601,1.847-4.819,2-8c-0.437-1.23-1.28-2.054-3-2c-3.029,16.086-3.874,31.104-6,52c-2.845-4.155,1.119-15.119-3-18
		c0-5.667,0-11.333,0-17C8.687,228.399,6.515,219.226,9,207z"/>
	<path fill-rule="evenodd" clip-rule="evenodd" fill="#7F8480" d="M192,149c2.62-3.197,3.442,3.824,7,3
		C197.234,154.342,193.372,150.362,192,149z"/>
	<path fill-rule="evenodd" clip-rule="evenodd" fill="#9A9B94" d="M116,151c4.358-1.358,3.618,2.382,6,3
		C121.765,155.128,115.514,153.899,116,151z"/>
	<path fill-rule="evenodd" clip-rule="evenodd" fill="#7F8480" d="M138,158c1.402-1.598,3.445-2.555,6-3
		c-0.162,4.865-8.299,6.998-6,11c-0.56,2.896-1.56-1.534-3-1C136.46,165.964,138.992,158.949,138,158z"/>
	<path fill-rule="evenodd" clip-rule="evenodd" fill="#9A9B94" d="M96,169c2.217-0.551,1.424,1.909,3,2
		c-2.172,0.655-4.359-1.828-4,5c-1.44-0.227-0.349-2.984-2-3C93.997,171.664,95.703,171.036,96,169z"/>
	<path fill-rule="evenodd" clip-rule="evenodd" fill="#9A9B94" d="M28,192c1.853-0.879,9.08-2.168,10-7c3.513,1.621,2.729,3.079,5,7
		c-6.847,0.82-9.677,5.657-17,6C24.329,194.233,30.652,193.446,28,192z"/>
	<path fill-rule="evenodd" clip-rule="evenodd" fill="#9A9B94" d="M59,186c1.862-0.138,3.342-0.658,4-2c2.433,0.628,0.529,5.053-2,4
		c0.839,1.161,1.319,2.681,1,5c2.051-2.144,4.76-0.521,5,2c3.15,0.483,2.264-3.069,6-2c-4.784,5.705-6.845,15.477-6,24
		c3.424,0.942,6.013,3.315,9,2c0.132,3.201,2.267,4.399,6,4c0.622,5.711,5.74,6.927,4,15c-3.073-0.148-4.497,3.519-7,1
		c-0.144,4.02,2.564,2.646,5,2c0,2.333,0,4.667,0,7c3.236,1.235,0.764-3.235,4-2c0.147,2.744,0.186,5.155-2,3
		c0.257,4.076,4.503,4.163,7,6c2.408,2.195-3.664,0.207-4-1c0.072,4.835,3.293,6.173,1,9c-0.306,1.212,2.889,3.448,3,1
		c1.53,1.395,2.84,5.176,1,7c-1.011-4.943-4.922,5.403,0,4c-0.226,1.44-2.985,0.349-3,2c-3.181-0.819-1.396-6.604-6-6
		c-0.879-3.213,3.296-1.37,3-4c2.897,0.56-1.534,1.56-1,3c1.793,0.127,2.109-1.224,4-1c0.319-2.319-0.161-3.839-1-5
		c-2.394,1.752-3.536,3.422-9,4c2.927-2.714-2.427-9.461,4-12c0.168-2.169-3.547-0.453-5-1c-0.146-1.329,3.363-3.721,1-4
		c0.162-1.172,1.823-0.844,3-1c-0.749-1.889-2.985-0.694-1-3c-0.654-1.126-8.238,0.795-7-5c-2.074,2.125-4.352,4.042-3,7
		c-1.667,0-3.333,0-5,0c-0.309-2.338-1.958-4.132,0-6c-3.008-1.008-1.772,2.228-2,4c-2.065-0.602-3.787-1.547-3-5
		c-2.767,0.125-3.433,1.908-2-1c-3.318,0.318-6.151,0.151-7-2c-1.484,0.437,0.395,1.279,0,3c-1.161-0.839-2.681-1.319-5-1
		c2.835-2.384,5.046-5.997,8-3c-0.233-3.1-3.546-3.12-6-4c-0.89,0.443-1.789,0.878-2,2c0.353,1.401,1.761,0.086,2-1
		c2.215,1.321-2.278,4.31-4,5c-1.157-18.363-2.841-38.609-4-54c6.137,0.919,9.641-1.403,6-5C54.716,182.441,58.421,180.577,59,186z
		 M57,185c-0.224,0.776-0.027,1.973-1,2c-1.278-0.055-1.385-1.282-3-1c1.15,4.013,4.928,3.165,7,1
		C58.573,186.761,58.313,185.354,57,185z M48,195c-3.404-1.067,2.783-0.312,1-3c-0.884-1.762-4.437-1.652-2-4c-1,0-2,0-3,0
		C45.01,190.047,44.695,198.561,48,195z M46,217c5.144-0.712,3.856-16.749,1-19C44.331,206.256,48.506,212.42,46,217z M56,211
		c1.042,0.47,0.208-5.427-1-6c-0.591,2.396-1.924-2.599-4-2c1.755,6.45,1.219,14.931,6,14c-1.156-1.901-4.775-6.481-3-8
		C54.113,210.22,54.299,211.367,56,211z M54,227c-2.098-3.233-3.569,4.868-2,5c0.445-4.683,6.05,1.594,8-2
		c-2.427-2.283-2.438-9.304-8-11C52.056,222.277,54.844,222.822,54,227z"/>
	<path fill-rule="evenodd" clip-rule="evenodd" fill="#9A9B94" d="M88,252c0.576-2.091,2.479-2.854,2-6c2.029,0.638,0.659,4.675,3,5
		C92.309,252.337,90.333,250.507,88,252z"/>
	<path fill-rule="evenodd" clip-rule="evenodd" fill="#7F8480" d="M118,198c2.779,2.202-0.14,7.126,0,10
		C116.775,205.185,117.563,201.413,118,198z"/>
	<path fill-rule="evenodd" clip-rule="evenodd" fill="#7F8480" d="M106,201c1.069,3.736-2.483,2.851-2,6
		C103.444,205.477,101.926,200.787,106,201z"/>
	<path fill-rule="evenodd" clip-rule="evenodd" fill="#7F8480" d="M197,231c-1.888,7.264-2.617,7.504-6,18
		c3.582,0.582,3.04-2.96,3-6c7.427-0.24,7.882-7.452,13-10c-1.598,5.086-7.345,11.299-6,16c-0.125,2.209-4.242,0.425-6,1
		c3.096-0.904,3.977-4.023,5-7c-5.792,0.048-5.778,5.987-5,10c-3.806-3.844-9.457-1.422-11-6c-2.955,3.006-7.045,3.096-10,2
		c0.524-3.143,1.754-5.579,3-8c3.113,1.908-1.563,4.342-1,7c2.418-1.248,3.234-4.099,4-7c2.226,0.42,0.783,5.306,0,6
		c2.028,1.869,5.499-4.868,3-8c3.541,0.334,2.459,2.751,6,1c-0.693,0.807-1.556,2.739,0,3c-1.407,0.244-2.643,1.405-3,5
		C192.981,245.647,190.565,233.898,197,231z"/>
	<path fill-rule="evenodd" clip-rule="evenodd" fill="#7F8480" d="M157,242c-4.188-0.188-3.243,4.757-5,7
		c-3.059-0.726-2.941,1.726-6,1c-0.285-9.655,3.737-11.787,6-17c4.645,4.885-5.425,6.396-4,14c5.855,0.84,5.317-13.338,13-14
		c-1.123,2.544-2.456,4.877-4,7c5.065,1.628-1.371,6.591,1,8C155.748,250.752,155.645,243.696,157,242z"/>
	<path fill-rule="evenodd" clip-rule="evenodd" fill="#7F8480" d="M212,242c3.59,2.384-2.939,2.966-1,7c1.23-1.117,2.054-0.87,2,1
		c-5.419-1.969-3.939-0.743-10,0c-0.173-4.507-0.488-9.154,4-9c0.529,0.805,1.043,1.623,1,3c-0.973-0.027-0.776-1.224-1-2
		c-2.116,3.012-1.717,2.738-3,7c3.225-1.442,4.438-4.896,6-8c2.088,0.577-1.441,3.776-1,6C210.167,245.5,211.889,244.555,212,242z"
		/>
	<path fill-rule="evenodd" clip-rule="evenodd" fill="#7F8480" d="M121,249c1.236-3.235-3.236-0.765-2-4
		c1.793,0.127,2.109-1.224,4-1c-0.153,3.181-2.267,4.399-2,8C119.726,251.773,119.689,249.016,121,249z"/>
	<path fill-rule="evenodd" clip-rule="evenodd" fill="#7F8480" d="M108,290c3.586,1.316,0.314,3.283,2,6
		c-2.881-0.119-6.546,0.546-8-1c1.539-3.596-0.743-6.552,3-9c2.359,0.274-0.092,3.726-1,4C104.315,291.142,108.74,293.821,108,290z"
		/>
	<path fill-rule="evenodd" clip-rule="evenodd" fill="#7F8480" d="M8,277c0-1.667,0-3.333,0-5c2.126-20.896,2.971-35.914,6-52
		c1.72-0.054,2.563,0.77,3,2c-0.153,3.181-2.267,4.399-2,8c5.048,2.314,3.533-7.044,6-4c-8.933,13.426-6.481,37.207-12,56
		C8.453,280.547,10.168,276.831,8,277z"/>
	<path fill-rule="evenodd" clip-rule="evenodd" fill="#9A9B94" d="M151,35c8.003,2.704,8.683,6.963,12,11
		c-1.44-1.119-2.44-1.078-3,1C156.051,43.949,153.169,39.831,151,35z"/>
	<path fill-rule="evenodd" clip-rule="evenodd" fill="#9A9B94" d="M149,71c2.545,0.122,3.878,1.456,4,4c-1.44,2.212-2.44-1.259-3,1
		C147.831,76.168,149.547,72.453,149,71z"/>
	<path fill-rule="evenodd" clip-rule="evenodd" fill="#9A9B94" d="M75,86c-1.352-0.982-1.999-2.668-3-4
		C73.336,77.785,82.33,84.069,75,86z"/>
	<path fill-rule="evenodd" clip-rule="evenodd" fill="#9A9B94" d="M120,124c-4.021,0.688-5.708-0.958-9-1
		c0.426-1.907,2.857-1.81,2-5c-2.076,0.591-3.409,1.924-4,4c-3.072-1.928-5.132-4.868-6-9c0.642,2.284,5.664,2.284,3,0
		C110.907,112.444,117.531,118.788,120,124z"/>
	<path fill-rule="evenodd" clip-rule="evenodd" fill="#7F8480" d="M128,124c1.554-3.064,2.678,2.54,5,2c-1.042,5.372,0.269,3.5,1,8
		c-2.689,1.783-1.933-4.404-3-1c-2.588-1.472,0.962-8.367-4-5c0.353-1.313,1.761-1.573,2-3C129.184,124.149,128.61,124.057,128,124z
		"/>
	<path fill-rule="evenodd" clip-rule="evenodd" fill="#7F8480" d="M52,219c5.562,1.696,5.573,8.717,8,11
		c-1.95,3.594-7.555-2.683-8,2c-1.569-0.132-0.098-8.233,2-5C54.844,222.822,52.056,222.277,52,219z"/>
</g>
</svg>
