<?xml version="1.0" encoding="UTF-8" standalone="no"?>
<svg width="18px" height="20px" viewBox="0 0 18 20" version="1.1" xmlns="http://www.w3.org/2000/svg" xmlns:xlink="http://www.w3.org/1999/xlink" xmlns:sketch="http://www.bohemiancoding.com/sketch/ns">
    <!-- Generator: Sketch 3.0.3 (7891) - http://www.bohemiancoding.com/sketch -->
    <title>bluetooth-connected 2</title>
    <desc>Created with Sketch.</desc>
    <defs></defs>
    <g id="Page-1" stroke="none" stroke-width="1" fill="none" fill-rule="evenodd" sketch:type="MSPage">
        <g id="Icons-Notifications" sketch:type="MSLayerGroup" transform="translate(-129.000000, -1.000000)" fill="#000000">
            <g id="bluetooth-connected-2" transform="translate(129.000000, 1.000000)" sketch:type="MSShapeGroup">
                <path d="M4,10 L2,8 L0,10 L2,12 L4,10 L4,10 Z M14.7,5.7 L9,0 L8,0 L8,7.6 L3.4,3 L2,4.4 L7.6,10 L2,15.6 L3.4,17 L8,12.4 L8,20 L9,20 L14.7,14.3 L10.4,10 L14.7,5.7 L14.7,5.7 Z M10,3.8 L11.9,5.7 L10,7.6 L10,3.8 L10,3.8 Z M11.9,14.3 L10,16.2 L10,12.4 L11.9,14.3 L11.9,14.3 Z M16,8 L14,10 L16,12 L18,10 L16,8 L16,8 Z" id="Shape"></path>
            </g>
        </g>
    </g>
</svg>