<?xml version="1.0" encoding="UTF-8" standalone="no"?>
<svg width="20px" height="16px" viewBox="0 0 20 16" version="1.1" xmlns="http://www.w3.org/2000/svg" xmlns:xlink="http://www.w3.org/1999/xlink" xmlns:sketch="http://www.bohemiancoding.com/sketch/ns">
    <!-- Generator: Sketch 3.0.3 (7891) - http://www.bohemiancoding.com/sketch -->
    <title>disc-full</title>
    <desc>Created with Sketch.</desc>
    <defs></defs>
    <g id="Page-1" stroke="none" stroke-width="1" fill="none" fill-rule="evenodd" sketch:type="MSPage">
        <g id="Icons-Notifications" sketch:type="MSLayerGroup" transform="translate(-170.000000, -3.000000)" fill="#000000">
            <g id="disc-full" transform="translate(170.000000, 3.000000)" sketch:type="MSShapeGroup">
                <path d="M18,12 L20,12 L20,10 L18,10 L18,12 L18,12 Z M18,3 L18,8 L20,8 L20,3 L18,3 L18,3 Z M8,0 C3.6,0 0,3.6 0,8 C0,12.4 3.6,16 8,16 C12.4,16 16,12.4 16,8 C16,3.6 12.4,0 8,0 L8,0 Z M8,10 C6.9,10 6,9.1 6,8 C6,6.9 6.9,6 8,6 C9.1,6 10,6.9 10,8 C10,9.1 9.1,10 8,10 L8,10 Z" id="Shape"></path>
            </g>
        </g>
    </g>
</svg>