<?xml version="1.0" encoding="UTF-8" standalone="no"?>
<svg width="24px" height="18px" viewBox="0 0 24 18" version="1.1" xmlns="http://www.w3.org/2000/svg" xmlns:xlink="http://www.w3.org/1999/xlink" xmlns:sketch="http://www.bohemiancoding.com/sketch/ns">
    <!-- Generator: Sketch 3.0.3 (7891) - http://www.bohemiancoding.com/sketch -->
    <title>more</title>
    <desc>Created with Sketch.</desc>
    <defs></defs>
    <g id="Page-1" stroke="none" stroke-width="1" fill="none" fill-rule="evenodd" sketch:type="MSPage">
        <g id="Icons-Notifications" sketch:type="MSLayerGroup" transform="translate(-252.000000, -44.000000)" fill="#000000">
            <g id="more" transform="translate(252.000000, 44.000000)" sketch:type="MSShapeGroup">
                <path d="M22,0 L7,0 C6.3,0 5.8,0.4 5.4,0.9 L0,9 L5.4,17.1 C5.8,17.6 6.4,18 7.1,18 L22,18 C23.1,18 24,17.1 24,16 L24,2 C24,0.9 23.1,0 22,0 L22,0 Z M9,10.5 C8.2,10.5 7.5,9.8 7.5,9 C7.5,8.2 8.2,7.5 9,7.5 C9.8,7.5 10.5,8.2 10.5,9 C10.5,9.8 9.8,10.5 9,10.5 L9,10.5 Z M14,10.5 C13.2,10.5 12.5,9.8 12.5,9 C12.5,8.2 13.2,7.5 14,7.5 C14.8,7.5 15.5,8.2 15.5,9 C15.5,9.8 14.8,10.5 14,10.5 L14,10.5 Z M19,10.5 C18.2,10.5 17.5,9.8 17.5,9 C17.5,8.2 18.2,7.5 19,7.5 C19.8,7.5 20.5,8.2 20.5,9 C20.5,9.8 19.8,10.5 19,10.5 L19,10.5 Z" id="Shape"></path>
            </g>
        </g>
    </g>
</svg>