<?xml version="1.0" encoding="UTF-8" standalone="no"?>
<svg width="16px" height="20px" viewBox="0 0 16 20" version="1.1" xmlns="http://www.w3.org/2000/svg" xmlns:xlink="http://www.w3.org/1999/xlink" xmlns:sketch="http://www.bohemiancoding.com/sketch/ns">
    <!-- Generator: Sketch 3.0.3 (7891) - http://www.bohemiancoding.com/sketch -->
    <title>sim-card-alert</title>
    <desc>Created with Sketch.</desc>
    <defs></defs>
    <g id="Page-1" stroke="none" stroke-width="1" fill="none" fill-rule="evenodd" sketch:type="MSPage">
        <g id="Icons-Notifications" sketch:type="MSLayerGroup" transform="translate(-88.000000, -127.000000)" fill="#000000">
            <g id="sim-card-alert" transform="translate(88.000000, 127.000000)" sketch:type="MSShapeGroup">
                <path d="M14,0 L6,0 L0,6 L0,18 C0,19.1 0.9,20 2,20 L14,20 C15.1,20 16,19.1 16,18 L16,2 C16,0.9 15.1,0 14,0 L14,0 Z M9,15 L7,15 L7,13 L9,13 L9,15 L9,15 Z M9,11 L7,11 L7,6 L9,6 L9,11 L9,11 Z" id="Shape"></path>
            </g>
        </g>
    </g>
</svg>