<?xml version="1.0" encoding="UTF-8" standalone="no"?>
<svg width="19px" height="19px" viewBox="0 0 19 19" version="1.1" xmlns="http://www.w3.org/2000/svg" xmlns:xlink="http://www.w3.org/1999/xlink" xmlns:sketch="http://www.bohemiancoding.com/sketch/ns">
    <!-- Generator: Sketch 3.0.3 (7891) - http://www.bohemiancoding.com/sketch -->
    <title>sync-disabled</title>
    <desc>Created with Sketch.</desc>
    <defs></defs>
    <g id="Page-1" stroke="none" stroke-width="1" fill="none" fill-rule="evenodd" sketch:type="MSPage">
        <g id="Icons-Notifications" sketch:type="MSLayerGroup" transform="translate(-255.000000, -128.000000)" fill="#000000">
            <g id="sync-disabled" transform="translate(255.500000, 128.500000)" sketch:type="MSShapeGroup">
                <path d="M7,2.3 L7,0.3 C6.2,0.5 5.5,0.8 4.8,1.3 L6.3,2.8 C6.5,2.6 6.7,2.4 7,2.3 L7,2.3 Z M-0.1,1.4 L2.3,3.8 C1.5,5 1,6.4 1,8 C1,10.2 1.9,12.2 3.4,13.6 L1,16 L7,16 L7,10 L4.8,12.2 C3.7,11.2 3,9.7 3,8 C3,7 3.2,6.1 3.7,5.2 L11.8,13.3 C11.6,13.4 11.3,13.5 11,13.6 L11,15.7 C11.8,15.5 12.5,15.2 13.2,14.7 L15.6,17.1 L16.9,15.8 L1.1,0.1 L-0.1,1.4 L-0.1,1.4 Z M17,0 L11,0 L11,6 L13.2,3.8 C14.3,4.8 15,6.3 15,8 C15,9 14.8,9.9 14.3,10.8 L15.8,12.3 C16.5,11 17,9.6 17,8 C17,5.8 16.1,3.8 14.6,2.4 L17,0 L17,0 Z" id="Shape"></path>
            </g>
        </g>
    </g>
</svg>