<?xml version="1.0" encoding="UTF-8" standalone="no"?>
<svg width="16px" height="16px" viewBox="0 0 16 16" version="1.1" xmlns="http://www.w3.org/2000/svg" xmlns:xlink="http://www.w3.org/1999/xlink" xmlns:sketch="http://www.bohemiancoding.com/sketch/ns">
    <!-- Generator: Sketch 3.0.3 (7891) - http://www.bohemiancoding.com/sketch -->
    <title>sync-green</title>
    <desc>Created with Sketch.</desc>
    <defs></defs>
    <g id="Page-1" stroke="none" stroke-width="1" fill="none" fill-rule="evenodd" sketch:type="MSPage">
        <g id="Icons-Notifications" sketch:type="MSLayerGroup" transform="translate(-4.000000, -171.000000)" fill="#000000">
            <g id="sync-green" transform="translate(4.000000, 171.000000)" sketch:type="MSShapeGroup">
                <path d="M0,8 C0,10.2 0.9,12.2 2.4,13.6 L0,16 L6,16 L6,10 L3.8,12.2 C2.7,11.2 2,9.7 2,8 C2,5.4 3.7,3.2 6,2.3 L6,0.3 C2.6,1.2 0,4.3 0,8 L0,8 Z M16,0 L10,0 L10,6 L12.2,3.8 C13.3,4.8 14,6.3 14,8 C14,10.6 12.3,12.8 10,13.7 L10,15.8 C13.4,14.9 16,11.8 16,8.1 C16,5.9 15.1,3.9 13.6,2.5 L16,0 L16,0 Z" id="Shape"></path>
            </g>
        </g>
    </g>
</svg>