<?xml version="1.0" encoding="UTF-8" standalone="no"?>
<svg width="22px" height="22px" viewBox="0 0 22 22" version="1.1" xmlns="http://www.w3.org/2000/svg" xmlns:xlink="http://www.w3.org/1999/xlink" xmlns:sketch="http://www.bohemiancoding.com/sketch/ns">
    <!-- Generator: Sketch 3.0.3 (7891) - http://www.bohemiancoding.com/sketch -->
    <title>vpn</title>
    <desc>Created with Sketch.</desc>
    <defs></defs>
    <g id="Page-1" stroke="none" stroke-width="1" fill="none" fill-rule="evenodd" sketch:type="MSPage">
        <g id="Icons-Notifications" sketch:type="MSLayerGroup" transform="translate(-85.000000, -210.000000)" fill="#000000">
            <g id="vpn" transform="translate(85.000000, 210.000000)" sketch:type="MSShapeGroup">
                <path d="M21,3 L21,2.5 C21,1.1 19.9,0 18.5,0 C17.1,0 16,1.1 16,2.5 L16,3 C15.4,3 15,3.4 15,4 L15,8 C15,8.6 15.4,9 16,9 L21,9 C21.6,9 22,8.6 22,8 L22,4 C22,3.4 21.6,3 21,3 L21,3 Z M20.2,3 L16.8,3 L16.8,2.5 C16.8,1.6 17.6,0.8 18.5,0.8 C19.4,0.8 20.2,1.6 20.2,2.5 L20.2,3 L20.2,3 Z M17.9,11 C17.9,11.3 18,11.7 18,12 C18,14.1 17.2,16 15.9,17.4 C15.6,16.6 14.9,16 14,16 L13,16 L13,13 C13,12.4 12.6,12 12,12 L6,12 L6,10 L8,10 C8.6,10 9,9.6 9,9 L9,7 L11,7 C12.1,7 13,6.1 13,5 L13,2.5 C12.1,2.2 11,2 10,2 C4.5,2 0,6.5 0,12 C0,17.5 4.5,22 10,22 C15.5,22 20,17.5 20,12 C20,11.7 20,11.3 19.9,11 L17.9,11 L17.9,11 Z M9,19.9 C5.1,19.4 2,16 2,12 C2,11.4 2.1,10.8 2.2,10.2 L7,15 L7,16 C7,17.1 7.9,18 9,18 L9,19.9 L9,19.9 Z" id="Shape"></path>
            </g>
        </g>
    </g>
</svg>