<svg viewBox="0 0 355 154" xmlns="http://www.w3.org/2000/svg">
  <g fill="#464646" fill-rule="evenodd">
    <path
      d="M4.363 128.901a21.388 21.388 0 0 0 21.456 21.47 21.388 21.388 0 0 0
      21.456-21.47 21.388 21.388 0 0 0-21.456-21.47 21.388 21.388 0 0 0-21.456
      21.47z"
      class="earth"
    />
    <g fill="#464646" fill-rule="nonzero">
      <path
        d="M78.768 104.144c12.113 0 16.117 7.808 16.117 18.594v27.633c0
        1.027-.821 1.643-1.643 1.643-1.026
        0-1.642-.616-1.642-1.643v-27.633c0-8.63-2.772-15.306-12.832-15.306-6.981
        0-12.833 5.444-12.833 12.737v30.202c0 .821-.616 1.643-1.642 1.643-1.027
        0-1.643-.822-1.643-1.643v-42.94c0-.821.616-1.643 1.643-1.643 1.026 0
        1.642.822 1.642 1.644v3.081c2.977-3.903 7.7-6.369 12.833-6.369zM163.181
        150.37c5.646 0 10.163-1.746 15.194-6.266.41-.308.718-.513 1.232-.513
        1.026 0 1.642.821 1.642 1.54 0 .411-.103.925-.513 1.336-4.825
        4.93-11.395 7.19-17.555 7.19-13.653
        0-24.74-11.094-24.74-24.756s11.087-24.757 24.74-24.757c13.654 0 24.741
        10.992 24.741 24.757 0 .822-.616 1.644-1.643 1.644h-44.554c1.027 10.991
        10.164 19.826 21.456
        19.826zm-21.456-23.113h42.912c-.719-11.3-9.958-19.825-21.456-19.825-11.6
        0-20.84 8.526-21.456 19.825zM194.674 128.901c0-13.662 11.087-24.757
        24.74-24.757 9.138 0 17.248 4.931 21.457 12.43v-9.142c0-.822.616-1.644
        1.642-1.644 1.027 0 1.643.822 1.643 1.644v42.939c0 .821-.616 1.643-1.643
        1.643-1.026 0-1.642-.822-1.642-1.643v-9.143c-4.21 7.499-12.32
        12.43-21.456 12.43-13.654 0-24.74-11.095-24.74-24.757zm3.285 0a21.388
        21.388 0 0 0 21.456 21.47 21.388 21.388 0 0 0 21.456-21.47 21.388 21.388
        0 0 0-21.456-21.47 21.388 21.388 0 0 0-21.456 21.47zM285.915
        106.199c.616.308.82.822.82 1.438 0 .72-.615 1.54-1.539 1.54-.205 0-.41
        0-.719-.102-2.771-1.232-4.209-1.643-7.186-1.643-6.98 0-12.832
        5.444-12.832 12.737v30.202c0 .821-.616 1.643-1.643 1.643-1.026
        0-1.642-.822-1.642-1.643v-42.94c0-.821.616-1.643 1.642-1.643 1.027 0
        1.643.822 1.643 1.644v3.081c2.977-3.903 7.905-6.369 12.832-6.369 3.285 0
        6.262.72 8.624 2.055zM304.202 105.788h6.878c.821 0 1.643.616 1.643 1.644
        0 1.027-.822 1.643-1.643 1.643h-6.878v41.296c0 .821-.616 1.643-1.643
        1.643-1.026 0-1.642-.822-1.642-1.643v-41.296h-6.878c-.822
        0-1.643-.616-1.643-1.643 0-1.028.821-1.644
        1.643-1.644h6.878V89.644c0-.822.616-1.644 1.642-1.644 1.027 0 1.643.822
        1.643 1.644v16.144zM338.877 104.144c12.114.206 16.118 7.808 16.118
        18.594v27.633c0 1.027-.822 1.643-1.643 1.643-1.026
        0-1.642-.616-1.642-1.643v-27.633c0-8.63-2.772-15.306-12.833-15.306-6.98
        0-12.832 5.444-12.832 12.737v30.202c0 .821-.616 1.643-1.643 1.643-1.026
        0-1.642-.822-1.642-1.643V81.75c0-.822.616-1.644 1.642-1.644 1.027 0
        1.643.822 1.643 1.643v28.969c2.977-4.11 7.905-6.575 12.832-6.575z"
      />
    </g>
    <g fill="#464646" fill-rule="nonzero">
      <path
        d="M11.895 33.81h6.878c.821 0 1.643.616 1.643 1.643 0 1.026-.822
        1.642-1.643 1.642h-6.878v41.267c0 .821-.616 1.642-1.643 1.642-1.026
        0-1.642-.821-1.642-1.642V37.095H1.732c-.822 0-1.643-.616-1.643-1.642
        0-1.027.821-1.643 1.643-1.643H8.61V1.642C8.61.822 9.226 0 10.252 0c1.027
        0 1.643.821 1.643 1.642V33.81zM46.57 32.168c12.114.205 16.118 7.801
        16.118 18.58v27.614c0 1.026-.822 1.642-1.643 1.642-1.026
        0-1.642-.616-1.642-1.642V50.748c0-8.623-2.772-15.295-12.833-15.295-6.98
        0-12.832 5.44-12.832 12.729v30.18c0 .821-.616 1.642-1.643 1.642-1.026
        0-1.642-.821-1.642-1.642V9.789c0-.82.616-1.642 1.642-1.642 1.027 0
        1.643.821 1.643 1.642v28.949c2.977-4.106 7.905-6.57 12.832-6.57zM99.519
        78.362c5.646 0 10.163-1.745 15.194-6.262.41-.308.718-.513 1.231-.513
        1.027 0 1.643.82 1.643 1.54 0 .41-.103.923-.513 1.334-4.825 4.927-11.395
        7.186-17.555 7.186-13.654 0-24.74-11.087-24.74-24.74 0-13.653
        11.086-24.74 24.74-24.74 13.654 0 24.74 10.985 24.74 24.74 0 .821-.615
        1.643-1.642 1.643H78.063C79.09 69.534 88.226 78.362 99.52 78.362zM78.063
        55.265h42.912c-.719-11.292-9.958-19.812-21.456-19.812-11.6 0-20.84
        8.52-21.456 19.812zM162.477 56.907c0-13.653 11.087-24.74 24.74-24.74
        9.137 0 17.247 4.928 21.456 12.422v-9.136c0-.821.616-1.643 1.643-1.643
        1.027 0 1.643.822 1.643 1.643v42.909c0 .821-.616 1.642-1.643 1.642-1.027
        0-1.643-.821-1.643-1.642v-9.136c-4.209 7.493-12.319 12.42-21.455
        12.42-13.654 0-24.741-11.086-24.741-24.739zm3.285 0a21.38 21.38 0 0 0
        21.456 21.455 21.38 21.38 0 0 0 21.455-21.455 21.38 21.38 0 0
        0-21.455-21.454 21.38 21.38 0 0 0-21.456 21.454zM230.62 19.952c-1.027
        0-1.643-.821-1.643-1.642 0-.822.616-1.643 1.642-1.643 1.027 0 1.643.821
        1.643 1.643 0 .82-.616 1.642-1.643 1.642zM228.977
        78.362v-42.91c0-.82.616-1.642 1.642-1.642 1.027 0 1.643.822 1.643
        1.643v42.909c0 .821-.616 1.642-1.643 1.642-1.026
        0-1.642-.821-1.642-1.642zM274.02 34.22c.616.309.822.822.822 1.438 0
        .719-.616 1.54-1.54 1.54-.205 0-.41
        0-.719-.103-2.771-1.232-4.209-1.642-7.186-1.642-6.98 0-12.832
        5.44-12.832 12.729v30.18c0 .821-.616 1.642-1.643 1.642-1.026
        0-1.642-.821-1.642-1.642v-42.91c0-.82.616-1.642 1.642-1.642 1.027 0
        1.643.822 1.643 1.643v3.08c2.977-3.901 7.905-6.365 12.832-6.365 3.285 0
        6.262.718 8.624 2.053z"
      />
    </g>
  </g>
</svg>
