<svg version="1.1" xmlns="http://www.w3.org/2000/svg" viewBox="0 0 1172.2291509810434 574.4972837341923" width="1172.2291509810434" height="574.4972837341923">
  <!-- svg-source:excalidraw -->
  
  <defs>
    <style>
      @font-face {
        font-family: "Virgil";
        src: url("https://excalidraw.com/Virgil.woff2");
      }
      @font-face {
        font-family: "Cascadia";
        src: url("https://excalidraw.com/Cascadia.woff2");
      }
    </style>
  </defs>
  <rect x="0" y="0" width="1172.2291509810434" height="574.4972837341923" fill="#ffffff"></rect><g stroke-linecap="round" transform="translate(117.22058626838361 35.67091948683071) rotate(0 459.7951061320755 214.47461003479367)"><path d="M0.42 -0.42 C332.01 -0.07, 664.02 -0.17, 919.93 -0.42 M0.26 0.38 C191.59 -3.39, 384.12 -3.6, 919.74 0 M918.83 -0.17 C918.55 96.24, 918.49 192.67, 920.36 429.49 M919.33 0.02 C920.23 163.12, 920.05 326.61, 919.86 428.77 M920.26 429.18 C733.73 429.9, 548.41 429.02, 0.59 428.18 M919.55 428.62 C665.37 427.01, 410.67 426.79, 0.16 429.04 M1.03 429.36 C0.19 271.69, -0.02 113.41, 0.08 0.57 M0.39 428.51 C2.1 342.31, 2.4 255.9, -0.42 -0.22" stroke="#000000" stroke-width="1" fill="none"></path></g><g transform="translate(968.025120144026 10) rotate(0 29 9.5)"><text x="0" y="15" font-family="Cascadia, Segoe UI Emoji" font-size="16px" fill="#000000" text-anchor="start" style="white-space: pre;" direction="ltr">screen</text></g><g transform="translate(293.2186852128152 93.03536350550888) rotate(0 19 10)"><text x="0" y="14" font-family="Virgil, Segoe UI Emoji" font-size="16px" fill="#000000" text-anchor="start" style="white-space: pre;" direction="ltr">text</text></g><g stroke-linecap="round" transform="translate(288.5102259704804 133.7852437384098) rotate(0 111.18367513020826 159.39127604166669)"><path d="M0.61 -0.02 C65.26 1.38, 129.11 -1.21, 220.75 -0.19 M0.59 -0.56 C81.25 0.4, 163.16 1.09, 221.71 0.84 M221.87 0.94 C220.97 63.65, 222.91 129.25, 221.28 318.26 M221.87 -0.27 C223.76 69.16, 222.57 139.41, 221.82 318.49 M221.31 319.27 C171.22 317.46, 119.74 318.66, 0.07 319.82 M223.16 318.92 C177.2 321.31, 131.79 319.86, 0.53 319.04 M0.19 319.67 C-0.74 204.56, -2.67 89.01, -0.95 0.32 M-0.36 318.15 C0.6 228.82, 1.52 139.88, -0.49 -0.2" stroke="#000000" stroke-width="1" fill="none"></path></g><g stroke-linecap="round" transform="translate(299.6963689582476 157.33076444890514) rotate(0 65.20305129716985 6.565079599056588)"><path d="M0.87 0.76 C0.87 0.76, 0.87 0.76, 0.87 0.76 M0.87 0.76 C0.87 0.76, 0.87 0.76, 0.87 0.76 M3.24 4.14 C3.97 3.29, 4.71 2.44, 5.2 1.87 M3.24 4.14 C4.01 3.25, 4.79 2.35, 5.2 1.87 M1.01 12.8 C3.66 9.74, 6.32 6.69, 10.85 1.48 M1.01 12.8 C3.14 10.35, 5.27 7.89, 10.85 1.48 M4.68 14.67 C8.94 9.77, 13.21 4.86, 15.83 1.84 M4.68 14.67 C7.43 11.51, 10.18 8.35, 15.83 1.84 M10.32 14.28 C14.76 9.17, 19.2 4.07, 21.48 1.45 M10.32 14.28 C13.02 11.17, 15.72 8.06, 21.48 1.45 M15.31 14.64 C19.08 10.3, 22.85 5.96, 26.46 1.81 M15.31 14.64 C19.38 9.95, 23.46 5.26, 26.46 1.81 M20.95 14.24 C24.41 10.26, 27.87 6.29, 32.11 1.41 M20.95 14.24 C25.15 9.42, 29.34 4.59, 32.11 1.41 M25.94 14.6 C29.97 9.96, 34.01 5.32, 37.09 1.77 M25.94 14.6 C29.63 10.36, 33.32 6.11, 37.09 1.77 M31.59 14.21 C34.03 11.39, 36.48 8.57, 42.08 2.13 M31.59 14.21 C35.56 9.63, 39.54 5.06, 42.08 2.13 M36.57 14.57 C38.94 11.85, 41.3 9.13, 47.73 1.74 M36.57 14.57 C39.46 11.25, 42.35 7.92, 47.73 1.74 M42.22 14.17 C45.2 10.74, 48.18 7.31, 52.71 2.1 M42.22 14.17 C45.33 10.59, 48.44 7.01, 52.71 2.1 M47.2 14.53 C51.52 9.56, 55.85 4.59, 58.36 1.7 M47.2 14.53 C50.56 10.67, 53.91 6.81, 58.36 1.7 M52.85 14.14 C56.7 9.71, 60.55 5.27, 63.34 2.06 M52.85 14.14 C56.64 9.78, 60.43 5.42, 63.34 2.06 M57.83 14.5 C60.34 11.61, 62.85 8.72, 68.99 1.67 M57.83 14.5 C61.67 10.08, 65.51 5.67, 68.99 1.67 M62.82 14.86 C65.9 11.31, 68.99 7.76, 73.97 2.03 M62.82 14.86 C66.06 11.13, 69.3 7.4, 73.97 2.03 M68.46 14.46 C70.7 11.88, 72.95 9.3, 79.62 1.63 M68.46 14.46 C71.95 10.46, 75.43 6.45, 79.62 1.63 M73.45 14.82 C77.87 9.74, 82.28 4.66, 84.6 1.99 M73.45 14.82 C77.79 9.83, 82.12 4.84, 84.6 1.99 M79.09 14.43 C81.66 11.47, 84.24 8.51, 90.25 1.6 M79.09 14.43 C82.04 11.03, 85 7.64, 90.25 1.6 M84.08 14.79 C88.51 9.69, 92.95 4.59, 95.23 1.96 M84.08 14.79 C86.82 11.64, 89.56 8.48, 95.23 1.96 M89.72 14.39 C93.83 9.67, 97.93 4.95, 100.88 1.56 M89.72 14.39 C93.03 10.59, 96.34 6.78, 100.88 1.56 M94.71 14.75 C98.53 10.36, 102.35 5.96, 105.86 1.92 M94.71 14.75 C97.35 11.71, 99.99 8.67, 105.86 1.92 M100.35 14.36 C103.77 10.43, 107.19 6.49, 111.51 1.53 M100.35 14.36 C103.02 11.29, 105.68 8.23, 111.51 1.53 M105.34 14.72 C109.59 9.83, 113.85 4.93, 116.49 1.89 M105.34 14.72 C107.84 11.84, 110.34 8.97, 116.49 1.89 M110.98 14.32 C114.09 10.75, 117.2 7.17, 122.14 1.49 M110.98 14.32 C114.99 9.71, 119 5.1, 122.14 1.49 M115.97 14.69 C118.97 11.24, 121.96 7.79, 127.78 1.1 M115.97 14.69 C118.98 11.22, 121.99 7.76, 127.78 1.1 M121.61 14.29 C125.12 10.25, 128.63 6.22, 131.45 2.97 M121.61 14.29 C124.18 11.34, 126.74 8.39, 131.45 2.97 M127.26 13.9 C128.53 12.43, 129.8 10.97, 130.54 10.12 M127.26 13.9 C128.12 12.9, 128.98 11.91, 130.54 10.12" stroke="#868e96" stroke-width="0.5" fill="none"></path><path d="M3.28 0 M3.28 0 C46.62 0, 89.96 0, 127.12 0 M3.28 0 C50.58 0, 97.88 0, 127.12 0 M127.12 0 C129.31 0, 130.41 1.09, 130.41 3.28 M127.12 0 C129.31 0, 130.41 1.09, 130.41 3.28 M130.41 3.28 C130.41 4.62, 130.41 5.95, 130.41 9.85 M130.41 3.28 C130.41 5.56, 130.41 7.85, 130.41 9.85 M130.41 9.85 C130.41 12.04, 129.31 13.13, 127.12 13.13 M130.41 9.85 C130.41 12.04, 129.31 13.13, 127.12 13.13 M127.12 13.13 C100.22 13.13, 73.31 13.13, 3.28 13.13 M127.12 13.13 C83.75 13.13, 40.37 13.13, 3.28 13.13 M3.28 13.13 C1.09 13.13, 0 12.04, 0 9.85 M3.28 13.13 C1.09 13.13, 0 12.04, 0 9.85 M0 9.85 C0 7.97, 0 6.09, 0 3.28 M0 9.85 C0 7.38, 0 4.92, 0 3.28 M0 3.28 C0 1.09, 1.09 0, 3.28 0 M0 3.28 C0 1.09, 1.09 0, 3.28 0" stroke="#000000" stroke-width="1" fill="none"></path></g><g stroke-linecap="round" transform="translate(299.6963689582476 190.85660255537408) rotate(0 34.36042905596844 6.570607311320771)"><path d="M0.87 0.76 C0.87 0.76, 0.87 0.76, 0.87 0.76 M0.87 0.76 C0.87 0.76, 0.87 0.76, 0.87 0.76 M2.58 4.89 C3.42 3.93, 4.26 2.97, 5.21 1.87 M2.58 4.89 C3.28 4.09, 3.98 3.28, 5.21 1.87 M1.66 12.05 C4.69 8.56, 7.72 5.08, 10.85 1.48 M1.66 12.05 C5.26 7.91, 8.86 3.77, 10.85 1.48 M4.03 15.43 C8.67 10.08, 13.32 4.74, 15.84 1.84 M4.03 15.43 C8.38 10.42, 12.73 5.41, 15.84 1.84 M9.67 15.03 C12.95 11.25, 16.24 7.47, 21.48 1.45 M9.67 15.03 C13.23 10.94, 16.78 6.85, 21.48 1.45 M14.66 15.39 C17.12 12.56, 19.57 9.73, 26.47 1.81 M14.66 15.39 C17.31 12.34, 19.96 9.29, 26.47 1.81 M20.3 15 C23.82 10.94, 27.35 6.89, 31.45 2.17 M20.3 15 C22.54 12.42, 24.78 9.85, 31.45 2.17 M25.29 15.36 C29.96 9.98, 34.63 4.61, 37.1 1.77 M25.29 15.36 C29.01 11.07, 32.74 6.79, 37.1 1.77 M30.93 14.96 C34.91 10.39, 38.88 5.81, 42.08 2.13 M30.93 14.96 C35.12 10.14, 39.31 5.32, 42.08 2.13 M35.92 15.32 C40.36 10.21, 44.8 5.1, 47.73 1.74 M35.92 15.32 C39.54 11.15, 43.17 6.98, 47.73 1.74 M41.56 14.93 C45.5 10.4, 49.43 5.87, 52.71 2.1 M41.56 14.93 C44.33 11.74, 47.11 8.55, 52.71 2.1 M46.55 15.29 C49.61 11.76, 52.68 8.23, 58.36 1.7 M46.55 15.29 C50.7 10.5, 54.86 5.72, 58.36 1.7 M52.19 14.89 C56.61 9.8, 61.04 4.71, 63.34 2.06 M52.19 14.89 C55.28 11.34, 58.37 7.78, 63.34 2.06 M57.18 15.25 C61.25 10.57, 65.33 5.88, 68.99 1.67 M57.18 15.25 C61.77 9.97, 66.36 4.69, 68.99 1.67 M62.16 15.61 C63.6 13.96, 65.04 12.31, 68.72 8.07 M62.16 15.61 C63.83 13.69, 65.5 11.77, 68.72 8.07" stroke="#868e96" stroke-width="0.5" fill="none"></path><path d="M3.29 0 M3.29 0 C16.97 0, 30.65 0, 65.44 0 M3.29 0 C18.26 0, 33.24 0, 65.44 0 M65.44 0 C67.63 0, 68.72 1.1, 68.72 3.29 M65.44 0 C67.63 0, 68.72 1.1, 68.72 3.29 M68.72 3.29 C68.72 5.86, 68.72 8.44, 68.72 9.86 M68.72 3.29 C68.72 4.65, 68.72 6.02, 68.72 9.86 M68.72 9.86 C68.72 12.05, 67.63 13.14, 65.44 13.14 M68.72 9.86 C68.72 12.05, 67.63 13.14, 65.44 13.14 M65.44 13.14 C49.23 13.14, 33.03 13.14, 3.29 13.14 M65.44 13.14 C50.86 13.14, 36.29 13.14, 3.29 13.14 M3.29 13.14 C1.1 13.14, 0 12.05, 0 9.86 M3.29 13.14 C1.1 13.14, 0 12.05, 0 9.86 M0 9.86 C0 8.46, 0 7.07, 0 3.29 M0 9.86 C0 7.94, 0 6.03, 0 3.29 M0 3.29 C0 1.1, 1.1 0, 3.29 0 M0 3.29 C0 1.1, 1.1 0, 3.29 0" stroke="#000000" stroke-width="1" fill="none"></path></g><g stroke-linecap="round" transform="translate(299.6963689582476 224.39349608637139) rotate(0 81.93376337200607 7.090212264150949)"><path d="M0.94 0.82 C0.94 0.82, 0.94 0.82, 0.94 0.82 M0.94 0.82 C0.94 0.82, 0.94 0.82, 0.94 0.82 M3.31 4.2 C3.98 3.43, 4.65 2.66, 5.27 1.94 M3.31 4.2 C3.83 3.6, 4.35 2.99, 5.27 1.94 M1.73 12.11 C4.3 9.15, 6.87 6.2, 10.92 1.54 M1.73 12.11 C3.98 9.52, 6.24 6.93, 10.92 1.54 M4.75 14.73 C8.3 10.65, 11.85 6.57, 15.9 1.9 M4.75 14.73 C7.21 11.9, 9.67 9.07, 15.9 1.9 M9.74 15.09 C13.39 10.89, 17.04 6.69, 21.55 1.51 M9.74 15.09 C14.34 9.8, 18.93 4.51, 21.55 1.51 M15.38 14.7 C19.65 9.79, 23.92 4.88, 26.53 1.87 M15.38 14.7 C18.8 10.77, 22.21 6.84, 26.53 1.87 M20.37 15.06 C23.9 10.99, 27.43 6.93, 32.18 1.47 M20.37 15.06 C23.7 11.22, 27.03 7.39, 32.18 1.47 M26.01 14.66 C29.39 10.78, 32.76 6.9, 37.16 1.83 M26.01 14.66 C29.13 11.07, 32.25 7.49, 37.16 1.83 M31 15.02 C34.24 11.29, 37.48 7.56, 42.81 1.44 M31 15.02 C34.67 10.8, 38.33 6.58, 42.81 1.44 M35.99 15.38 C40.54 10.14, 45.09 4.9, 47.79 1.8 M35.99 15.38 C39.92 10.86, 43.85 6.34, 47.79 1.8 M41.63 14.99 C44.58 11.59, 47.54 8.19, 53.44 1.4 M41.63 14.99 C44.55 11.63, 47.46 8.28, 53.44 1.4 M46.62 15.35 C51.08 10.21, 55.55 5.07, 58.43 1.76 M46.62 15.35 C51.27 10, 55.92 4.65, 58.43 1.76 M52.26 14.95 C56.15 10.48, 60.04 6, 64.07 1.37 M52.26 14.95 C56.39 10.2, 60.53 5.44, 64.07 1.37 M57.25 15.31 C61.57 10.34, 65.89 5.37, 69.06 1.73 M57.25 15.31 C59.92 12.23, 62.6 9.15, 69.06 1.73 M62.89 14.92 C65.31 12.13, 67.73 9.35, 74.7 1.33 M62.89 14.92 C66.01 11.32, 69.14 7.73, 74.7 1.33 M67.88 15.28 C71.1 11.57, 74.33 7.86, 79.69 1.69 M67.88 15.28 C71.79 10.77, 75.71 6.27, 79.69 1.69 M73.52 14.88 C76.4 11.57, 79.29 8.25, 84.67 2.05 M73.52 14.88 C77.09 10.77, 80.67 6.66, 84.67 2.05 M78.51 15.24 C82.8 10.3, 87.1 5.35, 90.32 1.66 M78.51 15.24 C81.39 11.92, 84.28 8.6, 90.32 1.66 M84.15 14.85 C87.06 11.5, 89.97 8.16, 95.3 2.02 M84.15 14.85 C86.76 11.84, 89.38 8.83, 95.3 2.02 M89.14 15.21 C93.16 10.58, 97.19 5.94, 100.95 1.62 M89.14 15.21 C91.93 11.99, 94.73 8.78, 100.95 1.62 M94.78 14.81 C97.81 11.33, 100.83 7.85, 105.93 1.98 M94.78 14.81 C97.11 12.14, 99.44 9.46, 105.93 1.98 M99.77 15.17 C102.67 11.83, 105.58 8.49, 111.58 1.59 M99.77 15.17 C102.32 12.23, 104.88 9.29, 111.58 1.59 M105.41 14.78 C109.19 10.43, 112.98 6.07, 116.56 1.95 M105.41 14.78 C107.99 11.81, 110.58 8.83, 116.56 1.95 M110.4 15.14 C114.65 10.25, 118.9 5.36, 122.21 1.56 M110.4 15.14 C113.09 12.05, 115.77 8.95, 122.21 1.56 M116.04 14.75 C118.3 12.15, 120.56 9.55, 127.19 1.92 M116.04 14.75 C120.25 9.9, 124.46 5.06, 127.19 1.92 M121.03 15.11 C124.6 10.99, 128.17 6.88, 132.84 1.52 M121.03 15.11 C125.16 10.36, 129.28 5.61, 132.84 1.52 M126.67 14.71 C131 9.73, 135.33 4.75, 137.82 1.88 M126.67 14.71 C130.08 10.79, 133.5 6.86, 137.82 1.88 M131.66 15.07 C135.59 10.55, 139.53 6.02, 143.47 1.49 M131.66 15.07 C136.36 9.66, 141.06 4.26, 143.47 1.49 M137.3 14.68 C140.78 10.68, 144.25 6.68, 148.45 1.85 M137.3 14.68 C141.35 10.01, 145.41 5.35, 148.45 1.85 M142.29 15.04 C145.24 11.64, 148.18 8.25, 154.1 1.45 M142.29 15.04 C144.94 11.99, 147.59 8.94, 154.1 1.45 M147.93 14.64 C152.65 9.21, 157.37 3.78, 160.39 0.3 M147.93 14.64 C151.45 10.6, 154.96 6.55, 160.39 0.3 M152.92 15 C156.14 11.29, 159.37 7.58, 164.07 2.17 M152.92 15 C155.33 12.23, 157.74 9.46, 164.07 2.17 M157.9 15.36 C159.58 13.44, 161.25 11.51, 163.81 8.57 M157.9 15.36 C159.56 13.46, 161.21 11.56, 163.81 8.57" stroke="#868e96" stroke-width="0.5" fill="none"></path><path d="M3.55 0 M3.55 0 C39.29 0, 75.04 0, 160.32 0 M3.55 0 C65.77 0, 127.99 0, 160.32 0 M160.32 0 C162.69 0, 163.87 1.18, 163.87 3.55 M160.32 0 C162.69 0, 163.87 1.18, 163.87 3.55 M163.87 3.55 C163.87 5.49, 163.87 7.43, 163.87 10.64 M163.87 3.55 C163.87 5.21, 163.87 6.88, 163.87 10.64 M163.87 10.64 C163.87 13, 162.69 14.18, 160.32 14.18 M163.87 10.64 C163.87 13, 162.69 14.18, 160.32 14.18 M160.32 14.18 C119.81 14.18, 79.29 14.18, 3.55 14.18 M160.32 14.18 C110.38 14.18, 60.44 14.18, 3.55 14.18 M3.55 14.18 C1.18 14.18, 0 13, 0 10.64 M3.55 14.18 C1.18 14.18, 0 13, 0 10.64 M0 10.64 C0 8.42, 0 6.21, 0 3.55 M0 10.64 C0 8.22, 0 5.8, 0 3.55 M0 3.55 C0 1.18, 1.18 0, 3.55 0 M0 3.55 C0 1.18, 1.18 0, 3.55 0" stroke="#000000" stroke-width="1" fill="none"></path></g><g stroke-linecap="round" transform="translate(299.6963689582476 258.96959952302905) rotate(0 49.44924096634554 7.593234080188722)"><path d="M0.54 1.79 C0.54 1.79, 0.54 1.79, 0.54 1.79 M0.54 1.79 C0.54 1.79, 0.54 1.79, 0.54 1.79 M0.28 8.19 C2.28 5.88, 4.28 3.58, 5.52 2.15 M0.28 8.19 C2.35 5.8, 4.42 3.42, 5.52 2.15 M1.33 13.08 C3.34 10.77, 5.35 8.45, 11.17 1.76 M1.33 13.08 C4.16 9.82, 6.99 6.56, 11.17 1.76 M4.34 15.7 C7.36 12.23, 10.38 8.76, 16.15 2.12 M4.34 15.7 C6.72 12.97, 9.09 10.24, 16.15 2.12 M9.99 15.31 C14.42 10.21, 18.85 5.11, 21.8 1.72 M9.99 15.31 C13.18 11.64, 16.37 7.96, 21.8 1.72 M14.97 15.67 C17.38 12.9, 19.78 10.14, 26.78 2.08 M14.97 15.67 C18.73 11.35, 22.49 7.02, 26.78 2.08 M19.96 16.03 C22.84 12.71, 25.73 9.4, 32.43 1.69 M19.96 16.03 C24.33 11, 28.7 5.97, 32.43 1.69 M25.6 15.63 C29.81 10.8, 34.02 5.96, 37.41 2.05 M25.6 15.63 C29.78 10.83, 33.96 6.02, 37.41 2.05 M30.59 15.99 C34.75 11.2, 38.92 6.41, 43.06 1.65 M30.59 15.99 C35.47 10.38, 40.34 4.77, 43.06 1.65 M36.23 15.6 C40.16 11.08, 44.09 6.56, 48.04 2.01 M36.23 15.6 C38.6 12.87, 40.97 10.15, 48.04 2.01 M41.22 15.96 C46.02 10.44, 50.82 4.92, 53.69 1.62 M41.22 15.96 C44.84 11.79, 48.47 7.62, 53.69 1.62 M46.86 15.56 C50.89 10.93, 54.92 6.29, 58.67 1.98 M46.86 15.56 C50.85 10.98, 54.84 6.39, 58.67 1.98 M51.85 15.92 C55.89 11.28, 59.93 6.63, 64.32 1.58 M51.85 15.92 C55.38 11.86, 58.91 7.8, 64.32 1.58 M57.49 15.53 C60.79 11.74, 64.09 7.94, 69.3 1.94 M57.49 15.53 C61.39 11.05, 65.29 6.57, 69.3 1.94 M62.48 15.89 C65.36 12.58, 68.24 9.27, 74.95 1.55 M62.48 15.89 C65.46 12.46, 68.45 9.03, 74.95 1.55 M68.13 15.49 C70.88 12.33, 73.63 9.17, 79.93 1.91 M68.13 15.49 C72 11.04, 75.87 6.59, 79.93 1.91 M73.11 15.85 C75.9 12.65, 78.69 9.44, 85.58 1.52 M73.11 15.85 C77.66 10.62, 82.21 5.39, 85.58 1.52 M78.76 15.46 C83.22 10.33, 87.68 5.2, 90.56 1.88 M78.76 15.46 C83.11 10.46, 87.46 5.45, 90.56 1.88 M83.74 15.82 C88.47 10.39, 93.19 4.95, 96.86 0.73 M83.74 15.82 C87.71 11.26, 91.68 6.69, 96.86 0.73 M89.39 15.43 C92.31 12.07, 95.23 8.71, 99.88 3.35 M89.39 15.43 C92.26 12.12, 95.14 8.81, 99.88 3.35 M94.37 15.79 C96.36 13.5, 98.34 11.22, 100.28 8.99 M94.37 15.79 C95.73 14.22, 97.09 12.66, 100.28 8.99" stroke="#868e96" stroke-width="0.5" fill="none"></path><path d="M3.8 0 M3.8 0 C39.2 0, 74.6 0, 95.1 0 M3.8 0 C36.06 0, 68.33 0, 95.1 0 M95.1 0 C97.63 0, 98.9 1.27, 98.9 3.8 M95.1 0 C97.63 0, 98.9 1.27, 98.9 3.8 M98.9 3.8 C98.9 5.91, 98.9 8.03, 98.9 11.39 M98.9 3.8 C98.9 6.53, 98.9 9.25, 98.9 11.39 M98.9 11.39 C98.9 13.92, 97.63 15.19, 95.1 15.19 M98.9 11.39 C98.9 13.92, 97.63 15.19, 95.1 15.19 M95.1 15.19 C75.55 15.19, 56 15.19, 3.8 15.19 M95.1 15.19 C70.44 15.19, 45.78 15.19, 3.8 15.19 M3.8 15.19 C1.27 15.19, 0 13.92, 0 11.39 M3.8 15.19 C1.27 15.19, 0 13.92, 0 11.39 M0 11.39 C0 8.72, 0 6.06, 0 3.8 M0 11.39 C0 9.66, 0 7.92, 0 3.8 M0 3.8 C0 1.27, 1.27 0, 3.8 0 M0 3.8 C0 1.27, 1.27 0, 3.8 0" stroke="#000000" stroke-width="1" fill="none"></path></g><g stroke-linecap="round" transform="translate(299.6963689582476 294.55174659176225) rotate(0 34.36042905596844 6.570607311320771)"><path d="M0.87 0.76 C0.87 0.76, 0.87 0.76, 0.87 0.76 M0.87 0.76 C0.87 0.76, 0.87 0.76, 0.87 0.76 M2.58 4.89 C3.36 4, 4.14 3.1, 5.21 1.87 M2.58 4.89 C3.18 4.2, 3.78 3.51, 5.21 1.87 M1.66 12.05 C4.91 8.31, 8.16 4.57, 10.85 1.48 M1.66 12.05 C4.44 8.85, 7.21 5.66, 10.85 1.48 M4.03 15.43 C6.65 12.41, 9.27 9.39, 15.84 1.84 M4.03 15.43 C8.47 10.31, 12.91 5.2, 15.84 1.84 M9.67 15.03 C13.6 10.51, 17.53 5.99, 21.48 1.45 M9.67 15.03 C12.9 11.32, 16.12 7.61, 21.48 1.45 M14.66 15.39 C18.64 10.81, 22.63 6.22, 26.47 1.81 M14.66 15.39 C18.55 10.91, 22.45 6.43, 26.47 1.81 M20.3 15 C23.22 11.63, 26.15 8.27, 31.45 2.17 M20.3 15 C24.7 9.94, 29.09 4.88, 31.45 2.17 M25.29 15.36 C29.54 10.46, 33.79 5.57, 37.1 1.77 M25.29 15.36 C29.1 10.97, 32.92 6.58, 37.1 1.77 M30.93 14.96 C33.89 11.55, 36.85 8.15, 42.08 2.13 M30.93 14.96 C35.15 10.11, 39.37 5.25, 42.08 2.13 M35.92 15.32 C38.82 11.98, 41.73 8.64, 47.73 1.74 M35.92 15.32 C39.75 10.92, 43.58 6.51, 47.73 1.74 M41.56 14.93 C45.53 10.36, 49.5 5.79, 52.71 2.1 M41.56 14.93 C44.06 12.05, 46.57 9.17, 52.71 2.1 M46.55 15.29 C49.97 11.35, 53.4 7.41, 58.36 1.7 M46.55 15.29 C50.54 10.69, 54.54 6.09, 58.36 1.7 M52.19 14.89 C55.93 10.59, 59.67 6.28, 63.34 2.06 M52.19 14.89 C55.74 10.81, 59.29 6.73, 63.34 2.06 M57.18 15.25 C59.85 12.18, 62.52 9.11, 68.99 1.67 M57.18 15.25 C60.79 11.1, 64.4 6.94, 68.99 1.67 M62.16 15.61 C64.1 13.39, 66.04 11.16, 68.72 8.07 M62.16 15.61 C64.33 13.12, 66.5 10.63, 68.72 8.07" stroke="#868e96" stroke-width="0.5" fill="none"></path><path d="M3.29 0 M3.29 0 C23.64 0, 44 0, 65.44 0 M3.29 0 C15.92 0, 28.56 0, 65.44 0 M65.44 0 C67.63 0, 68.72 1.1, 68.72 3.29 M65.44 0 C67.63 0, 68.72 1.1, 68.72 3.29 M68.72 3.29 C68.72 5.01, 68.72 6.73, 68.72 9.86 M68.72 3.29 C68.72 5.38, 68.72 7.48, 68.72 9.86 M68.72 9.86 C68.72 12.05, 67.63 13.14, 65.44 13.14 M68.72 9.86 C68.72 12.05, 67.63 13.14, 65.44 13.14 M65.44 13.14 C43.25 13.14, 21.06 13.14, 3.29 13.14 M65.44 13.14 C49.55 13.14, 33.67 13.14, 3.29 13.14 M3.29 13.14 C1.1 13.14, 0 12.05, 0 9.86 M3.29 13.14 C1.1 13.14, 0 12.05, 0 9.86 M0 9.86 C0 8.07, 0 6.29, 0 3.29 M0 9.86 C0 8.48, 0 7.11, 0 3.29 M0 3.29 C0 1.1, 1.1 0, 3.29 0 M0 3.29 C0 1.1, 1.1 0, 3.29 0" stroke="#000000" stroke-width="1" fill="none"></path></g><g stroke-linecap="round" transform="translate(299.6963689582476 328.08864012275956) rotate(0 65.20305129716985 6.56507959905656)"><path d="M0.87 0.76 C0.87 0.76, 0.87 0.76, 0.87 0.76 M0.87 0.76 C0.87 0.76, 0.87 0.76, 0.87 0.76 M3.24 4.14 C3.78 3.52, 4.32 2.89, 5.2 1.87 M3.24 4.14 C3.92 3.36, 4.6 2.57, 5.2 1.87 M1.01 12.8 C3.61 9.81, 6.21 6.81, 10.85 1.48 M1.01 12.8 C3.65 9.76, 6.29 6.72, 10.85 1.48 M4.68 14.67 C8.86 9.86, 13.04 5.05, 15.83 1.84 M4.68 14.67 C8.12 10.71, 11.56 6.76, 15.83 1.84 M10.32 14.28 C14.01 10.04, 17.69 5.8, 21.48 1.45 M10.32 14.28 C12.78 11.45, 15.23 8.63, 21.48 1.45 M15.31 14.64 C19.75 9.54, 24.18 4.43, 26.46 1.81 M15.31 14.64 C17.55 12.06, 19.79 9.48, 26.46 1.81 M20.95 14.24 C23.63 11.16, 26.31 8.08, 32.11 1.41 M20.95 14.24 C25.29 9.26, 29.62 4.27, 32.11 1.41 M25.94 14.6 C28.97 11.12, 31.99 7.64, 37.09 1.77 M25.94 14.6 C28.8 11.31, 31.67 8.01, 37.09 1.77 M31.59 14.21 C34.79 10.52, 37.99 6.84, 42.08 2.13 M31.59 14.21 C34.87 10.43, 38.15 6.65, 42.08 2.13 M36.57 14.57 C40.07 10.55, 43.56 6.53, 47.73 1.74 M36.57 14.57 C39.86 10.78, 43.15 7, 47.73 1.74 M42.22 14.17 C45.1 10.86, 47.98 7.54, 52.71 2.1 M42.22 14.17 C45.03 10.93, 47.85 7.7, 52.71 2.1 M47.2 14.53 C50.89 10.29, 54.57 6.05, 58.36 1.7 M47.2 14.53 C49.67 11.69, 52.14 8.85, 58.36 1.7 M52.85 14.14 C55.33 11.27, 57.82 8.41, 63.34 2.06 M52.85 14.14 C56.68 9.73, 60.51 5.32, 63.34 2.06 M57.83 14.5 C61.39 10.41, 64.94 6.32, 68.99 1.67 M57.83 14.5 C61.48 10.3, 65.14 6.09, 68.99 1.67 M62.82 14.86 C66.4 10.74, 69.97 6.63, 73.97 2.03 M62.82 14.86 C65.62 11.64, 68.42 8.42, 73.97 2.03 M68.46 14.46 C72.51 9.81, 76.55 5.16, 79.62 1.63 M68.46 14.46 C72.82 9.46, 77.17 4.45, 79.62 1.63 M73.45 14.82 C77.82 9.79, 82.19 4.76, 84.6 1.99 M73.45 14.82 C75.77 12.15, 78.09 9.48, 84.6 1.99 M79.09 14.43 C82.84 10.11, 86.59 5.8, 90.25 1.6 M79.09 14.43 C83.25 9.64, 87.42 4.85, 90.25 1.6 M84.08 14.79 C88.06 10.21, 92.04 5.63, 95.23 1.96 M84.08 14.79 C86.93 11.51, 89.78 8.23, 95.23 1.96 M89.72 14.39 C91.98 11.8, 94.24 9.2, 100.88 1.56 M89.72 14.39 C93.35 10.22, 96.98 6.05, 100.88 1.56 M94.71 14.75 C97.62 11.41, 100.52 8.07, 105.86 1.92 M94.71 14.75 C97.47 11.57, 100.24 8.4, 105.86 1.92 M100.35 14.36 C103.84 10.35, 107.33 6.33, 111.51 1.53 M100.35 14.36 C103.5 10.74, 106.64 7.13, 111.51 1.53 M105.34 14.72 C109.65 9.76, 113.97 4.8, 116.49 1.89 M105.34 14.72 C109.53 9.9, 113.71 5.09, 116.49 1.89 M110.98 14.32 C114.43 10.36, 117.87 6.4, 122.14 1.49 M110.98 14.32 C115.04 9.66, 119.1 4.99, 122.14 1.49 M115.97 14.69 C120.2 9.81, 124.44 4.94, 127.78 1.1 M115.97 14.69 C119.1 11.08, 122.23 7.48, 127.78 1.1 M121.61 14.29 C123.78 11.79, 125.95 9.3, 131.45 2.97 M121.61 14.29 C124.35 11.14, 127.09 7.99, 131.45 2.97 M127.26 13.9 C128.04 13, 128.82 12.1, 130.54 10.12 M127.26 13.9 C128.17 12.84, 129.09 11.79, 130.54 10.12" stroke="#868e96" stroke-width="0.5" fill="none"></path><path d="M3.28 0 M3.28 0 C48.74 0, 94.19 0, 127.12 0 M3.28 0 C30.29 0, 57.3 0, 127.12 0 M127.12 0 C129.31 0, 130.41 1.09, 130.41 3.28 M127.12 0 C129.31 0, 130.41 1.09, 130.41 3.28 M130.41 3.28 C130.41 4.92, 130.41 6.56, 130.41 9.85 M130.41 3.28 C130.41 4.76, 130.41 6.23, 130.41 9.85 M130.41 9.85 C130.41 12.04, 129.31 13.13, 127.12 13.13 M130.41 9.85 C130.41 12.04, 129.31 13.13, 127.12 13.13 M127.12 13.13 C79.13 13.13, 31.14 13.13, 3.28 13.13 M127.12 13.13 C90.98 13.13, 54.83 13.13, 3.28 13.13 M3.28 13.13 C1.09 13.13, 0 12.04, 0 9.85 M3.28 13.13 C1.09 13.13, 0 12.04, 0 9.85 M0 9.85 C0 7.48, 0 5.11, 0 3.28 M0 9.85 C0 7.98, 0 6.11, 0 3.28 M0 3.28 C0 1.09, 1.09 0, 3.28 0 M0 3.28 C0 1.09, 1.09 0, 3.28 0" stroke="#000000" stroke-width="1" fill="none"></path></g><g stroke-linecap="round" transform="translate(299.6963689582476 361.61447822922844) rotate(0 81.93376337200607 7.090212264150921)"><path d="M0.94 0.82 C0.94 0.82, 0.94 0.82, 0.94 0.82 M0.94 0.82 C0.94 0.82, 0.94 0.82, 0.94 0.82 M3.31 4.2 C4.01 3.39, 4.72 2.58, 5.27 1.94 M3.31 4.2 C3.8 3.63, 4.3 3.06, 5.27 1.94 M1.73 12.11 C5.24 8.07, 8.75 4.03, 10.92 1.54 M1.73 12.11 C5.36 7.93, 9 3.75, 10.92 1.54 M4.75 14.73 C8.46 10.46, 12.17 6.19, 15.9 1.9 M4.75 14.73 C9.04 9.8, 13.32 4.87, 15.9 1.9 M9.74 15.09 C12.47 11.94, 15.21 8.8, 21.55 1.51 M9.74 15.09 C12.73 11.65, 15.72 8.21, 21.55 1.51 M15.38 14.7 C18.33 11.3, 21.29 7.9, 26.53 1.87 M15.38 14.7 C18.82 10.74, 22.26 6.78, 26.53 1.87 M20.37 15.06 C24.33 10.5, 28.3 5.93, 32.18 1.47 M20.37 15.06 C24.18 10.67, 28 6.28, 32.18 1.47 M26.01 14.66 C29.58 10.56, 33.15 6.45, 37.16 1.83 M26.01 14.66 C28.63 11.64, 31.26 8.63, 37.16 1.83 M31 15.02 C33.55 12.08, 36.11 9.14, 42.81 1.44 M31 15.02 C35.07 10.34, 39.13 5.66, 42.81 1.44 M35.99 15.38 C38.38 12.63, 40.76 9.88, 47.79 1.8 M35.99 15.38 C38.46 12.54, 40.92 9.7, 47.79 1.8 M41.63 14.99 C46.18 9.76, 50.72 4.53, 53.44 1.4 M41.63 14.99 C44.5 11.69, 47.37 8.39, 53.44 1.4 M46.62 15.35 C49.63 11.87, 52.65 8.4, 58.43 1.76 M46.62 15.35 C49.12 12.47, 51.62 9.59, 58.43 1.76 M52.26 14.95 C55.12 11.66, 57.98 8.38, 64.07 1.37 M52.26 14.95 C54.98 11.82, 57.7 8.69, 64.07 1.37 M57.25 15.31 C61.52 10.39, 65.8 5.47, 69.06 1.73 M57.25 15.31 C60.32 11.78, 63.39 8.24, 69.06 1.73 M62.89 14.92 C67.34 9.8, 71.79 4.68, 74.7 1.33 M62.89 14.92 C66.49 10.78, 70.09 6.64, 74.7 1.33 M67.88 15.28 C70.75 11.97, 73.63 8.66, 79.69 1.69 M67.88 15.28 C71.51 11.1, 75.14 6.92, 79.69 1.69 M73.52 14.88 C76.51 11.44, 79.5 8, 84.67 2.05 M73.52 14.88 C77.41 10.4, 81.31 5.93, 84.67 2.05 M78.51 15.24 C82.76 10.35, 87.01 5.46, 90.32 1.66 M78.51 15.24 C82.56 10.59, 86.61 5.93, 90.32 1.66 M84.15 14.85 C88.43 9.93, 92.71 5.01, 95.3 2.02 M84.15 14.85 C86.75 11.86, 89.35 8.87, 95.3 2.02 M89.14 15.21 C91.64 12.33, 94.14 9.46, 100.95 1.62 M89.14 15.21 C92.57 11.25, 96.01 7.3, 100.95 1.62 M94.78 14.81 C97.9 11.23, 101.02 7.64, 105.93 1.98 M94.78 14.81 C98.26 10.81, 101.75 6.8, 105.93 1.98 M99.77 15.17 C102.57 11.95, 105.37 8.73, 111.58 1.59 M99.77 15.17 C103.47 10.92, 107.17 6.66, 111.58 1.59 M105.41 14.78 C108.78 10.91, 112.15 7.03, 116.56 1.95 M105.41 14.78 C109.07 10.57, 112.73 6.36, 116.56 1.95 M110.4 15.14 C114.1 10.88, 117.81 6.62, 122.21 1.56 M110.4 15.14 C114.01 10.98, 117.63 6.82, 122.21 1.56 M116.04 14.75 C119.23 11.08, 122.41 7.42, 127.19 1.92 M116.04 14.75 C119.47 10.8, 122.9 6.85, 127.19 1.92 M121.03 15.11 C124.08 11.59, 127.14 8.08, 132.84 1.52 M121.03 15.11 C123.42 12.36, 125.81 9.61, 132.84 1.52 M126.67 14.71 C129.51 11.45, 132.34 8.19, 137.82 1.88 M126.67 14.71 C129.62 11.32, 132.57 7.93, 137.82 1.88 M131.66 15.07 C135.53 10.62, 139.4 6.17, 143.47 1.49 M131.66 15.07 C134.86 11.39, 138.05 7.71, 143.47 1.49 M137.3 14.68 C140.88 10.56, 144.46 6.44, 148.45 1.85 M137.3 14.68 C140.62 10.86, 143.93 7.04, 148.45 1.85 M142.29 15.04 C146.02 10.75, 149.75 6.45, 154.1 1.45 M142.29 15.04 C144.84 12.1, 147.39 9.16, 154.1 1.45 M147.93 14.64 C152.76 9.09, 157.59 3.53, 160.39 0.3 M147.93 14.64 C151.57 10.46, 155.21 6.27, 160.39 0.3 M152.92 15 C155.78 11.7, 158.65 8.41, 164.07 2.17 M152.92 15 C156.03 11.42, 159.14 7.84, 164.07 2.17 M157.9 15.36 C159.35 13.7, 160.8 12.03, 163.81 8.57 M157.9 15.36 C159.2 13.88, 160.49 12.39, 163.81 8.57" stroke="#868e96" stroke-width="0.5" fill="none"></path><path d="M3.55 0 M3.55 0 C54.41 0, 105.28 0, 160.32 0 M3.55 0 C56.2 0, 108.85 0, 160.32 0 M160.32 0 C162.69 0, 163.87 1.18, 163.87 3.55 M160.32 0 C162.69 0, 163.87 1.18, 163.87 3.55 M163.87 3.55 C163.87 5.04, 163.87 6.54, 163.87 10.64 M163.87 3.55 C163.87 5.95, 163.87 8.36, 163.87 10.64 M163.87 10.64 C163.87 13, 162.69 14.18, 160.32 14.18 M163.87 10.64 C163.87 13, 162.69 14.18, 160.32 14.18 M160.32 14.18 C104.15 14.18, 47.98 14.18, 3.55 14.18 M160.32 14.18 C102.3 14.18, 44.28 14.18, 3.55 14.18 M3.55 14.18 C1.18 14.18, 0 13, 0 10.64 M3.55 14.18 C1.18 14.18, 0 13, 0 10.64 M0 10.64 C0 8.07, 0 5.5, 0 3.55 M0 10.64 C0 8.6, 0 6.57, 0 3.55 M0 3.55 C0 1.18, 1.18 0, 3.55 0 M0 3.55 C0 1.18, 1.18 0, 3.55 0" stroke="#000000" stroke-width="1" fill="none"></path></g><g stroke-linecap="round" transform="translate(299.6963689582476 396.19058166588627) rotate(0 49.56716549464727 7.713001179245339)"><path d="M1.03 0.89 C1.03 0.89, 1.03 0.89, 1.03 0.89 M1.03 0.89 C1.03 0.89, 1.03 0.89, 1.03 0.89 M3.39 4.27 C4.1 3.46, 4.81 2.64, 6.01 1.25 M3.39 4.27 C3.96 3.62, 4.53 2.96, 6.01 1.25 M1.16 12.93 C4.92 8.61, 8.68 4.28, 11 1.61 M1.16 12.93 C3.58 10.14, 6.01 7.36, 11 1.61 M4.18 15.56 C8.88 10.15, 13.58 4.75, 15.99 1.97 M4.18 15.56 C7.04 12.27, 9.9 8.98, 15.99 1.97 M9.17 15.92 C13.38 11.07, 17.59 6.23, 21.63 1.58 M9.17 15.92 C13.72 10.68, 18.27 5.44, 21.63 1.58 M14.81 15.52 C18.47 11.31, 22.13 7.1, 26.62 1.94 M14.81 15.52 C19.25 10.42, 23.69 5.31, 26.62 1.94 M19.8 15.88 C24.3 10.7, 28.81 5.52, 32.26 1.54 M19.8 15.88 C23.92 11.14, 28.04 6.4, 32.26 1.54 M25.44 15.49 C28.19 12.32, 30.95 9.15, 37.25 1.9 M25.44 15.49 C29.91 10.34, 34.39 5.2, 37.25 1.9 M30.43 15.85 C33.07 12.81, 35.71 9.77, 42.89 1.51 M30.43 15.85 C33.65 12.14, 36.88 8.43, 42.89 1.51 M36.07 15.45 C39.42 11.6, 42.77 7.74, 47.88 1.87 M36.07 15.45 C39.57 11.43, 43.07 7.4, 47.88 1.87 M41.06 15.81 C45.89 10.26, 50.72 4.7, 53.52 1.47 M41.06 15.81 C44.81 11.5, 48.56 7.19, 53.52 1.47 M46.7 15.42 C51.03 10.43, 55.37 5.45, 58.51 1.83 M46.7 15.42 C50.96 10.51, 55.23 5.61, 58.51 1.83 M51.69 15.78 C54.49 12.55, 57.3 9.32, 64.15 1.44 M51.69 15.78 C55.98 10.84, 60.27 5.91, 64.15 1.44 M57.33 15.38 C60.6 11.63, 63.86 7.87, 69.14 1.8 M57.33 15.38 C60.76 11.44, 64.19 7.49, 69.14 1.8 M62.32 15.75 C64.82 12.86, 67.33 9.98, 74.78 1.41 M62.32 15.75 C66.21 11.27, 70.1 6.79, 74.78 1.41 M67.96 15.35 C72.64 9.97, 77.31 4.59, 79.77 1.77 M67.96 15.35 C72.55 10.07, 77.14 4.78, 79.77 1.77 M72.95 15.71 C75.82 12.4, 78.69 9.1, 85.41 1.37 M72.95 15.71 C76.25 11.91, 79.55 8.12, 85.41 1.37 M78.59 15.32 C83.28 9.91, 87.98 4.51, 90.4 1.73 M78.59 15.32 C81.49 11.98, 84.39 8.64, 90.4 1.73 M83.58 15.68 C88.4 10.12, 93.23 4.57, 96.7 0.58 M83.58 15.68 C87.47 11.2, 91.36 6.72, 96.7 0.58 M89.22 15.28 C92.82 11.14, 96.41 7.01, 99.72 3.21 M89.22 15.28 C91.71 12.42, 94.19 9.56, 99.72 3.21 M94.21 15.64 C96.02 13.56, 97.83 11.48, 100.11 8.85 M94.21 15.64 C95.62 14.02, 97.03 12.39, 100.11 8.85" stroke="#868e96" stroke-width="0.5" fill="none"></path><path d="M3.86 0 M3.86 0 C38.73 0, 73.61 0, 95.28 0 M3.86 0 C24.34 0, 44.83 0, 95.28 0 M95.28 0 C97.85 0, 99.13 1.29, 99.13 3.86 M95.28 0 C97.85 0, 99.13 1.29, 99.13 3.86 M99.13 3.86 C99.13 6.28, 99.13 8.7, 99.13 11.57 M99.13 3.86 C99.13 6.02, 99.13 8.19, 99.13 11.57 M99.13 11.57 C99.13 14.14, 97.85 15.43, 95.28 15.43 M99.13 11.57 C99.13 14.14, 97.85 15.43, 95.28 15.43 M95.28 15.43 C72.08 15.43, 48.89 15.43, 3.86 15.43 M95.28 15.43 C76.88 15.43, 58.49 15.43, 3.86 15.43 M3.86 15.43 C1.29 15.43, 0 14.14, 0 11.57 M3.86 15.43 C1.29 15.43, 0 14.14, 0 11.57 M0 11.57 C0 9.73, 0 7.89, 0 3.86 M0 11.57 C0 9.42, 0 7.26, 0 3.86 M0 3.86 C0 1.29, 1.29 0, 3.86 0 M0 3.86 C0 1.29, 1.29 0, 3.86 0" stroke="#000000" stroke-width="1" fill="none"></path></g><g stroke-linecap="round" transform="translate(495.30816044866424 147.73097081682965) rotate(0 1.8315153301887221 7.718528891509436)"><path d="M0.92 0 L2.75 0 L3.66 0.92 L3.66 14.52 L2.75 15.44 L0.92 15.44 L0 14.52 L0 0.92 L0.92 0" stroke="none" stroke-width="0" fill="#000"></path><path d="M0.92 0 M0.92 0 C1.57 0, 2.23 0, 2.75 0 M0.92 0 C1.31 0, 1.71 0, 2.75 0 M2.75 0 C3.36 0, 3.66 0.31, 3.66 0.92 M2.75 0 C3.36 0, 3.66 0.31, 3.66 0.92 M3.66 0.92 C3.66 5.82, 3.66 10.72, 3.66 14.52 M3.66 0.92 C3.66 3.93, 3.66 6.95, 3.66 14.52 M3.66 14.52 C3.66 15.13, 3.36 15.44, 2.75 15.44 M3.66 14.52 C3.66 15.13, 3.36 15.44, 2.75 15.44 M2.75 15.44 C2.1 15.44, 1.45 15.44, 0.92 15.44 M2.75 15.44 C2.31 15.44, 1.87 15.44, 0.92 15.44 M0.92 15.44 C0.31 15.44, 0 15.13, 0 14.52 M0.92 15.44 C0.31 15.44, 0 15.13, 0 14.52 M0 14.52 C0 10.01, 0 5.5, 0 0.92 M0 14.52 C0 10.37, 0 6.22, 0 0.92 M0 0.92 C0 0.31, 0.31 0, 0.92 0 M0 0.92 C0 0.31, 0.31 0, 0.92 0" stroke="#000000" stroke-width="1" fill="none"></path></g><g stroke-linecap="round"><g transform="translate(498.713225320992 173.92495666588627) rotate(0 -0.07185731823915376 128.50272700471697)"><path d="M0 0 C-0.02 42.83, -0.12 214.17, -0.14 257.01 M0 0 C-0.02 42.83, -0.12 214.17, -0.14 257.01" stroke="#000000" stroke-width="1" fill="none"></path></g><g transform="translate(498.713225320992 173.92495666588627) rotate(0 -0.07185731823915376 128.50272700471697)"><path d="M-10.39 228.81 C-7.38 237.08, -4.38 245.35, -0.14 257.01 M-10.39 228.81 C-8.25 234.68, -6.12 240.56, -0.14 257.01" stroke="#000000" stroke-width="1" fill="none"></path></g><g transform="translate(498.713225320992 173.92495666588627) rotate(0 -0.07185731823915376 128.50272700471697)"><path d="M10.13 228.82 C7.12 237.09, 4.1 245.36, -0.14 257.01 M10.13 228.82 C7.99 234.69, 5.85 240.56, -0.14 257.01" stroke="#000000" stroke-width="1" fill="none"></path></g></g><g transform="translate(561.2243380635637 92.10170593940967) rotate(0 19 10)"><text x="0" y="14" font-family="Virgil, Segoe UI Emoji" font-size="16px" fill="#000000" text-anchor="start" style="white-space: pre;" direction="ltr">text</text></g><g stroke-linecap="round" transform="translate(546.079251690061 133.5960974487698) rotate(0 159.39192726807232 159.39127604166669)"><path d="M1.27 -1.22 C106.39 -2.67, 210.62 -1.66, 318.03 -0.09 M0.17 0.29 C96.72 0.87, 193.08 -0.03, 318.91 -0.01 M318.14 1.13 C320.3 111.87, 319.05 224.5, 319.02 317.86 M318.39 -0.32 C320.89 98.69, 321.02 198.54, 318.47 318.97 M319.14 318.59 C231.78 319.87, 144.77 318.53, 0.01 318.23 M318.3 318.73 C200.93 317.16, 83.57 316.95, 0.4 318.96 M0.36 318.57 C0.4 200.79, 1.61 84.24, 0.62 -1.24 M0.4 319.16 C-2.11 228.65, -1.64 137.86, 0.04 -0.24" stroke="#000000" stroke-width="1" fill="none"></path></g><g stroke-linecap="round" transform="translate(555.5137516482464 156.51418676072961) rotate(0 65.20305129716985 6.565079599056588)"><path d="M0.87 0.76 C0.87 0.76, 0.87 0.76, 0.87 0.76 M0.87 0.76 C0.87 0.76, 0.87 0.76, 0.87 0.76 M3.24 4.14 C3.69 3.61, 4.15 3.09, 5.2 1.87 M3.24 4.14 C3.96 3.3, 4.69 2.47, 5.2 1.87 M1.01 12.8 C4.03 9.32, 7.05 5.85, 10.85 1.48 M1.01 12.8 C2.99 10.52, 4.97 8.24, 10.85 1.48 M4.68 14.67 C7.79 11.1, 10.9 7.52, 15.83 1.84 M4.68 14.67 C8.46 10.32, 12.24 5.98, 15.83 1.84 M10.32 14.28 C13.01 11.18, 15.7 8.09, 21.48 1.45 M10.32 14.28 C14.31 9.69, 18.29 5.11, 21.48 1.45 M15.31 14.64 C18.2 11.31, 21.09 7.98, 26.46 1.81 M15.31 14.64 C18.12 11.4, 20.93 8.17, 26.46 1.81 M20.95 14.24 C25.04 9.55, 29.12 4.85, 32.11 1.41 M20.95 14.24 C24.17 10.54, 27.38 6.85, 32.11 1.41 M25.94 14.6 C28.83 11.28, 31.71 7.96, 37.09 1.77 M25.94 14.6 C29.91 10.03, 33.89 5.46, 37.09 1.77 M31.59 14.21 C34.7 10.62, 37.81 7.04, 42.08 2.13 M31.59 14.21 C33.93 11.51, 36.27 8.81, 42.08 2.13 M36.57 14.57 C41.01 9.47, 45.44 4.37, 47.73 1.74 M36.57 14.57 C39.78 10.87, 42.99 7.18, 47.73 1.74 M42.22 14.17 C44.67 11.35, 47.13 8.52, 52.71 2.1 M42.22 14.17 C44.64 11.38, 47.07 8.59, 52.71 2.1 M47.2 14.53 C50.9 10.28, 54.6 6.02, 58.36 1.7 M47.2 14.53 C51.36 9.75, 55.51 4.98, 58.36 1.7 M52.85 14.14 C55.62 10.94, 58.4 7.74, 63.34 2.06 M52.85 14.14 C56.2 10.28, 59.55 6.42, 63.34 2.06 M57.83 14.5 C61.77 9.96, 65.72 5.43, 68.99 1.67 M57.83 14.5 C61.45 10.34, 65.07 6.18, 68.99 1.67 M62.82 14.86 C65.73 11.51, 68.65 8.15, 73.97 2.03 M62.82 14.86 C66.55 10.57, 70.28 6.28, 73.97 2.03 M68.46 14.46 C71.71 10.73, 74.95 7, 79.62 1.63 M68.46 14.46 C72.33 10.01, 76.2 5.56, 79.62 1.63 M73.45 14.82 C77.71 9.92, 81.98 5.01, 84.6 1.99 M73.45 14.82 C76.37 11.47, 79.28 8.11, 84.6 1.99 M79.09 14.43 C81.42 11.76, 83.74 9.08, 90.25 1.6 M79.09 14.43 C81.69 11.44, 84.29 8.44, 90.25 1.6 M84.08 14.79 C88.23 10.01, 92.39 5.23, 95.23 1.96 M84.08 14.79 C87.71 10.61, 91.34 6.43, 95.23 1.96 M89.72 14.39 C93.13 10.48, 96.53 6.56, 100.88 1.56 M89.72 14.39 C92.67 11, 95.62 7.61, 100.88 1.56 M94.71 14.75 C97.63 11.39, 100.55 8.03, 105.86 1.92 M94.71 14.75 C97.95 11.03, 101.19 7.3, 105.86 1.92 M100.35 14.36 C102.78 11.56, 105.21 8.77, 111.51 1.53 M100.35 14.36 C103.83 10.36, 107.31 6.36, 111.51 1.53 M105.34 14.72 C108.32 11.29, 111.3 7.86, 116.49 1.89 M105.34 14.72 C109.34 10.12, 113.34 5.52, 116.49 1.89 M110.98 14.32 C114.53 10.24, 118.08 6.16, 122.14 1.49 M110.98 14.32 C114.71 10.03, 118.45 5.74, 122.14 1.49 M115.97 14.69 C119.4 10.74, 122.83 6.79, 127.78 1.1 M115.97 14.69 C119.18 10.99, 122.39 7.3, 127.78 1.1 M121.61 14.29 C123.71 11.87, 125.81 9.46, 131.45 2.97 M121.61 14.29 C124.39 11.1, 127.16 7.91, 131.45 2.97 M127.26 13.9 C127.98 13.06, 128.7 12.23, 130.54 10.12 M127.26 13.9 C127.95 13.1, 128.64 12.3, 130.54 10.12" stroke="#868e96" stroke-width="0.5" fill="none"></path><path d="M3.28 0 M3.28 0 C33.99 0, 64.69 0, 127.12 0 M3.28 0 C51.8 0, 100.31 0, 127.12 0 M127.12 0 C129.31 0, 130.41 1.09, 130.41 3.28 M127.12 0 C129.31 0, 130.41 1.09, 130.41 3.28 M130.41 3.28 C130.41 4.76, 130.41 6.24, 130.41 9.85 M130.41 3.28 C130.41 5.78, 130.41 8.27, 130.41 9.85 M130.41 9.85 C130.41 12.04, 129.31 13.13, 127.12 13.13 M130.41 9.85 C130.41 12.04, 129.31 13.13, 127.12 13.13 M127.12 13.13 C91.02 13.13, 54.91 13.13, 3.28 13.13 M127.12 13.13 C101.1 13.13, 75.09 13.13, 3.28 13.13 M3.28 13.13 C1.09 13.13, 0 12.04, 0 9.85 M3.28 13.13 C1.09 13.13, 0 12.04, 0 9.85 M0 9.85 C0 7.83, 0 5.81, 0 3.28 M0 9.85 C0 7.72, 0 5.6, 0 3.28 M0 3.28 C0 1.09, 1.09 0, 3.28 0 M0 3.28 C0 1.09, 1.09 0, 3.28 0" stroke="#000000" stroke-width="1" fill="none"></path></g><g stroke-linecap="round" transform="translate(555.5137516482464 190.04002486719855) rotate(0 34.36042905596855 6.570607311320771)"><path d="M0.87 0.76 C0.87 0.76, 0.87 0.76, 0.87 0.76 M0.87 0.76 C0.87 0.76, 0.87 0.76, 0.87 0.76 M2.58 4.89 C3.17 4.22, 3.76 3.54, 5.21 1.87 M2.58 4.89 C3.4 3.96, 4.21 3.02, 5.21 1.87 M1.66 12.05 C5.14 8.05, 8.62 4.05, 10.85 1.48 M1.66 12.05 C4.36 8.94, 7.06 5.84, 10.85 1.48 M4.03 15.43 C7.76 11.13, 11.49 6.84, 15.84 1.84 M4.03 15.43 C8.07 10.77, 12.11 6.12, 15.84 1.84 M9.67 15.03 C13.89 10.18, 18.1 5.33, 21.48 1.45 M9.67 15.03 C12.68 11.57, 15.69 8.1, 21.48 1.45 M14.66 15.39 C18.45 11.03, 22.24 6.66, 26.47 1.81 M14.66 15.39 C17.84 11.73, 21.02 8.07, 26.47 1.81 M20.3 15 C22.8 12.12, 25.3 9.24, 31.45 2.17 M20.3 15 C22.72 12.21, 25.15 9.42, 31.45 2.17 M25.29 15.36 C28.53 11.63, 31.77 7.9, 37.1 1.77 M25.29 15.36 C29.72 10.25, 34.16 5.15, 37.1 1.77 M30.93 14.96 C35.06 10.21, 39.19 5.46, 42.08 2.13 M30.93 14.96 C33.4 12.12, 35.86 9.29, 42.08 2.13 M35.92 15.32 C39.42 11.29, 42.93 7.25, 47.73 1.74 M35.92 15.32 C39.26 11.47, 42.61 7.62, 47.73 1.74 M41.56 14.93 C44.04 12.07, 46.52 9.22, 52.71 2.1 M41.56 14.93 C44.87 11.12, 48.18 7.31, 52.71 2.1 M46.55 15.29 C50.04 11.27, 53.53 7.25, 58.36 1.7 M46.55 15.29 C49.56 11.82, 52.58 8.35, 58.36 1.7 M52.19 14.89 C56.01 10.5, 59.83 6.1, 63.34 2.06 M52.19 14.89 C56.25 10.22, 60.31 5.56, 63.34 2.06 M57.18 15.25 C60.29 11.67, 63.4 8.09, 68.99 1.67 M57.18 15.25 C60.63 11.28, 64.09 7.3, 68.99 1.67 M62.16 15.61 C64.33 13.13, 66.49 10.64, 68.72 8.07 M62.16 15.61 C64.33 13.12, 66.49 10.63, 68.72 8.07" stroke="#868e96" stroke-width="0.5" fill="none"></path><path d="M3.29 0 M3.29 0 C26.88 0, 50.47 0, 65.44 0 M3.29 0 C17.91 0, 32.54 0, 65.44 0 M65.44 0 C67.63 0, 68.72 1.1, 68.72 3.29 M65.44 0 C67.63 0, 68.72 1.1, 68.72 3.29 M68.72 3.29 C68.72 5.54, 68.72 7.8, 68.72 9.86 M68.72 3.29 C68.72 5.85, 68.72 8.42, 68.72 9.86 M68.72 9.86 C68.72 12.05, 67.63 13.14, 65.44 13.14 M68.72 9.86 C68.72 12.05, 67.63 13.14, 65.44 13.14 M65.44 13.14 C41.81 13.14, 18.18 13.14, 3.29 13.14 M65.44 13.14 C42.37 13.14, 19.3 13.14, 3.29 13.14 M3.29 13.14 C1.1 13.14, 0 12.05, 0 9.86 M3.29 13.14 C1.1 13.14, 0 12.05, 0 9.86 M0 9.86 C0 8.44, 0 7.02, 0 3.29 M0 9.86 C0 7.57, 0 5.28, 0 3.29 M0 3.29 C0 1.1, 1.1 0, 3.29 0 M0 3.29 C0 1.1, 1.1 0, 3.29 0" stroke="#000000" stroke-width="1" fill="none"></path></g><g stroke-linecap="round" transform="translate(555.5137516482464 223.57691839819586) rotate(0 81.93376337200607 7.090212264150949)"><path d="M0.94 0.82 C0.94 0.82, 0.94 0.82, 0.94 0.82 M0.94 0.82 C0.94 0.82, 0.94 0.82, 0.94 0.82 M3.31 4.2 C4.06 3.34, 4.8 2.48, 5.27 1.94 M3.31 4.2 C4.07 3.33, 4.83 2.45, 5.27 1.94 M1.73 12.11 C3.6 9.96, 5.47 7.81, 10.92 1.54 M1.73 12.11 C4.61 8.8, 7.49 5.48, 10.92 1.54 M4.75 14.73 C8 11, 11.24 7.26, 15.9 1.9 M4.75 14.73 C8.68 10.21, 12.6 5.7, 15.9 1.9 M9.74 15.09 C13.27 11.03, 16.79 6.97, 21.55 1.51 M9.74 15.09 C14.29 9.86, 18.84 4.62, 21.55 1.51 M15.38 14.7 C19.35 10.14, 23.31 5.58, 26.53 1.87 M15.38 14.7 C18.82 10.74, 22.26 6.79, 26.53 1.87 M20.37 15.06 C24.12 10.74, 27.87 6.43, 32.18 1.47 M20.37 15.06 C24.2 10.65, 28.03 6.24, 32.18 1.47 M26.01 14.66 C29.61 10.53, 33.2 6.39, 37.16 1.83 M26.01 14.66 C29.83 10.26, 33.66 5.87, 37.16 1.83 M31 15.02 C33.84 11.75, 36.68 8.49, 42.81 1.44 M31 15.02 C34.24 11.29, 37.48 7.57, 42.81 1.44 M35.99 15.38 C38.7 12.26, 41.41 9.14, 47.79 1.8 M35.99 15.38 C38.7 12.26, 41.41 9.14, 47.79 1.8 M41.63 14.99 C46.21 9.72, 50.79 4.45, 53.44 1.4 M41.63 14.99 C44.17 12.07, 46.71 9.15, 53.44 1.4 M46.62 15.35 C50.22 11.21, 53.82 7.07, 58.43 1.76 M46.62 15.35 C50.5 10.87, 54.39 6.4, 58.43 1.76 M52.26 14.95 C56.01 10.63, 59.77 6.31, 64.07 1.37 M52.26 14.95 C55.35 11.4, 58.44 7.84, 64.07 1.37 M57.25 15.31 C60.36 11.73, 63.47 8.16, 69.06 1.73 M57.25 15.31 C60.64 11.41, 64.04 7.5, 69.06 1.73 M62.89 14.92 C66.78 10.44, 70.67 5.96, 74.7 1.33 M62.89 14.92 C67.21 9.95, 71.53 4.97, 74.7 1.33 M67.88 15.28 C70.36 12.42, 72.85 9.56, 79.69 1.69 M67.88 15.28 C71.85 10.71, 75.82 6.14, 79.69 1.69 M73.52 14.88 C77.53 10.27, 81.54 5.66, 84.67 2.05 M73.52 14.88 C75.92 12.12, 78.33 9.35, 84.67 2.05 M78.51 15.24 C82.53 10.62, 86.55 5.99, 90.32 1.66 M78.51 15.24 C83.16 9.89, 87.81 4.54, 90.32 1.66 M84.15 14.85 C87.32 11.21, 90.48 7.56, 95.3 2.02 M84.15 14.85 C87.87 10.57, 91.59 6.29, 95.3 2.02 M89.14 15.21 C91.93 11.99, 94.73 8.78, 100.95 1.62 M89.14 15.21 C93.44 10.26, 97.73 5.32, 100.95 1.62 M94.78 14.81 C97.21 12.02, 99.65 9.22, 105.93 1.98 M94.78 14.81 C99.01 9.94, 103.25 5.07, 105.93 1.98 M99.77 15.17 C104.15 10.13, 108.53 5.09, 111.58 1.59 M99.77 15.17 C102.56 11.96, 105.35 8.75, 111.58 1.59 M105.41 14.78 C107.82 12, 110.24 9.22, 116.56 1.95 M105.41 14.78 C108.18 11.59, 110.96 8.4, 116.56 1.95 M110.4 15.14 C112.82 12.35, 115.25 9.56, 122.21 1.56 M110.4 15.14 C114.96 9.89, 119.53 4.63, 122.21 1.56 M116.04 14.75 C120.19 9.97, 124.35 5.19, 127.19 1.92 M116.04 14.75 C120.19 9.97, 124.35 5.19, 127.19 1.92 M121.03 15.11 C124.45 11.17, 127.87 7.24, 132.84 1.52 M121.03 15.11 C124.3 11.34, 127.57 7.58, 132.84 1.52 M126.67 14.71 C130.22 10.63, 133.77 6.54, 137.82 1.88 M126.67 14.71 C129.1 11.92, 131.53 9.12, 137.82 1.88 M131.66 15.07 C135.95 10.13, 140.24 5.2, 143.47 1.49 M131.66 15.07 C135.84 10.25, 140.03 5.44, 143.47 1.49 M137.3 14.68 C140.93 10.5, 144.57 6.32, 148.45 1.85 M137.3 14.68 C141.62 9.7, 145.95 4.73, 148.45 1.85 M142.29 15.04 C145.3 11.57, 148.32 8.1, 154.1 1.45 M142.29 15.04 C146.46 10.24, 150.63 5.44, 154.1 1.45 M147.93 14.64 C150.49 11.7, 153.05 8.76, 160.39 0.3 M147.93 14.64 C151.94 10.03, 155.94 5.43, 160.39 0.3 M152.92 15 C157.19 10.09, 161.46 5.17, 164.07 2.17 M152.92 15 C157.29 9.97, 161.67 4.94, 164.07 2.17 M157.9 15.36 C159.12 13.96, 160.34 12.56, 163.81 8.57 M157.9 15.36 C160.23 12.69, 162.55 10.01, 163.81 8.57" stroke="#868e96" stroke-width="0.5" fill="none"></path><path d="M3.55 0 M3.55 0 C43.26 0, 82.98 0, 160.32 0 M3.55 0 C47.02 0, 90.5 0, 160.32 0 M160.32 0 C162.69 0, 163.87 1.18, 163.87 3.55 M160.32 0 C162.69 0, 163.87 1.18, 163.87 3.55 M163.87 3.55 C163.87 5.4, 163.87 7.25, 163.87 10.64 M163.87 3.55 C163.87 5.02, 163.87 6.5, 163.87 10.64 M163.87 10.64 C163.87 13, 162.69 14.18, 160.32 14.18 M163.87 10.64 C163.87 13, 162.69 14.18, 160.32 14.18 M160.32 14.18 C103.99 14.18, 47.65 14.18, 3.55 14.18 M160.32 14.18 C100.83 14.18, 41.33 14.18, 3.55 14.18 M3.55 14.18 C1.18 14.18, 0 13, 0 10.64 M3.55 14.18 C1.18 14.18, 0 13, 0 10.64 M0 10.64 C0 7.84, 0 5.05, 0 3.55 M0 10.64 C0 8.42, 0 6.2, 0 3.55 M0 3.55 C0 1.18, 1.18 0, 3.55 0 M0 3.55 C0 1.18, 1.18 0, 3.55 0" stroke="#000000" stroke-width="1" fill="none"></path></g><g stroke-linecap="round" transform="translate(555.5137516482464 258.1530218348537) rotate(0 49.44924096634554 7.593234080188722)"><path d="M0.54 1.79 C0.54 1.79, 0.54 1.79, 0.54 1.79 M0.54 1.79 C0.54 1.79, 0.54 1.79, 0.54 1.79 M0.28 8.19 C1.88 6.34, 3.49 4.49, 5.52 2.15 M0.28 8.19 C1.92 6.29, 3.57 4.4, 5.52 2.15 M1.33 13.08 C3.4 10.69, 5.48 8.3, 11.17 1.76 M1.33 13.08 C4.21 9.75, 7.1 6.43, 11.17 1.76 M4.34 15.7 C8.53 10.89, 12.71 6.08, 16.15 2.12 M4.34 15.7 C8.4 11.03, 12.46 6.37, 16.15 2.12 M9.99 15.31 C12.7 12.19, 15.41 9.07, 21.8 1.72 M9.99 15.31 C14.56 10.04, 19.14 4.78, 21.8 1.72 M14.97 15.67 C18.03 12.15, 21.08 8.64, 26.78 2.08 M14.97 15.67 C18.64 11.46, 22.3 7.24, 26.78 2.08 M19.96 16.03 C24.78 10.48, 29.61 4.93, 32.43 1.69 M19.96 16.03 C22.6 13, 25.23 9.97, 32.43 1.69 M25.6 15.63 C30.1 10.46, 34.59 5.29, 37.41 2.05 M25.6 15.63 C29.85 10.75, 34.09 5.88, 37.41 2.05 M30.59 15.99 C33.39 12.78, 36.19 9.56, 43.06 1.65 M30.59 15.99 C33.62 12.51, 36.64 9.03, 43.06 1.65 M36.23 15.6 C38.8 12.65, 41.36 9.7, 48.04 2.01 M36.23 15.6 C40.08 11.17, 43.93 6.75, 48.04 2.01 M41.22 15.96 C45.83 10.66, 50.43 5.36, 53.69 1.62 M41.22 15.96 C44.95 11.67, 48.67 7.39, 53.69 1.62 M46.86 15.56 C50.42 11.48, 53.97 7.39, 58.67 1.98 M46.86 15.56 C49.62 12.39, 52.38 9.22, 58.67 1.98 M51.85 15.92 C54.79 12.55, 57.72 9.17, 64.32 1.58 M51.85 15.92 C54.78 12.55, 57.71 9.18, 64.32 1.58 M57.49 15.53 C61.04 11.45, 64.59 7.37, 69.3 1.94 M57.49 15.53 C62.17 10.16, 66.84 4.78, 69.3 1.94 M62.48 15.89 C66.49 11.28, 70.5 6.67, 74.95 1.55 M62.48 15.89 C65.56 12.35, 68.63 8.81, 74.95 1.55 M68.13 15.49 C71.91 11.14, 75.7 6.78, 79.93 1.91 M68.13 15.49 C71.83 11.23, 75.54 6.97, 79.93 1.91 M73.11 15.85 C77.01 11.37, 80.91 6.89, 85.58 1.52 M73.11 15.85 C77.7 10.58, 82.28 5.31, 85.58 1.52 M78.76 15.46 C81.14 12.71, 83.53 9.97, 90.56 1.88 M78.76 15.46 C83.23 10.31, 87.71 5.16, 90.56 1.88 M83.74 15.82 C88.73 10.08, 93.72 4.34, 96.86 0.73 M83.74 15.82 C88.61 10.22, 93.48 4.62, 96.86 0.73 M89.39 15.43 C91.71 12.75, 94.03 10.08, 99.88 3.35 M89.39 15.43 C93.29 10.93, 97.2 6.44, 99.88 3.35 M94.37 15.79 C96.03 13.88, 97.69 11.97, 100.28 8.99 M94.37 15.79 C95.96 13.96, 97.55 12.13, 100.28 8.99" stroke="#868e96" stroke-width="0.5" fill="none"></path><path d="M3.8 0 M3.8 0 C39.48 0, 75.17 0, 95.1 0 M3.8 0 C36.79 0, 69.78 0, 95.1 0 M95.1 0 C97.63 0, 98.9 1.27, 98.9 3.8 M95.1 0 C97.63 0, 98.9 1.27, 98.9 3.8 M98.9 3.8 C98.9 6.11, 98.9 8.42, 98.9 11.39 M98.9 3.8 C98.9 6.76, 98.9 9.73, 98.9 11.39 M98.9 11.39 C98.9 13.92, 97.63 15.19, 95.1 15.19 M98.9 11.39 C98.9 13.92, 97.63 15.19, 95.1 15.19 M95.1 15.19 C69.89 15.19, 44.67 15.19, 3.8 15.19 M95.1 15.19 C67.02 15.19, 38.94 15.19, 3.8 15.19 M3.8 15.19 C1.27 15.19, 0 13.92, 0 11.39 M3.8 15.19 C1.27 15.19, 0 13.92, 0 11.39 M0 11.39 C0 9.72, 0 8.04, 0 3.8 M0 11.39 C0 9.79, 0 8.18, 0 3.8 M0 3.8 C0 1.27, 1.27 0, 3.8 0 M0 3.8 C0 1.27, 1.27 0, 3.8 0" stroke="#000000" stroke-width="1" fill="none"></path></g><g stroke-linecap="round" transform="translate(555.5137516482464 293.735168903587) rotate(0 34.36042905596855 6.570607311320771)"><path d="M0.87 0.76 C0.87 0.76, 0.87 0.76, 0.87 0.76 M0.87 0.76 C0.87 0.76, 0.87 0.76, 0.87 0.76 M2.58 4.89 C3.54 3.79, 4.49 2.7, 5.21 1.87 M2.58 4.89 C3.15 4.24, 3.73 3.58, 5.21 1.87 M1.66 12.05 C5.15 8.04, 8.64 4.02, 10.85 1.48 M1.66 12.05 C5.07 8.12, 8.48 4.2, 10.85 1.48 M4.03 15.43 C6.82 12.21, 9.61 9, 15.84 1.84 M4.03 15.43 C6.58 12.48, 9.14 9.54, 15.84 1.84 M9.67 15.03 C12.61 11.65, 15.55 8.27, 21.48 1.45 M9.67 15.03 C12.09 12.24, 14.52 9.45, 21.48 1.45 M14.66 15.39 C19.22 10.14, 23.79 4.88, 26.47 1.81 M14.66 15.39 C19.06 10.33, 23.45 5.27, 26.47 1.81 M20.3 15 C24.45 10.22, 28.61 5.44, 31.45 2.17 M20.3 15 C23.53 11.28, 26.76 7.56, 31.45 2.17 M25.29 15.36 C28.56 11.59, 31.83 7.83, 37.1 1.77 M25.29 15.36 C29.05 11.03, 32.81 6.71, 37.1 1.77 M30.93 14.96 C33.36 12.17, 35.79 9.37, 42.08 2.13 M30.93 14.96 C34.98 10.3, 39.04 5.63, 42.08 2.13 M35.92 15.32 C40.1 10.5, 44.29 5.69, 47.73 1.74 M35.92 15.32 C39.76 10.9, 43.61 6.47, 47.73 1.74 M41.56 14.93 C45.88 9.95, 50.21 4.98, 52.71 2.1 M41.56 14.93 C44.41 11.65, 47.26 8.37, 52.71 2.1 M46.55 15.29 C50.72 10.49, 54.89 5.69, 58.36 1.7 M46.55 15.29 C48.97 12.5, 51.39 9.71, 58.36 1.7 M52.19 14.89 C55.77 10.77, 59.36 6.65, 63.34 2.06 M52.19 14.89 C56.46 9.98, 60.74 5.06, 63.34 2.06 M57.18 15.25 C61.81 9.92, 66.44 4.59, 68.99 1.67 M57.18 15.25 C59.61 12.45, 62.05 9.65, 68.99 1.67 M62.16 15.61 C64.75 12.64, 67.33 9.67, 68.72 8.07 M62.16 15.61 C63.83 13.7, 65.49 11.79, 68.72 8.07" stroke="#868e96" stroke-width="0.5" fill="none"></path><path d="M3.29 0 M3.29 0 C20.52 0, 37.76 0, 65.44 0 M3.29 0 C23.04 0, 42.79 0, 65.44 0 M65.44 0 C67.63 0, 68.72 1.1, 68.72 3.29 M65.44 0 C67.63 0, 68.72 1.1, 68.72 3.29 M68.72 3.29 C68.72 4.65, 68.72 6.02, 68.72 9.86 M68.72 3.29 C68.72 4.82, 68.72 6.35, 68.72 9.86 M68.72 9.86 C68.72 12.05, 67.63 13.14, 65.44 13.14 M68.72 9.86 C68.72 12.05, 67.63 13.14, 65.44 13.14 M65.44 13.14 C41.85 13.14, 18.26 13.14, 3.29 13.14 M65.44 13.14 C48.63 13.14, 31.82 13.14, 3.29 13.14 M3.29 13.14 C1.1 13.14, 0 12.05, 0 9.86 M3.29 13.14 C1.1 13.14, 0 12.05, 0 9.86 M0 9.86 C0 7.8, 0 5.74, 0 3.29 M0 9.86 C0 8.27, 0 6.67, 0 3.29 M0 3.29 C0 1.1, 1.1 0, 3.29 0 M0 3.29 C0 1.1, 1.1 0, 3.29 0" stroke="#000000" stroke-width="1" fill="none"></path></g><g stroke-linecap="round" transform="translate(555.5137516482464 327.2720624345843) rotate(0 65.20305129716985 6.56507959905656)"><path d="M0.87 0.76 C0.87 0.76, 0.87 0.76, 0.87 0.76 M0.87 0.76 C0.87 0.76, 0.87 0.76, 0.87 0.76 M3.24 4.14 C3.68 3.63, 4.11 3.13, 5.2 1.87 M3.24 4.14 C3.94 3.33, 4.64 2.53, 5.2 1.87 M1.01 12.8 C3.94 9.43, 6.87 6.06, 10.85 1.48 M1.01 12.8 C4.41 8.89, 7.81 4.98, 10.85 1.48 M4.68 14.67 C7.38 11.56, 10.09 8.45, 15.83 1.84 M4.68 14.67 C8.45 10.33, 12.22 6, 15.83 1.84 M10.32 14.28 C14.1 9.93, 17.87 5.59, 21.48 1.45 M10.32 14.28 C12.72 11.52, 15.12 8.76, 21.48 1.45 M15.31 14.64 C19.23 10.13, 23.15 5.62, 26.46 1.81 M15.31 14.64 C19.38 9.96, 23.45 5.28, 26.46 1.81 M20.95 14.24 C24.6 10.05, 28.25 5.85, 32.11 1.41 M20.95 14.24 C24.67 9.96, 28.39 5.68, 32.11 1.41 M25.94 14.6 C29.15 10.91, 32.36 7.22, 37.09 1.77 M25.94 14.6 C30.18 9.73, 34.41 4.86, 37.09 1.77 M31.59 14.21 C34.01 11.42, 36.43 8.63, 42.08 2.13 M31.59 14.21 C35.02 10.26, 38.45 6.31, 42.08 2.13 M36.57 14.57 C39.08 11.69, 41.58 8.81, 47.73 1.74 M36.57 14.57 C40.1 10.51, 43.63 6.45, 47.73 1.74 M42.22 14.17 C44.36 11.7, 46.51 9.23, 52.71 2.1 M42.22 14.17 C44.95 11.03, 47.68 7.88, 52.71 2.1 M47.2 14.53 C50.23 11.05, 53.25 7.57, 58.36 1.7 M47.2 14.53 C51.63 9.44, 56.05 4.36, 58.36 1.7 M52.85 14.14 C55.86 10.67, 58.88 7.2, 63.34 2.06 M52.85 14.14 C56.4 10.05, 59.96 5.95, 63.34 2.06 M57.83 14.5 C62 9.71, 66.16 4.92, 68.99 1.67 M57.83 14.5 C60.42 11.52, 63.01 8.54, 68.99 1.67 M62.82 14.86 C66.23 10.94, 69.63 7.02, 73.97 2.03 M62.82 14.86 C65.11 12.23, 67.39 9.59, 73.97 2.03 M68.46 14.46 C70.83 11.74, 73.19 9.03, 79.62 1.63 M68.46 14.46 C72.07 10.32, 75.67 6.17, 79.62 1.63 M73.45 14.82 C77.58 10.07, 81.71 5.32, 84.6 1.99 M73.45 14.82 C76.15 11.72, 78.84 8.62, 84.6 1.99 M79.09 14.43 C82.48 10.53, 85.87 6.63, 90.25 1.6 M79.09 14.43 C83.1 9.82, 87.11 5.21, 90.25 1.6 M84.08 14.79 C88.31 9.92, 92.54 5.05, 95.23 1.96 M84.08 14.79 C87.1 11.32, 90.11 7.85, 95.23 1.96 M89.72 14.39 C93.1 10.51, 96.48 6.62, 100.88 1.56 M89.72 14.39 C93.28 10.3, 96.84 6.21, 100.88 1.56 M94.71 14.75 C98.24 10.69, 101.78 6.63, 105.86 1.92 M94.71 14.75 C97.52 11.53, 100.32 8.3, 105.86 1.92 M100.35 14.36 C103.67 10.54, 106.99 6.73, 111.51 1.53 M100.35 14.36 C104.48 9.61, 108.61 4.86, 111.51 1.53 M105.34 14.72 C109.26 10.21, 113.18 5.7, 116.49 1.89 M105.34 14.72 C109.63 9.78, 113.93 4.84, 116.49 1.89 M110.98 14.32 C114.47 10.31, 117.96 6.3, 122.14 1.49 M110.98 14.32 C115.1 9.59, 119.21 4.86, 122.14 1.49 M115.97 14.69 C119.98 10.08, 123.98 5.47, 127.78 1.1 M115.97 14.69 C118.44 11.84, 120.91 9, 127.78 1.1 M121.61 14.29 C123.68 11.91, 125.74 9.54, 131.45 2.97 M121.61 14.29 C125.17 10.2, 128.72 6.11, 131.45 2.97 M127.26 13.9 C128.31 12.68, 129.36 11.47, 130.54 10.12 M127.26 13.9 C128.25 12.76, 129.24 11.62, 130.54 10.12" stroke="#868e96" stroke-width="0.5" fill="none"></path><path d="M3.28 0 M3.28 0 C51.01 0, 98.74 0, 127.12 0 M3.28 0 C38.21 0, 73.15 0, 127.12 0 M127.12 0 C129.31 0, 130.41 1.09, 130.41 3.28 M127.12 0 C129.31 0, 130.41 1.09, 130.41 3.28 M130.41 3.28 C130.41 4.66, 130.41 6.03, 130.41 9.85 M130.41 3.28 C130.41 5.74, 130.41 8.19, 130.41 9.85 M130.41 9.85 C130.41 12.04, 129.31 13.13, 127.12 13.13 M130.41 9.85 C130.41 12.04, 129.31 13.13, 127.12 13.13 M127.12 13.13 C92.13 13.13, 57.13 13.13, 3.28 13.13 M127.12 13.13 C89.46 13.13, 51.79 13.13, 3.28 13.13 M3.28 13.13 C1.09 13.13, 0 12.04, 0 9.85 M3.28 13.13 C1.09 13.13, 0 12.04, 0 9.85 M0 9.85 C0 8.51, 0 7.17, 0 3.28 M0 9.85 C0 8.25, 0 6.65, 0 3.28 M0 3.28 C0 1.09, 1.09 0, 3.28 0 M0 3.28 C0 1.09, 1.09 0, 3.28 0" stroke="#000000" stroke-width="1" fill="none"></path></g><g stroke-linecap="round" transform="translate(555.5137516482464 360.7979005410532) rotate(0 81.93376337200607 7.090212264150978)"><path d="M0.94 0.82 C0.94 0.82, 0.94 0.82, 0.94 0.82 M0.94 0.82 C0.94 0.82, 0.94 0.82, 0.94 0.82 M3.31 4.2 C3.92 3.49, 4.54 2.79, 5.27 1.94 M3.31 4.2 C3.83 3.6, 4.34 3.01, 5.27 1.94 M1.73 12.11 C3.71 9.84, 5.68 7.57, 10.92 1.54 M1.73 12.11 C5.24 8.07, 8.75 4.04, 10.92 1.54 M4.75 14.73 C8.34 10.6, 11.93 6.48, 15.9 1.9 M4.75 14.73 C8.65 10.24, 12.55 5.76, 15.9 1.9 M9.74 15.09 C13.38 10.9, 17.02 6.71, 21.55 1.51 M9.74 15.09 C12.44 11.98, 15.14 8.88, 21.55 1.51 M15.38 14.7 C17.75 11.97, 20.12 9.25, 26.53 1.87 M15.38 14.7 C18.26 11.38, 21.15 8.06, 26.53 1.87 M20.37 15.06 C24.26 10.58, 28.14 6.11, 32.18 1.47 M20.37 15.06 C22.83 12.22, 25.3 9.38, 32.18 1.47 M26.01 14.66 C28.35 11.97, 30.7 9.27, 37.16 1.83 M26.01 14.66 C28.61 11.67, 31.22 8.67, 37.16 1.83 M31 15.02 C35.23 10.15, 39.46 5.29, 42.81 1.44 M31 15.02 C33.63 12, 36.26 8.97, 42.81 1.44 M35.99 15.38 C38.66 12.31, 41.33 9.23, 47.79 1.8 M35.99 15.38 C39.02 11.89, 42.05 8.4, 47.79 1.8 M41.63 14.99 C45.32 10.74, 49.02 6.49, 53.44 1.4 M41.63 14.99 C45.88 10.1, 50.12 5.22, 53.44 1.4 M46.62 15.35 C50.86 10.47, 55.1 5.59, 58.43 1.76 M46.62 15.35 C50.75 10.59, 54.89 5.83, 58.43 1.76 M52.26 14.95 C55.16 11.61, 58.07 8.27, 64.07 1.37 M52.26 14.95 C56.96 9.54, 61.67 4.13, 64.07 1.37 M57.25 15.31 C61.87 9.99, 66.49 4.67, 69.06 1.73 M57.25 15.31 C60.49 11.58, 63.73 7.85, 69.06 1.73 M62.89 14.92 C65.8 11.56, 68.72 8.21, 74.7 1.33 M62.89 14.92 C66.51 10.76, 70.12 6.6, 74.7 1.33 M67.88 15.28 C71.34 11.29, 74.81 7.3, 79.69 1.69 M67.88 15.28 C70.58 12.17, 73.29 9.05, 79.69 1.69 M73.52 14.88 C77.31 10.52, 81.11 6.15, 84.67 2.05 M73.52 14.88 C77.31 10.52, 81.11 6.15, 84.67 2.05 M78.51 15.24 C82.29 10.89, 86.07 6.54, 90.32 1.66 M78.51 15.24 C82.67 10.46, 86.83 5.67, 90.32 1.66 M84.15 14.85 C88.47 9.88, 92.79 4.91, 95.3 2.02 M84.15 14.85 C88.01 10.41, 91.87 5.97, 95.3 2.02 M89.14 15.21 C92.84 10.95, 96.53 6.7, 100.95 1.62 M89.14 15.21 C91.77 12.18, 94.4 9.16, 100.95 1.62 M94.78 14.81 C99.07 9.88, 103.36 4.94, 105.93 1.98 M94.78 14.81 C97.66 11.5, 100.54 8.19, 105.93 1.98 M99.77 15.17 C104.49 9.74, 109.21 4.31, 111.58 1.59 M99.77 15.17 C103.98 10.33, 108.18 5.49, 111.58 1.59 M105.41 14.78 C109.48 10.09, 113.56 5.41, 116.56 1.95 M105.41 14.78 C107.65 12.2, 109.89 9.62, 116.56 1.95 M110.4 15.14 C113.86 11.16, 117.32 7.18, 122.21 1.56 M110.4 15.14 C114.05 10.93, 117.71 6.73, 122.21 1.56 M116.04 14.75 C119.36 10.93, 122.68 7.11, 127.19 1.92 M116.04 14.75 C120.35 9.78, 124.67 4.82, 127.19 1.92 M121.03 15.11 C125.66 9.78, 130.29 4.45, 132.84 1.52 M121.03 15.11 C125.48 9.98, 129.93 4.86, 132.84 1.52 M126.67 14.71 C130.98 9.75, 135.29 4.79, 137.82 1.88 M126.67 14.71 C129.1 11.91, 131.53 9.12, 137.82 1.88 M131.66 15.07 C135 11.23, 138.33 7.39, 143.47 1.49 M131.66 15.07 C135.12 11.09, 138.58 7.11, 143.47 1.49 M137.3 14.68 C141.46 9.89, 145.61 5.11, 148.45 1.85 M137.3 14.68 C141.6 9.73, 145.9 4.79, 148.45 1.85 M142.29 15.04 C145.07 11.84, 147.84 8.64, 154.1 1.45 M142.29 15.04 C146.19 10.55, 150.09 6.06, 154.1 1.45 M147.93 14.64 C150.83 11.31, 153.73 7.97, 160.39 0.3 M147.93 14.64 C152.53 9.35, 157.14 4.05, 160.39 0.3 M152.92 15 C156.34 11.06, 159.77 7.12, 164.07 2.17 M152.92 15 C155.16 12.42, 157.41 9.83, 164.07 2.17 M157.9 15.36 C159.55 13.47, 161.19 11.58, 163.81 8.57 M157.9 15.36 C159.9 13.06, 161.9 10.76, 163.81 8.57" stroke="#868e96" stroke-width="0.5" fill="none"></path><path d="M3.55 0 M3.55 0 C41.33 0, 79.11 0, 160.32 0 M3.55 0 C59.56 0, 115.57 0, 160.32 0 M160.32 0 C162.69 0, 163.87 1.18, 163.87 3.55 M160.32 0 C162.69 0, 163.87 1.18, 163.87 3.55 M163.87 3.55 C163.87 6.04, 163.87 8.53, 163.87 10.64 M163.87 3.55 C163.87 6.13, 163.87 8.72, 163.87 10.64 M163.87 10.64 C163.87 13, 162.69 14.18, 160.32 14.18 M163.87 10.64 C163.87 13, 162.69 14.18, 160.32 14.18 M160.32 14.18 C117.29 14.18, 74.26 14.18, 3.55 14.18 M160.32 14.18 C101.45 14.18, 42.57 14.18, 3.55 14.18 M3.55 14.18 C1.18 14.18, 0 13, 0 10.64 M3.55 14.18 C1.18 14.18, 0 13, 0 10.64 M0 10.64 C0 7.85, 0 5.06, 0 3.55 M0 10.64 C0 8.04, 0 5.44, 0 3.55 M0 3.55 C0 1.18, 1.18 0, 3.55 0 M0 3.55 C0 1.18, 1.18 0, 3.55 0" stroke="#000000" stroke-width="1" fill="none"></path></g><g stroke-linecap="round" transform="translate(555.5137516482464 395.374003977711) rotate(0 49.56716549464727 7.713001179245339)"><path d="M1.03 0.89 C1.03 0.89, 1.03 0.89, 1.03 0.89 M1.03 0.89 C1.03 0.89, 1.03 0.89, 1.03 0.89 M3.39 4.27 C4.13 3.42, 4.86 2.58, 6.01 1.25 M3.39 4.27 C4.12 3.43, 4.84 2.6, 6.01 1.25 M1.16 12.93 C4.58 9, 8 5.06, 11 1.61 M1.16 12.93 C4.18 9.46, 7.2 5.98, 11 1.61 M4.18 15.56 C7.92 11.26, 11.66 6.95, 15.99 1.97 M4.18 15.56 C7.83 11.36, 11.48 7.16, 15.99 1.97 M9.17 15.92 C12.7 11.85, 16.24 7.78, 21.63 1.58 M9.17 15.92 C11.66 13.04, 14.16 10.17, 21.63 1.58 M14.81 15.52 C19.02 10.68, 23.23 5.84, 26.62 1.94 M14.81 15.52 C17.47 12.46, 20.13 9.41, 26.62 1.94 M19.8 15.88 C24.17 10.85, 28.55 5.82, 32.26 1.54 M19.8 15.88 C23.63 11.47, 27.46 7.06, 32.26 1.54 M25.44 15.49 C30.03 10.21, 34.62 4.93, 37.25 1.9 M25.44 15.49 C29.06 11.33, 32.67 7.17, 37.25 1.9 M30.43 15.85 C35.33 10.21, 40.23 4.57, 42.89 1.51 M30.43 15.85 C34.99 10.6, 39.56 5.34, 42.89 1.51 M36.07 15.45 C39.46 11.55, 42.86 7.65, 47.88 1.87 M36.07 15.45 C40.47 10.39, 44.87 5.33, 47.88 1.87 M41.06 15.81 C44.67 11.66, 48.29 7.5, 53.52 1.47 M41.06 15.81 C44.84 11.46, 48.62 7.11, 53.52 1.47 M46.7 15.42 C50.39 11.17, 54.09 6.92, 58.51 1.83 M46.7 15.42 C50.04 11.58, 53.38 7.73, 58.51 1.83 M51.69 15.78 C54.89 12.09, 58.09 8.41, 64.15 1.44 M51.69 15.78 C55.86 10.98, 60.04 6.17, 64.15 1.44 M57.33 15.38 C59.82 12.52, 62.31 9.66, 69.14 1.8 M57.33 15.38 C60.11 12.19, 62.89 8.99, 69.14 1.8 M62.32 15.75 C66.63 10.79, 70.94 5.83, 74.78 1.41 M62.32 15.75 C65.63 11.93, 68.95 8.11, 74.78 1.41 M67.96 15.35 C71.66 11.09, 75.37 6.83, 79.77 1.77 M67.96 15.35 C71.12 11.72, 74.27 8.09, 79.77 1.77 M72.95 15.71 C77.23 10.78, 81.52 5.85, 85.41 1.37 M72.95 15.71 C77.82 10.1, 82.7 4.5, 85.41 1.37 M78.59 15.32 C81.41 12.07, 84.24 8.82, 90.4 1.73 M78.59 15.32 C82.78 10.5, 86.96 5.68, 90.4 1.73 M83.58 15.68 C87.18 11.53, 90.78 7.39, 96.7 0.58 M83.58 15.68 C88.73 9.74, 93.89 3.81, 96.7 0.58 M89.22 15.28 C93.33 10.56, 97.44 5.83, 99.72 3.21 M89.22 15.28 C92.5 11.51, 95.78 7.73, 99.72 3.21 M94.21 15.64 C95.96 13.62, 97.71 11.61, 100.11 8.85 M94.21 15.64 C95.65 13.98, 97.09 12.32, 100.11 8.85" stroke="#868e96" stroke-width="0.5" fill="none"></path><path d="M3.86 0 M3.86 0 C27.61 0, 51.36 0, 95.28 0 M3.86 0 C30.9 0, 57.94 0, 95.28 0 M95.28 0 C97.85 0, 99.13 1.29, 99.13 3.86 M95.28 0 C97.85 0, 99.13 1.29, 99.13 3.86 M99.13 3.86 C99.13 6.63, 99.13 9.39, 99.13 11.57 M99.13 3.86 C99.13 5.44, 99.13 7.02, 99.13 11.57 M99.13 11.57 C99.13 14.14, 97.85 15.43, 95.28 15.43 M99.13 11.57 C99.13 14.14, 97.85 15.43, 95.28 15.43 M95.28 15.43 C68.12 15.43, 40.96 15.43, 3.86 15.43 M95.28 15.43 C62.29 15.43, 29.3 15.43, 3.86 15.43 M3.86 15.43 C1.29 15.43, 0 14.14, 0 11.57 M3.86 15.43 C1.29 15.43, 0 14.14, 0 11.57 M0 11.57 C0 9.5, 0 7.44, 0 3.86 M0 11.57 C0 9.57, 0 7.57, 0 3.86 M0 3.86 C0 1.29, 1.29 0, 3.86 0 M0 3.86 C0 1.29, 1.29 0, 3.86 0" stroke="#000000" stroke-width="1" fill="none"></path></g><g stroke-linecap="round" transform="translate(839.4068147059807 152.0950826913093) rotate(0 1.8315153301887221 7.718528891509436)"><path d="M0.92 0 L2.75 0 L3.66 0.92 L3.66 14.52 L2.75 15.44 L0.92 15.44 L0 14.52 L0 0.92 L0.92 0" stroke="none" stroke-width="0" fill="#000"></path><path d="M0.92 0 M0.92 0 C1.48 0, 2.04 0, 2.75 0 M0.92 0 C1.63 0, 2.34 0, 2.75 0 M2.75 0 C3.36 0, 3.66 0.31, 3.66 0.92 M2.75 0 C3.36 0, 3.66 0.31, 3.66 0.92 M3.66 0.92 C3.66 4.5, 3.66 8.09, 3.66 14.52 M3.66 0.92 C3.66 4.39, 3.66 7.86, 3.66 14.52 M3.66 14.52 C3.66 15.13, 3.36 15.44, 2.75 15.44 M3.66 14.52 C3.66 15.13, 3.36 15.44, 2.75 15.44 M2.75 15.44 C2.28 15.44, 1.82 15.44, 0.92 15.44 M2.75 15.44 C2.17 15.44, 1.59 15.44, 0.92 15.44 M0.92 15.44 C0.31 15.44, 0 15.13, 0 14.52 M0.92 15.44 C0.31 15.44, 0 15.13, 0 14.52 M0 14.52 C0 10.21, 0 5.9, 0 0.92 M0 14.52 C0 10.64, 0 6.76, 0 0.92 M0 0.92 C0 0.31, 0.31 0, 0.92 0 M0 0.92 C0 0.31, 0.31 0, 0.92 0" stroke="#000000" stroke-width="1" fill="none"></path></g><g stroke-linecap="round"><g transform="translate(842.5797156632143 178.28906854036592) rotate(0 -0.07185731823915376 128.502727004717)"><path d="M0 0 C-0.02 42.83, -0.12 214.17, -0.14 257.01 M0 0 C-0.02 42.83, -0.12 214.17, -0.14 257.01" stroke="#000000" stroke-width="1" fill="none"></path></g><g transform="translate(842.5797156632143 178.28906854036592) rotate(0 -0.07185731823915376 128.502727004717)"><path d="M-10.39 228.81 C-8.21 234.8, -6.04 240.79, -0.14 257.01 M-10.39 228.81 C-7.28 237.36, -4.17 245.92, -0.14 257.01" stroke="#000000" stroke-width="1" fill="none"></path></g><g transform="translate(842.5797156632143 178.28906854036592) rotate(0 -0.07185731823915376 128.502727004717)"><path d="M10.13 228.82 C7.95 234.81, 5.77 240.79, -0.14 257.01 M10.13 228.82 C7.02 237.37, 3.9 245.92, -0.14 257.01" stroke="#000000" stroke-width="1" fill="none"></path></g></g><g transform="translate(1085.2291509810434 73.6472674151064) rotate(0 38.5 9.5)"><text x="0" y="15" font-family="Cascadia, Segoe UI Emoji" font-size="16px" fill="#000000" text-anchor="start" style="white-space: pre;" direction="ltr">overflow</text></g><g stroke-linecap="round"><g transform="translate(1075.3605272825503 98.30131462133704) rotate(0 -112.74211277413383 28.029591386668386)"><path d="M0 0 C-37.58 9.34, -187.9 46.72, -225.48 56.06 M0 0 C-37.58 9.34, -187.9 46.72, -225.48 56.06" stroke="#495057" stroke-width="1" fill="none"></path></g><g transform="translate(1075.3605272825503 98.30131462133704) rotate(0 -112.74211277413383 28.029591386668386)"><path d="M-200.6 39.3 C-207.64 44.04, -214.67 48.78, -225.48 56.06 M-200.6 39.3 C-209.19 45.08, -217.77 50.86, -225.48 56.06" stroke="#495057" stroke-width="1" fill="none"></path></g><g transform="translate(1075.3605272825503 98.30131462133704) rotate(0 -112.74211277413383 28.029591386668386)"><path d="M-195.65 59.22 C-204.09 58.32, -212.52 57.43, -225.48 56.06 M-195.65 59.22 C-205.94 58.13, -216.24 57.04, -225.48 56.06" stroke="#495057" stroke-width="1" fill="none"></path></g></g><g stroke-linecap="round"><g transform="translate(1074.4430365942508 90.07324091176588) rotate(0 -286.87795299592244 37.67041142003325)"><path d="M0 0 C-95.63 12.56, -478.13 62.78, -573.76 75.34 M0 0 C-95.63 12.56, -478.13 62.78, -573.76 75.34" stroke="#495057" stroke-width="1" fill="none"></path></g><g transform="translate(1074.4430365942508 90.07324091176588) rotate(0 -286.87795299592244 37.67041142003325)"><path d="M-547.14 61.5 C-553.21 64.66, -559.28 67.81, -573.76 75.34 M-547.14 61.5 C-556.08 66.15, -565.03 70.8, -573.76 75.34" stroke="#495057" stroke-width="1" fill="none"></path></g><g transform="translate(1074.4430365942508 90.07324091176588) rotate(0 -286.87795299592244 37.67041142003325)"><path d="M-544.47 81.84 C-551.15 80.36, -557.83 78.88, -573.76 75.34 M-544.47 81.84 C-554.31 79.66, -564.15 77.47, -573.76 75.34" stroke="#495057" stroke-width="1" fill="none"></path></g></g><g stroke-linecap="round"><g transform="translate(287.1738542810126 533.2493388224093) rotate(0 289.9613107636335 0)"><path d="M0 0 C114.78 0, 229.55 0, 289.96 0 M289.96 0 C397.63 0, 505.31 0, 579.92 0" stroke="#495057" stroke-width="2.5" fill="none" stroke-dasharray="8 10"></path></g><g transform="translate(287.1738542810126 533.2493388224093) rotate(0 289.9613107636335 0)"><path d="M0 -15 C0 -9.06, 0 -3.13, 0 0" stroke="#495057" stroke-width="2.5" fill="none"></path></g><g transform="translate(287.1738542810126 533.2493388224093) rotate(0 289.9613107636335 0)"><path d="M0 15 C0 9.06, 0 3.13, 0 0" stroke="#495057" stroke-width="2.5" fill="none"></path></g><g transform="translate(287.1738542810126 533.2493388224093) rotate(0 289.9613107636335 0)"><path d="M579.92 15 C579.92 9.06, 579.92 3.13, 579.92 0" stroke="#495057" stroke-width="2.5" fill="none"></path></g><g transform="translate(287.1738542810126 533.2493388224093) rotate(0 289.9613107636335 0)"><path d="M579.92 -15 C579.92 -9.06, 579.92 -3.13, 579.92 0" stroke="#495057" stroke-width="2.5" fill="none"></path></g></g><g transform="translate(538.6351650446459 545.4972837341923) rotate(0 38.5 9.5)"><text x="0" y="15" font-family="Cascadia, Segoe UI Emoji" font-size="16px" fill="#000000" text-anchor="start" style="white-space: pre;" direction="ltr">Centered</text></g><g stroke-linecap="round"><g transform="translate(286.16449072472165 484.6047590479202) rotate(0 112.75377440826571 -0.043258438126770216)"><path d="M0 0 C52.23 -0.02, 104.46 -0.04, 225.51 -0.09" stroke="#495057" stroke-width="2.5" fill="none" stroke-dasharray="8 10"></path></g><g transform="translate(286.16449072472165 484.6047590479202) rotate(0 112.75377440826571 -0.043258438126770216)"><path d="M-0.01 -15 C0 -11.53, 0 -8.05, 0 0" stroke="#495057" stroke-width="2.5" fill="none"></path></g><g transform="translate(286.16449072472165 484.6047590479202) rotate(0 112.75377440826571 -0.043258438126770216)"><path d="M0.01 15 C0 11.53, 0 8.05, 0 0" stroke="#495057" stroke-width="2.5" fill="none"></path></g><g transform="translate(286.16449072472165 484.6047590479202) rotate(0 112.75377440826571 -0.043258438126770216)"><path d="M225.51 14.91 C225.51 11.44, 225.51 7.97, 225.51 -0.09" stroke="#495057" stroke-width="2.5" fill="none"></path></g><g transform="translate(286.16449072472165 484.6047590479202) rotate(0 112.75377440826571 -0.043258438126770216)"><path d="M225.5 -15.09 C225.5 -11.61, 225.5 -8.14, 225.51 -0.09" stroke="#495057" stroke-width="2.5" fill="none"></path></g></g><g stroke-linecap="round"><g transform="translate(546.517366883234 484.37442061986724) rotate(0 160.77850589953118 0)"><path d="M0 0 C102.11 0, 204.23 0, 321.56 0" stroke="#495057" stroke-width="2.5" fill="none" stroke-dasharray="8 10"></path></g><g transform="translate(546.517366883234 484.37442061986724) rotate(0 160.77850589953118 0)"><path d="M0 -15 C0 -10.24, 0 -5.47, 0 0" stroke="#495057" stroke-width="2.5" fill="none"></path></g><g transform="translate(546.517366883234 484.37442061986724) rotate(0 160.77850589953118 0)"><path d="M0 15 C0 10.24, 0 5.47, 0 0" stroke="#495057" stroke-width="2.5" fill="none"></path></g><g transform="translate(546.517366883234 484.37442061986724) rotate(0 160.77850589953118 0)"><path d="M321.56 15 C321.56 10.24, 321.56 5.47, 321.56 0" stroke="#495057" stroke-width="2.5" fill="none"></path></g><g transform="translate(546.517366883234 484.37442061986724) rotate(0 160.77850589953118 0)"><path d="M321.56 -15 C321.56 -10.24, 321.56 -5.47, 321.56 0" stroke="#495057" stroke-width="2.5" fill="none"></path></g></g><g transform="translate(635.619262530256 492.59390162082104) rotate(0 66.5 9.5)"><text x="0" y="15" font-family="Cascadia, Segoe UI Emoji" font-size="16px" fill="#000000" text-anchor="start" style="white-space: pre;" direction="ltr">Variable width</text></g><g transform="translate(353.1442832860739 489.83060502775436) rotate(0 43 9.5)"><text x="0" y="15" font-family="Cascadia, Segoe UI Emoji" font-size="16px" fill="#000000" text-anchor="start" style="white-space: pre;" direction="ltr">Set width</text></g><g stroke-linecap="round"><g transform="translate(117.94946605267296 71.4263752963924) rotate(0 459.4714668559618 -1.0735957826003641)"><path d="M0 0 C271.67 -0.63, 543.33 -1.27, 918.94 -2.15 M0 0 C358.59 -0.84, 717.18 -1.68, 918.94 -2.15" stroke="#000000" stroke-width="2" fill="none"></path></g></g><g transform="translate(539.1138144025758 43.31438495987476) rotate(0 29 9.5)"><text x="0" y="15" font-family="Cascadia, Segoe UI Emoji" font-size="16px" fill="#000000" text-anchor="start" style="white-space: pre;" direction="ltr">Header</text></g><g stroke-linecap="round"><g transform="translate(72.07716957365369 81.20016058951603) rotate(0 0.660674327754009 190.74480576551912)"><path d="M0 0 C0.47 135.17, 0.94 270.34, 1.32 381.49 M0 0 C0.4 115.08, 0.8 230.15, 1.32 381.49" stroke="#000000" stroke-width="2" fill="none"></path></g><g transform="translate(72.07716957365369 81.20016058951603) rotate(0 0.660674327754009 190.74480576551912)"><path d="M15 -0.05 C9.69 -0.03, 4.37 -0.02, 0 0 M15 -0.05 C10.48 -0.04, 5.95 -0.02, 0 0" stroke="#000000" stroke-width="2" fill="none"></path></g><g transform="translate(72.07716957365369 81.20016058951603) rotate(0 0.660674327754009 190.74480576551912)"><path d="M-15 0.05 C-9.69 0.03, -4.37 0.02, 0 0 M-15 0.05 C-10.48 0.04, -5.95 0.02, 0 0" stroke="#000000" stroke-width="2" fill="none"></path></g><g transform="translate(72.07716957365369 81.20016058951603) rotate(0 0.660674327754009 190.74480576551912)"><path d="M-13.68 381.54 C-8.36 381.52, -3.05 381.5, 1.32 381.49 M-13.68 381.54 C-9.15 381.53, -4.63 381.51, 1.32 381.49" stroke="#000000" stroke-width="2" fill="none"></path></g><g transform="translate(72.07716957365369 81.20016058951603) rotate(0 0.660674327754009 190.74480576551912)"><path d="M16.32 381.44 C11.01 381.46, 5.69 381.47, 1.32 381.49 M16.32 381.44 C11.8 381.45, 7.27 381.47, 1.32 381.49" stroke="#000000" stroke-width="2" fill="none"></path></g></g><g transform="translate(10 251.8855998189008) rotate(0 20 9.5)"><text x="0" y="15" font-family="Cascadia, Segoe UI Emoji" font-size="16px" fill="#000000" text-anchor="start" style="white-space: pre;" direction="ltr">Flex</text></g></svg>