<?xml version="1.0" encoding="UTF-8" standalone="no"?>
<svg width="12px" height="22px" viewBox="0 0 12 22" version="1.1" xmlns="http://www.w3.org/2000/svg" xmlns:xlink="http://www.w3.org/1999/xlink" xmlns:sketch="http://www.bohemiancoding.com/sketch/ns">
    <!-- Generator: Sketch 3.0.3 (7891) - http://www.bohemiancoding.com/sketch -->
    <title>dock</title>
    <desc>Created with Sketch.</desc>
    <defs></defs>
    <g id="Page-1" stroke="none" stroke-width="1" fill="none" fill-rule="evenodd" sketch:type="MSPage">
        <g id="Icons-Hardware" sketch:type="MSLayerGroup" transform="translate(-132.000000, 0.000000)" fill="#000000">
            <g id="dock" transform="translate(132.000000, 0.000000)" sketch:type="MSShapeGroup">
                <path d="M2,22 L10,22 L10,20 L2,20 L2,22 L2,22 Z M10,0 L2,0 C0.9,0 0,0.9 0,2 L0,16 C0,17.1 0.9,18 2,18 L10,18 C11.1,18 12,17.1 12,16 L12,2 C12,0.9 11.1,0 10,0 L10,0 Z M10,14 L2,14 L2,4 L10,4 L10,14 L10,14 Z" id="Shape"></path>
            </g>
        </g>
    </g>
</svg>