<?xml version="1.0" encoding="UTF-8" standalone="no"?>
<svg width="20px" height="20px" viewBox="0 0 20 20" version="1.1" xmlns="http://www.w3.org/2000/svg" xmlns:xlink="http://www.w3.org/1999/xlink" xmlns:sketch="http://www.bohemiancoding.com/sketch/ns">
    <!-- Generator: Sketch 3.0.3 (7891) - http://www.bohemiancoding.com/sketch -->
    <title>glass</title>
    <desc>Created with Sketch.</desc>
    <defs></defs>
    <g id="Page-1" stroke="none" stroke-width="1" fill="none" fill-rule="evenodd" sketch:type="MSPage">
        <g id="Icons-Hardware" sketch:type="MSLayerGroup" transform="translate(-212.000000, -1.000000)" fill="#000000">
            <g id="glass" transform="translate(212.000000, 1.000000)" sketch:type="MSShapeGroup">
                <path d="M11,9 L11,11.5 L16.9,11.5 C16.3,15 13.5,17.5 10,17.5 C5.9,17.5 2.5,14.1 2.5,10 C2.5,5.9 5.9,2.5 10,2.5 C12.1,2.5 13.9,3.4 15.2,4.8 L17,3 C15.2,1.2 12.8,0 10,0 C4.5,0 0,4.5 0,10 C0,15.5 4.5,20 10,20 C15.5,20 19.5,15.5 19.5,10 L19.5,9 L11,9 L11,9 Z" id="Shape"></path>
            </g>
        </g>
    </g>
</svg>