<?xml version="1.0" encoding="UTF-8" standalone="no"?>
<svg width="20px" height="20px" viewBox="0 0 20 20" version="1.1" xmlns="http://www.w3.org/2000/svg" xmlns:xlink="http://www.w3.org/1999/xlink" xmlns:sketch="http://www.bohemiancoding.com/sketch/ns">
    <!-- Generator: Sketch 3.0.3 (7891) - http://www.bohemiancoding.com/sketch -->
    <title>keyboard-hide</title>
    <desc>Created with Sketch.</desc>
    <defs></defs>
    <g id="Page-1" stroke="none" stroke-width="1" fill="none" fill-rule="evenodd" sketch:type="MSPage">
        <g id="Icons-Hardware" sketch:type="MSLayerGroup" transform="translate(-128.000000, -85.000000)" fill="#000000">
            <g id="keyboard-hide" transform="translate(128.000000, 85.000000)" sketch:type="MSShapeGroup">
                <path d="M18,0 L2,0 C0.9,0 0,0.9 0,2 L0,12 C0,13.1 0.9,14 2,14 L18,14 C19.1,14 20,13.1 20,12 L20,2 C20,0.9 19.1,0 18,0 L18,0 Z M9,3 L11,3 L11,5 L9,5 L9,3 L9,3 Z M9,6 L11,6 L11,8 L9,8 L9,6 L9,6 Z M6,3 L8,3 L8,5 L6,5 L6,3 L6,3 Z M6,6 L8,6 L8,8 L6,8 L6,6 L6,6 Z M5,8 L3,8 L3,6 L5,6 L5,8 L5,8 Z M5,5 L3,5 L3,3 L5,3 L5,5 L5,5 Z M14,12 L6,12 L6,10 L14,10 L14,12 L14,12 Z M14,8 L12,8 L12,6 L14,6 L14,8 L14,8 Z M14,5 L12,5 L12,3 L14,3 L14,5 L14,5 Z M17,8 L15,8 L15,6 L17,6 L17,8 L17,8 Z M17,5 L15,5 L15,3 L17,3 L17,5 L17,5 Z M10,20 L14,16 L6,16 L10,20 L10,20 Z" id="Shape"></path>
            </g>
        </g>
    </g>
</svg>