<?xml version="1.0" encoding="UTF-8" standalone="no"?>
<svg width="18px" height="18px" viewBox="0 0 18 18" version="1.1" xmlns="http://www.w3.org/2000/svg" xmlns:xlink="http://www.w3.org/1999/xlink" xmlns:sketch="http://www.bohemiancoding.com/sketch/ns">
    <!-- Generator: Sketch 3.0.3 (7891) - http://www.bohemiancoding.com/sketch -->
    <title>memory</title>
    <desc>Created with Sketch.</desc>
    <defs></defs>
    <g id="Page-1" stroke="none" stroke-width="1" fill="none" fill-rule="evenodd" sketch:type="MSPage">
        <g id="Icons-Hardware" sketch:type="MSLayerGroup" transform="translate(-45.000000, -128.000000)" fill="#000000">
            <g id="memory" transform="translate(45.000000, 128.000000)" sketch:type="MSShapeGroup">
                <path d="M12,6 L6,6 L6,12 L12,12 L12,6 L12,6 Z M10,10 L8,10 L8,8 L10,8 L10,10 L10,10 Z M18,8 L18,6 L16,6 L16,4 C16,2.9 15.1,2 14,2 L12,2 L12,0 L10,0 L10,2 L8,2 L8,0 L6,0 L6,2 L4,2 C2.9,2 2,2.9 2,4 L2,6 L0,6 L0,8 L2,8 L2,10 L0,10 L0,12 L2,12 L2,14 C2,15.1 2.9,16 4,16 L6,16 L6,18 L8,18 L8,16 L10,16 L10,18 L12,18 L12,16 L14,16 C15.1,16 16,15.1 16,14 L16,12 L18,12 L18,10 L16,10 L16,8 L18,8 L18,8 Z M14,14 L4,14 L4,4 L14,4 L14,14 L14,14 Z" id="Shape"></path>
            </g>
        </g>
    </g>
</svg>