<?xml version="1.0" encoding="UTF-8" standalone="no"?>
<svg width="20px" height="20px" viewBox="0 0 20 20" version="1.1" xmlns="http://www.w3.org/2000/svg" xmlns:xlink="http://www.w3.org/1999/xlink" xmlns:sketch="http://www.bohemiancoding.com/sketch/ns">
    <!-- Generator: Sketch 3.0.3 (7891) - http://www.bohemiancoding.com/sketch -->
    <title>nest-thermostat</title>
    <desc>Created with Sketch.</desc>
    <defs></defs>
    <g id="Page-1" stroke="none" stroke-width="1" fill="none" fill-rule="evenodd" sketch:type="MSPage">
        <g id="Icons-Hardware" sketch:type="MSLayerGroup" transform="translate(-170.000000, -127.000000)" fill="#000000">
            <g id="nest-thermostat" transform="translate(170.000000, 127.000000)" sketch:type="MSShapeGroup">
                <path d="M10,0 C4.5,0 0,4.5 0,10 C0,15.5 4.5,20 10,20 C15.5,20 20,15.5 20,10 C20,4.5 15.5,0 10,0 L10,0 Z M10,3 C11.6,3 13,3.5 14.2,4.4 L12,6.6 C11.4,6.2 10.7,6 10,6 C7.8,6 6,7.8 6,10 C6,11.1 6.4,12.1 7.2,12.8 L5.1,14.9 C3.8,13.7 3,11.9 3,10 C3,6.1 6.1,3 10,3 L10,3 Z M14.9,14.9 L12.8,12.8 C13.5,12.1 14,11.1 14,10 C14,9.3 13.8,8.6 13.4,8 L15.6,5.8 C16.5,7 17,8.4 17,10 C17,11.9 16.2,13.7 14.9,14.9 L14.9,14.9 Z" id="Shape"></path>
            </g>
        </g>
    </g>
</svg>