<?xml version="1.0" encoding="UTF-8" standalone="no"?>
<svg width="18px" height="21px" viewBox="0 0 18 21" version="1.1" xmlns="http://www.w3.org/2000/svg" xmlns:xlink="http://www.w3.org/1999/xlink" xmlns:sketch="http://www.bohemiancoding.com/sketch/ns">
    <!-- Generator: Sketch 3.0.3 (7891) - http://www.bohemiancoding.com/sketch -->
    <title>mic-off</title>
    <desc>Created with Sketch.</desc>
    <defs></defs>
    <g id="Page-1" stroke="none" stroke-width="1" fill="none" fill-rule="evenodd" sketch:type="MSPage">
        <g id="Icons-AV" sketch:type="MSLayerGroup" transform="translate(-85.000000, -43.000000)" fill="#000000">
            <g id="mic-off" transform="translate(85.000000, 43.500000)" sketch:type="MSShapeGroup">
                <path d="M16,9 L14.3,9 C14.3,9.7 14.1,10.4 13.9,11 L15.1,12.2 C15.7,11.3 16,10.2 16,9 L16,9 Z" id="Shape"></path>
                <path d="M12,9.2 L12,9 L12,3 C12,1.3 10.7,0 9,0 C7.3,0 6,1.3 6,3 L6,3.2 L12,9.2 L12,9.2 Z" id="Shape"></path>
                <path d="M1.3,1 L0,2.3 L6,8.3 L6,9 C6,10.7 7.3,12 9,12 C9.2,12 9.4,12 9.7,11.9 L11.4,13.6 C10.7,13.9 9.9,14.1 9.1,14.1 C6.3,14.1 3.8,12 3.8,9 L2,9 C2,12.4 4.7,15.2 8,15.7 L8,19 L10,19 L10,15.7 C10.9,15.6 11.8,15.2 12.5,14.8 L16.7,19 L18,17.7 L1.3,1 L1.3,1 Z" id="Shape"></path>
            </g>
        </g>
    </g>
</svg>