<?xml version="1.0" encoding="UTF-8" standalone="no"?>
<svg width="21px" height="21px" viewBox="0 0 21 21" version="1.1" xmlns="http://www.w3.org/2000/svg" xmlns:xlink="http://www.w3.org/1999/xlink" xmlns:sketch="http://www.bohemiancoding.com/sketch/ns">
    <!-- Generator: Sketch 3.0.3 (7891) - http://www.bohemiancoding.com/sketch -->
    <title>videocam-off</title>
    <desc>Created with Sketch.</desc>
    <defs></defs>
    <g id="Page-1" stroke="none" stroke-width="1" fill="none" fill-rule="evenodd" sketch:type="MSPage">
        <g id="Icons-AV" sketch:type="MSLayerGroup" transform="translate(0.000000, -169.000000)" fill="#000000">
            <g id="videocam-off" transform="translate(0.500000, 169.500000)" sketch:type="MSShapeGroup">
                <path d="M19,4.5 L15,8.5 L15,5 C15,4.4 14.6,4 14,4 L7.8,4 L19,15.2 L19,4.5 L19,4.5 Z M1.3,0 L0,1.3 L2.7,4 L2,4 C1.4,4 1,4.4 1,5 L1,15 C1,15.6 1.4,16 2,16 L14,16 C14.2,16 14.4,15.9 14.5,15.8 L17.7,19 L19,17.7 L1.3,0 L1.3,0 Z" id="Shape"></path>
            </g>
        </g>
    </g>
</svg>