<?xml version="1.0" encoding="UTF-8" standalone="no"?>
<svg width="20px" height="21px" viewBox="0 0 20 21" version="1.1" xmlns="http://www.w3.org/2000/svg" xmlns:xlink="http://www.w3.org/1999/xlink" xmlns:sketch="http://www.bohemiancoding.com/sketch/ns">
    <!-- Generator: Sketch 3.0.3 (7891) - http://www.bohemiancoding.com/sketch -->
    <title>access-alarms</title>
    <desc>Created with Sketch.</desc>
    <defs></defs>
    <g id="Page-1" stroke="none" stroke-width="1" fill="none" fill-rule="evenodd" sketch:type="MSPage">
        <g id="Icons-Device" sketch:type="MSLayerGroup" transform="translate(-2.000000, 1.000000)" fill="#000000">
            <g id="access-alarms" transform="translate(2.000000, 0.000000)" sketch:type="MSShapeGroup">
                <path d="M20,3.7 L15.4,-0.2 L14.1,1.3 L18.7,5.2 L20,3.7 L20,3.7 Z M5.9,1.4 L4.6,-0.1 L0,3.7 L1.3,5.2 L5.9,1.4 L5.9,1.4 Z M10.5,6 L9,6 L9,12 L13.7,14.9 L14.5,13.7 L10.5,11.3 L10.5,6 L10.5,6 Z M10,2 C5,2 1,6 1,11 C1,16 5,20 10,20 C15,20 19,16 19,11 C19,6 15,2 10,2 L10,2 Z M10,18 C6.1,18 3,14.9 3,11 C3,7.1 6.1,4 10,4 C13.9,4 17,7.1 17,11 C17,14.9 13.9,18 10,18 L10,18 Z" id="Shape"></path>
            </g>
        </g>
    </g>
</svg>