<?xml version="1.0" encoding="UTF-8" standalone="no"?>
<svg width="16px" height="20px" viewBox="0 0 16 20" version="1.1" xmlns="http://www.w3.org/2000/svg" xmlns:xlink="http://www.w3.org/1999/xlink" xmlns:sketch="http://www.bohemiancoding.com/sketch/ns">
    <!-- Generator: Sketch 3.0.3 (7891) - http://www.bohemiancoding.com/sketch -->
    <title>bluetooth-disabled</title>
    <desc>Created with Sketch.</desc>
    <defs></defs>
    <g id="Page-1" stroke="none" stroke-width="1" fill="none" fill-rule="evenodd" sketch:type="MSPage">
        <g id="Icons-Device" sketch:type="MSLayerGroup" transform="translate(-4.000000, -42.000000)" fill="#000000">
            <g id="bluetooth-disabled" transform="translate(4.000000, 42.000000)" sketch:type="MSShapeGroup">
                <path d="M9,3.8 L10.9,5.7 L9.3,7.3 L10.7,8.7 L13.7,5.7 L8,0 L7,0 L7,5 L9,7 L9,3.8 L9,3.8 Z M1.4,2 L0,3.4 L6.6,10 L1,15.6 L2.4,17 L7,12.4 L7,20 L8,20 L12.3,15.7 L14.6,18 L16,16.6 L1.4,2 L1.4,2 Z M9,16.2 L9,12.4 L10.9,14.3 L9,16.2 L9,16.2 Z" id="Shape"></path>
            </g>
        </g>
    </g>
</svg>