<?xml version="1.0" encoding="UTF-8" standalone="no"?>
<svg width="24px" height="24px" viewBox="0 0 24 24" version="1.1" xmlns="http://www.w3.org/2000/svg" xmlns:xlink="http://www.w3.org/1999/xlink" xmlns:sketch="http://www.bohemiancoding.com/sketch/ns">
    <!-- Generator: Sketch 3.0.3 (7891) - http://www.bohemiancoding.com/sketch -->
    <title>brightness-auto</title>
    <desc>Created with Sketch.</desc>
    <defs></defs>
    <g id="Page-1" stroke="none" stroke-width="1" fill="none" fill-rule="evenodd" sketch:type="MSPage">
        <g id="Icons-Device" sketch:type="MSLayerGroup" transform="translate(-84.000000, -40.000000)" fill="#000000">
            <g id="brightness-auto" transform="translate(84.500000, 40.500000)" sketch:type="MSShapeGroup">
                <path d="M9.9,11.6 L12.2,11.6 L11,8 L9.9,11.6 L9.9,11.6 Z M19,7.7 L19,3 L14.3,3 L11,-0.3 L7.7,3 L3,3 L3,7.7 L-0.3,11 L3,14.3 L3,19 L7.7,19 L11,22.3 L14.3,19 L19,19 L19,14.3 L22.3,11 L19,7.7 L19,7.7 Z M13.3,15 L12.6,13 L9.4,13 L8.7,15 L6.8,15 L10,6 L12,6 L15.2,15 L13.3,15 L13.3,15 Z" id="Shape"></path>
            </g>
        </g>
    </g>
</svg>