<?xml version="1.0" encoding="UTF-8" standalone="no"?>
<svg width="20px" height="20px" viewBox="0 0 20 20" version="1.1" xmlns="http://www.w3.org/2000/svg" xmlns:xlink="http://www.w3.org/1999/xlink" xmlns:sketch="http://www.bohemiancoding.com/sketch/ns">
    <!-- Generator: Sketch 3.0.3 (7891) - http://www.bohemiancoding.com/sketch -->
    <title>data-usage</title>
    <desc>Created with Sketch.</desc>
    <defs></defs>
    <g id="Page-1" stroke="none" stroke-width="1" fill="none" fill-rule="evenodd" sketch:type="MSPage">
        <g id="Icons-Device" sketch:type="MSLayerGroup" transform="translate(-254.000000, -42.000000)" fill="#000000">
            <g id="data-usage" transform="translate(254.000000, 42.000000)" sketch:type="MSShapeGroup">
                <path d="M11,0.1 L11,3.1 C14.4,3.6 17,6.5 17,10 C17,10.9 16.8,11.7 16.5,12.5 L19.1,14 C19.7,12.8 20,11.4 20,9.9 C20,4.8 16.1,0.6 11,0.1 L11,0.1 Z M10,17 C6.1,17 3,13.9 3,10 C3,6.5 5.6,3.6 9,3.1 L9,0.1 C3.9,0.5 0,4.8 0,10 C0,15.5 4.5,20 10,20 C13.3,20 16.2,18.4 18.1,15.9 L15.5,14.4 C14.2,16 12.2,17 10,17 L10,17 Z" id="Shape"></path>
            </g>
        </g>
    </g>
</svg>