<?xml version="1.0" encoding="UTF-8" standalone="no"?>
<svg width="22px" height="22px" viewBox="0 0 22 22" version="1.1" xmlns="http://www.w3.org/2000/svg" xmlns:xlink="http://www.w3.org/1999/xlink" xmlns:sketch="http://www.bohemiancoding.com/sketch/ns">
    <!-- Generator: Sketch 3.0.3 (7891) - http://www.bohemiancoding.com/sketch -->
    <title>location-searching</title>
    <desc>Created with Sketch.</desc>
    <defs></defs>
    <g id="Page-1" stroke="none" stroke-width="1" fill="none" fill-rule="evenodd" sketch:type="MSPage">
        <g id="Icons-Device" sketch:type="MSLayerGroup" transform="translate(-211.000000, -83.000000)" fill="#000000">
            <g id="location-searching" transform="translate(211.000000, 83.000000)" sketch:type="MSShapeGroup">
                <path d="M19.9,10 C19.4,5.8 16.1,2.5 12,2.1 L12,0 L10,0 L10,2.1 C5.8,2.5 2.5,5.8 2.1,10 L0,10 L0,12 L2.1,12 C2.6,16.2 5.9,19.5 10,19.9 L10,22 L12,22 L12,19.9 C16.2,19.4 19.5,16.1 19.9,12 L22,12 L22,10 L19.9,10 L19.9,10 Z M11,18 C7.1,18 4,14.9 4,11 C4,7.1 7.1,4 11,4 C14.9,4 18,7.1 18,11 C18,14.9 14.9,18 11,18 L11,18 Z" id="Shape"></path>
            </g>
        </g>
    </g>
</svg>