<?xml version="1.0" encoding="UTF-8" standalone="no"?>
<svg width="14px" height="22px" viewBox="0 0 14 22" version="1.1" xmlns="http://www.w3.org/2000/svg" xmlns:xlink="http://www.w3.org/1999/xlink" xmlns:sketch="http://www.bohemiancoding.com/sketch/ns">
    <!-- Generator: Sketch 3.0.3 (7891) - http://www.bohemiancoding.com/sketch -->
    <title>screen-lock-portrait</title>
    <desc>Created with Sketch.</desc>
    <defs></defs>
    <g id="Page-1" stroke="none" stroke-width="1" fill="none" fill-rule="evenodd" sketch:type="MSPage">
        <g id="Icons-Device" sketch:type="MSLayerGroup" transform="translate(-131.000000, -125.000000)" fill="#000000">
            <g id="screen-lock-portrait" transform="translate(131.000000, 125.000000)" sketch:type="MSShapeGroup">
                <path d="M5,15 L9,15 C9.6,15 10,14.6 10,14 L10,11 C10,10.4 9.6,10 9,10 L9,9 C9,7.9 8.1,7 7,7 C5.9,7 5,7.9 5,9 L5,10 C4.4,10 4,10.4 4,11 L4,14 C4,14.6 4.4,15 5,15 L5,15 Z M5.8,9 C5.8,8.3 6.3,7.8 7,7.8 C7.7,7.8 8.2,8.3 8.2,9 L8.2,10 L5.8,10 L5.8,9 L5.8,9 Z M12,0 L2,0 C0.9,0 0,0.9 0,2 L0,20 C0,21.1 0.9,22 2,22 L12,22 C13.1,22 14,21.1 14,20 L14,2 C14,0.9 13.1,0 12,0 L12,0 Z M12,18 L2,18 L2,4 L12,4 L12,18 L12,18 Z" id="Shape"></path>
            </g>
        </g>
    </g>
</svg>