<?xml version="1.0" encoding="UTF-8" standalone="no"?>
<svg width="22px" height="14px" viewBox="0 0 22 14" version="1.1" xmlns="http://www.w3.org/2000/svg" xmlns:xlink="http://www.w3.org/1999/xlink" xmlns:sketch="http://www.bohemiancoding.com/sketch/ns">
    <!-- Generator: Sketch 3.0.3 (7891) - http://www.bohemiancoding.com/sketch -->
    <title>screen-lock-landscape</title>
    <desc>Created with Sketch.</desc>
    <defs></defs>
    <g id="Page-1" stroke="none" stroke-width="1" fill="none" fill-rule="evenodd" sketch:type="MSPage">
        <g id="Icons-Device" sketch:type="MSLayerGroup" transform="translate(-85.000000, -129.000000)" fill="#000000">
            <g id="screen-lock-landscape" transform="translate(85.000000, 129.000000)" sketch:type="MSShapeGroup">
                <path d="M20,0 L2,0 C0.9,0 0,0.9 0,2 L0,12 C0,13.1 0.9,14 2,14 L20,14 C21.1,14 22,13.1 22,12 L22,2 C22,0.9 21.1,0 20,0 L20,0 Z M18,12 L4,12 L4,2 L18,2 L18,12 L18,12 Z M9,11 L13,11 C13.6,11 14,10.6 14,10 L14,7 C14,6.4 13.6,6 13,6 L13,5 C13,3.9 12.1,3 11,3 C9.9,3 9,3.9 9,5 L9,6 C8.4,6 8,6.4 8,7 L8,10 C8,10.6 8.4,11 9,11 L9,11 Z M9.8,5 C9.8,4.3 10.3,3.8 11,3.8 C11.7,3.8 12.2,4.3 12.2,5 L12.2,6 L9.8,6 L9.8,5 L9.8,5 Z" id="Shape"></path>
            </g>
        </g>
    </g>
</svg>