<?xml version="1.0" encoding="UTF-8" standalone="no"?>
<svg width="25px" height="25px" viewBox="0 0 25 25" version="1.1" xmlns="http://www.w3.org/2000/svg" xmlns:xlink="http://www.w3.org/1999/xlink" xmlns:sketch="http://www.bohemiancoding.com/sketch/ns">
    <!-- Generator: Sketch 3.0.3 (7891) - http://www.bohemiancoding.com/sketch -->
    <title>screen-lock-rotation</title>
    <desc>Created with Sketch.</desc>
    <defs></defs>
    <g id="Page-1" stroke="none" stroke-width="1" fill="none" fill-rule="evenodd" sketch:type="MSPage">
        <g id="Icons-Device" sketch:type="MSLayerGroup" transform="translate(-168.000000, -124.000000)" fill="#000000">
            <g id="screen-lock-rotation" transform="translate(168.500000, 124.500000)" sketch:type="MSShapeGroup">
                <path d="M22.3,12.8 L19.7,10.2 L18.3,11.6 L20.5,13.8 L14.8,19.5 L3.5,8.2 L9.2,2.5 L11.3,4.6 L12.7,3.2 L10.3,0.8 C9.7,0.2 8.8,0.2 8.2,0.8 L1.7,7.1 C1.1,7.7 1.1,8.6 1.7,9.2 L13.7,21.2 C14.3,21.8 15.2,21.8 15.8,21.2 L22.2,14.8 C22.8,14.3 22.8,13.4 22.3,12.8 L22.3,12.8 Z M7.5,20.5 C4.2,19 1.9,15.8 1.5,12 L0,12 C0.5,18.2 5.7,23 11.9,23 L12.6,23 L8.8,19.2 L7.5,20.5 L7.5,20.5 Z M15,9 L20,9 C20.6,9 21,8.6 21,8 L21,4 C21,3.4 20.6,3 20,3 L20,2.5 C20,1.1 18.9,0 17.5,0 C16.1,0 15,1.1 15,2.5 L15,3 C14.4,3 14,3.4 14,4 L14,8 C14,8.6 14.4,9 15,9 L15,9 Z M15.8,2.5 C15.8,1.6 16.6,0.8 17.5,0.8 C18.4,0.8 19.2,1.6 19.2,2.5 L19.2,3 L15.8,3 L15.8,2.5 L15.8,2.5 Z" id="Shape"></path>
            </g>
        </g>
    </g>
</svg>