<?xml version="1.0" encoding="UTF-8" standalone="no"?>
<svg width="16px" height="20px" viewBox="0 0 16 20" version="1.1" xmlns="http://www.w3.org/2000/svg" xmlns:xlink="http://www.w3.org/1999/xlink" xmlns:sketch="http://www.bohemiancoding.com/sketch/ns">
    <!-- Generator: Sketch 3.0.3 (7891) - http://www.bohemiancoding.com/sketch -->
    <title>sd-storage</title>
    <desc>Created with Sketch.</desc>
    <defs></defs>
    <g id="Page-1" stroke="none" stroke-width="1" fill="none" fill-rule="evenodd" sketch:type="MSPage">
        <g id="Icons-Device" sketch:type="MSLayerGroup" transform="translate(-256.000000, -126.000000)" fill="#000000">
            <g id="sd-storage" transform="translate(256.000000, 126.000000)" sketch:type="MSShapeGroup">
                <path d="M14,0 L6,0 L0,6 L0,18 C0,19.1 0.9,20 2,20 L14,20 C15.1,20 16,19.1 16,18 L16,2 C16,0.9 15.1,0 14,0 L14,0 Z M8,6 L6,6 L6,2 L8,2 L8,6 L8,6 Z M11,6 L9,6 L9,2 L11,2 L11,6 L11,6 Z M14,6 L12,6 L12,2 L14,2 L14,6 L14,6 Z" id="Shape"></path>
            </g>
        </g>
    </g>
</svg>