<?xml version="1.0" encoding="UTF-8" standalone="no"?>
<svg width="15px" height="23px" viewBox="0 0 15 23" version="1.1" xmlns="http://www.w3.org/2000/svg" xmlns:xlink="http://www.w3.org/1999/xlink" xmlns:sketch="http://www.bohemiancoding.com/sketch/ns">
    <!-- Generator: Sketch 3.0.3 (7891) - http://www.bohemiancoding.com/sketch -->
    <title>usb</title>
    <desc>Created with Sketch.</desc>
    <defs></defs>
    <g id="Page-1" stroke="none" stroke-width="1" fill="none" fill-rule="evenodd" sketch:type="MSPage">
        <g id="Icons-Device" sketch:type="MSLayerGroup" transform="translate(-130.000000, -209.000000)" fill="#000000">
            <g id="usb" transform="translate(131.000000, 209.500000)" sketch:type="MSShapeGroup">
                <path d="M10,6 L10,10 L11,10 L11,12 L8,12 L8,4 L10,4 L7,0 L4,4 L6,4 L6,12 L3,12 L3,9.9 C3.7,9.6 4.2,8.8 4.2,8 C4.2,6.8 3.2,5.8 2,5.8 C0.8,5.8 -0.2,6.8 -0.2,8 C-0.2,8.8 0.3,9.6 1,9.9 L1,12 C1,13.1 1.9,14 3,14 L6,14 L6,17.1 C5.3,17.5 4.8,18.2 4.8,19 C4.8,20.2 5.8,21.2 7,21.2 C8.2,21.2 9.2,20.2 9.2,19 C9.2,18.1 8.7,17.4 8,17.1 L8,14 L11,14 C12.1,14 13,13.1 13,12 L13,10 L14,10 L14,6 L10,6 L10,6 Z" id="Shape"></path>
            </g>
        </g>
    </g>
</svg>