<?xml version="1.0" encoding="UTF-8" standalone="no"?>
<svg width="20px" height="20px" viewBox="0 0 20 20" version="1.1" xmlns="http://www.w3.org/2000/svg" xmlns:xlink="http://www.w3.org/1999/xlink" xmlns:sketch="http://www.bohemiancoding.com/sketch/ns">
    <!-- Generator: Sketch 3.0.3 (7891) - http://www.bohemiancoding.com/sketch -->
    <title>chromecast</title>
    <desc>Created with Sketch.</desc>
    <defs></defs>
    <g id="Page-1" stroke="none" stroke-width="1" fill="none" fill-rule="evenodd" sketch:type="MSPage">
        <g id="Icons-Hardware" sketch:type="MSLayerGroup" transform="translate(-86.000000, -1.000000)" fill="#000000">
            <g id="chromecast" transform="translate(86.000000, 1.000000)" sketch:type="MSShapeGroup">
                <path d="M10,0 C4.5,0 0,4.5 0,10 C0,15.5 4.5,20 10,20 C15.5,20 20,15.5 20,10 C20,4.5 15.5,0 10,0 L10,0 Z M10,2 C13,2 15.5,3.6 16.9,6 L10,6 C8.1,6 6.4,7.4 6.1,9.2 L3.7,5.1 C5.2,3.2 7.4,2 10,2 L10,2 Z M13,10 C13,11.7 11.7,13 10,13 C8.3,13 7,11.7 7,10 C7,8.3 8.3,7 10,7 C11.7,7 13,8.3 13,10 L13,10 Z M2,10 C2,8.5 2.4,7.2 3.1,6 L6.6,12 C7.3,13.2 8.6,14 10,14 C10.5,14 10.9,13.9 11.3,13.8 L8.9,17.9 C5,17.4 2,14 2,10 L2,10 Z M10,18 L13.5,12 C13.8,11.4 14.1,10.7 14.1,10 C14.1,8.8 13.6,7.7 12.7,7 L17.5,7 C17.9,7.9 18.1,8.9 18.1,10 C18,14.4 14.4,18 10,18 L10,18 Z" id="Shape"></path>
            </g>
        </g>
    </g>
</svg>