<?xml version="1.0" encoding="UTF-8" standalone="no"?>
<svg width="18px" height="21px" viewBox="0 0 18 21" version="1.1" xmlns="http://www.w3.org/2000/svg" xmlns:xlink="http://www.w3.org/1999/xlink" xmlns:sketch="http://www.bohemiancoding.com/sketch/ns">
    <!-- Generator: Sketch 3.0.3 (7891) - http://www.bohemiancoding.com/sketch -->
    <title>headset</title>
    <desc>Created with Sketch.</desc>
    <defs></defs>
    <g id="Page-1" stroke="none" stroke-width="1" fill="none" fill-rule="evenodd" sketch:type="MSPage">
        <g id="Icons-Hardware" sketch:type="MSLayerGroup" transform="translate(-255.000000, -1.000000)" fill="#000000">
            <g id="headset" transform="translate(255.000000, 1.500000)" sketch:type="MSShapeGroup">
                <path d="M9,0 C4,0 0,4 0,9 L0,16 C0,17.7 1.3,19 3,19 L6,19 L6,11 L2,11 L2,9 C2,5.1 5.1,2 9,2 C12.9,2 16,5.1 16,9 L16,11 L12,11 L12,19 L15,19 C16.7,19 18,17.7 18,16 L18,9 C18,4 14,0 9,0 L9,0 Z" id="Shape"></path>
            </g>
        </g>
    </g>
</svg>