<?xml version="1.0" encoding="UTF-8" standalone="no"?>
<svg width="18px" height="18px" viewBox="0 0 18 18" version="1.1" xmlns="http://www.w3.org/2000/svg" xmlns:xlink="http://www.w3.org/1999/xlink" xmlns:sketch="http://www.bohemiancoding.com/sketch/ns">
    <!-- Generator: Sketch 3.0.3 (7891) - http://www.bohemiancoding.com/sketch -->
    <title>nest-protect</title>
    <desc>Created with Sketch.</desc>
    <defs></defs>
    <g id="Page-1" stroke="none" stroke-width="1" fill="none" fill-rule="evenodd" sketch:type="MSPage">
        <g id="Icons-Hardware" sketch:type="MSLayerGroup" transform="translate(-129.000000, -128.000000)" fill="#000000">
            <g id="nest-protect" transform="translate(129.000000, 128.000000)" sketch:type="MSShapeGroup">
                <path d="M16,0 L2,0 C0.9,0 0,0.9 0,2 L0,16 C0,17.1 0.9,18 2,18 L16,18 C17.1,18 18,17.1 18,16 L18,2 C18,0.9 17.1,0 16,0 L16,0 Z M9,15 C5.7,15 3,12.3 3,9 C3,5.7 5.7,3 9,3 C12.3,3 15,5.7 15,9 C15,12.3 12.3,15 9,15 L9,15 Z" id="Shape"></path>
                <circle id="Oval" cx="9" cy="9" r="4"></circle>
            </g>
        </g>
    </g>
</svg>