<?xml version="1.0" encoding="UTF-8" standalone="no"?>
<svg width="16px" height="24px" viewBox="0 0 16 24" version="1.1" xmlns="http://www.w3.org/2000/svg" xmlns:xlink="http://www.w3.org/1999/xlink" xmlns:sketch="http://www.bohemiancoding.com/sketch/ns">
    <!-- Generator: Sketch 3.0.3 (7891) - http://www.bohemiancoding.com/sketch -->
    <title>watch 2</title>
    <desc>Created with Sketch.</desc>
    <defs></defs>
    <g id="Page-1" stroke="none" stroke-width="1" fill="none" fill-rule="evenodd" sketch:type="MSPage">
        <g id="Icons-Hardware" sketch:type="MSLayerGroup" transform="translate(-88.000000, -167.000000)" fill="#000000">
            <g id="watch-2" transform="translate(88.000000, 167.000000)" sketch:type="MSShapeGroup">
                <path d="M16,12 C16,9.5 14.8,7.2 13,5.7 L12,0 L4,0 L3,5.7 C1.2,7.2 0,9.5 0,12 C0,14.5 1.2,16.8 3,18.3 L4,24 L12,24 L13,18.3 C14.8,16.8 16,14.5 16,12 L16,12 Z M2,12 C2,8.7 4.7,6 8,6 C11.3,6 14,8.7 14,12 C14,15.3 11.3,18 8,18 C4.7,18 2,15.3 2,12 L2,12 Z" id="Shape"></path>
            </g>
        </g>
    </g>
</svg>