<?xml version="1.0" encoding="UTF-8" standalone="no"?>
<svg width="18px" height="20px" viewBox="0 0 18 20" version="1.1" xmlns="http://www.w3.org/2000/svg" xmlns:xlink="http://www.w3.org/1999/xlink" xmlns:sketch="http://www.bohemiancoding.com/sketch/ns">
    <!-- Generator: Sketch 3.0.3 (7891) - http://www.bohemiancoding.com/sketch -->
    <title>accessibility</title>
    <desc>Created with Sketch.</desc>
    <defs></defs>
    <g id="Page-1" stroke="none" stroke-width="1" fill="none" fill-rule="evenodd" sketch:type="MSPage">
        <g id="Core" sketch:type="MSLayerGroup" transform="translate(-3.000000, -2.000000)" fill="#000000">
            <g id="accessibility" transform="translate(3.000000, 2.000000)" sketch:type="MSShapeGroup">
                <path d="M9,0 C10.1,0 11,0.9 11,2 C11,3.1 10.1,4 9,4 C7.9,4 7,3.1 7,2 C7,0.9 7.9,0 9,0 L9,0 Z M18,7 L12,7 L12,20 L10,20 L10,14 L8,14 L8,20 L6,20 L6,7 L0,7 L0,5 L18,5 L18,7 L18,7 Z" id="Shape"></path>
            </g>
        </g>
    </g>
</svg>