<?xml version="1.0" encoding="UTF-8" standalone="no"?>
<svg width="24px" height="18px" viewBox="0 0 24 18" version="1.1" xmlns="http://www.w3.org/2000/svg" xmlns:xlink="http://www.w3.org/1999/xlink" xmlns:sketch="http://www.bohemiancoding.com/sketch/ns">
    <!-- Generator: Sketch 3.0.3 (7891) - http://www.bohemiancoding.com/sketch -->
    <title>cloud-off</title>
    <desc>Created with Sketch.</desc>
    <defs></defs>
    <g id="Page-1" stroke="none" stroke-width="1" fill="none" fill-rule="evenodd" sketch:type="MSPage">
        <g id="Core" sketch:type="MSLayerGroup" transform="translate(-546.000000, -87.000000)" fill="#000000">
            <g id="cloud-off" transform="translate(546.000000, 87.000000)" sketch:type="MSShapeGroup">
                <path d="M19.4,6 C18.7,2.6 15.7,0 12,0 C10.5,0 9.1,0.4 8,1.2 L9.5,2.7 C10.2,2.2 11.1,2 12,2 C15,2 17.5,4.5 17.5,7.5 L17.5,8 L19,8 C20.7,8 22,9.3 22,11 C22,12.1 21.4,13.1 20.4,13.6 L21.9,15.1 C23.2,14.2 24,12.7 24,11 C24,8.4 21.9,6.2 19.4,6 L19.4,6 Z M3,1.3 L5.8,4 C2.6,4.2 0,6.8 0,10 C0,13.3 2.7,16 6,16 L17.7,16 L19.7,18 L21,16.7 L4.3,0 L3,1.3 L3,1.3 Z M7.7,6 L15.7,14 L6,14 C3.8,14 2,12.2 2,10 C2,7.8 3.8,6 6,6 L7.7,6 L7.7,6 Z" id="Shape"></path>
            </g>
        </g>
    </g>
</svg>