<?xml version="1.0" encoding="UTF-8" standalone="no"?>
<svg width="20px" height="20px" viewBox="0 0 20 20" version="1.1" xmlns="http://www.w3.org/2000/svg" xmlns:xlink="http://www.w3.org/1999/xlink" xmlns:sketch="http://www.bohemiancoding.com/sketch/ns">
    <!-- Generator: Sketch 3.0.3 (7891) - http://www.bohemiancoding.com/sketch -->
    <title>cloud-circle</title>
    <desc>Created with Sketch.</desc>
    <defs></defs>
    <g id="Page-1" stroke="none" stroke-width="1" fill="none" fill-rule="evenodd" sketch:type="MSPage">
        <g id="Core" sketch:type="MSLayerGroup" transform="translate(-422.000000, -86.000000)" fill="#000000">
            <g id="cloud-circle" transform="translate(422.000000, 86.000000)" sketch:type="MSShapeGroup">
                <path d="M10,0 C4.5,0 0,4.5 0,10 C0,15.5 4.5,20 10,20 C15.5,20 20,15.5 20,10 C20,4.5 15.5,0 10,0 L10,0 Z M15,13 L6,13 L5.5,13 C4.1,13 3,11.9 3,10.5 C3,9.1 4.1,8 5.5,8 L6.1,8 C6.5,6.3 8.1,5 10,5 C12.2,5 14,6.8 14,9 L15,9 C16.1,9 17,9.9 17,11 C17,12.1 16.1,13 15,13 L15,13 Z" id="Shape"></path>
            </g>
        </g>
    </g>
</svg>