<?xml version="1.0" encoding="UTF-8" standalone="no"?>
<svg width="18px" height="18px" viewBox="0 0 18 18" version="1.1" xmlns="http://www.w3.org/2000/svg" xmlns:xlink="http://www.w3.org/1999/xlink" xmlns:sketch="http://www.bohemiancoding.com/sketch/ns">
    <!-- Generator: Sketch 3.0.3 (7891) - http://www.bohemiancoding.com/sketch -->
    <title>flip-to-back</title>
    <desc>Created with Sketch.</desc>
    <defs></defs>
    <g id="Page-1" stroke="none" stroke-width="1" fill="none" fill-rule="evenodd" sketch:type="MSPage">
        <g id="Core" sketch:type="MSLayerGroup" transform="translate(-549.000000, -213.000000)" fill="#000000">
            <g id="flip-to-back" transform="translate(549.000000, 213.000000)" sketch:type="MSShapeGroup">
                <path d="M6,4 L4,4 L4,6 L6,6 L6,4 L6,4 Z M6,8 L4,8 L4,10 L6,10 L6,8 L6,8 Z M6,0 C4.9,0 4,0.9 4,2 L6,2 L6,0 L6,0 Z M10,12 L8,12 L8,14 L10,14 L10,12 L10,12 Z M16,0 L16,2 L18,2 C18,0.9 17.1,0 16,0 L16,0 Z M10,0 L8,0 L8,2 L10,2 L10,0 L10,0 Z M6,14 L6,12 L4,12 C4,13.1 4.9,14 6,14 L6,14 Z M16,10 L18,10 L18,8 L16,8 L16,10 L16,10 Z M16,6 L18,6 L18,4 L16,4 L16,6 L16,6 Z M16,14 C17.1,14 18,13.1 18,12 L16,12 L16,14 L16,14 Z M2,4 L0,4 L0,6 L0,16 C0,17.1 0.9,18 2,18 L14,18 L14,16 L2,16 L2,4 L2,4 Z M12,2 L14,2 L14,0 L12,0 L12,2 L12,2 Z M12,14 L14,14 L14,12 L12,12 L12,14 L12,14 Z" id="Shape"></path>
            </g>
        </g>
    </g>
</svg>