<?xml version="1.0" encoding="UTF-8" standalone="no"?>
<svg width="17px" height="24px" viewBox="0 0 17 24" version="1.1" xmlns="http://www.w3.org/2000/svg" xmlns:xlink="http://www.w3.org/1999/xlink" xmlns:sketch="http://www.bohemiancoding.com/sketch/ns">
    <!-- Generator: Sketch 3.0.3 (7891) - http://www.bohemiancoding.com/sketch -->
    <title>google</title>
    <desc>Created with Sketch.</desc>
    <defs></defs>
    <g id="Page-1" stroke="none" stroke-width="1" fill="none" fill-rule="evenodd" sketch:type="MSPage">
        <g id="Core" sketch:type="MSLayerGroup" transform="translate(-340.000000, -252.000000)" fill="#000000">
            <g id="google" transform="translate(340.500000, 252.000000)" sketch:type="MSShapeGroup">
                <path d="M12.3,13.4 L11.2,12.6 C10.8,12.3 10.4,11.9 10.4,11.2 C10.4,10.5 10.9,9.9 11.4,9.6 C12.7,8.6 14,7.5 14,5.3 C14,3.2 12.7,2 12,1.4 L13.7,1.4 L14.9,0 L8.7,0 C4.3,0 2.1,2.8 2.1,5.8 C2.1,8.1 3.9,10.6 7.1,10.6 L7.9,10.6 C7.8,10.9 7.5,11.4 7.5,11.9 C7.5,12.9 7.9,13.3 8.4,13.9 C7,14 4.4,14.3 2.5,15.5 C0.7,16.6 0.2,18.1 0.2,19.2 C0.2,21.5 2.3,23.7 6.8,23.7 C12.2,23.7 14.8,20.7 14.8,17.8 C14.8,15.7 13.7,14.6 12.3,13.4 L12.3,13.4 Z M4.7,4.3 C4.7,2.1 6,1.1 7.4,1.1 C10,1.1 11.4,4.6 11.4,6.6 C11.4,9.2 9.3,9.7 8.5,9.7 C6,9.7 4.7,6.6 4.7,4.3 L4.7,4.3 Z M8.3,22.3 C5,22.3 2.9,20.8 2.9,18.6 C2.9,16.4 4.9,15.7 5.5,15.4 C6.8,15 8.5,14.9 8.8,14.9 L9.5,14.9 C11.9,16.6 12.9,17.3 12.9,18.9 C12.9,20.8 11,22.3 8.3,22.3 L8.3,22.3 Z" id="Shape"></path>
            </g>
        </g>
    </g>
</svg>