<?xml version="1.0" encoding="UTF-8" standalone="no"?>
<svg width="18px" height="18px" viewBox="0 0 18 18" version="1.1" xmlns="http://www.w3.org/2000/svg" xmlns:xlink="http://www.w3.org/1999/xlink" xmlns:sketch="http://www.bohemiancoding.com/sketch/ns">
    <!-- Generator: Sketch 3.0.3 (7891) - http://www.bohemiancoding.com/sketch -->
    <title>inbox</title>
    <desc>Created with Sketch.</desc>
    <defs></defs>
    <g id="Page-1" stroke="none" stroke-width="1" fill="none" fill-rule="evenodd" sketch:type="MSPage">
        <g id="Core" sketch:type="MSLayerGroup" transform="translate(-3.000000, -297.000000)" fill="#000000">
            <g id="inbox" transform="translate(3.000000, 297.000000)" sketch:type="MSShapeGroup">
                <path d="M16,0 L2,0 C0.9,0 0,0.9 0,2 L0,16 C0,17.1 0.9,18 2,18 L16,18 C17.1,18 18,17.1 18,16 L18,2 C18,0.9 17.1,0 16,0 L16,0 Z M16,12 L12,12 C12,13.7 10.7,15 9,15 C7.3,15 6,13.7 6,12 L2,12 L2,2 L16,2 L16,12 L16,12 Z M13,7 L11,7 L11,4 L7,4 L7,7 L5,7 L9,11 L13,7 L13,7 Z" id="Shape"></path>
            </g>
        </g>
    </g>
</svg>