<?xml version="1.0" encoding="UTF-8" standalone="no"?>
<svg width="18px" height="18px" viewBox="0 0 18 18" version="1.1" xmlns="http://www.w3.org/2000/svg" xmlns:xlink="http://www.w3.org/1999/xlink" xmlns:sketch="http://www.bohemiancoding.com/sketch/ns">
    <!-- Generator: Sketch 3.0.3 (7891) - http://www.bohemiancoding.com/sketch -->
    <title>launch</title>
    <desc>Created with Sketch.</desc>
    <defs></defs>
    <g id="Page-1" stroke="none" stroke-width="1" fill="none" fill-rule="evenodd" sketch:type="MSPage">
        <g id="Core" sketch:type="MSLayerGroup" transform="translate(-339.000000, -297.000000)" fill="#000000">
            <g id="launch" transform="translate(339.000000, 297.000000)" sketch:type="MSShapeGroup">
                <path d="M16,16 L2,16 L2,2 L9,2 L9,0 L2,0 C0.9,0 0,0.9 0,2 L0,16 C0,17.1 0.9,18 2,18 L16,18 C17.1,18 18,17.1 18,16 L18,9 L16,9 L16,16 L16,16 Z M11,0 L11,2 L14.6,2 L4.8,11.8 L6.2,13.2 L16,3.4 L16,7 L18,7 L18,0 L11,0 L11,0 Z" id="Shape"></path>
            </g>
        </g>
    </g>
</svg>