<?xml version="1.0" encoding="UTF-8" standalone="no"?>
<svg width="20px" height="18px" viewBox="0 0 20 18" version="1.1" xmlns="http://www.w3.org/2000/svg" xmlns:xlink="http://www.w3.org/1999/xlink" xmlns:sketch="http://www.bohemiancoding.com/sketch/ns">
    <!-- Generator: Sketch 3.0.3 (7891) - http://www.bohemiancoding.com/sketch -->
    <title>print</title>
    <desc>Created with Sketch.</desc>
    <defs></defs>
    <g id="Page-1" stroke="none" stroke-width="1" fill="none" fill-rule="evenodd" sketch:type="MSPage">
        <g id="Core" sketch:type="MSLayerGroup" transform="translate(-254.000000, -339.000000)" fill="#000000">
            <g id="print" transform="translate(254.000000, 339.000000)" sketch:type="MSShapeGroup">
                <path d="M17,5 L3,5 C1.3,5 0,6.3 0,8 L0,14 L4,14 L4,18 L16,18 L16,14 L20,14 L20,8 C20,6.3 18.7,5 17,5 L17,5 Z M14,16 L6,16 L6,11 L14,11 L14,16 L14,16 Z M17,9 C16.4,9 16,8.6 16,8 C16,7.4 16.4,7 17,7 C17.6,7 18,7.4 18,8 C18,8.6 17.6,9 17,9 L17,9 Z M16,0 L4,0 L4,4 L16,4 L16,0 L16,0 Z" id="Shape"></path>
            </g>
        </g>
    </g>
</svg>