<?xml version="1.0" encoding="UTF-8" standalone="no"?>
<svg width="16px" height="21px" viewBox="0 0 16 21" version="1.1" xmlns="http://www.w3.org/2000/svg" xmlns:xlink="http://www.w3.org/1999/xlink" xmlns:sketch="http://www.bohemiancoding.com/sketch/ns">
    <!-- Generator: Sketch 3.0.3 (7891) - http://www.bohemiancoding.com/sketch -->
    <title>rotate-left</title>
    <desc>Created with Sketch.</desc>
    <defs></defs>
    <g id="Page-1" stroke="none" stroke-width="1" fill="none" fill-rule="evenodd" sketch:type="MSPage">
        <g id="Core" sketch:type="MSLayerGroup" transform="translate(-172.000000, -380.000000)" fill="#000000">
            <g id="rotate-left" transform="translate(172.000000, 380.500000)" sketch:type="MSShapeGroup">
                <path d="M3.1,7.5 L1.7,6.1 C0.8,7.3 0.2,8.6 0.1,10 L2.1,10 C2.2,9.1 2.6,8.3 3.1,7.5 L3.1,7.5 Z M2.1,12 L0.1,12 C0.3,13.4 0.8,14.7 1.7,15.9 L3.1,14.5 C2.6,13.7 2.2,12.9 2.1,12 L2.1,12 Z M3.1,17.3 C4.3,18.2 5.6,18.7 7,18.9 L7,16.9 C6.1,16.8 5.3,16.4 4.5,15.9 L3.1,17.3 L3.1,17.3 Z M9,3.1 L9,0 L4.5,4.5 L9,9 L9,5.1 C11.8,5.6 14,8 14,11 C14,14 11.8,16.4 9,16.9 L9,18.9 C12.9,18.4 16,15 16,11 C16,7 12.9,3.6 9,3.1 L9,3.1 Z" id="Shape"></path>
            </g>
        </g>
    </g>
</svg>