<?xml version="1.0" encoding="UTF-8" standalone="no"?>
<svg width="16px" height="21px" viewBox="0 0 16 21" version="1.1" xmlns="http://www.w3.org/2000/svg" xmlns:xlink="http://www.w3.org/1999/xlink" xmlns:sketch="http://www.bohemiancoding.com/sketch/ns">
    <!-- Generator: Sketch 3.0.3 (7891) - http://www.bohemiancoding.com/sketch -->
    <title>rotate-right</title>
    <desc>Created with Sketch.</desc>
    <defs></defs>
    <g id="Page-1" stroke="none" stroke-width="1" fill="none" fill-rule="evenodd" sketch:type="MSPage">
        <g id="Core" sketch:type="MSLayerGroup" transform="translate(-214.000000, -380.000000)" fill="#000000">
            <g id="rotate-right" transform="translate(214.000000, 380.500000)" sketch:type="MSShapeGroup">
                <path d="M11.5,4.5 L7,0 L7,3.1 C3.1,3.6 0,6.9 0,11 C0,15.1 3.1,18.4 7,18.9 L7,16.9 C4.2,16.4 2,14 2,11 C2,8 4.2,5.6 7,5.1 L7,9 L11.5,4.5 L11.5,4.5 Z M15.9,10 C15.7,8.6 15.2,7.3 14.3,6.1 L12.9,7.5 C13.4,8.3 13.8,9.1 13.9,10 L15.9,10 L15.9,10 Z M9,16.9 L9,18.9 C10.4,18.7 11.7,18.2 12.9,17.3 L11.5,15.9 C10.7,16.4 9.9,16.8 9,16.9 L9,16.9 Z M12.9,14.5 L14.3,15.9 C15.2,14.7 15.8,13.4 15.9,12 L13.9,12 C13.8,12.9 13.4,13.7 12.9,14.5 L12.9,14.5 Z" id="Shape"></path>
            </g>
        </g>
    </g>
</svg>