<?xml version="1.0" encoding="UTF-8" standalone="no"?>
<svg width="14px" height="25px" viewBox="0 0 14 25" version="1.1" xmlns="http://www.w3.org/2000/svg" xmlns:xlink="http://www.w3.org/1999/xlink" xmlns:sketch="http://www.bohemiancoding.com/sketch/ns">
    <!-- Generator: Sketch 3.0.3 (7891) - http://www.bohemiancoding.com/sketch -->
    <title>settings-voice</title>
    <desc>Created with Sketch.</desc>
    <defs></defs>
    <g id="Page-1" stroke="none" stroke-width="1" fill="none" fill-rule="evenodd" sketch:type="MSPage">
        <g id="Core" sketch:type="MSLayerGroup" transform="translate(-131.000000, -420.000000)" fill="#000000">
            <g id="settings-voice" transform="translate(131.000000, 420.500000)" sketch:type="MSShapeGroup">
                <path d="M2,23 L4,23 L4,21 L2,21 L2,23 L2,23 Z M7,12 C8.7,12 10,10.7 10,9 L10,3 C10,1.3 8.7,0 7,0 C5.3,0 4,1.3 4,3 L4,9 C4,10.7 5.3,12 7,12 L7,12 Z M6,23 L8,23 L8,21 L6,21 L6,23 L6,23 Z M10,23 L12,23 L12,21 L10,21 L10,23 L10,23 Z M14,9 L12.3,9 C12.3,12 9.8,14.1 7,14.1 C4.2,14.1 1.7,12 1.7,9 L0,9 C0,12.4 2.7,15.2 6,15.7 L6,19 L8,19 L8,15.7 C11.3,15.2 14,12.4 14,9 L14,9 Z" id="Shape"></path>
            </g>
        </g>
    </g>
</svg>