<?xml version="1.0" encoding="UTF-8" standalone="no"?>
<svg width="12px" height="24px" viewBox="0 0 12 24" version="1.1" xmlns="http://www.w3.org/2000/svg" xmlns:xlink="http://www.w3.org/1999/xlink" xmlns:sketch="http://www.bohemiancoding.com/sketch/ns">
    <!-- Generator: Sketch 3.0.3 (7891) - http://www.bohemiancoding.com/sketch -->
    <title>settings-cell</title>
    <desc>Created with Sketch.</desc>
    <defs></defs>
    <g id="Page-1" stroke="none" stroke-width="1" fill="none" fill-rule="evenodd" sketch:type="MSPage">
        <g id="Core" sketch:type="MSLayerGroup" transform="translate(-6.000000, -420.000000)" fill="#000000">
            <g id="settings-cell" transform="translate(6.000000, 420.000000)" sketch:type="MSShapeGroup">
                <path d="M1,24 L3,24 L3,22 L1,22 L1,24 L1,24 Z M5,24 L7,24 L7,22 L5,22 L5,24 L5,24 Z M9,24 L11,24 L11,22 L9,22 L9,24 L9,24 Z M10,0 L2,0 C0.9,0 0,0.9 0,2 L0,18 C0,19.1 0.9,20 2,20 L10,20 C11.1,20 12,19.1 12,18 L12,2 C12,0.9 11.1,0 10,0 L10,0 Z M10,16 L2,16 L2,4 L10,4 L10,16 L10,16 Z" id="Shape"></path>
            </g>
        </g>
    </g>
</svg>