<?xml version="1.0" encoding="UTF-8" standalone="no"?>
<svg width="19px" height="14px" viewBox="0 0 19 14" version="1.1" xmlns="http://www.w3.org/2000/svg" xmlns:xlink="http://www.w3.org/1999/xlink" xmlns:sketch="http://www.bohemiancoding.com/sketch/ns">
    <!-- Generator: Sketch 3.0.3 (7891) - http://www.bohemiancoding.com/sketch -->
    <title>view-list</title>
    <desc>Created with Sketch.</desc>
    <defs></defs>
    <g id="Page-1" stroke="none" stroke-width="1" fill="none" fill-rule="evenodd" sketch:type="MSPage">
        <g id="Core" sketch:type="MSLayerGroup" transform="translate(-87.000000, -509.000000)" fill="#000000">
            <g id="view-list" transform="translate(87.500000, 509.000000)" sketch:type="MSShapeGroup">
                <path d="M0,9 L4,9 L4,5 L0,5 L0,9 L0,9 Z M0,14 L4,14 L4,10 L0,10 L0,14 L0,14 Z M0,4 L4,4 L4,0 L0,0 L0,4 L0,4 Z M5,9 L17,9 L17,5 L5,5 L5,9 L5,9 Z M5,14 L17,14 L17,10 L5,10 L5,14 L5,14 Z M5,0 L5,4 L17,4 L17,0 L5,0 L5,0 Z" id="Shape"></path>
            </g>
        </g>
    </g>
</svg>