<?xml version="1.0" encoding="UTF-8" standalone="no"?>
<svg width="20px" height="21px" viewBox="0 0 20 21" version="1.1" xmlns="http://www.w3.org/2000/svg" xmlns:xlink="http://www.w3.org/1999/xlink" xmlns:sketch="http://www.bohemiancoding.com/sketch/ns">
    <!-- Generator: Sketch 3.0.3 (7891) - http://www.bohemiancoding.com/sketch -->
    <title>work 2</title>
    <desc>Created with Sketch.</desc>
    <defs></defs>
    <g id="Page-1" stroke="none" stroke-width="1" fill="none" fill-rule="evenodd" sketch:type="MSPage">
        <g id="Core" sketch:type="MSLayerGroup" transform="translate(-380.000000, -506.000000)" fill="#000000">
            <g id="work-2" transform="translate(380.000000, 506.500000)" sketch:type="MSShapeGroup">
                <path d="M18,4 L14,4 L14,2 L12,0 L8,0 L6,2 L6,4 L2,4 C0.9,4 0,4.9 0,6 L0,17 C0,18.1 0.9,19 2,19 L18,19 C19.1,19 20,18.1 20,17 L20,6 C20,4.9 19.1,4 18,4 L18,4 Z M12,4 L8,4 L8,2 L12,2 L12,4 L12,4 Z" id="Shape"></path>
            </g>
        </g>
    </g>
</svg>