<?xml version="1.0" encoding="utf-8"?>
<!-- Generator: Adobe Illustrator 15.0.0, SVG Export Plug-In . SVG Version: 6.00 Build 0)  -->
<!DOCTYPE svg PUBLIC "-//W3C//DTD SVG 1.1//EN" "http://www.w3.org/Graphics/SVG/1.1/DTD/svg11.dtd">
<svg version="1.1" id="Layer_1" xmlns="http://www.w3.org/2000/svg" xmlns:xlink="http://www.w3.org/1999/xlink" x="0px" y="0px"
	 width="223.296px" height="64.161px" viewBox="-122.204 2.41 223.296 64.161"
	 enable-background="new -122.204 2.41 223.296 64.161" xml:space="preserve">
<g id="windmill">
	<g id="base">
		<path fill="#444444" d="M-96.487,66.245h-16.453l4.651-38.359c1.583,0.557,5.392-1.147,6.803,0L-96.487,66.245z M-102.806,30.911
			c-0.862-0.799-3.343,0.346-4.2,0.07l-2.499,35.265h9.388L-102.806,30.911z"/>
		<polygon fill="#444444" points="-110.578,66.245 -111.968,66.245 -110.214,50.83 -109.188,50.83 		"/>
		<polygon fill="#444444" points="-98.931,66.245 -97.54,66.245 -99.295,50.83 -100.321,50.83 		"/>
		<path fill="#444444" d="M-95.924,38.522c-1.615-0.175-17.243,0.66-18.227,0c-0.237-0.157-0.296-1.062,0-0.996
			c1.669,0.369,17.663-0.848,18.227,0C-95.777,37.746-95.619,38.558-95.924,38.522z"/>
		<path fill="#444444" d="M-93.271,50.83c-1.669-0.246-21.907,1.076-23.361,0c-0.228-0.169-0.304-1.035,0-0.998
			c1.583,0.196,22.034-0.986,23.361,0C-93.045,50.001-92.969,50.874-93.271,50.83z"/>
	</g>
	<path fill="#444444" d="M-109.156,16.423c0.162-0.089-6.578-9.399-6.981-10.573c-0.65,1.526-5.25,7.135-6.439,9.247l11.36,5.3
		C-111.056,18.928-109.602,16.671-109.156,16.423z"/>
	<path fill="#444444" d="M-111.216,21.674c-0.099-0.104-10.094,6.269-11.031,7.035c1.726-0.002,6.391,6.924,8.303,7.159
		c1.727-2.712,4.575-10.079,4.575-10.079C-110.118,25.203-111.337,22.723-111.216,21.674z"/>
	<path fill="#444444" d="M-98.803,20.254l12.076-5.617c-1.188-2.113-6.433-7.286-7.084-8.812
		c-0.404,1.174-7.144,10.484-6.982,10.573C-100.347,16.644-98.964,18.785-98.803,20.254z"/>
	<path fill="#444444" d="M-100.637,25.883c0,0,2.906,7.245,4.631,9.958c1.913-0.236,7.221-7.598,8.95-7.596
		c-0.938-0.765-11.579-6.831-11.677-6.728C-98.612,22.569-99.89,25.299-100.637,25.883z"/>
	<path fill="#444444" d="M-102.72,15.189c0,0,2.695-9.272,3.167-12.486c-1.606-1.183-9.773,1.598-10.798,0.632
		c0.2,1.222,3.114,11.814,3.254,11.804C-106.549,14.85-104,14.492-102.72,15.189z"/>
	<path fill="#444444" d="M-99.539,15.991"/>
	<g id="Circles">
		<ellipse fill="#444444" cx="-104.975" cy="21.229" rx="5.712" ry="5.925"/>
	</g>
</g>
<g id="Text">
	<g id="Kimill_Text">
		<g>
			<path fill="#444444" d="M-75.087,2.41v21.388v1.044h0.343l0.421-1.044l7.668-21.388h8.942l-8.432,21.125l9.541,43.037h-8.943
				l-6.389-27.936l-0.26-1.311h-0.256l-0.511,1.311l-2.13,5.235v22.697h-9.202c0-20.078,0-64.166,0-64.166L-75.087,2.41z"/>
			<path fill="#444444" d="M-52.339,2.41h9.201v64.162h-9.201V2.41z"/>
			<path fill="#444444" d="M-26.612,33.136l-0.766-2.966h-0.51v2.966v33.437h-8.437V2.411h8.179l8.948,33.433l0.765,2.967h0.513
				v-2.967V2.41h8.435v64.162h-8.181L-26.612,33.136z"/>
			<path fill="#444444" d="M12.573,66.571l-5.878-40.33l-0.341-2.708h-0.51v2.708v40.33h-8.521V2.41H8.572l5.453,29.329l0.423,3.404
				h0.171l0.427-3.404L20.499,2.41h11.245v64.162h-8.521v-40.33v-2.709h-0.511l-0.337,2.709l-5.878,40.33H12.573L12.573,66.571z"/>
			<path fill="#444444" d="M38.553,2.41h9.207v64.162h-9.207V2.41z"/>
			<path fill="#444444" d="M54.57,2.41h9.205v55.429h12.184v8.732H54.57V2.41L54.57,2.41z"/>
			<path fill="#444444" d="M79.704,2.41h9.201v55.429h12.188v8.732H79.707V2.41H79.704z"/>
		</g>
	</g>
</g>
</svg>
