<?xml version="1.0" encoding="utf-8"?>
<!-- Generator: Adobe Illustrator 15.0.0, SVG Export Plug-In . SVG Version: 6.00 Build 0)  -->
<!DOCTYPE svg PUBLIC "-//W3C//DTD SVG 1.1//EN" "http://www.w3.org/Graphics/SVG/1.1/DTD/svg11.dtd">
<svg version="1.1" id="Layer_1" xmlns="http://www.w3.org/2000/svg" xmlns:xlink="http://www.w3.org/1999/xlink" x="0px" y="0px"
	 width="113.747px" height="64.423px" viewBox="-141.747 2.405 113.747 64.423"
	 enable-background="new -141.747 2.405 113.747 64.423" xml:space="preserve">
<g id="windmill">
	<g id="base">
		<path fill="#444444" d="M-115.987,66.246h-16.453l4.651-38.36c1.583,0.557,5.392-1.146,6.803,0L-115.987,66.246z M-122.306,30.911
			c-0.862-0.799-3.343,0.346-4.2,0.07l-2.499,35.267h9.388L-122.306,30.911z"/>
		<polygon fill="#444444" points="-130.078,66.246 -131.468,66.246 -129.714,50.832 -128.688,50.832 		"/>
		<polygon fill="#444444" points="-118.431,66.246 -117.04,66.246 -118.795,50.832 -119.821,50.832 		"/>
		<path fill="#444444" d="M-115.424,38.522c-1.615-0.175-17.243,0.66-18.227,0c-0.237-0.155-0.296-1.062,0-0.996
			c1.669,0.369,17.663-0.849,18.227,0C-115.277,37.748-115.119,38.558-115.424,38.522z"/>
		<path fill="#444444" d="M-112.771,50.832c-1.669-0.246-21.907,1.076-23.361,0c-0.228-0.17-0.304-1.035,0-0.998
			c1.583,0.194,22.034-0.986,23.361,0C-112.545,50-112.469,50.875-112.771,50.832z"/>
	</g>
	<path fill="#444444" d="M-128.656,16.423c0.162-0.089-6.578-9.399-6.981-10.573c-0.65,1.526-5.25,7.135-6.439,9.247l11.36,5.3
		C-130.556,18.928-129.102,16.671-128.656,16.423z"/>
	<path fill="#444444" d="M-130.716,21.674c-0.099-0.104-10.094,6.269-11.031,7.035c1.726-0.002,6.391,6.923,8.303,7.16
		c1.727-2.711,4.575-10.08,4.575-10.08C-129.618,25.203-130.837,22.723-130.716,21.674z"/>
	<path fill="#444444" d="M-118.303,20.254l12.076-5.617c-1.188-2.113-6.433-7.286-7.084-8.812
		c-0.404,1.174-7.144,10.484-6.982,10.573C-119.847,16.644-118.464,18.785-118.303,20.254z"/>
	<path fill="#444444" d="M-120.137,25.883c0,0,2.906,7.246,4.631,9.958c1.913-0.235,7.221-7.597,8.95-7.595
		c-0.938-0.765-11.579-6.831-11.677-6.728C-118.112,22.569-119.39,25.299-120.137,25.883z"/>
	<path fill="#444444" d="M-122.22,15.189c0,0,2.695-9.272,3.167-12.486c-1.606-1.183-9.773,1.598-10.798,0.632
		c0.2,1.222,3.114,11.814,3.254,11.804C-126.049,14.85-123.5,14.492-122.22,15.189z"/>
	<path fill="#444444" d="M-119.039,15.991"/>
	<g id="Circles">
		<ellipse fill="#444444" cx="-124.475" cy="21.229" rx="5.712" ry="5.925"/>
	</g>
</g>
<text transform="matrix(0.8214 0 0 1 -106.5562 66.8276)" fill="#444444" font-family="'LeagueGothic'" font-size="87.6577">NPB</text>
</svg>
