<?xml version="1.0" encoding="utf-8"?>
<!-- Generator: Adobe Illustrator 15.0.0, SVG Export Plug-In . SVG Version: 6.00 Build 0)  -->
<!DOCTYPE svg PUBLIC "-//W3C//DTD SVG 1.1//EN" "http://www.w3.org/Graphics/SVG/1.1/DTD/svg11.dtd">
<svg version="1.1" id="Layer_1" xmlns="http://www.w3.org/2000/svg" xmlns:xlink="http://www.w3.org/1999/xlink" x="0px" y="0px"
	 width="67px" height="80.181px" viewBox="-103.5 2.405 67 80.181" enable-background="new -103.5 2.405 67 80.181"
	 xml:space="preserve">
<g enable-background="new    ">
	<path fill="#444444" d="M-89.958,18.877c3.888,0,4.932,4.733,4.932,8.678v39.272h-7.272V28.87c0-1.841-0.864-2.104-1.728-2.104
		c-1.44,0-2.376,2.279-2.376,2.279c0,27.175,0,27.788,0,37.782h-7.272V18.876h7.272"/>
	<path fill="#444444" d="M-66.208,18.877c3.96,0,5.446,4.733,5.446,8.678v30.594c0,3.944-1.611,8.679-5.571,8.679
		c-2.665,0-5.806,0-5.806,0v16.48h-7.272V18.876h7.272 M-72.139,56.308c0,1.402,1.08,2.893,2.16,2.893s1.944-1.227,1.944-2.893
		V29.396c0-1.666-0.864-2.893-1.944-2.893c-1.008,0-2.16,1.227-2.16,2.893C-72.139,40.266-72.139,47.103-72.139,56.308z"/>
	<path fill="#444444" d="M-48.019,66.828h-7.272V2.396h7.272v16.48c0,0,3.229,0.021,5.894,0.021c3.96,0,5.483,4.712,5.483,8.657
		v30.594c0,3.944-0.898,8.679-4.858,8.679 M-45.859,59.201c1.08,0,1.944-1.227,1.944-2.893V29.396c0-1.666-0.864-2.893-1.944-2.893
		s-2.16,1.49-2.16,2.893c0,9.205,0,16.042,0,26.912C-48.019,57.974-46.867,59.201-45.859,59.201z"/>
</g>
</svg>
