<?xml version="1.0" encoding="UTF-8" standalone="no"?>
<svg width="20px" height="20px" viewBox="0 0 20 20" version="1.1" xmlns="http://www.w3.org/2000/svg" xmlns:xlink="http://www.w3.org/1999/xlink" xmlns:sketch="http://www.bohemiancoding.com/sketch/ns">
    <!-- Generator: Sketch 3.0.3 (7891) - http://www.bohemiancoding.com/sketch -->
    <title>chat</title>
    <desc>Created with Sketch.</desc>
    <defs></defs>
    <g id="Page-1" stroke="none" stroke-width="1" fill="none" fill-rule="evenodd" sketch:type="MSPage">
        <g id="Icons-Communication" sketch:type="MSLayerGroup" transform="translate(-42.000000, -41.000000)" fill="#000000">
            <g id="chat" transform="translate(42.000000, 41.000000)" sketch:type="MSShapeGroup">
                <path d="M18,0 L2,0 C0.9,0 0,0.9 0,2 L0,20 L4,16 L18,16 C19.1,16 20,15.1 20,14 L20,2 C20,0.9 19.1,0 18,0 L18,0 Z M4,7 L16,7 L16,9 L4,9 L4,7 L4,7 Z M12,12 L4,12 L4,10 L12,10 L12,12 L12,12 Z M16,6 L4,6 L4,4 L16,4 L16,6 L16,6 Z" id="Shape"></path>
            </g>
        </g>
    </g>
</svg>