<?xml version="1.0" encoding="UTF-8" standalone="no"?>
<svg width="19px" height="22px" viewBox="0 0 19 22" version="1.1" xmlns="http://www.w3.org/2000/svg" xmlns:xlink="http://www.w3.org/1999/xlink" xmlns:sketch="http://www.bohemiancoding.com/sketch/ns">
    <!-- Generator: Sketch 3.0.3 (7891) - http://www.bohemiancoding.com/sketch -->
    <title>hangout</title>
    <desc>Created with Sketch.</desc>
    <defs></defs>
    <g id="Page-1" stroke="none" stroke-width="1" fill="none" fill-rule="evenodd" sketch:type="MSPage">
        <g id="Icons-Communication" sketch:type="MSLayerGroup" transform="translate(-43.000000, -82.000000)" fill="#000000">
            <g id="hangout" transform="translate(43.500000, 82.500000)" sketch:type="MSShapeGroup">
                <path d="M8.5,0 C3.8,0 0,3.8 0,8.5 C0,13.2 3.8,17 8.5,17 L9,17 L9,20.5 C13.9,18.2 17,13 17,8.5 C17,3.8 13.2,0 8.5,0 L8.5,0 Z M8,9 L7,11 L5.5,11 L6.5,9 L5,9 L5,6 L8,6 L8,9 L8,9 Z M12,9 L11,11 L9.5,11 L10.5,9 L9,9 L9,6 L12,6 L12,9 L12,9 Z" id="Shape"></path>
            </g>
        </g>
    </g>
</svg>