<?xml version="1.0" encoding="utf-8"?>
<!-- Generator: Adobe Illustrator 15.0.0, SVG Export Plug-In . SVG Version: 6.00 Build 0)  -->
<!DOCTYPE svg PUBLIC "-//W3C//DTD SVG 1.1//EN" "http://www.w3.org/Graphics/SVG/1.1/DTD/svg11.dtd">
<svg version="1.1" id="Layer_1" xmlns="http://www.w3.org/2000/svg" xmlns:xlink="http://www.w3.org/1999/xlink" x="0px" y="0px"
	 width="600px" height="600px" viewBox="0 0 600 600" enable-background="new 0 0 600 600" xml:space="preserve">
<g>
	<path fill-rule="evenodd" clip-rule="evenodd" d="M243.788,161.903c5.402,6.335,9.065,14.409,14.725,20.487
		c-0.415-6.391,0.558-11.393,0.64-17.286c6.383-4.307,24.585-3.273,32.011-0.64c2.188,19.988,2.031,48.49,0,68.503
		c-9.743-0.126-20.83,2.72-28.17,0c-8.356-3.097-9.324-14.948-16.005-19.207c-0.24,6.375,0.592,13.823-0.64,19.207
		c-10.546,0.25-24.782,3.634-32.011-1.92c-0.699-22.018-1.879-46.297-0.64-66.583C220.907,160.99,234.932,161.683,243.788,161.903z"
		/>
	<path fill-rule="evenodd" clip-rule="evenodd" d="M54.924,163.824c3.663,9.355,4.824,21.212,7.042,32.011
		c3.935-9.51,4.479-22.41,7.683-32.651c9.489-0.571,22.034-1.4,31.37,0c1.873,11.761-2.407,23.654-5.122,35.212
		c-2.726,11.608-5.389,23.389-8.323,34.571c-17.088,0.754-39.625,1.724-55.698-0.64c-3.618-9.513-4.732-20.943-7.683-33.291
		c-2.702-11.311-9.601-28.058-5.122-36.492C31.065,162.928,44.844,161.527,54.924,163.824z"/>
	<path fill-rule="evenodd" clip-rule="evenodd" d="M184.888,163.824c4.573,22.969,13.331,45.125,14.085,69.783
		c-10.112-0.344-21.653,0.74-30.73-0.64c-1.963-2.731-2.783-6.606-3.201-10.883c-1.733-0.939-5.558,0.58-8.963,0
		c-1.366,3.542-1.633,8.184-3.202,11.523c-12.262-0.755-27.607,1.572-37.772-1.28c1.731-23.697,9.17-47.144,14.725-69.143
		C146.933,163.01,169.287,161.266,184.888,163.824z M157.999,205.438c2.221,0.514,2.461-0.954,4.481-0.64
		c-0.608-4.513-0.732-9.511-2.561-12.804C159.578,196.773,158.186,200.503,157.999,205.438z"/>
	<path fill-rule="evenodd" clip-rule="evenodd" d="M344.301,164.464c4.102,19.559,1.447,48.173,0,68.503
		c-10.484,1.063-25.367,1.063-35.852,0c-3.941-8.961-3.137-22.386-2.561-34.571c0.57-12.073,0.395-24.514,1.28-35.212
		C320.25,164.323,334.385,160.723,344.301,164.464z"/>
	<path fill-rule="evenodd" clip-rule="evenodd" d="M362.867,162.543c10.631,0.893,25.063-2.016,32.651,1.92
		c2.178,11.372,0.884,27.501,1.28,42.254c6.018,0.385,13.602-0.797,18.566,0.64c3.491,5.085,1.879,18.554,1.28,25.608
		c-17.028,0.315-41.401,2.614-56.339-1.28c-0.695-20.766-1.84-47.503,0.641-67.223C361.306,163.542,361.946,162.902,362.867,162.543
		z"/>
	<path fill-rule="evenodd" clip-rule="evenodd" d="M430.73,162.543c10.591,0.934,25.119-2.072,32.651,1.92
		c2.713,12.012,1.633,27.817,1.92,42.254c6.085,0.318,13.508-0.704,18.566,0.64c2.881,5.481,2.689,19.277,0.641,25.608
		c-16.972,0.681-39.777,1.844-55.699-0.64c-1.997-19.813-2.534-48.982,0.64-67.863C429.422,163.369,429.926,162.806,430.73,162.543z
		"/>
	<path fill-rule="evenodd" clip-rule="evenodd" d="M565.815,163.824c4.572,22.969,13.331,45.125,14.085,69.783
		c-10.113-0.344-21.653,0.74-30.73-0.64c-1.964-2.731-2.782-6.606-3.201-10.883c-1.732-0.939-5.557,0.58-8.963,0
		c-1.365,3.542-1.633,8.184-3.201,11.523c-12.262-0.755-27.607,1.572-37.772-1.28c1.731-23.697,9.171-47.144,14.725-69.143
		C527.86,163.01,550.214,161.266,565.815,163.824z M538.927,205.438c2.221,0.514,2.46-0.954,4.481-0.64
		c-0.608-4.513-0.733-9.511-2.561-12.804C540.505,196.773,539.113,200.503,538.927,205.438z"/>
	<path fill-rule="evenodd" clip-rule="evenodd" fill="#FFFFFF" d="M159.919,191.993c1.829,3.293,1.953,8.291,2.561,12.804
		c-2.02-0.313-2.261,1.154-4.481,0.64C158.186,200.503,159.578,196.773,159.919,191.993z"/>
	<path fill-rule="evenodd" clip-rule="evenodd" fill="#FFFFFF" d="M540.848,191.993c1.827,3.293,1.952,8.291,2.561,12.804
		c-2.021-0.313-2.261,1.154-4.481,0.64C539.113,200.503,540.505,196.773,540.848,191.993z"/>
	<path fill-rule="evenodd" clip-rule="evenodd" d="M133.671,280.343c0.553,11.642,5.464,29.534-3.201,35.852
		c-12.283-1.93-28.38-3.091-40.334,0c8.037,8.464,21.053,9.211,30.09,16.006c6.675,5.018,15.346,14.904,15.365,26.248
		c0.085,49.965-74.767,58.027-112.038,34.572c-1.585-11.254-9.801-29.202-2.561-39.054c10.007,3.54,23.202,11.407,41.614,7.683
		c-19.733-11.566-44.737-18.604-40.974-52.498c2.911-26.219,28.804-34.858,56.979-36.492
		C97.739,271.551,118.69,274.141,133.671,280.343z"/>
	<path fill-rule="evenodd" clip-rule="evenodd" d="M555.572,336.042c11.097,9.459,26.633,14.499,21.127,33.931
		c-5.449,19.232-34.539,30.156-61.461,33.932c-23.345,3.273-62.326,4.715-69.143-9.604c-3.136-6.586-0.571-20.701-0.641-30.09
		c-0.156-21.474-1.921-38.775-1.921-62.101c0-10.409-0.427-23.62,4.482-26.889c3.19-2.125,28.623-2.68,35.852-3.201
		c24.233-1.747,71.816,5.724,83.229,17.925C578.921,302.588,575.998,331.641,555.572,336.042z M511.397,315.555
		c5.922-1.547,10.969-3.969,15.365-7.043C520.055,307.557,509.439,305.965,511.397,315.555z M508.196,366.771
		c6.789-3.027,13.966-5.667,19.847-9.603c-5.872-0.957-13.074-0.585-19.847-0.641C508.196,359.942,508.196,363.357,508.196,366.771z
		"/>
	<path fill-rule="evenodd" clip-rule="evenodd" d="M222.021,353.327c10.143,4.19,26.373-4.292,33.291,2.562
		c6.568,6.506-0.451,33.256,1.28,42.895c-13.296,4.328-32.967,2.561-51.217,2.561c-8.797,0-18.578,0-26.889,0
		c-8.39,0-17.178,1.324-21.767-4.48c-0.586-26.16-1.376-61.459-0.64-92.191c0.211-8.812-0.344-24.121,4.481-26.89
		c6.884-2.262,19.596-1.281,31.371-1.281c8.395,0,20.91-1.906,26.249,2.561c4.684,3.918,2.577,13.442,2.561,19.207
		C220.697,313.303,222.792,334.887,222.021,353.327z"/>
	<path fill-rule="evenodd" clip-rule="evenodd" d="M395.519,277.782c7.655,18.423,10.215,40.202,15.365,60.819
		c2.521,10.092,5.46,20.383,7.683,30.732c2.166,10.082,5.729,21.232,2.561,31.369c-17.082,1.252-38.077,0.973-54.418-0.641
		c-2.699-5.41-4.244-11.975-5.122-19.205c-3.921-1.414-10.397-0.273-15.365-0.641c-2.619,6.129-2.981,14.516-5.762,20.486
		c-18.927-0.443-45.246,2.539-64.662-0.641c-5.033-9.559-0.317-20.924,1.921-30.729c6.778-29.698,13.822-61.935,21.767-90.912
		C325.317,275.668,369.4,276.028,395.519,277.782z M348.783,351.407c2.988,0,5.975,0,8.963,0
		c-1.414-7.978-2.031-16.749-4.482-23.688C351.203,335.047,350.686,343.92,348.783,351.407z"/>
	<path fill-rule="evenodd" clip-rule="evenodd" fill="#FFFFFF" d="M526.763,308.512c-4.396,3.074-9.443,5.496-15.365,7.043
		C509.439,305.965,520.055,307.557,526.763,308.512z"/>
	<path fill-rule="evenodd" clip-rule="evenodd" fill="#FFFFFF" d="M353.264,327.719c2.451,6.939,3.068,15.711,4.482,23.688
		c-2.988,0-5.975,0-8.963,0C350.686,343.92,351.203,335.047,353.264,327.719z"/>
	<path fill-rule="evenodd" clip-rule="evenodd" fill="#FFFFFF" d="M508.196,356.528c6.772,0.056,13.975-0.316,19.847,0.641
		c-5.881,3.936-13.058,6.575-19.847,9.603C508.196,363.357,508.196,359.942,508.196,356.528z"/>
</g>
</svg>
