<?xml version="1.0" encoding="UTF-8" standalone="no"?>
<svg width="23px" height="23px" viewBox="0 0 23 23" version="1.1" xmlns="http://www.w3.org/2000/svg" xmlns:xlink="http://www.w3.org/1999/xlink" xmlns:sketch="http://www.bohemiancoding.com/sketch/ns">
    <!-- Generator: Sketch 3.0.3 (7891) - http://www.bohemiancoding.com/sketch -->
    <title>auto-fix</title>
    <desc>Created with Sketch.</desc>
    <defs></defs>
    <g id="Page-1" stroke="none" stroke-width="1" fill="none" fill-rule="evenodd" sketch:type="MSPage">
        <g id="Icons-Images" sketch:type="MSLayerGroup" transform="translate(1.000000, 0.000000)" fill="#000000">
            <g id="auto-fix" transform="translate(-0.500000, 0.500000)" sketch:type="MSShapeGroup">
                <path d="M6.5,3.6 L9,5 L7.6,2.5 L9,0 L6.5,1.4 L4,0 L5.4,2.5 L4,5 L6.5,3.6 Z" id="Shape"></path>
                <path d="M18.5,13.4 L16,12 L17.4,14.5 L16,17 L18.5,15.6 L21,17 L19.6,14.5 L21,12 L18.5,13.4 Z" id="Shape"></path>
                <path d="M21,0 L18.5,1.4 L16,0 L17.4,2.5 L16,5 L18.5,3.6 L21,5 L19.6,2.5 L21,0 Z" id="Shape"></path>
                <path d="M13.4,5.3 C13,4.9 12.4,4.9 12,5.3 L0.3,17 C-0.1,17.4 -0.1,18 0.3,18.4 L2.6,20.7 C3,21.1 3.6,21.1 4,20.7 L15.7,9 C16.1,8.6 16.1,8 15.7,7.6 L13.4,5.3 L13.4,5.3 Z M12.3,10.8 L10.2,8.7 L12.6,6.3 L14.7,8.4 L12.3,10.8 L12.3,10.8 Z" id="Shape"></path>
            </g>
        </g>
    </g>
</svg>