<?xml version="1.0" encoding="UTF-8" standalone="no"?>
<svg width="20px" height="18px" viewBox="0 0 20 18" version="1.1" xmlns="http://www.w3.org/2000/svg" xmlns:xlink="http://www.w3.org/1999/xlink" xmlns:sketch="http://www.bohemiancoding.com/sketch/ns">
    <!-- Generator: Sketch 3.0.3 (7891) - http://www.bohemiancoding.com/sketch -->
    <title>camera-alt</title>
    <desc>Created with Sketch.</desc>
    <defs></defs>
    <g id="Page-1" stroke="none" stroke-width="1" fill="none" fill-rule="evenodd" sketch:type="MSPage">
        <g id="Icons-Images" sketch:type="MSLayerGroup" transform="translate(-84.000000, -2.000000)" fill="#000000">
            <g id="camera-alt" transform="translate(84.000000, 2.000000)" sketch:type="MSShapeGroup">
                <circle id="Oval" cx="10.2" cy="10.2" r="3.2"></circle>
                <path d="M7,0 L5.2,2 L2,2 C0.9,2 0,2.9 0,4 L0,16 C0,17.1 0.9,18 2,18 L18,18 C19.1,18 20,17.1 20,16 L20,4 C20,2.9 19.1,2 18,2 L14.8,2 L13,0 L7,0 L7,0 Z M10,15 C7.2,15 5,12.8 5,10 C5,7.2 7.2,5 10,5 C12.8,5 15,7.2 15,10 C15,12.8 12.8,15 10,15 L10,15 Z" id="Shape"></path>
            </g>
        </g>
    </g>
</svg>