<?xml version="1.0" encoding="UTF-8" standalone="no"?>
<svg width="18px" height="18px" viewBox="0 0 18 18" version="1.1" xmlns="http://www.w3.org/2000/svg" xmlns:xlink="http://www.w3.org/1999/xlink" xmlns:sketch="http://www.bohemiancoding.com/sketch/ns">
    <!-- Generator: Sketch 3.0.3 (7891) - http://www.bohemiancoding.com/sketch -->
    <title>crop-free</title>
    <desc>Created with Sketch.</desc>
    <defs></defs>
    <g id="Page-1" stroke="none" stroke-width="1" fill="none" fill-rule="evenodd" sketch:type="MSPage">
        <g id="Icons-Images" sketch:type="MSLayerGroup" transform="translate(-211.000000, -2.000000)" fill="#000000">
            <g id="crop-free" transform="translate(211.000000, 2.000000)" sketch:type="MSShapeGroup">
                <path d="M0,2 L0,6 L2,6 L2,2 L6,2 L6,0 L2,0 C0.9,0 0,0.9 0,2 L0,2 Z M2,12 L0,12 L0,16 C0,17.1 0.9,18 2,18 L6,18 L6,16 L2,16 L2,12 L2,12 Z M16,16 L12,16 L12,18 L16,18 C17.1,18 18,17.1 18,16 L18,12 L16,12 L16,16 L16,16 Z M16,0 L12,0 L12,2 L16,2 L16,6 L18,6 L18,2 C18,0.9 17.1,0 16,0 L16,0 Z" id="Shape"></path>
            </g>
        </g>
    </g>
</svg>