<?xml version="1.0" encoding="UTF-8" standalone="no"?>
<svg width="18px" height="18px" viewBox="0 0 18 18" version="1.1" xmlns="http://www.w3.org/2000/svg" xmlns:xlink="http://www.w3.org/1999/xlink" xmlns:sketch="http://www.bohemiancoding.com/sketch/ns">
    <!-- Generator: Sketch 3.0.3 (7891) - http://www.bohemiancoding.com/sketch -->
    <title>palette</title>
    <desc>Created with Sketch.</desc>
    <defs></defs>
    <g id="Page-1" stroke="none" stroke-width="1" fill="none" fill-rule="evenodd" sketch:type="MSPage">
        <g id="Icons-Images" sketch:type="MSLayerGroup" transform="translate(-1.000000, -86.000000)" fill="#000000">
            <g id="palette" transform="translate(1.000000, 86.000000)" sketch:type="MSShapeGroup">
                <path d="M9,0 C4,0 0,4 0,9 C0,14 4,18 9,18 C9.8,18 10.5,17.3 10.5,16.5 C10.5,16.1 10.4,15.8 10.1,15.5 C9.9,15.2 9.7,14.9 9.7,14.5 C9.7,13.7 10.4,13 11.2,13 L13,13 C15.8,13 18,10.8 18,8 C18,3.6 14,0 9,0 L9,0 Z M3.5,9 C2.7,9 2,8.3 2,7.5 C2,6.7 2.7,6 3.5,6 C4.3,6 5,6.7 5,7.5 C5,8.3 4.3,9 3.5,9 L3.5,9 Z M6.5,5 C5.7,5 5,4.3 5,3.5 C5,2.7 5.7,2 6.5,2 C7.3,2 8,2.7 8,3.5 C8,4.3 7.3,5 6.5,5 L6.5,5 Z M11.5,5 C10.7,5 10,4.3 10,3.5 C10,2.7 10.7,2 11.5,2 C12.3,2 13,2.7 13,3.5 C13,4.3 12.3,5 11.5,5 L11.5,5 Z M14.5,9 C13.7,9 13,8.3 13,7.5 C13,6.7 13.7,6 14.5,6 C15.3,6 16,6.7 16,7.5 C16,8.3 15.3,9 14.5,9 L14.5,9 Z" id="Shape"></path>
            </g>
        </g>
    </g>
</svg>