<?xml version="1.0" encoding="UTF-8" standalone="no"?>
<svg width="16px" height="20px" viewBox="0 0 16 20" version="1.1" xmlns="http://www.w3.org/2000/svg" xmlns:xlink="http://www.w3.org/1999/xlink" xmlns:sketch="http://www.bohemiancoding.com/sketch/ns">
    <!-- Generator: Sketch 3.0.3 (7891) - http://www.bohemiancoding.com/sketch -->
    <title>photo-album</title>
    <desc>Created with Sketch.</desc>
    <defs></defs>
    <g id="Page-1" stroke="none" stroke-width="1" fill="none" fill-rule="evenodd" sketch:type="MSPage">
        <g id="Icons-Images" sketch:type="MSLayerGroup" transform="translate(-128.000000, -85.000000)" fill="#000000">
            <g id="photo-album" transform="translate(128.000000, 85.000000)" sketch:type="MSShapeGroup">
                <path d="M14,0 L8,0 L8,7 L5.5,5.5 L3,7 L3,0 L2,0 C0.9,0 0,0.9 0,2 L0,18 C0,19.1 0.9,20 2,20 L14,20 C15.1,20 16,19.1 16,18 L16,2 C16,0.9 15.1,0 14,0 L14,0 Z M2,17 L5,13.1 L7.1,15.7 L10.1,11.8 L14,17 L2,17 L2,17 Z" id="Shape"></path>
            </g>
        </g>
    </g>
</svg>