<?xml version="1.0" encoding="UTF-8" standalone="no"?>
<svg width="18px" height="18px" viewBox="0 0 18 18" version="1.1" xmlns="http://www.w3.org/2000/svg" xmlns:xlink="http://www.w3.org/1999/xlink" xmlns:sketch="http://www.bohemiancoding.com/sketch/ns">
    <!-- Generator: Sketch 3.0.3 (7891) - http://www.bohemiancoding.com/sketch -->
    <title>portrait</title>
    <desc>Created with Sketch.</desc>
    <defs></defs>
    <g id="Page-1" stroke="none" stroke-width="1" fill="none" fill-rule="evenodd" sketch:type="MSPage">
        <g id="Icons-Images" sketch:type="MSLayerGroup" transform="translate(-211.000000, -86.000000)" fill="#000000">
            <g id="portrait" transform="translate(211.000000, 86.000000)" sketch:type="MSShapeGroup">
                <path d="M9,9.2 C10.2,9.2 11.2,8.2 11.2,7 C11.2,5.8 10.2,4.8 9,4.8 C7.8,4.8 6.8,5.8 6.8,7 C6.8,8.2 7.8,9.2 9,9.2 L9,9.2 Z M13.5,13.2 C13.5,11.7 10.5,11 9,11 C7.5,11 4.5,11.8 4.5,13.2 L4.5,14 L13.5,14 L13.5,13.2 L13.5,13.2 Z M16,0 L2,0 C0.9,0 0,0.9 0,2 L0,16 C0,17.1 0.9,18 2,18 L16,18 C17.1,18 18,17.1 18,16 L18,2 C18,0.9 17.1,0 16,0 L16,0 Z M16,16 L2,16 L2,2 L16,2 L16,16 L16,16 Z" id="Shape"></path>
            </g>
        </g>
    </g>
</svg>