<?xml version="1.0" encoding="UTF-8" standalone="no"?>
<svg width="20px" height="16px" viewBox="0 0 20 16" version="1.1" xmlns="http://www.w3.org/2000/svg" xmlns:xlink="http://www.w3.org/1999/xlink" xmlns:sketch="http://www.bohemiancoding.com/sketch/ns">
    <!-- Generator: Sketch 3.0.3 (7891) - http://www.bohemiancoding.com/sketch -->
    <title>unknown-6</title>
    <desc>Created with Sketch.</desc>
    <defs></defs>
    <g id="Page-1" stroke="none" stroke-width="1" fill="none" fill-rule="evenodd" sketch:type="MSPage">
        <g id="Icons-Images" sketch:type="MSLayerGroup" transform="translate(-84.000000, -171.000000)" fill="#000000">
            <g id="unknown-6" transform="translate(84.000000, 171.000000)" sketch:type="MSShapeGroup">
                <path d="M14,6 L12,6 L12,8 L14,8 L14,6 L14,6 Z M14,10 L12,10 L12,12 L14,12 L14,10 L14,10 Z M6,6 L4,6 L4,8 L6,8 L6,6 L6,6 Z M10,6 L8,6 L8,8 L10,8 L10,6 L10,6 Z M18,0 L2,0 C0.9,0 0,0.9 0,2 L0,14 C0,15.1 0.9,16 2,16 L18,16 C19.1,16 20,15.1 20,14 L20,2 C20,0.9 19.1,0 18,0 L18,0 Z M18,14 L2,14 L2,2 L18,2 L18,14 L18,14 Z" id="Shape"></path>
            </g>
        </g>
    </g>
</svg>