<?xml version="1.0" encoding="UTF-8" standalone="no"?>
<svg width="20px" height="21px" viewBox="0 0 20 21" version="1.1" xmlns="http://www.w3.org/2000/svg" xmlns:xlink="http://www.w3.org/1999/xlink" xmlns:sketch="http://www.bohemiancoding.com/sketch/ns">
    <!-- Generator: Sketch 3.0.3 (7891) - http://www.bohemiancoding.com/sketch -->
    <title>circles-extended</title>
    <desc>Created with Sketch.</desc>
    <defs></defs>
    <g id="Page-1" stroke="none" stroke-width="1" fill="none" fill-rule="evenodd" sketch:type="MSPage">
        <g id="Icons-Social" sketch:type="MSLayerGroup" transform="translate(-127.000000, -1.000000)" fill="#000000">
            <g id="circles-extended" transform="translate(127.000000, 1.500000)" sketch:type="MSShapeGroup">
                <path d="M10,8 C12.2,8 14,6.2 14,4 C14,1.8 12.2,0 10,0 C7.8,0 6,1.8 6,4 C6,6.2 7.8,8 10,8 L10,8 Z M10,2 C11.1,2 12,2.9 12,4 C12,5.1 11.1,6 10,6 C8.9,6 8,5.1 8,4 C8,2.9 8.9,2 10,2 L10,2 Z M4,11 C1.8,11 0,12.8 0,15 C0,17.2 1.8,19 4,19 C6.2,19 8,17.2 8,15 C8,12.8 6.2,11 4,11 L4,11 Z M4,17 C2.9,17 2,16.1 2,15 C2,13.9 2.9,13 4,13 C5.1,13 6,13.9 6,15 C6,16.1 5.1,17 4,17 L4,17 Z M10,9.1 C9,9.1 8.1,10 8.1,11 C8.1,12 9,12.9 10,12.9 C11,12.9 11.9,12 11.9,11 C11.9,10 11,9.1 10,9.1 L10,9.1 Z M16,11 C13.8,11 12,12.8 12,15 C12,17.2 13.8,19 16,19 C18.2,19 20,17.2 20,15 C20,12.8 18.2,11 16,11 L16,11 Z M16,17 C14.9,17 14,16.1 14,15 C14,13.9 14.9,13 16,13 C17.1,13 18,13.9 18,15 C18,16.1 17.1,17 16,17 L16,17 Z" id="Shape"></path>
            </g>
        </g>
    </g>
</svg>