<?xml version="1.0" encoding="UTF-8" standalone="no"?>
<svg width="20px" height="20px" viewBox="0 0 20 20" version="1.1" xmlns="http://www.w3.org/2000/svg" xmlns:xlink="http://www.w3.org/1999/xlink" xmlns:sketch="http://www.bohemiancoding.com/sketch/ns">
    <!-- Generator: Sketch 3.0.3 (7891) - http://www.bohemiancoding.com/sketch -->
    <title>mood</title>
    <desc>Created with Sketch.</desc>
    <defs></defs>
    <g id="Page-1" stroke="none" stroke-width="1" fill="none" fill-rule="evenodd" sketch:type="MSPage">
        <g id="Icons-Social" sketch:type="MSLayerGroup" transform="translate(-127.000000, -43.000000)" fill="#000000">
            <g id="mood" transform="translate(127.000000, 43.000000)" sketch:type="MSShapeGroup">
                <path d="M10,0 C4.5,0 0,4.5 0,10 C0,15.5 4.5,20 10,20 C15.5,20 20,15.5 20,10 C20,4.5 15.5,0 10,0 L10,0 Z M13.5,6 C14.3,6 15,6.7 15,7.5 C15,8.3 14.3,9 13.5,9 C12.7,9 12,8.3 12,7.5 C12,6.7 12.7,6 13.5,6 L13.5,6 Z M6.5,6 C7.3,6 8,6.7 8,7.5 C8,8.3 7.3,9 6.5,9 C5.7,9 5,8.3 5,7.5 C5,6.7 5.7,6 6.5,6 L6.5,6 Z M10,16 C7.4,16 5.2,14.3 4.4,12 L15.6,12 C14.8,14.3 12.6,16 10,16 L10,16 Z" id="Shape"></path>
            </g>
        </g>
    </g>
</svg>