<?xml version="1.0" encoding="UTF-8" standalone="no"?>
<svg width="19px" height="20px" viewBox="0 0 19 20" version="1.1" xmlns="http://www.w3.org/2000/svg" xmlns:xlink="http://www.w3.org/1999/xlink" xmlns:sketch="http://www.bohemiancoding.com/sketch/ns">
    <!-- Generator: Sketch 3.0.3 (7891) - http://www.bohemiancoding.com/sketch -->
    <title>notifications</title>
    <desc>Created with Sketch.</desc>
    <defs></defs>
    <g id="Page-1" stroke="none" stroke-width="1" fill="none" fill-rule="evenodd" sketch:type="MSPage">
        <g id="Icons-Social" sketch:type="MSLayerGroup" transform="translate(-170.000000, -43.000000)" fill="#000000">
            <g id="notifications" transform="translate(170.500000, 43.000000)" sketch:type="MSShapeGroup">
                <path d="M8.5,20 C9.6,20 10.5,19.1 10.5,18 L6.5,18 C6.5,19.1 7.4,20 8.5,20 L8.5,20 Z M15,14 L15,8.5 C15,5.4 12.9,2.9 10,2.2 L10,1.5 C10,0.7 9.3,0 8.5,0 C7.7,0 7,0.7 7,1.5 L7,2.2 C4.1,2.9 2,5.4 2,8.5 L2,14 L0,16 L0,17 L17,17 L17,16 L15,14 L15,14 Z" id="Shape"></path>
            </g>
        </g>
    </g>
</svg>