<?xml version="1.0" encoding="UTF-8" standalone="no"?>
<svg width="18px" height="18px" viewBox="0 0 18 18" version="1.1" xmlns="http://www.w3.org/2000/svg" xmlns:xlink="http://www.w3.org/1999/xlink" xmlns:sketch="http://www.bohemiancoding.com/sketch/ns">
    <!-- Generator: Sketch 3.0.3 (7891) - http://www.bohemiancoding.com/sketch -->
    <title>pages</title>
    <desc>Created with Sketch.</desc>
    <defs></defs>
    <g id="Page-1" stroke="none" stroke-width="1" fill="none" fill-rule="evenodd" sketch:type="MSPage">
        <g id="Icons-Social" sketch:type="MSLayerGroup" transform="translate(-128.000000, -86.000000)" fill="#000000">
            <g id="pages" transform="translate(128.000000, 86.000000)" sketch:type="MSShapeGroup">
                <path d="M0,2 L0,8 L5,8 L4,4 L8,5 L8,0 L2,0 C0.9,0 0,0.9 0,2 L0,2 Z M5,10 L0,10 L0,16 C0,17.1 0.9,18 2,18 L8,18 L8,13.2 L4,14 L5,10 L5,10 Z M14,14 L10,13.2 L10,18 L16,18 C17.1,18 18,17.1 18,16 L18,10 L13.2,10 L14,14 L14,14 Z M16,0 L10,0 L10,5 L14,4 L13,8 L18,8 L18,2 C18,0.9 17.1,0 16,0 L16,0 Z" id="Shape"></path>
            </g>
        </g>
    </g>
</svg>