<?xml version="1.0" encoding="UTF-8" standalone="no"?>
<svg width="20px" height="18px" viewBox="0 0 20 18" version="1.1" xmlns="http://www.w3.org/2000/svg" xmlns:xlink="http://www.w3.org/1999/xlink" xmlns:sketch="http://www.bohemiancoding.com/sketch/ns">
    <!-- Generator: Sketch 3.0.3 (7891) - http://www.bohemiancoding.com/sketch -->
    <title>party-mode</title>
    <desc>Created with Sketch.</desc>
    <defs></defs>
    <g id="Page-1" stroke="none" stroke-width="1" fill="none" fill-rule="evenodd" sketch:type="MSPage">
        <g id="Icons-Social" sketch:type="MSLayerGroup" transform="translate(-169.000000, -86.000000)" fill="#000000">
            <g id="party-mode" transform="translate(169.000000, 86.000000)" sketch:type="MSShapeGroup">
                <path d="M18,2 L14.8,2 L13,0 L7,0 L5.2,2 L2,2 C0.9,2 0,2.9 0,4 L0,16 C0,17.1 0.9,18 2,18 L18,18 C19.1,18 20,17.1 20,16 L20,4 C20,2.9 19.1,2 18,2 L18,2 Z M10,5 C11.6,5 13.1,5.8 14,7 L10,7 C8.3,7 7,8.3 7,10 C7,10.4 7.1,10.7 7.2,11 L5.1,11 C5,10.7 5,10.3 5,10 C5,7.2 7.2,5 10,5 L10,5 Z M10,15 C8.4,15 6.9,14.2 6,13 L10,13 C11.7,13 13,11.7 13,10 C13,9.6 12.9,9.3 12.8,9 L14.9,9 C15,9.3 15,9.7 15,10 C15,12.8 12.8,15 10,15 L10,15 Z" id="Shape"></path>
            </g>
        </g>
    </g>
</svg>