<?xml version="1.0" encoding="UTF-8" standalone="no"?>
<svg width="22px" height="16px" viewBox="0 0 22 16" version="1.1" xmlns="http://www.w3.org/2000/svg" xmlns:xlink="http://www.w3.org/1999/xlink" xmlns:sketch="http://www.bohemiancoding.com/sketch/ns">
    <!-- Generator: Sketch 3.0.3 (7891) - http://www.bohemiancoding.com/sketch -->
    <title>person-add</title>
    <desc>Created with Sketch.</desc>
    <defs></defs>
    <g id="Page-1" stroke="none" stroke-width="1" fill="none" fill-rule="evenodd" sketch:type="MSPage">
        <g id="Icons-Social" sketch:type="MSLayerGroup" transform="translate(-42.000000, -129.000000)" fill="#000000">
            <g id="person-add" transform="translate(42.000000, 129.000000)" sketch:type="MSShapeGroup">
                <path d="M14,8 C16.2,8 18,6.2 18,4 C18,1.8 16.2,0 14,0 C11.8,0 10,1.8 10,4 C10,6.2 11.8,8 14,8 L14,8 Z M5,6 L5,3 L3,3 L3,6 L0,6 L0,8 L3,8 L3,11 L5,11 L5,8 L8,8 L8,6 L5,6 L5,6 Z M14,10 C11.3,10 6,11.3 6,14 L6,16 L22,16 L22,14 C22,11.3 16.7,10 14,10 L14,10 Z" id="Shape"></path>
            </g>
        </g>
    </g>
</svg>