<?xml version="1.0" encoding="UTF-8" standalone="no"?>
<svg width="20px" height="20px" viewBox="0 0 20 20" version="1.1" xmlns="http://www.w3.org/2000/svg" xmlns:xlink="http://www.w3.org/1999/xlink" xmlns:sketch="http://www.bohemiancoding.com/sketch/ns">
    <!-- Generator: Sketch 3.0.3 (7891) - http://www.bohemiancoding.com/sketch -->
    <title>post-blogger</title>
    <desc>Created with Sketch.</desc>
    <defs></defs>
    <g id="Page-1" stroke="none" stroke-width="1" fill="none" fill-rule="evenodd" sketch:type="MSPage">
        <g id="Icons-Social" sketch:type="MSLayerGroup" transform="translate(-211.000000, -127.000000)" fill="#000000">
            <g id="post-blogger" transform="translate(211.000000, 127.000000)" sketch:type="MSShapeGroup">
                <path d="M18,0 L2,0 C0.9,0 0,0.9 0,2 L0,18 C0,19.1 0.9,20 2,20 L18,20 C19.1,20 20,19.1 20,18 L20,2 C20,0.9 19.1,0 18,0 L18,0 Z M14,7 L14,8 C14,8.6 14.4,9 15,9 C15.6,9 16,9.4 16,10 L16,13 C16,14.7 14.7,16 13,16 L7,16 C5.3,16 4,14.7 4,13 L4,6 C4,4.3 5.3,3 7,3 L11,3 C12.7,3 14,4.3 14,6 L14,7 L14,7 Z M8,8 L10.6,8 C11.2,8 11.6,7.6 11.6,7 C11.6,6.4 11.2,6 10.6,6 L8,6 C7.4,6 7,6.4 7,7 C7,7.6 7.4,8 8,8 L8,8 Z M12,11 L8,11 C7.4,11 7,11.4 7,12 C7,12.6 7.4,13 8,13 L12,13 C12.6,13 13,12.6 13,12 C13,11.4 12.6,11 12,11 L12,11 Z" id="Shape"></path>
            </g>
        </g>
    </g>
</svg>