<?xml version="1.0" encoding="UTF-8" standalone="no"?>
<svg width="20px" height="20px" viewBox="0 0 20 20" version="1.1" xmlns="http://www.w3.org/2000/svg" xmlns:xlink="http://www.w3.org/1999/xlink" xmlns:sketch="http://www.bohemiancoding.com/sketch/ns">
    <!-- Generator: Sketch 3.0.3 (7891) - http://www.bohemiancoding.com/sketch -->
    <title>post-pinterest</title>
    <desc>Created with Sketch.</desc>
    <defs></defs>
    <g id="Page-1" stroke="none" stroke-width="1" fill="none" fill-rule="evenodd" sketch:type="MSPage">
        <g id="Icons-Social" sketch:type="MSLayerGroup" transform="translate(-169.000000, -169.000000)" fill="#000000">
            <g id="post-pinterest" transform="translate(169.000000, 169.000000)" sketch:type="MSShapeGroup">
                <path d="M18,0 L2,0 C0.9,0 0,0.9 0,2 L0,18 C0,19.1 0.9,20 2,20 L18,20 C19.1,20 20,19.1 20,18 L20,2 C20,0.9 19.1,0 18,0 L18,0 Z M11,14.2 C10.2,14.2 9.4,13.9 8.9,13.3 L7.9,16.5 L7.8,16.7 C7.6,17 7.3,17.2 6.9,17.2 C6.3,17.2 5.8,16.7 5.8,16.1 L5.8,16 L5.8,16 L5.9,15.8 L7.7,10.2 C7.7,10.2 7.5,9.6 7.5,8.7 C7.5,7 8.4,6.5 9.2,6.5 C9.9,6.5 10.6,6.8 10.6,7.8 C10.6,9.1 9.7,9.8 9.7,10.8 C9.7,11.5 10.3,12.1 11,12.1 C13.3,12.1 14.2,10.3 14.2,8.7 C14.2,6.5 12.3,4.7 10,4.7 C7.7,4.7 5.8,6.5 5.8,8.7 C5.8,9.4 6,10 6.3,10.6 C6.4,10.8 6.4,10.9 6.4,11.1 C6.4,11.7 6,12.1 5.4,12.1 C5,12.1 4.7,11.9 4.5,11.6 C4,10.7 3.7,9.7 3.7,8.6 C3.7,5.3 6.5,2.6 9.9,2.6 C13.3,2.6 16.1,5.3 16.1,8.6 C16.2,11.4 14.6,14.2 11,14.2 L11,14.2 Z" id="Shape"></path>
            </g>
        </g>
    </g>
</svg>