<?xml version="1.0" encoding="UTF-8" standalone="no"?>
<svg width="16px" height="20px" viewBox="0 0 16 20" version="1.1" xmlns="http://www.w3.org/2000/svg" xmlns:xlink="http://www.w3.org/1999/xlink" xmlns:sketch="http://www.bohemiancoding.com/sketch/ns">
    <!-- Generator: Sketch 3.0.3 (7891) - http://www.bohemiancoding.com/sketch -->
    <title>directions-train</title>
    <desc>Created with Sketch.</desc>
    <defs></defs>
    <g id="Page-1" stroke="none" stroke-width="1" fill="none" fill-rule="evenodd" sketch:type="MSPage">
        <g id="Icons-Maps" sketch:type="MSLayerGroup" transform="translate(-1.000000, -43.000000)" fill="#000000">
            <g id="directions-train" transform="translate(1.000000, 43.000000)" sketch:type="MSShapeGroup">
                <path d="M0,14.5 C0,16.4 1.6,18 3.5,18 L2,19.5 L2,20 L14,20 L14,19.5 L12.5,18 C14.4,18 16,16.4 16,14.5 L16,4 C16,0.5 12.4,0 8,0 C3.6,0 0,0.5 0,4 L0,14.5 L0,14.5 Z M8,16 C6.9,16 6,15.1 6,14 C6,12.9 6.9,12 8,12 C9.1,12 10,12.9 10,14 C10,15.1 9.1,16 8,16 L8,16 Z M14,9 L2,9 L2,4 L14,4 L14,9 L14,9 Z" id="Shape"></path>
            </g>
        </g>
    </g>
</svg>