<?xml version="1.0" encoding="UTF-8" standalone="no"?>
<svg width="16px" height="21px" viewBox="0 0 16 21" version="1.1" xmlns="http://www.w3.org/2000/svg" xmlns:xlink="http://www.w3.org/1999/xlink" xmlns:sketch="http://www.bohemiancoding.com/sketch/ns">
    <!-- Generator: Sketch 3.0.3 (7891) - http://www.bohemiancoding.com/sketch -->
    <title>directions-bus</title>
    <desc>Created with Sketch.</desc>
    <defs></defs>
    <g id="Page-1" stroke="none" stroke-width="1" fill="none" fill-rule="evenodd" sketch:type="MSPage">
        <g id="Icons-Maps" sketch:type="MSLayerGroup" transform="translate(-127.000000, -1.000000)" fill="#000000">
            <g id="directions-bus" transform="translate(127.000000, 1.500000)" sketch:type="MSShapeGroup">
                <path d="M0,14 C0,14.9 0.4,15.7 1,16.2 L1,18 C1,18.6 1.4,19 2,19 L3,19 C3.6,19 4,18.6 4,18 L4,17 L12,17 L12,18 C12,18.6 12.4,19 13,19 L14,19 C14.6,19 15,18.6 15,18 L15,16.2 C15.6,15.7 16,14.9 16,14 L16,4 C16,0.5 12.4,0 8,0 C3.6,0 0,0.5 0,4 L0,14 L0,14 Z M3.5,15 C2.7,15 2,14.3 2,13.5 C2,12.7 2.7,12 3.5,12 C4.3,12 5,12.7 5,13.5 C5,14.3 4.3,15 3.5,15 L3.5,15 Z M12.5,15 C11.7,15 11,14.3 11,13.5 C11,12.7 11.7,12 12.5,12 C13.3,12 14,12.7 14,13.5 C14,14.3 13.3,15 12.5,15 L12.5,15 Z M14,9 L2,9 L2,4 L14,4 L14,9 L14,9 Z" id="Shape"></path>
            </g>
        </g>
    </g>
</svg>