<?xml version="1.0" encoding="UTF-8" standalone="no"?>
<svg width="20px" height="20px" viewBox="0 0 20 20" version="1.1" xmlns="http://www.w3.org/2000/svg" xmlns:xlink="http://www.w3.org/1999/xlink" xmlns:sketch="http://www.bohemiancoding.com/sketch/ns">
    <!-- Generator: Sketch 3.0.3 (7891) - http://www.bohemiancoding.com/sketch -->
    <title>directions</title>
    <desc>Created with Sketch.</desc>
    <defs></defs>
    <g id="Page-1" stroke="none" stroke-width="1" fill="none" fill-rule="evenodd" sketch:type="MSPage">
        <g id="Icons-Maps" sketch:type="MSLayerGroup" transform="translate(-41.000000, -1.000000)" fill="#000000">
            <g id="directions" transform="translate(41.000000, 1.000000)" sketch:type="MSShapeGroup">
                <path d="M19.7,9.3 L10.7,0.3 C10.3,-0.1 9.7,-0.1 9.3,0.3 L0.3,9.3 C-0.1,9.7 -0.1,10.3 0.3,10.7 L9.3,19.7 L9.3,19.7 C9.7,20.1 10.3,20.1 10.7,19.7 L19.7,10.7 C20.1,10.3 20.1,9.7 19.7,9.3 L19.7,9.3 Z M12,12.5 L12,10 L8,10 L8,13 L6,13 L6,9 C6,8.4 6.4,8 7,8 L12,8 L12,5.5 L15.5,9 L12,12.5 L12,12.5 Z" id="Shape"></path>
            </g>
        </g>
    </g>
</svg>