<?xml version="1.0" encoding="UTF-8" standalone="no"?>
<svg width="16px" height="18px" viewBox="0 0 16 18" version="1.1" xmlns="http://www.w3.org/2000/svg" xmlns:xlink="http://www.w3.org/1999/xlink" xmlns:sketch="http://www.bohemiancoding.com/sketch/ns">
    <!-- Generator: Sketch 3.0.3 (7891) - http://www.bohemiancoding.com/sketch -->
    <title>traffic 4</title>
    <desc>Created with Sketch.</desc>
    <defs></defs>
    <g id="Page-1" stroke="none" stroke-width="1" fill="none" fill-rule="evenodd" sketch:type="MSPage">
        <g id="Icons-Maps" sketch:type="MSLayerGroup" transform="translate(-1.000000, -128.000000)" fill="#000000">
            <g id="traffic-4" transform="translate(1.000000, 128.000000)" sketch:type="MSShapeGroup">
                <path d="M16,7 L13,7 L13,5.9 C14.7,5.5 16,3.9 16,2 L13,2 L13,1 C13,0.4 12.6,0 12,0 L4,0 C3.4,0 3,0.4 3,1 L3,2 L0,2 C0,3.9 1.3,5.4 3,5.9 L3,7 L0,7 C0,8.9 1.3,10.4 3,10.9 L3,12 L0,12 C0,13.9 1.3,15.4 3,15.9 L3,17 C3,17.6 3.4,18 4,18 L12,18 C12.6,18 13,17.6 13,17 L13,15.9 C14.7,15.5 16,13.9 16,12 L13,12 L13,10.9 C14.7,10.4 16,8.9 16,7 L16,7 Z M8,16 C6.9,16 6,15.1 6,14 C6,12.9 6.9,12 8,12 C9.1,12 10,12.9 10,14 C10,15.1 9.1,16 8,16 L8,16 Z M8,11 C6.9,11 6,10.1 6,9 C6,7.9 6.9,7 8,7 C9.1,7 10,7.9 10,9 C10,10.1 9.1,11 8,11 L8,11 Z M8,6 C6.9,6 6,5.1 6,4 C6,2.9 6.9,2 8,2 C9.1,2 10,2.9 10,4 C10,5.1 9.1,6 8,6 L8,6 Z" id="Shape"></path>
            </g>
        </g>
    </g>
</svg>