<?xml version="1.0" encoding="UTF-8" standalone="no"?>
<svg width="20px" height="20px" viewBox="0 0 20 20" version="1.1" xmlns="http://www.w3.org/2000/svg" xmlns:xlink="http://www.w3.org/1999/xlink" xmlns:sketch="http://www.bohemiancoding.com/sketch/ns">
    <!-- Generator: Sketch 3.0.3 (7891) - http://www.bohemiancoding.com/sketch -->
    <title>camera</title>
    <desc>Created with Sketch.</desc>
    <defs></defs>
    <g id="Page-1" stroke="none" stroke-width="1" fill="none" fill-rule="evenodd" sketch:type="MSPage">
        <g id="Icons-Images" sketch:type="MSLayerGroup" transform="translate(-42.000000, -1.000000)" fill="#000000">
            <g id="camera" transform="translate(42.000000, 1.000000)" sketch:type="MSShapeGroup">
                <path d="M7.4,8.5 L12.2,0.2 C11.5,0.1 10.7,0 10,0 C7.6,0 5.4,0.8 3.7,2.3 L7.4,8.6 L7.4,8.5 L7.4,8.5 Z M19.5,7 C18.6,4.1 16.4,1.7 13.5,0.7 L9.9,7 L19.5,7 L19.5,7 Z M19.8,8 L12.3,8 L12.6,8.5 L17.4,16.8 C19,15 20,12.6 20,10 C20,9.3 19.9,8.6 19.8,8 L19.8,8 Z M6.5,10 L2.6,3.2 C1,5 0,7.4 0,10 C0,10.7 0.1,11.4 0.2,12 L7.7,12 L6.5,10 L6.5,10 Z M0.5,13 C1.4,15.9 3.6,18.3 6.5,19.3 L10.2,13 L0.5,13 L0.5,13 Z M11.7,13 L7.8,19.8 C8.5,20 9.2,20 10,20 C12.4,20 14.6,19.2 16.3,17.7 L12.6,11.4 L11.7,13 L11.7,13 Z" id="Shape"></path>
            </g>
        </g>
    </g>
</svg>