<?xml version="1.0" encoding="UTF-8" standalone="no"?>
<svg width="20px" height="23px" viewBox="0 0 20 23" version="1.1" xmlns="http://www.w3.org/2000/svg" xmlns:xlink="http://www.w3.org/1999/xlink" xmlns:sketch="http://www.bohemiancoding.com/sketch/ns">
    <!-- Generator: Sketch 3.0.3 (7891) - http://www.bohemiancoding.com/sketch -->
    <title>camera-roll</title>
    <desc>Created with Sketch.</desc>
    <defs></defs>
    <g id="Page-1" stroke="none" stroke-width="1" fill="none" fill-rule="evenodd" sketch:type="MSPage">
        <g id="Icons-Images" sketch:type="MSLayerGroup" transform="translate(-126.000000, 0.000000)" fill="#000000">
            <g id="camera-roll" transform="translate(126.000000, 0.500000)" sketch:type="MSShapeGroup">
                <path d="M12,4 C12,2.9 11.1,2 10,2 L9,2 L9,1 C9,0.4 8.6,0 8,0 L4,0 C3.4,0 3,0.4 3,1 L3,2 L2,2 C0.9,2 0,2.9 0,4 L0,19 C0,20.1 0.9,21 2,21 L10,21 C11.1,21 12,20.1 12,19 L20,19 L20,4 L12,4 L12,4 Z M10,17 L8,17 L8,15 L10,15 L10,17 L10,17 Z M10,8 L8,8 L8,6 L10,6 L10,8 L10,8 Z M14,17 L12,17 L12,15 L14,15 L14,17 L14,17 Z M14,8 L12,8 L12,6 L14,6 L14,8 L14,8 Z M18,17 L16,17 L16,15 L18,15 L18,17 L18,17 Z M18,8 L16,8 L16,6 L18,6 L18,8 L18,8 Z" id="Shape"></path>
            </g>
        </g>
    </g>
</svg>