<?xml version="1.0" encoding="UTF-8" standalone="no"?>
<svg width="22px" height="22px" viewBox="0 0 22 22" version="1.1" xmlns="http://www.w3.org/2000/svg" xmlns:xlink="http://www.w3.org/1999/xlink" xmlns:sketch="http://www.bohemiancoding.com/sketch/ns">
    <!-- Generator: Sketch 3.0.3 (7891) - http://www.bohemiancoding.com/sketch -->
    <title>crop</title>
    <desc>Created with Sketch.</desc>
    <defs></defs>
    <g id="Page-1" stroke="none" stroke-width="1" fill="none" fill-rule="evenodd" sketch:type="MSPage">
        <g id="Icons-Images" sketch:type="MSLayerGroup" transform="translate(-167.000000, 0.000000)" fill="#000000">
            <g id="crop" transform="translate(167.000000, 0.000000)" sketch:type="MSShapeGroup">
                <path d="M16,14 L18,14 L18,6 C18,4.9 17.1,4 16,4 L8,4 L8,6 L16,6 L16,14 L16,14 Z M6,16 L6,0 L4,0 L4,4 L0,4 L0,6 L4,6 L4,16 C4,17.1 4.9,18 6,18 L16,18 L16,22 L18,22 L18,18 L22,18 L22,16 L6,16 L6,16 Z" id="Shape"></path>
            </g>
        </g>
    </g>
</svg>