<?xml version="1.0" encoding="UTF-8" standalone="no"?>
<svg width="22px" height="22px" viewBox="0 0 22 22" version="1.1" xmlns="http://www.w3.org/2000/svg" xmlns:xlink="http://www.w3.org/1999/xlink" xmlns:sketch="http://www.bohemiancoding.com/sketch/ns">
    <!-- Generator: Sketch 3.0.3 (7891) - http://www.bohemiancoding.com/sketch -->
    <title>photo-library</title>
    <desc>Created with Sketch.</desc>
    <defs></defs>
    <g id="Page-1" stroke="none" stroke-width="1" fill="none" fill-rule="evenodd" sketch:type="MSPage">
        <g id="Icons-Images" sketch:type="MSLayerGroup" transform="translate(-167.000000, -84.000000)" fill="#000000">
            <g id="photo-library" transform="translate(167.000000, 84.000000)" sketch:type="MSShapeGroup">
                <path d="M22,16 L22,2 C22,0.9 21.1,0 20,0 L6,0 C4.9,0 4,0.9 4,2 L4,16 C4,17.1 4.9,18 6,18 L20,18 C21.1,18 22,17.1 22,16 L22,16 Z M9.5,10.5 L12,13.5 L15.5,9 L20,15 L6,15 L9.5,10.5 L9.5,10.5 Z M0,4 L0,20 C0,21.1 0.9,22 2,22 L18,22 L18,20 L2,20 L2,4 L0,4 L0,4 Z" id="Shape"></path>
            </g>
        </g>
    </g>
</svg>