<?xml version="1.0" encoding="UTF-8" standalone="no"?>
<svg width="20px" height="14px" viewBox="0 0 20 14" version="1.1" xmlns="http://www.w3.org/2000/svg" xmlns:xlink="http://www.w3.org/1999/xlink" xmlns:sketch="http://www.bohemiancoding.com/sketch/ns">
    <!-- Generator: Sketch 3.0.3 (7891) - http://www.bohemiancoding.com/sketch -->
    <title>switch-video</title>
    <desc>Created with Sketch.</desc>
    <defs></defs>
    <g id="Page-1" stroke="none" stroke-width="1" fill="none" fill-rule="evenodd" sketch:type="MSPage">
        <g id="Icons-Images" sketch:type="MSLayerGroup" transform="translate(-42.000000, -130.000000)" fill="#000000">
            <g id="switch-video" transform="translate(42.000000, 130.000000)" sketch:type="MSShapeGroup">
                <path d="M16,4.5 L16,1 C16,0.4 15.6,0 15,0 L1,0 C0.4,0 0,0.4 0,1 L0,13 C0,13.6 0.4,14 1,14 L15,14 C15.6,14 16,13.6 16,13 L16,9.5 L20,13.5 L20,0.5 L16,4.5 L16,4.5 Z M4.8,6 C4.8,7.5 6,8.7 7.5,8.7 C9,8.7 10.2,7.5 10.2,6 L8.5,6 L11,3.5 L13.5,6 L12,6 C12,8.5 10,10.5 7.5,10.5 C5,10.5 3,8.5 3,6 L4.8,6 L4.8,6 Z" id="Shape"></path>
            </g>
        </g>
    </g>
</svg>