<?xml version="1.0" encoding="UTF-8" standalone="no"?>
<svg width="20px" height="18px" viewBox="0 0 20 18" version="1.1" xmlns="http://www.w3.org/2000/svg" xmlns:xlink="http://www.w3.org/1999/xlink" xmlns:sketch="http://www.bohemiancoding.com/sketch/ns">
    <!-- Generator: Sketch 3.0.3 (7891) - http://www.bohemiancoding.com/sketch -->
    <title>switch-camera</title>
    <desc>Created with Sketch.</desc>
    <defs></defs>
    <g id="Page-1" stroke="none" stroke-width="1" fill="none" fill-rule="evenodd" sketch:type="MSPage">
        <g id="Icons-Images" sketch:type="MSLayerGroup" transform="translate(0.000000, -128.000000)" fill="#000000">
            <g id="switch-camera" transform="translate(0.000000, 128.000000)" sketch:type="MSShapeGroup">
                <path d="M18,2 L14.8,2 L13,0 L7,0 L5.2,2 L2,2 C0.9,2 0,2.9 0,4 L0,16 C0,17.1 0.9,18 2,18 L18,18 C19.1,18 20,17.1 20,16 L20,4 C20,2.9 19.1,2 18,2 L18,2 Z M6.8,9 C6.8,10.8 8.2,12.2 10,12.2 C11.8,12.2 13.2,10.8 13.2,9 L11.5,9 L14,6.5 L16.5,9 L15,9 C15,11.8 12.8,14 10,14 C7.2,14 5,11.8 5,9 L6.8,9 L6.8,9 Z" id="Shape"></path>
            </g>
        </g>
    </g>
</svg>