<?xml version="1.0" encoding="UTF-8" standalone="no"?>
<svg width="24px" height="18px" viewBox="0 0 24 18" version="1.1" xmlns="http://www.w3.org/2000/svg" xmlns:xlink="http://www.w3.org/1999/xlink" xmlns:sketch="http://www.bohemiancoding.com/sketch/ns">
    <!-- Generator: Sketch 3.0.3 (7891) - http://www.bohemiancoding.com/sketch -->
    <title>tag-faces</title>
    <desc>Created with Sketch.</desc>
    <defs></defs>
    <g id="Page-1" stroke="none" stroke-width="1" fill="none" fill-rule="evenodd" sketch:type="MSPage">
        <g id="Icons-Images" sketch:type="MSLayerGroup" transform="translate(-82.000000, -128.000000)" fill="#000000">
            <g id="tag-faces" transform="translate(82.000000, 128.000000)" sketch:type="MSShapeGroup">
                <path d="M17,8 C17.6,8 18,7.6 18,7 C18,6.4 17.6,6 17,6 C16.4,6 16,6.4 16,7 C16,7.6 16.4,8 17,8 L17,8 Z M15,13 C16.9,13 18.4,11.7 18.8,10 L11.2,10 C11.6,11.7 13.1,13 15,13 L15,13 Z M13,8 C13.6,8 14,7.6 14,7 C14,6.4 13.6,6 13,6 C12.4,6 12,6.4 12,7 C12,7.6 12.4,8 13,8 L13,8 Z M22,0 L7.6,0 C7,0 6.4,0.3 6,0.8 L0,9 L6,17.2 C6.4,17.7 7,18 7.6,18 L22,18 C23.1,18 24,17.1 24,16 L24,2 C24,0.9 23.1,0 22,0 L22,0 Z M4,10 C3.4,10 3,9.6 3,9 C3,8.4 3.4,8 4,8 C4.6,8 5,8.4 5,9 C5,9.6 4.6,10 4,10 L4,10 Z M15,15 C11.7,15 9,12.3 9,9 C9,5.7 11.7,3 15,3 C18.3,3 21,5.7 21,9 C21,12.3 18.3,15 15,15 L15,15 Z" id="Shape"></path>
            </g>
        </g>
    </g>
</svg>