<?xml version="1.0" encoding="UTF-8" standalone="no"?>
<svg width="20px" height="16px" viewBox="0 0 20 16" version="1.1" xmlns="http://www.w3.org/2000/svg" xmlns:xlink="http://www.w3.org/1999/xlink" xmlns:sketch="http://www.bohemiancoding.com/sketch/ns">
    <!-- Generator: Sketch 3.0.3 (7891) - http://www.bohemiancoding.com/sketch -->
    <title>unknown-7</title>
    <desc>Created with Sketch.</desc>
    <defs></defs>
    <g id="Page-1" stroke="none" stroke-width="1" fill="none" fill-rule="evenodd" sketch:type="MSPage">
        <g id="Icons-Images" sketch:type="MSLayerGroup" transform="translate(-126.000000, -171.000000)" fill="#000000">
            <g id="unknown-7" transform="translate(126.000000, 171.500000)" sketch:type="MSShapeGroup">
                <path d="M12,10 L17,10 L17,5 L20,5 L14.5,-0.5 L9,5 L12,5 L12,10 L12,10 Z M9,14 L20,14 L20,12 L9,12 L9,14 L9,14 Z M3.5,1 L0.3,10 L2.2,10 L2.9,8 L6.1,8 L6.8,10 L8.7,10 L5.5,1 L3.5,1 L3.5,1 Z M3.4,6.6 L4.5,3 L5.6,6.6 L3.4,6.6 L3.4,6.6 Z" id="Shape"></path>
            </g>
        </g>
    </g>
</svg>