<?xml version="1.0" encoding="UTF-8" standalone="no"?>
<svg width="18px" height="18px" viewBox="0 0 18 18" version="1.1" xmlns="http://www.w3.org/2000/svg" xmlns:xlink="http://www.w3.org/1999/xlink" xmlns:sketch="http://www.bohemiancoding.com/sketch/ns">
    <!-- Generator: Sketch 3.0.3 (7891) - http://www.bohemiancoding.com/sketch -->
    <title>unknown-1</title>
    <desc>Created with Sketch.</desc>
    <defs></defs>
    <g id="Page-1" stroke="none" stroke-width="1" fill="none" fill-rule="evenodd" sketch:type="MSPage">
        <g id="Icons-Images" sketch:type="MSLayerGroup" transform="translate(-169.000000, -128.000000)" fill="#000000">
            <g id="unknown-1" transform="translate(169.000000, 128.000000)" sketch:type="MSShapeGroup">
                <path d="M16,0 L2,0 C0.9,0 0,0.9 0,2 L0,16 C0,17.1 0.9,18 2,18 L16,18 C17.1,18 18,17.1 18,16 L18,2 C18,0.9 17.1,0 16,0 L16,0 Z M2.5,4.5 L4.5,4.5 L4.5,2.5 L6,2.5 L6,4.5 L8,4.5 L8,6 L6,6 L6,8 L4.5,8 L4.5,6 L2.5,6 L2.5,4.5 L2.5,4.5 Z M16,16 L2,16 L16,2 L16,16 L16,16 Z M14,14 L14,12.5 L9,12.5 L9,14 L14,14 L14,14 Z" id="Shape"></path>
            </g>
        </g>
    </g>
</svg>