<?xml version="1.0" encoding="UTF-8" standalone="no"?>
<svg width="20px" height="20px" viewBox="0 0 20 20" version="1.1" xmlns="http://www.w3.org/2000/svg" xmlns:xlink="http://www.w3.org/1999/xlink" xmlns:sketch="http://www.bohemiancoding.com/sketch/ns">
    <!-- Generator: Sketch 3.0.3 (7891) - http://www.bohemiancoding.com/sketch -->
    <title>unknown-2</title>
    <desc>Created with Sketch.</desc>
    <defs></defs>
    <g id="Page-1" stroke="none" stroke-width="1" fill="none" fill-rule="evenodd" sketch:type="MSPage">
        <g id="Icons-Images" sketch:type="MSLayerGroup" transform="translate(-210.000000, -127.000000)" fill="#000000">
            <g id="unknown-2" transform="translate(210.000000, 127.000000)" sketch:type="MSShapeGroup">
                <path d="M10,14 L15,14 L15,12.5 L10,12.5 L10,14 L10,14 Z M10,0 C4.5,0 0,4.5 0,10 C0,15.5 4.5,20 10,20 C15.5,20 20,15.5 20,10 C20,4.5 15.5,0 10,0 L10,0 Z M4,6 L6,6 L6,4 L7.5,4 L7.5,6 L9.5,6 L9.5,7.5 L7.5,7.5 L7.5,9.5 L6,9.5 L6,7.5 L4,7.5 L4,6 L4,6 Z M10,18 C7.8,18 5.8,17.1 4.3,15.7 L15.7,4.3 C17.1,5.8 18,7.8 18,10 C18,14.4 14.4,18 10,18 L10,18 Z" id="Shape"></path>
            </g>
        </g>
    </g>
</svg>