<?xml version="1.0" encoding="UTF-8" standalone="no"?>
<svg width="18px" height="20px" viewBox="0 0 18 20" version="1.1" xmlns="http://www.w3.org/2000/svg" xmlns:xlink="http://www.w3.org/1999/xlink" xmlns:sketch="http://www.bohemiancoding.com/sketch/ns">
    <!-- Generator: Sketch 3.0.3 (7891) - http://www.bohemiancoding.com/sketch -->
    <title>unknown-5</title>
    <desc>Created with Sketch.</desc>
    <defs></defs>
    <g id="Page-1" stroke="none" stroke-width="1" fill="none" fill-rule="evenodd" sketch:type="MSPage">
        <g id="Icons-Images" sketch:type="MSLayerGroup" transform="translate(-43.000000, -169.000000)" fill="#000000">
            <g id="unknown-5" transform="translate(43.000000, 169.000000)" sketch:type="MSShapeGroup">
                <path d="M8,8 L0,8 L0,10 L8,10 L8,8 L8,8 Z M8,0 L8,0 L8,2 C12.4,2 16,5.6 16,10 C16,14.4 12.4,18 8,18 C5.8,18 3.8,17.1 2.3,15.7 L0.9,17.1 C2.7,18.9 5.2,20 8,20 C13.5,20 18,15.5 18,10 C18,4.5 13.5,0 8,0 L8,0 Z" id="Shape"></path>
            </g>
        </g>
    </g>
</svg>