<?xml version="1.0" encoding="UTF-8" standalone="no"?>
<svg width="24px" height="16px" viewBox="0 0 24 16" version="1.1" xmlns="http://www.w3.org/2000/svg" xmlns:xlink="http://www.w3.org/1999/xlink" xmlns:sketch="http://www.bohemiancoding.com/sketch/ns">
    <!-- Generator: Sketch 3.0.3 (7891) - http://www.bohemiancoding.com/sketch -->
    <title>wb-auto</title>
    <desc>Created with Sketch.</desc>
    <defs></defs>
    <g id="Page-1" stroke="none" stroke-width="1" fill="none" fill-rule="evenodd" sketch:type="MSPage">
        <g id="Icons-Images" sketch:type="MSLayerGroup" transform="translate(-166.000000, -171.000000)" fill="#000000">
            <g id="wb-auto" transform="translate(166.000000, 171.000000)" sketch:type="MSShapeGroup">
                <path d="M6.9,8.6 L9.2,8.6 L8,5 L6.9,8.6 L6.9,8.6 Z M22,3 L20.8,9.3 L19.3,3 L17.7,3 L16.2,9.3 L15,3 L14.2,3 C12.8,1.2 10.5,0 8,0 C3.6,0 0,3.6 0,8 C0,12.4 3.6,16 8,16 C11.1,16 13.8,14.2 15.2,11.6 L15.3,12 L17,12 L18.5,5.9 L20,12 L21.8,12 L23.8,3 L22,3 L22,3 Z M10.3,12 L9.6,10 L6.4,10 L5.7,12 L3.8,12 L7,3 L9,3 L12.2,12 L10.3,12 L10.3,12 Z" id="Shape"></path>
            </g>
        </g>
    </g>
</svg>