<?xml version="1.0" encoding="UTF-8" standalone="no"?>
<svg width="22px" height="22px" viewBox="0 0 22 22" version="1.1" xmlns="http://www.w3.org/2000/svg" xmlns:xlink="http://www.w3.org/1999/xlink" xmlns:sketch="http://www.bohemiancoding.com/sketch/ns">
    <!-- Generator: Sketch 3.0.3 (7891) - http://www.bohemiancoding.com/sketch -->
    <title>wb-incandescent</title>
    <desc>Created with Sketch.</desc>
    <defs></defs>
    <g id="Page-1" stroke="none" stroke-width="1" fill="none" fill-rule="evenodd" sketch:type="MSPage">
        <g id="Icons-Images" sketch:type="MSLayerGroup" transform="translate(-251.000000, -168.000000)" fill="#000000">
            <g id="wb-incandescent" transform="translate(251.000000, 168.500000)" sketch:type="MSShapeGroup">
                <path d="M2.5,16.5 L4,18 L5.8,16.2 L4.4,14.8 L2.5,16.5 L2.5,16.5 Z M10,20.4 L12,20.4 L12,17.5 L10,17.5 L10,20.4 L10,20.4 Z M3,8.5 L0,8.5 L0,10.5 L3,10.5 L3,8.5 L3,8.5 Z M14,4.3 L14,-0.5 L8,-0.5 L8,4.3 C6.2,5.3 5,7.3 5,9.5 C5,12.8 7.7,15.5 11,15.5 C14.3,15.5 17,12.8 17,9.5 C17,7.3 15.8,5.3 14,4.3 L14,4.3 Z M19,8.5 L19,10.5 L22,10.5 L22,8.5 L19,8.5 L19,8.5 Z M16.2,16.2 L18,18 L19.4,16.6 L17.6,14.8 L16.2,16.2 L16.2,16.2 Z" id="Shape"></path>
            </g>
        </g>
    </g>
</svg>