<?xml version="1.0" encoding="UTF-8" standalone="no"?>
<svg width="18px" height="23px" viewBox="0 0 18 23" version="1.1" xmlns="http://www.w3.org/2000/svg" xmlns:xlink="http://www.w3.org/1999/xlink" xmlns:sketch="http://www.bohemiancoding.com/sketch/ns">
    <!-- Generator: Sketch 3.0.3 (7891) - http://www.bohemiancoding.com/sketch -->
    <title>wb-irradescent</title>
    <desc>Created with Sketch.</desc>
    <defs></defs>
    <g id="Page-1" stroke="none" stroke-width="1" fill="none" fill-rule="evenodd" sketch:type="MSPage">
        <g id="Icons-Images" sketch:type="MSLayerGroup" transform="translate(-1.000000, -209.000000)" fill="#000000">
            <g id="wb-irradescent" transform="translate(1.500000, 210.000000)" sketch:type="MSShapeGroup">
                <path d="M1,13.5 L15,13.5 L15,7.5 L1,7.5 L1,13.5 L1,13.5 Z M7,-0.4 L7,2.5 L9,2.5 L9,-0.4 L7,-0.4 L7,-0.4 Z M15,2 L13.2,3.8 L14.6,5.2 L16.4,3.4 L15,2 L15,2 Z M9,21.4 L9,18.5 L7,18.5 L7,21.4 C7.3,21.5 9,21.4 9,21.4 L9,21.4 Z M16.5,17.5 L14.7,15.7 L13.3,17.1 L15,19 L16.5,17.5 L16.5,17.5 Z M-0.5,3.5 L1.3,5.3 L2.7,3.9 L1,2 L-0.5,3.5 L-0.5,3.5 Z M1,19 L2.8,17.2 L1.4,15.8 L-0.4,17.6 L1,19 L1,19 Z" id="Shape"></path>
            </g>
        </g>
    </g>
</svg>