<?xml version="1.0" encoding="UTF-8" standalone="no"?>
<svg width="22px" height="23px" viewBox="0 0 22 23" version="1.1" xmlns="http://www.w3.org/2000/svg" xmlns:xlink="http://www.w3.org/1999/xlink" xmlns:sketch="http://www.bohemiancoding.com/sketch/ns">
    <!-- Generator: Sketch 3.0.3 (7891) - http://www.bohemiancoding.com/sketch -->
    <title>wb-sunny 2</title>
    <desc>Created with Sketch.</desc>
    <defs></defs>
    <g id="Page-1" stroke="none" stroke-width="1" fill="none" fill-rule="evenodd" sketch:type="MSPage">
        <g id="Icons-Images" sketch:type="MSLayerGroup" transform="translate(-41.000000, -209.000000)" fill="#000000">
            <g id="wb-sunny-2" transform="translate(41.000000, 210.000000)" sketch:type="MSShapeGroup">
                <path d="M5.8,3.8 L4,2 L2.5,3.5 L4.3,5.3 L5.8,3.8 L5.8,3.8 Z M3,9.5 L0,9.5 L0,11.5 L3,11.5 L3,9.5 L3,9.5 Z M12,-0.4 L10,-0.4 L10,2.5 L12,2.5 L12,-0.4 L12,-0.4 Z M19.5,3.5 L18,2 L16.2,3.8 L17.6,5.2 L19.5,3.5 L19.5,3.5 Z M16.2,17.2 L18,19 L19.4,17.6 L17.6,15.8 L16.2,17.2 L16.2,17.2 Z M19,9.5 L19,11.5 L22,11.5 L22,9.5 L19,9.5 L19,9.5 Z M11,4.5 C7.7,4.5 5,7.2 5,10.5 C5,13.8 7.7,16.5 11,16.5 C14.3,16.5 17,13.8 17,10.5 C17,7.2 14.3,4.5 11,4.5 L11,4.5 Z M10,21.4 L12,21.4 L12,18.5 L10,18.5 L10,21.4 L10,21.4 Z M2.5,17.5 L4,19 L5.8,17.2 L4.4,15.8 L2.5,17.5 L2.5,17.5 Z" id="Shape"></path>
            </g>
        </g>
    </g>
</svg>