<?xml version="1.0" encoding="utf-8"?>
<!-- Generator: Adobe Illustrator 15.0.0, SVG Export Plug-In . SVG Version: 6.00 Build 0)  -->
<!DOCTYPE svg PUBLIC "-//W3C//DTD SVG 1.1//EN" "http://www.w3.org/Graphics/SVG/1.1/DTD/svg11.dtd">
<svg version="1.1" id="Layer_1" xmlns="http://www.w3.org/2000/svg" xmlns:xlink="http://www.w3.org/1999/xlink" x="0px" y="0px"
	 width="72.542px" height="80.104px" viewBox="-104.542 2.396 72.542 80.104" enable-background="new -104.542 2.396 72.542 80.104"
	 xml:space="preserve">
<g enable-background="new    ">
	<path fill="#444444" d="M-70.792,56.307c0,1.402,1.294,2.895,2.588,2.895s2.329-1.229,2.329-2.895V29.396
		c0-1.666-1.035-2.894-2.329-2.894c-1.208,0-2.588,1.228-2.588,2.894C-70.792,40.266-70.792,47.102-70.792,56.307z M-57.161,27.555
		v30.593c0,3.942,0,8.679,0,8.679h-13.631v16.479h-8.713V18.875h22.344C-57.161,18.875-57.161,23.61-57.161,27.555z"/>
	<path fill="#444444" d="M-98.722,18.877l16.523-0.001"/>
	<path fill="#444444" d="M-82.198,18.876v47.951h-8.713V28.87c0-1.841-1.036-2.104-2.071-2.104c-1.725,0-2.847,2.278-2.847,2.278
		c0,27.175,0,27.788,0,37.782h-8.713v-37.11v-1.542v-0.489v-0.129c0.041-1.296,0.012-0.859,0.041-1.296
		c0.234-3.613,1.547-7.382,5.779-7.382L-82.198,18.876z"/>
	<path fill="#444444" d="M-37.82,66.827l-16.524,0.001V2.396h8.713v16.479H-32c0,0,0,4.733,0,8.678v30.594
		C-32,62.092-33.076,66.827-37.82,66.827 M-43.043,59.201c1.294,0,2.329-1.227,2.329-2.893V29.396c0-1.666-1.035-2.894-2.329-2.894
		s-2.588,1.49-2.588,2.894c0,9.205,0,16.042,0,26.913C-45.631,57.975-44.251,59.201-43.043,59.201z"/>
</g>
</svg>
