<?xml version="1.0" encoding="UTF-8" standalone="no"?>
<svg width="20px" height="16px" viewBox="0 0 20 16" version="1.1" xmlns="http://www.w3.org/2000/svg" xmlns:xlink="http://www.w3.org/1999/xlink" xmlns:sketch="http://www.bohemiancoding.com/sketch/ns">
    <!-- Generator: Sketch 3.0.3 (7891) - http://www.bohemiancoding.com/sketch -->
    <title>hangout-video</title>
    <desc>Created with Sketch.</desc>
    <defs></defs>
    <g id="Page-1" stroke="none" stroke-width="1" fill="none" fill-rule="evenodd" sketch:type="MSPage">
        <g id="Icons-Communication" sketch:type="MSLayerGroup" transform="translate(-84.000000, -85.000000)" fill="#000000">
            <g id="hangout-video" transform="translate(84.000000, 85.000000)" sketch:type="MSShapeGroup">
                <path d="M18,0 L2,0 C0.9,0 0,0.9 0,2 L0,14 C0,15.1 0.9,16 2,16 L18,16 C19.1,16 20,15.1 20,14 L20,2 C20,0.9 19.1,0 18,0 L18,0 Z M16,12 L12,8.8 L12,12 L4,12 L4,4 L12,4 L12,7.2 L16,4 L16,12 L16,12 Z" id="Shape"></path>
            </g>
        </g>
    </g>
</svg>