<?xml version="1.0" encoding="UTF-8" standalone="no"?>
<svg width="23px" height="23px" viewBox="0 0 23 23" version="1.1" xmlns="http://www.w3.org/2000/svg" xmlns:xlink="http://www.w3.org/1999/xlink" xmlns:sketch="http://www.bohemiancoding.com/sketch/ns">
    <!-- Generator: Sketch 3.0.3 (7891) - http://www.bohemiancoding.com/sketch -->
    <title>hangout-video-off</title>
    <desc>Created with Sketch.</desc>
    <defs></defs>
    <g id="Page-1" stroke="none" stroke-width="1" fill="none" fill-rule="evenodd" sketch:type="MSPage">
        <g id="Icons-Communication" sketch:type="MSLayerGroup" transform="translate(-125.000000, -82.000000)" fill="#000000">
            <g id="hangout-video-off" transform="translate(125.500000, 82.500000)" sketch:type="MSShapeGroup">
                <path d="M19,3 L6.8,3 L10.8,7 L13,7 L13,9.2 L13.6,9.8 L17,7 L17,13.2 L21,17.2 L21,17 L21,5 C21,3.9 20.1,3 19,3 L19,3 Z M1.3,0 L0,1.3 L2,3.3 C1.4,3.6 1,4.3 1,5 L1,17 C1,18.1 1.9,19 3,19 L17.7,19 L19.7,21 L21,19.7 L1.3,0 L1.3,0 Z M5,7 L5.7,7 L13,14.3 L13,15 L5,15 L5,7 L5,7 Z" id="Shape"></path>
            </g>
        </g>
    </g>
</svg>