<?xml version="1.0" encoding="UTF-8" standalone="no"?>
<svg width="20px" height="20px" viewBox="0 0 20 20" version="1.1" xmlns="http://www.w3.org/2000/svg" xmlns:xlink="http://www.w3.org/1999/xlink" xmlns:sketch="http://www.bohemiancoding.com/sketch/ns">
    <!-- Generator: Sketch 3.0.3 (7891) - http://www.bohemiancoding.com/sketch -->
    <title>earth</title>
    <desc>Created with Sketch.</desc>
    <defs></defs>
    <g id="Page-1" stroke="none" stroke-width="1" fill="none" fill-rule="evenodd" sketch:type="MSPage">
        <g id="Icons-Maps" sketch:type="MSLayerGroup" transform="translate(-125.000000, -43.000000)" fill="#000000">
            <g id="earth" transform="translate(125.000000, 43.000000)" sketch:type="MSShapeGroup">
                <path d="M10,0 C4.5,0 0,4.5 0,10 C0,15.5 4.5,20 10,20 C15.5,20 20,15.5 20,10 C20,4.5 15.5,0 10,0 L10,0 Z M10,18.2 C8.9,18.2 7.8,18 6.8,17.6 C6.2,16.1 6.2,15 7.9,15.5 C7.9,15.5 11.8,17 15.9,15.6 C14.5,17.2 12.4,18.2 10,18.2 L10,18.2 Z M17.1,14.1 C16.2,14.5 15,15.1 13.1,15.1 C11.2,15.1 9.6,14.3 7.5,13.7 C5.6,13.1 4.9,12.2 3.7,12.2 C3,12.2 2.7,12.9 2.5,13.4 C2,12.4 1.7,11.2 1.7,10 C1.7,9.2 1.8,8.4 2,7.7 C3.3,6.1 5.2,5.1 8,7.3 C8,7.3 14.2,12 17.8,12.3 C17.7,12.9 17.4,13.5 17.1,14.1 L17.1,14.1 Z M10.4,5.6 C7.6,2.9 5.3,3.7 4.3,4.1 C5,3.4 5.9,2.8 6.9,2.4 C9.7,2.3 12.8,2.8 14.5,5.3 C14.5,5.3 16.9,9.5 17.8,7.6 C18,8.3 18.1,9.1 18.1,9.9 L18.1,10.8 C16.1,10.6 13.3,8.3 10.4,5.6 L10.4,5.6 Z" id="Shape"></path>
            </g>
        </g>
    </g>
</svg>