<?xml version="1.0" encoding="UTF-8" standalone="no"?>
<svg width="16px" height="20px" viewBox="0 0 16 20" version="1.1" xmlns="http://www.w3.org/2000/svg" xmlns:xlink="http://www.w3.org/1999/xlink" xmlns:sketch="http://www.bohemiancoding.com/sketch/ns">
    <!-- Generator: Sketch 3.0.3 (7891) - http://www.bohemiancoding.com/sketch -->
    <title>hotel</title>
    <desc>Created with Sketch.</desc>
    <defs></defs>
    <g id="Page-1" stroke="none" stroke-width="1" fill="none" fill-rule="evenodd" sketch:type="MSPage">
        <g id="Icons-Maps" sketch:type="MSLayerGroup" transform="translate(-211.000000, -43.000000)" fill="#000000">
            <g id="hotel" transform="translate(211.000000, 43.000000)" sketch:type="MSShapeGroup">
                <path d="M13,2 L13,0 L3,0 L3,2 L0,2 L0,20 L6,20 L6,18 L10,18 L10,20 L16,20 L16,2 L13,2 L13,2 Z M7,15 L5,15 L5,13 L7,13 L7,15 L7,15 Z M7,11 L5,11 L5,9 L7,9 L7,11 L7,11 Z M7,7 L5,7 L5,5 L7,5 L7,7 L7,7 Z M11,15 L9,15 L9,13 L11,13 L11,15 L11,15 Z M11,11 L9,11 L9,9 L11,9 L11,11 L11,11 Z M11,7 L9,7 L9,5 L11,5 L11,7 L11,7 Z" id="Shape"></path>
            </g>
        </g>
    </g>
</svg>