<?xml version="1.0" encoding="UTF-8" standalone="no"?>
<svg width="18px" height="23px" viewBox="0 0 18 23" version="1.1" xmlns="http://www.w3.org/2000/svg" xmlns:xlink="http://www.w3.org/1999/xlink" xmlns:sketch="http://www.bohemiancoding.com/sketch/ns">
    <!-- Generator: Sketch 3.0.3 (7891) - http://www.bohemiancoding.com/sketch -->
    <title>person-location</title>
    <desc>Created with Sketch.</desc>
    <defs></defs>
    <g id="Page-1" stroke="none" stroke-width="1" fill="none" fill-rule="evenodd" sketch:type="MSPage">
        <g id="Icons-Maps" sketch:type="MSLayerGroup" transform="translate(-84.000000, -84.000000)" fill="#000000">
            <g id="person-location" transform="translate(84.000000, 84.500000)" sketch:type="MSShapeGroup">
                <path d="M16,0 L2,0 C0.9,0 0,0.9 0,2 L0,16 C0,17.1 0.9,18 2,18 L6,18 L9,21 L12,18 L16,18 C17.1,18 18,17.1 18,16 L18,2 C18,0.9 17.1,0 16,0 L16,0 Z M9,3.3 C10.5,3.3 11.7,4.5 11.7,6 C11.7,7.5 10.5,8.7 9,8.7 C7.5,8.7 6.3,7.5 6.3,6 C6.3,4.5 7.5,3.3 9,3.3 L9,3.3 Z M15,14 L3,14 L3,13.1 C3,11.1 7,10 9,10 C11,10 15,11.1 15,13.1 L15,14 L15,14 Z" id="Shape"></path>
            </g>
        </g>
    </g>
</svg>