<?xml version="1.0" encoding="UTF-8" standalone="no"?>
<svg width="20px" height="20px" viewBox="0 0 20 20" version="1.1" xmlns="http://www.w3.org/2000/svg" xmlns:xlink="http://www.w3.org/1999/xlink" xmlns:sketch="http://www.bohemiancoding.com/sketch/ns">
    <!-- Generator: Sketch 3.0.3 (7891) - http://www.bohemiancoding.com/sketch -->
    <title>satellite</title>
    <desc>Created with Sketch.</desc>
    <defs></defs>
    <g id="Page-1" stroke="none" stroke-width="1" fill="none" fill-rule="evenodd" sketch:type="MSPage">
        <g id="Icons-Maps" sketch:type="MSLayerGroup" transform="translate(-167.000000, -85.000000)" fill="#000000">
            <g id="satellite" transform="translate(167.000000, 85.000000)" sketch:type="MSShapeGroup">
                <path d="M10,0 C4.5,0 0,4.5 0,10 C0,15.5 4.5,20 10,20 C15.5,20 20,15.5 20,10 C20,4.5 15.5,0 10,0 L10,0 Z M12.5,8 L8.3,12.2 L6,10 L2.7,13.3 C2.3,12.3 2,11.2 2,10 C2,5.6 5.6,2 10,2 C14.4,2 18,5.6 18,10 C18,11 17.8,12 17.4,12.9 L12.5,8 L12.5,8 Z" id="Shape"></path>
            </g>
        </g>
    </g>
</svg>