<?xml version="1.0" encoding="UTF-8" standalone="no"?>
<svg width="22px" height="22px" viewBox="0 0 22 22" version="1.1" xmlns="http://www.w3.org/2000/svg" xmlns:xlink="http://www.w3.org/1999/xlink" xmlns:sketch="http://www.bohemiancoding.com/sketch/ns">
    <!-- Generator: Sketch 3.0.3 (7891) - http://www.bohemiancoding.com/sketch -->
    <title>cake</title>
    <desc>Created with Sketch.</desc>
    <defs></defs>
    <g id="Page-1" stroke="none" stroke-width="1" fill="none" fill-rule="evenodd" sketch:type="MSPage">
        <g id="Icons-Social" sketch:type="MSLayerGroup" fill="#000000">
            <g id="cake" sketch:type="MSShapeGroup">
                <path d="M11,4.5 C11.8,4.5 12.5,3.8 12.5,3 C12.5,2.7 12.4,2.5 12.3,2.2 L11,0 L9.7,2.2 C9.6,2.4 9.5,2.7 9.5,3 C9.5,3.8 10.2,4.5 11,4.5 L11,4.5 Z M17.5,7 L12,7 L12,5.5 L10,5.5 L10,7 L4.5,7 C2,7 0,9 0,11.5 C0,13.1 0.8,14.4 2,15.2 L2,22 L20,22 L20,15.2 C21.2,14.4 22,13 22,11.5 C22,9 20,7 17.5,7 L17.5,7 Z M17.5,14 C16.8,14 16.2,13.7 15.7,13.3 L14.2,11.8 L12.7,13.3 C12.3,13.7 11.7,14 11,14 C10.3,14 9.7,13.7 9.2,13.3 L7.7,11.8 L6.2,13.3 C5.8,13.7 5.2,14 4.5,14 C3.1,14 2,12.9 2,11.5 C2,10.1 3.1,9 4.5,9 L17.5,9 C18.9,9 20,10.1 20,11.5 C20,12.9 18.9,14 17.5,14 L17.5,14 Z" id="Shape"></path>
            </g>
        </g>
    </g>
</svg>