<?xml version="1.0" encoding="UTF-8" standalone="no"?>
<svg width="23px" height="23px" viewBox="0 0 23 23" version="1.1" xmlns="http://www.w3.org/2000/svg" xmlns:xlink="http://www.w3.org/1999/xlink" xmlns:sketch="http://www.bohemiancoding.com/sketch/ns">
    <!-- Generator: Sketch 3.0.3 (7891) - http://www.bohemiancoding.com/sketch -->
    <title>circles</title>
    <desc>Created with Sketch.</desc>
    <defs></defs>
    <g id="Page-1" stroke="none" stroke-width="1" fill="none" fill-rule="evenodd" sketch:type="MSPage">
        <g id="Icons-Social" sketch:type="MSLayerGroup" transform="translate(-42.000000, 0.000000)" fill="#000000">
            <g id="circles" transform="translate(42.500000, 0.500000)" sketch:type="MSShapeGroup">
                <path d="M14.7,14 C13.9,16.3 11.7,18 9,18 C5.7,18 3,15.3 3,12 C3,9.4 4.7,7.2 7,6.3 L7,6 C7,5 7.2,4 7.5,3.1 C3.3,3.8 0,7.5 0,12 C0,17 4,21 9,21 C13.5,21 17.2,17.7 17.9,13.5 C17,13.8 16,14 15,14 L14.7,14 L14.7,14 Z" id="Shape"></path>
                <path d="M15,0 C11.7,0 9,2.7 9,6 C9,9.3 11.7,12 15,12 C18.3,12 21,9.3 21,6 C21,2.7 18.3,0 15,0 L15,0 Z M15,9 C13.3,9 12,7.7 12,6 C12,4.3 13.3,3 15,3 C16.7,3 18,4.3 18,6 C18,7.7 16.7,9 15,9 L15,9 Z" id="Shape"></path>
            </g>
        </g>
    </g>
</svg>