<?xml version="1.0" encoding="UTF-8" standalone="no"?>
<svg width="20px" height="20px" viewBox="0 0 20 20" version="1.1" xmlns="http://www.w3.org/2000/svg" xmlns:xlink="http://www.w3.org/1999/xlink" xmlns:sketch="http://www.bohemiancoding.com/sketch/ns">
    <!-- Generator: Sketch 3.0.3 (7891) - http://www.bohemiancoding.com/sketch -->
    <title>communities</title>
    <desc>Created with Sketch.</desc>
    <defs></defs>
    <g id="Page-1" stroke="none" stroke-width="1" fill="none" fill-rule="evenodd" sketch:type="MSPage">
        <g id="Icons-Social" sketch:type="MSLayerGroup" transform="translate(-169.000000, -1.000000)" fill="#000000">
            <g id="communities" transform="translate(169.000000, 1.000000)" sketch:type="MSShapeGroup">
                <path d="M7,10 C5.9,10 5,10.9 5,12 C5,13.1 5.9,14 7,14 C8.1,14 9,13.1 9,12 C9,10.9 8.1,10 7,10 L7,10 Z M12,7 C12,5.9 11.1,5 10,5 C8.9,5 8,5.9 8,7 C8,8.1 8.9,9 10,9 C11.1,9 12,8.1 12,7 L12,7 Z M10,0 C4.5,0 0,4.5 0,10 C0,15.5 4.5,20 10,20 C15.5,20 20,15.5 20,10 C20,4.5 15.5,0 10,0 L10,0 Z M10,18 C5.6,18 2,14.4 2,10 C2,5.6 5.6,2 10,2 C14.4,2 18,5.6 18,10 C18,14.4 14.4,18 10,18 L10,18 Z M13,10 C11.9,10 11,10.9 11,12 C11,13.1 11.9,14 13,14 C14.1,14 15,13.1 15,12 C15,10.9 14.1,10 13,10 L13,10 Z" id="Shape"></path>
            </g>
        </g>
    </g>
</svg>