<?xml version="1.0" encoding="UTF-8" standalone="no"?>
<svg width="18px" height="21px" viewBox="0 0 18 21" version="1.1" xmlns="http://www.w3.org/2000/svg" xmlns:xlink="http://www.w3.org/1999/xlink" xmlns:sketch="http://www.bohemiancoding.com/sketch/ns">
    <!-- Generator: Sketch 3.0.3 (7891) - http://www.bohemiancoding.com/sketch -->
    <title>location-city</title>
    <desc>Created with Sketch.</desc>
    <defs></defs>
    <g id="Page-1" stroke="none" stroke-width="1" fill="none" fill-rule="evenodd" sketch:type="MSPage">
        <g id="Icons-Social" sketch:type="MSLayerGroup" transform="translate(-86.000000, -43.000000)" fill="#000000">
            <g id="location-city" transform="translate(86.000000, 43.500000)" sketch:type="MSShapeGroup">
                <path d="M12,9 L12,3 L9,0 L6,3 L6,5 L0,5 L0,19 L18,19 L18,9 L12,9 L12,9 Z M4,17 L2,17 L2,15 L4,15 L4,17 L4,17 Z M4,13 L2,13 L2,11 L4,11 L4,13 L4,13 Z M4,9 L2,9 L2,7 L4,7 L4,9 L4,9 Z M10,17 L8,17 L8,15 L10,15 L10,17 L10,17 Z M10,13 L8,13 L8,11 L10,11 L10,13 L10,13 Z M10,9 L8,9 L8,7 L10,7 L10,9 L10,9 Z M10,5 L8,5 L8,3 L10,3 L10,5 L10,5 Z M16,17 L14,17 L14,15 L16,15 L16,17 L16,17 Z M16,13 L14,13 L14,11 L16,11 L16,13 L16,13 Z" id="Shape"></path>
            </g>
        </g>
    </g>
</svg>