<?xml version="1.0" encoding="UTF-8" standalone="no"?>
<svg width="23px" height="20px" viewBox="0 0 23 20" version="1.1" xmlns="http://www.w3.org/2000/svg" xmlns:xlink="http://www.w3.org/1999/xlink" xmlns:sketch="http://www.bohemiancoding.com/sketch/ns">
    <!-- Generator: Sketch 3.0.3 (7891) - http://www.bohemiancoding.com/sketch -->
    <title>notifications-on</title>
    <desc>Created with Sketch.</desc>
    <defs></defs>
    <g id="Page-1" stroke="none" stroke-width="1" fill="none" fill-rule="evenodd" sketch:type="MSPage">
        <g id="Icons-Social" sketch:type="MSLayerGroup" transform="translate(-42.000000, -85.000000)" fill="#000000">
            <g id="notifications-on" transform="translate(42.500000, 85.000000)" sketch:type="MSShapeGroup">
                <path d="M5.6,1.6 L4.2,0.2 C1.8,2 0.2,4.8 0,8 L2,8 C2.2,5.3 3.5,3 5.6,1.6 L5.6,1.6 Z M19,8 L21,8 C20.8,4.8 19.3,2 16.9,0.2 L15.5,1.6 C17.5,3 18.8,5.3 19,8 L19,8 Z M17,8.5 C17,5.4 14.9,2.9 12,2.2 L12,1.5 C12,0.7 11.3,0 10.5,0 C9.7,0 9,0.7 9,1.5 L9,2.2 C6.1,2.9 4,5.4 4,8.5 L4,14 L2,16 L2,17 L19,17 L19,16 L17,14 L17,8.5 L17,8.5 Z M10.5,20 L10.9,20 C11.6,19.9 12.1,19.4 12.3,18.8 C12.4,18.6 12.5,18.3 12.5,18 L8.5,18 C8.5,19.1 9.4,20 10.5,20 L10.5,20 Z" id="Shape"></path>
            </g>
        </g>
    </g>
</svg>