<?xml version="1.0" encoding="UTF-8" standalone="no"?>
<svg width="18px" height="20px" viewBox="0 0 18 20" version="1.1" xmlns="http://www.w3.org/2000/svg" xmlns:xlink="http://www.w3.org/1999/xlink" xmlns:sketch="http://www.bohemiancoding.com/sketch/ns">
    <!-- Generator: Sketch 3.0.3 (7891) - http://www.bohemiancoding.com/sketch -->
    <title>notifications-off</title>
    <desc>Created with Sketch.</desc>
    <defs></defs>
    <g id="Page-1" stroke="none" stroke-width="1" fill="none" fill-rule="evenodd" sketch:type="MSPage">
        <g id="Icons-Social" sketch:type="MSLayerGroup" transform="translate(-2.000000, -85.000000)" fill="#000000">
            <g id="notifications-off" transform="translate(2.000000, 85.000000)" sketch:type="MSShapeGroup">
                <path d="M8.5,20 C9.6,20 10.5,19.1 10.5,18 L6.5,18 C6.5,19.1 7.4,20 8.5,20 L8.5,20 Z M15,8.5 C15,5.4 12.9,2.9 10,2.2 L10,1.5 C10,0.7 9.3,0 8.5,0 C7.7,0 7,0.7 7,1.5 L7,2.2 C6.5,2.3 6,2.5 5.6,2.7 L15,12.1 L15,8.5 L15,8.5 Z M14.7,17 L16.7,19 L18,17.7 L1.3,1 L0,2.3 L2.9,5.2 C2.3,6.2 2,7.3 2,8.5 L2,14 L0,16 L0,17 L14.7,17 L14.7,17 Z" id="Shape"></path>
            </g>
        </g>
    </g>
</svg>