<?xml version="1.0" encoding="UTF-8" standalone="no"?>
<svg width="16px" height="16px" viewBox="0 0 16 16" version="1.1" xmlns="http://www.w3.org/2000/svg" xmlns:xlink="http://www.w3.org/1999/xlink" xmlns:sketch="http://www.bohemiancoding.com/sketch/ns">
    <!-- Generator: Sketch 3.0.3 (7891) - http://www.bohemiancoding.com/sketch -->
    <title>person-outline</title>
    <desc>Created with Sketch.</desc>
    <defs></defs>
    <g id="Page-1" stroke="none" stroke-width="1" fill="none" fill-rule="evenodd" sketch:type="MSPage">
        <g id="Icons-Social" sketch:type="MSLayerGroup" transform="translate(-87.000000, -129.000000)" fill="#000000">
            <g id="person-outline" transform="translate(87.000000, 129.000000)" sketch:type="MSShapeGroup">
                <path d="M8,1.9 C9.2,1.9 10.1,2.8 10.1,4 C10.1,5.2 9.2,6.1 8,6.1 C6.8,6.1 5.9,5.2 5.9,4 C5.9,2.8 6.8,1.9 8,1.9 L8,1.9 Z M8,10.9 C11,10.9 14.1,12.4 14.1,13 L14.1,14.1 L1.9,14.1 L1.9,13 C1.9,12.4 5,10.9 8,10.9 L8,10.9 Z M8,0 C5.8,0 4,1.8 4,4 C4,6.2 5.8,8 8,8 C10.2,8 12,6.2 12,4 C12,1.8 10.2,0 8,0 L8,0 L8,0 Z M8,9 C5.3,9 0,10.3 0,13 L0,16 L16,16 L16,13 C16,10.3 10.7,9 8,9 L8,9 L8,9 Z" id="Shape"></path>
            </g>
        </g>
    </g>
</svg>