<?xml version="1.0" encoding="UTF-8" standalone="no"?>
<svg width="17px" height="20px" viewBox="0 0 17 20" version="1.1" xmlns="http://www.w3.org/2000/svg" xmlns:xlink="http://www.w3.org/1999/xlink" xmlns:sketch="http://www.bohemiancoding.com/sketch/ns">
    <!-- Generator: Sketch 3.0.3 (7891) - http://www.bohemiancoding.com/sketch -->
    <title>whatshot</title>
    <desc>Created with Sketch.</desc>
    <defs></defs>
    <g id="Page-1" stroke="none" stroke-width="1" fill="none" fill-rule="evenodd" sketch:type="MSPage">
        <g id="Icons-Social" sketch:type="MSLayerGroup" transform="translate(-213.000000, -211.000000)" fill="#000000">
            <g id="whatshot" transform="translate(213.500000, 211.000000)" sketch:type="MSShapeGroup">
                <path d="M9,0 C9,0 9.6,2.5 9.6,4.5 C9.6,6.4 8.3,8 6.4,8 C4.5,8 3,6.4 3,4.5 L3,4.2 C1.1,6.5 0,9.4 0,12.5 C0,16.6 3.4,20 7.5,20 C11.6,20 15,16.6 15,12.5 C15,7.4 12.7,2.9 9,0 L9,0 Z M7.5,17 C5.8,17 4.5,15.7 4.5,14.1 C4.5,12.6 5.5,11.5 7.1,11.2 C8.8,10.9 10.5,10.1 11.4,8.8 C11.8,10 12,11.3 12,12.6 C12,15 10,17 7.5,17 L7.5,17 Z" id="Shape"></path>
            </g>
        </g>
    </g>
</svg>