<?xml version="1.0" encoding="UTF-8" standalone="no"?>
<svg width="18px" height="18px" viewBox="0 0 18 18" version="1.1" xmlns="http://www.w3.org/2000/svg" xmlns:xlink="http://www.w3.org/1999/xlink" xmlns:sketch="http://www.bohemiancoding.com/sketch/ns">
    <!-- Generator: Sketch 3.0.3 (7891) - http://www.bohemiancoding.com/sketch -->
    <title>account-box</title>
    <desc>Created with Sketch.</desc>
    <defs></defs>
    <g id="Page-1" stroke="none" stroke-width="1" fill="none" fill-rule="evenodd" sketch:type="MSPage">
        <g id="Core" sketch:type="MSLayerGroup" transform="translate(-45.000000, -3.000000)" fill="#000000">
            <g id="account-box" transform="translate(45.000000, 3.000000)" sketch:type="MSShapeGroup">
                <path d="M0,2 L0,16 C0,17.1 0.9,18 2,18 L16,18 C17.1,18 18,17.1 18,16 L18,2 C18,0.9 17.1,0 16,0 L2,0 C0.9,0 0,0.9 0,2 L0,2 Z M12,6 C12,7.7 10.7,9 9,9 C7.3,9 6,7.7 6,6 C6,4.3 7.3,3 9,3 C10.7,3 12,4.3 12,6 L12,6 Z M3,14 C3,12 7,10.9 9,10.9 C11,10.9 15,12 15,14 L15,15 L3,15 L3,14 L3,14 Z" id="Shape"></path>
            </g>
        </g>
    </g>
</svg>