<?xml version="1.0" encoding="UTF-8" standalone="no"?>
<svg width="20px" height="24px" viewBox="0 0 20 24" version="1.1" xmlns="http://www.w3.org/2000/svg" xmlns:xlink="http://www.w3.org/1999/xlink" xmlns:sketch="http://www.bohemiancoding.com/sketch/ns">
    <!-- Generator: Sketch 3.0.3 (7891) - http://www.bohemiancoding.com/sketch -->
    <title>android</title>
    <desc>Created with Sketch.</desc>
    <defs></defs>
    <g id="Page-1" stroke="none" stroke-width="1" fill="none" fill-rule="evenodd" sketch:type="MSPage">
        <g id="Core" sketch:type="MSLayerGroup" transform="translate(-296.000000, 0.000000)" fill="#000000">
            <g id="android" transform="translate(296.000000, 0.000000)" sketch:type="MSShapeGroup">
                <path d="M4,18 C4,18.6 4.4,19 5,19 L6,19 L6,22.5 C6,23.3 6.7,24 7.5,24 C8.3,24 9,23.3 9,22.5 L9,19 L11,19 L11,22.5 C11,23.3 11.7,24 12.5,24 C13.3,24 14,23.3 14,22.5 L14,19 L15,19 C15.6,19 16,18.6 16,18 L16,8 L4,8 L4,18 L4,18 Z M1.5,8 C0.7,8 0,8.7 0,9.5 L0,16.5 C0,17.3 0.7,18 1.5,18 C2.3,18 3,17.3 3,16.5 L3,9.5 C3,8.7 2.3,8 1.5,8 L1.5,8 Z M18.5,8 C17.7,8 17,8.7 17,9.5 L17,16.5 C17,17.3 17.7,18 18.5,18 C19.3,18 20,17.3 20,16.5 L20,9.5 C20,8.7 19.3,8 18.5,8 L18.5,8 Z M13.5,2.2 L14.8,0.9 C15,0.7 15,0.4 14.8,0.2 C14.6,1.66533454e-16 14.3,1.66533454e-16 14.1,0.2 L12.6,1.7 C11.9,1.2 11,1 10,1 C9,1 8.1,1.2 7.3,1.6 L5.9,0.1 C5.7,0 5.3,0 5.1,0.1 C5,0.3 5,0.7 5.1,0.9 L6.4,2.2 C5,3.3 4,5 4,7 L16,7 C16,5 15,3.2 13.5,2.2 L13.5,2.2 Z M8,5 L7,5 L7,4 L8,4 L8,5 L8,5 Z M13,5 L12,5 L12,4 L13,4 L13,5 L13,5 Z" id="Shape"></path>
            </g>
        </g>
    </g>
</svg>