<?xml version="1.0" encoding="UTF-8" standalone="no"?>
<svg width="16px" height="16px" viewBox="0 0 16 16" version="1.1" xmlns="http://www.w3.org/2000/svg" xmlns:xlink="http://www.w3.org/1999/xlink" xmlns:sketch="http://www.bohemiancoding.com/sketch/ns">
    <!-- Generator: Sketch 3.0.3 (7891) - http://www.bohemiancoding.com/sketch -->
    <title>apps</title>
    <desc>Created with Sketch.</desc>
    <defs></defs>
    <g id="Page-1" stroke="none" stroke-width="1" fill="none" fill-rule="evenodd" sketch:type="MSPage">
        <g id="Core" sketch:type="MSLayerGroup" transform="translate(-340.000000, -4.000000)" fill="#000000">
            <g id="apps" transform="translate(340.000000, 4.000000)" sketch:type="MSShapeGroup">
                <path d="M0,4 L4,4 L4,0 L0,0 L0,4 L0,4 Z M6,16 L10,16 L10,12 L6,12 L6,16 L6,16 Z M0,16 L4,16 L4,12 L0,12 L0,16 L0,16 Z M0,10 L4,10 L4,6 L0,6 L0,10 L0,10 Z M6,10 L10,10 L10,6 L6,6 L6,10 L6,10 Z M12,0 L12,4 L16,4 L16,0 L12,0 L12,0 Z M6,4 L10,4 L10,0 L6,0 L6,4 L6,4 Z M12,10 L16,10 L16,6 L12,6 L12,10 L12,10 Z M12,16 L16,16 L16,12 L12,12 L12,16 L12,16 Z" id="Shape"></path>
            </g>
        </g>
    </g>
</svg>