<?xml version="1.0" encoding="UTF-8" standalone="no"?>
<svg width="16px" height="18px" viewBox="0 0 16 18" version="1.1" xmlns="http://www.w3.org/2000/svg" xmlns:xlink="http://www.w3.org/1999/xlink" xmlns:sketch="http://www.bohemiancoding.com/sketch/ns">
    <!-- Generator: Sketch 3.0.3 (7891) - http://www.bohemiancoding.com/sketch -->
    <title>bug-report</title>
    <desc>Created with Sketch.</desc>
    <defs></defs>
    <g id="Page-1" stroke="none" stroke-width="1" fill="none" fill-rule="evenodd" sketch:type="MSPage">
        <g id="Core" sketch:type="MSLayerGroup" transform="translate(-340.000000, -45.000000)" fill="#000000">
            <g id="bug-report" transform="translate(340.000000, 45.000000)" sketch:type="MSShapeGroup">
                <path d="M16,5 L13.2,5 C12.7,4.2 12.1,3.5 11.4,3 L13,1.4 L11.6,0 L9.4,2.2 C9,2.1 8.5,2 8,2 C7.5,2 7,2.1 6.6,2.2 L4.4,0 L3,1.4 L4.6,3 C3.9,3.5 3.3,4.2 2.8,5 L0,5 L0,7 L2.1,7 C2,7.3 2,7.7 2,8 L2,9 L0,9 L0,11 L2,11 L2,12 C2,12.3 2,12.7 2.1,13 L0,13 L0,15 L2.8,15 C3.8,16.8 5.8,18 8,18 C10.2,18 12.2,16.8 13.2,15 L16,15 L16,13 L13.9,13 C14,12.7 14,12.3 14,12 L14,11 L16,11 L16,9 L14,9 L14,8 C14,7.7 14,7.3 13.9,7 L16,7 L16,5 L16,5 Z M10,13 L6,13 L6,11 L10,11 L10,13 L10,13 Z M10,9 L6,9 L6,7 L10,7 L10,9 L10,9 Z" id="Shape"></path>
            </g>
        </g>
    </g>
</svg>