<?xml version="1.0" encoding="UTF-8" standalone="no"?>
<svg width="24px" height="16px" viewBox="0 0 24 16" version="1.1" xmlns="http://www.w3.org/2000/svg" xmlns:xlink="http://www.w3.org/1999/xlink" xmlns:sketch="http://www.bohemiancoding.com/sketch/ns">
    <!-- Generator: Sketch 3.0.3 (7891) - http://www.bohemiancoding.com/sketch -->
    <title>cloud-queue</title>
    <desc>Created with Sketch.</desc>
    <defs></defs>
    <g id="Page-1" stroke="none" stroke-width="1" fill="none" fill-rule="evenodd" sketch:type="MSPage">
        <g id="Core" sketch:type="MSLayerGroup" transform="translate(0.000000, -130.000000)" fill="#000000">
            <g id="cloud-queue" transform="translate(0.000000, 130.000000)" sketch:type="MSShapeGroup">
                <path d="M19.4,6 C18.7,2.6 15.7,0 12,0 C9.1,0 6.6,1.6 5.4,4 C2.3,4.4 0,6.9 0,10 C0,13.3 2.7,16 6,16 L19,16 C21.8,16 24,13.8 24,11 C24,8.4 21.9,6.2 19.4,6 L19.4,6 Z M19,14 L6,14 C3.8,14 2,12.2 2,10 C2,7.8 3.8,6 6,6 L6.7,6 C7.4,3.7 9.5,2 12,2 C15,2 17.5,4.5 17.5,7.5 L17.5,8 L19,8 C20.7,8 22,9.3 22,11 C22,12.7 20.7,14 19,14 L19,14 Z" id="Shape"></path>
            </g>
        </g>
    </g>
</svg>