<?xml version="1.0" encoding="UTF-8" standalone="no"?>
<svg width="18px" height="18px" viewBox="0 0 18 18" version="1.1" xmlns="http://www.w3.org/2000/svg" xmlns:xlink="http://www.w3.org/1999/xlink" xmlns:sketch="http://www.bohemiancoding.com/sketch/ns">
    <!-- Generator: Sketch 3.0.3 (7891) - http://www.bohemiancoding.com/sketch -->
    <title>flip-to-front</title>
    <desc>Created with Sketch.</desc>
    <defs></defs>
    <g id="Page-1" stroke="none" stroke-width="1" fill="none" fill-rule="evenodd" sketch:type="MSPage">
        <g id="Core" sketch:type="MSLayerGroup" transform="translate(-3.000000, -255.000000)" fill="#000000">
            <g id="flip-to-front" transform="translate(3.000000, 255.000000)" sketch:type="MSShapeGroup">
                <path d="M0,10 L2,10 L2,8 L0,8 L0,10 L0,10 Z M0,14 L2,14 L2,12 L0,12 L0,14 L0,14 Z M2,18 L2,16 L0,16 C0,17.1 0.9,18 2,18 L2,18 Z M0,6 L2,6 L2,4 L0,4 L0,6 L0,6 Z M12,18 L14,18 L14,16 L12,16 L12,18 L12,18 Z M16,0 L6,0 C4.9,0 4,0.9 4,2 L4,4 L4,6 L4,12 C4,13.1 4.9,14 6,14 L11,14 L15,14 L16,14 C17.1,14 18,13.1 18,12 L18,2 C18,0.9 17.1,0 16,0 L16,0 Z M16,12 L6,12 L6,2 L16,2 L16,12 L16,12 Z M8,18 L10,18 L10,16 L8,16 L8,18 L8,18 Z M4,18 L6,18 L6,16 L4,16 L4,18 L4,18 Z" id="Shape"></path>
            </g>
        </g>
    </g>
</svg>