<?xml version="1.0" encoding="UTF-8" standalone="no"?>
<svg width="19px" height="19px" viewBox="0 0 19 19" version="1.1" xmlns="http://www.w3.org/2000/svg" xmlns:xlink="http://www.w3.org/1999/xlink" xmlns:sketch="http://www.bohemiancoding.com/sketch/ns">
    <!-- Generator: Sketch 3.0.3 (7891) - http://www.bohemiancoding.com/sketch -->
    <title>gesture</title>
    <desc>Created with Sketch.</desc>
    <defs></defs>
    <g id="Page-1" stroke="none" stroke-width="1" fill="none" fill-rule="evenodd" sketch:type="MSPage">
        <g id="Core" sketch:type="MSLayerGroup" transform="translate(-296.000000, -255.000000)" fill="#000000">
            <g id="gesture" transform="translate(297.000000, 255.000000)" sketch:type="MSShapeGroup">
                <path d="M1.6,3.9 C2.3,3.2 3,2.5 3.3,2.7 C3.8,2.9 3.3,3.7 3,4.2 C2.7,4.6 0.1,8.1 0.1,10.5 C0.1,11.8 0.6,12.8 1.4,13.5 C2.2,14.1 3.1,14.2 4,14 C5.1,13.7 5.9,12.6 7.1,11.2 C8.3,9.7 9.9,7.8 11.2,7.8 C12.8,7.8 12.8,8.8 13,9.6 C9.2,10.2 7.6,13.3 7.6,15 C7.6,16.7 9,18.1 10.8,18.1 C12.4,18.1 15.1,16.8 15.5,12 L18,12 L18,9.5 L15.5,9.5 C15.3,7.9 14.4,5.3 11.5,5.3 C9.3,5.3 7.3,7.2 6.6,8.1 C6,8.8 4.5,10.6 4.3,10.8 C4,11.1 3.6,11.6 3.2,11.6 C2.8,11.6 2.5,10.8 2.8,9.7 C3.2,8.6 4.2,6.8 4.7,6.2 C5.4,5 5.9,4.2 5.9,2.9 C5.9,0.7 4.3,0 3.4,0 C2.1,0 1,1 0.7,1.3 C0.4,1.6 0.1,1.9 -0.2,2.2 L1.6,3.9 L1.6,3.9 Z M10.9,15.6 C10.6,15.6 10.2,15.3 10.2,14.9 C10.2,14.3 10.9,12.7 13.1,12.1 C12.7,14.8 11.6,15.6 10.9,15.6 L10.9,15.6 Z" id="Shape"></path>
            </g>
        </g>
    </g>
</svg>