<?xml version="1.0" encoding="UTF-8" standalone="no"?>
<svg width="18px" height="18px" viewBox="0 0 18 18" version="1.1" xmlns="http://www.w3.org/2000/svg" xmlns:xlink="http://www.w3.org/1999/xlink" xmlns:sketch="http://www.bohemiancoding.com/sketch/ns">
    <!-- Generator: Sketch 3.0.3 (7891) - http://www.bohemiancoding.com/sketch -->
    <title>invert-colors</title>
    <desc>Created with Sketch.</desc>
    <defs></defs>
    <g id="Page-1" stroke="none" stroke-width="1" fill="none" fill-rule="evenodd" sketch:type="MSPage">
        <g id="Core" sketch:type="MSLayerGroup" transform="translate(-129.000000, -297.000000)" fill="#000000">
            <g id="invert-colors" transform="translate(129.000000, 297.000000)" sketch:type="MSShapeGroup">
                <path d="M14,9 C14,6.2 11.8,4 9,4 L9,14 C11.8,14 14,11.8 14,9 L14,9 Z M16,0 L2,0 C0.9,0 0,0.9 0,2 L0,16 C0,17.1 0.9,18 2,18 L16,18 C17.1,18 18,17.1 18,16 L18,2 C18,0.9 17.1,0 16,0 L16,0 Z M16,16 L9,16 L9,14 C6.2,14 4,11.8 4,9 C4,6.2 6.2,4 9,4 L9,2 L16,2 L16,16 L16,16 Z" id="Shape"></path>
            </g>
        </g>
    </g>
</svg>