<?xml version="1.0" encoding="UTF-8" standalone="no"?>
<svg width="18px" height="10px" viewBox="0 0 18 10" version="1.1" xmlns="http://www.w3.org/2000/svg" xmlns:xlink="http://www.w3.org/1999/xlink" xmlns:sketch="http://www.bohemiancoding.com/sketch/ns">
    <!-- Generator: Sketch 3.0.3 (7891) - http://www.bohemiancoding.com/sketch -->
    <title>list</title>
    <desc>Created with Sketch.</desc>
    <defs></defs>
    <g id="Page-1" stroke="none" stroke-width="1" fill="none" fill-rule="evenodd" sketch:type="MSPage">
        <g id="Core" sketch:type="MSLayerGroup" transform="translate(-423.000000, -301.000000)" fill="#000000">
            <g id="list" transform="translate(423.000000, 301.000000)" sketch:type="MSShapeGroup">
                <path d="M0,6 L2,6 L2,4 L0,4 L0,6 L0,6 Z M0,10 L2,10 L2,8 L0,8 L0,10 L0,10 Z M0,2 L2,2 L2,0 L0,0 L0,2 L0,2 Z M4,6 L18,6 L18,4 L4,4 L4,6 L4,6 Z M4,10 L18,10 L18,8 L4,8 L4,10 L4,10 Z M4,0 L4,2 L18,2 L18,0 L4,0 L4,0 Z" id="Shape"></path>
            </g>
        </g>
    </g>
</svg>