<?xml version="1.0" encoding="UTF-8" standalone="no"?>
<svg width="24px" height="20px" viewBox="0 0 24 20" version="1.1" xmlns="http://www.w3.org/2000/svg" xmlns:xlink="http://www.w3.org/1999/xlink" xmlns:sketch="http://www.bohemiancoding.com/sketch/ns">
    <!-- Generator: Sketch 3.0.3 (7891) - http://www.bohemiancoding.com/sketch -->
    <title>markunread</title>
    <desc>Created with Sketch.</desc>
    <defs></defs>
    <g id="Page-1" stroke="none" stroke-width="1" fill="none" fill-rule="evenodd" sketch:type="MSPage">
        <g id="Core" sketch:type="MSLayerGroup" transform="translate(-42.000000, -338.000000)" fill="#000000">
            <g id="markunread" transform="translate(42.000000, 338.000000)" sketch:type="MSShapeGroup">
                <path d="M22,4 L24,2 L22,0 L20,2 L18,0 L16,2 L14,0 L12,2 L10,0 L8,2 L6,0 L4,2 L2,0 L0,2 L2,4 L0,6 L2,8 L0,10 L2,12 L0,14 L2,16 L0,18 L2,20 L4,18 L6,20 L8,18 L10,20 L12,18 L14,20 L16,18 L18,20 L20,18 L22,20 L24,18 L22,16 L24,14 L22,12 L24,10 L22,8 L24,6 L22,4 L22,4 Z M20,6 L12,11 L4,6 L4,4 L12,9 L20,4 L20,6 L20,6 Z" id="Shape"></path>
            </g>
        </g>
    </g>
</svg>