<?xml version="1.0" encoding="UTF-8" standalone="no"?>
<svg width="14px" height="22px" viewBox="0 0 14 22" version="1.1" xmlns="http://www.w3.org/2000/svg" xmlns:xlink="http://www.w3.org/1999/xlink" xmlns:sketch="http://www.bohemiancoding.com/sketch/ns">
    <!-- Generator: Sketch 3.0.3 (7891) - http://www.bohemiancoding.com/sketch -->
    <title>reminder</title>
    <desc>Created with Sketch.</desc>
    <defs></defs>
    <g id="Page-1" stroke="none" stroke-width="1" fill="none" fill-rule="evenodd" sketch:type="MSPage">
        <g id="Core" sketch:type="MSLayerGroup" transform="translate(-467.000000, -337.000000)" fill="#000000">
            <g id="reminder" transform="translate(467.000000, 337.000000)" sketch:type="MSShapeGroup">
                <path d="M11.9,12 C13.2,10.7 14,9 14,7 C14,3.1 10.9,0 7,0 C3.1,0 0,3.1 0,7 C0,9 0.8,10.7 2.1,12 L2.1,12 L5.6,15.5 L1,20.1 L2.4,21.5 L11.9,12 L11.9,12 Z M10.5,10.5 L10.5,10.5 L7,14.1 L3.5,10.6 C2.6,9.6 2,8.4 2,7 C2,4.2 4.2,2 7,2 C9.8,2 12,4.2 12,7 C12,8.4 11.4,9.6 10.5,10.5 L10.5,10.5 L10.5,10.5 Z M8.4,18.3 L11.6,21.5 L13,20.1 L9.8,16.9 L8.4,18.3 L8.4,18.3 Z" id="Shape"></path>
            </g>
        </g>
    </g>
</svg>