<?xml version="1.0" encoding="UTF-8" standalone="no"?>
<svg width="15px" height="24px" viewBox="0 0 15 24" version="1.1" xmlns="http://www.w3.org/2000/svg" xmlns:xlink="http://www.w3.org/1999/xlink" xmlns:sketch="http://www.bohemiancoding.com/sketch/ns">
    <!-- Generator: Sketch 3.0.3 (7891) - http://www.bohemiancoding.com/sketch -->
    <title>settings-bluetooth</title>
    <desc>Created with Sketch.</desc>
    <defs></defs>
    <g id="Page-1" stroke="none" stroke-width="1" fill="none" fill-rule="evenodd" sketch:type="MSPage">
        <g id="Core" sketch:type="MSLayerGroup" transform="translate(-551.000000, -378.000000)" fill="#000000">
            <g id="settings-bluetooth" transform="translate(551.500000, 378.000000)" sketch:type="MSShapeGroup">
                <path d="M6,24 L8,24 L8,22 L6,22 L6,24 L6,24 Z M2,24 L4,24 L4,22 L2,22 L2,24 L2,24 Z M10,24 L12,24 L12,22 L10,22 L10,24 L10,24 Z M12.7,5.7 L7,0 L6,0 L6,7.6 L1.4,3 L0,4.4 L5.6,10 L0,15.6 L1.4,17 L6,12.4 L6,20 L7,20 L12.7,14.3 L8.4,10 L12.7,5.7 L12.7,5.7 Z M8,3.8 L9.9,5.7 L8,7.6 L8,3.8 L8,3.8 Z M9.9,14.3 L8,16.2 L8,12.4 L9.9,14.3 L9.9,14.3 Z" id="Shape"></path>
            </g>
        </g>
    </g>
</svg>