<?xml version="1.0" encoding="UTF-8" standalone="no"?>
<svg width="18px" height="18px" viewBox="0 0 18 18" version="1.1" xmlns="http://www.w3.org/2000/svg" xmlns:xlink="http://www.w3.org/1999/xlink" xmlns:sketch="http://www.bohemiancoding.com/sketch/ns">
    <!-- Generator: Sketch 3.0.3 (7891) - http://www.bohemiancoding.com/sketch -->
    <title>settings-phone</title>
    <desc>Created with Sketch.</desc>
    <defs></defs>
    <g id="Page-1" stroke="none" stroke-width="1" fill="none" fill-rule="evenodd" sketch:type="MSPage">
        <g id="Core" sketch:type="MSLayerGroup" transform="translate(-45.000000, -423.000000)" fill="#000000">
            <g id="settings-phone" transform="translate(45.000000, 423.000000)" sketch:type="MSShapeGroup">
                <path d="M10,6 L8,6 L8,8 L10,8 L10,6 L10,6 Z M14,6 L12,6 L12,8 L14,8 L14,6 L14,6 Z M17,12.5 C15.8,12.5 14.6,12.3 13.4,11.9 C13.1,11.8 12.7,11.9 12.4,12.1 L10.2,14.3 C7.4,12.9 5.1,10.5 3.6,7.7 L5.8,5.5 C6.1,5.2 6.2,4.8 6,4.5 C5.7,3.4 5.5,2.2 5.5,1 C5.5,0.4 5.1,0 4.5,0 L1,0 C0.4,0 0,0.4 0,1 C0,10.4 7.6,18 17,18 C17.6,18 18,17.6 18,17 L18,13.5 C18,12.9 17.6,12.5 17,12.5 L17,12.5 Z M16,6 L16,8 L18,8 L18,6 L16,6 L16,6 Z" id="Shape"></path>
            </g>
        </g>
    </g>
</svg>