<?xml version="1.0" encoding="UTF-8" standalone="no"?>
<svg width="18px" height="22px" viewBox="0 0 18 22" version="1.1" xmlns="http://www.w3.org/2000/svg" xmlns:xlink="http://www.w3.org/1999/xlink" xmlns:sketch="http://www.bohemiancoding.com/sketch/ns">
    <!-- Generator: Sketch 3.0.3 (7891) - http://www.bohemiancoding.com/sketch -->
    <title>swap-driving-apps</title>
    <desc>Created with Sketch.</desc>
    <defs></defs>
    <g id="Page-1" stroke="none" stroke-width="1" fill="none" fill-rule="evenodd" sketch:type="MSPage">
        <g id="Core" sketch:type="MSLayerGroup" transform="translate(-507.000000, -421.000000)" fill="#000000">
            <g id="swap-driving-apps" transform="translate(507.000000, 421.000000)" sketch:type="MSShapeGroup">
                <circle id="Oval" cx="3.5" cy="15.5" r="1.5"></circle>
                <circle id="Oval" cx="14.5" cy="15.5" r="1.5"></circle>
                <path d="M15.9,7 C15.7,6.4 15.1,6 14.5,6 L13,6 L3,6 L3,4 L0,7 L2,9 L3,10 L3,8 L14.7,8 L16,12 L0,12 L0,21 C0,21.6 0.4,22 1,22 L2,22 C2.6,22 3,21.6 3,21 L3,20 L15,20 L15,21 C15,21.6 15.4,22 16,22 L17,22 C17.6,22 18,21.6 18,21 L18,13 L15.9,7 L15.9,7 Z M3.5,17 C2.7,17 2,16.3 2,15.5 C2,14.7 2.7,14 3.5,14 C4.3,14 5,14.7 5,15.5 C5,16.3 4.3,17 3.5,17 L3.5,17 Z M14.5,17 C13.7,17 13,16.3 13,15.5 C13,14.7 13.7,14 14.5,14 C15.3,14 16,14.7 16,15.5 C16,16.3 15.3,17 14.5,17 L14.5,17 Z M13,0 L13,2 L5,2 L5,4 L13,4 L13,6 L16,3 L13,0 L13,0 Z" id="Shape"></path>
            </g>
        </g>
    </g>
</svg>