<?xml version="1.0" encoding="UTF-8" standalone="no"?>
<svg width="20px" height="20px" viewBox="0 0 20 20" version="1.1" xmlns="http://www.w3.org/2000/svg" xmlns:xlink="http://www.w3.org/1999/xlink" xmlns:sketch="http://www.bohemiancoding.com/sketch/ns">
    <!-- Generator: Sketch 3.0.3 (7891) - http://www.bohemiancoding.com/sketch -->
    <title>swap-vert-circle</title>
    <desc>Created with Sketch.</desc>
    <defs></defs>
    <g id="Page-1" stroke="none" stroke-width="1" fill="none" fill-rule="evenodd" sketch:type="MSPage">
        <g id="Core" sketch:type="MSLayerGroup" transform="translate(-44.000000, -464.000000)" fill="#000000">
            <g id="swap-vert-circle" transform="translate(44.000000, 464.000000)" sketch:type="MSShapeGroup">
                <path d="M10,0 C4.5,0 0,4.5 0,10 C0,15.5 4.5,20 10,20 C15.5,20 20,15.5 20,10 C20,4.5 15.5,0 10,0 L10,0 Z M4.5,7 L8,3.5 L11.5,7 L9,7 L9,11 L7,11 L7,7 L4.5,7 L4.5,7 Z M15.5,13 L12,16.5 L8.5,13 L11,13 L11,9 L13,9 L13,13 L15.5,13 L15.5,13 Z" id="Shape"></path>
            </g>
        </g>
    </g>
</svg>